<?xml version="1.0" standalone="no"?>
<!DOCTYPE svg PUBLIC "-//W3C//DTD SVG 1.1//EN" "http://www.w3.org/Graphics/SVG/1.1/DTD/svg11.dtd" >
<svg>
<metadata>
Created by FontForge 20110222 at Tue Oct  4 21:05:19 2011
 By www-data
2011 Iconian Fonts - www.iconian.com
</metadata>
<defs>
<font id="HeroesAssemble3D" horiz-adv-x="185" >
  <font-face 
    font-family="Heroes Assemble 3D"
    font-weight="400"
    font-stretch="normal"
    units-per-em="1000"
    panose-1="0 0 0 0 0 0 0 0 0 0"
    ascent="800"
    descent="-200"
    x-height="700"
    cap-height="935"
    bbox="-99 -272 1317 1048"
    underline-thickness="50"
    underline-position="-75"
    unicode-range="U+0020-2122"
  />
    <missing-glyph />
    <glyph glyph-name="space" unicode=" " horiz-adv-x="251" 
 />
    <glyph glyph-name="space" unicode="&#xa0;" horiz-adv-x="251" 
 />
    <glyph glyph-name="FL0021h" unicode="!" 
d="M18 109h120v-109h-120v109zM18 685h120v-466h-120v466zM3 204h6l19 -19h144v490l-19 19v6h-150v-496zM3 -15h6l19 -19h144v133l-19 19v6h-150v-139z" />
    <glyph glyph-name="FL0022h" unicode="&#x22;" horiz-adv-x="325" 
d="M18 686h120v-109l-120 -99v208zM158 686h120v-109l-120 -99v208zM3 446l5 4l20 -20l115 94v-78l5 4l20 -20l144 119v127l-19 19v6h-290v-255z" />
    <glyph glyph-name="FL0023h" unicode="#" horiz-adv-x="469" 
d="M198 370v-42h44v42h-44zM75 215h-57v113h57v42h-57v113h57v202h123v-202h44v202h123v-202h57v-113h-57v-42h57v-113h-57v-215h-123v215h-44v-215h-123v215zM60 -15h6l19 -19h147v19h1l19 -19h147v215h57v137l-18 18h18v137l-19 19v6h-38v177l-19 19v6h-153v-20l-14 14v6
h-153v-202h-57v-143h6l12 -12h-18v-143h6l19 -19h32v-196z" />
    <glyph glyph-name="FL0024h" unicode="$" horiz-adv-x="339" 
d="M137 0h-119v108h163l-162 419v109q4 7 8 15.5t9.5 16t12.5 12.5t16 5h72v71h33v-71h122v-105h-165q35 -88 59 -150t40 -104.5t25.5 -67.5t14 -38.5t6 -18.5t2.5 -7l11 -17q2 -6 3 -12.5l1 -6.5q0 -2 1 -22t1 -41v-23q0 -6 -0.5 -18t-3.5 -24t-9 -21t-17 -9h-90v-77h-34
v77zM122 -92h6l19 -19h58v77h78q15 0 23.5 10.5t12.5 24.5t5 28t1 21v23q0 17 -0.5 32.5t-1.5 24.5v7q-1 9 -1.5 12t-4.5 13l-11 17q-2 4 -2 6q-3 7 -9.5 26.5t-21.5 60t-41 106.5t-66 168h160v129l-19 19v6h-103v46l-19 19v6h-63v-71h-57q-21 0 -32 -13.5t-19 -28.5
q-1 -1 -1 -2t-1 -2q-1 -2 -2 -3.5t-2 -3.5l1 1l-5 -8v-115l155 -402h-156v-138h6l19 -19h94v-58zM284 201l-2 -1v7q0 -4 2 -6z" />
    <glyph glyph-name="FL0025h" unicode="%" horiz-adv-x="518" 
d="M445 343q8 0 16 -8.5t10 -13.5v-300q-2 -5 -10 -13t-16 -8h-107q-8 0 -16.5 8t-10.5 13v300q2 5 10.5 13.5t16.5 8.5h107zM369 66q0 -2 0.5 -3t0.5 -2q2 -8 6 -9.5t11 -1.5h9q6 0 10 1.5t6 9.5q1 1 1 5v212q0 2 -1 3.5t-6 5.5q-7 4 -11 4h-9q-5 0 -9.5 -3.5t-6.5 -6.5
q0 -2 -0.5 -4.5t-0.5 -6.5v-198v-6zM152 684q8 0 16 -8.5t10 -13.5v-300q-2 -5 -10 -13t-16 -8h-107q-8 0 -16.5 8t-10.5 13v300q2 5 10.5 13.5t16.5 8.5h107zM76 407q0 -2 0.5 -3t0.5 -2q2 -8 6 -9.5t11 -1.5h9q6 0 10 1.5t6 9.5q1 1 1 5v212q0 2 -1 3.5t-6 5.5q-7 4 -11 4
h-9q-5 0 -9.5 -3.5t-6.5 -6.5q0 -2 -0.5 -4.5t-0.5 -6.5v-198v-6zM228 151v-151h-117v95q0 21 1 41t1 22l1 6.5t3 12.5l5 13q1 7 3.5 13.5t2.5 7.5l132 315q0 1 1.5 5t2.5 6q1 5 1.5 9t0.5 8q0 7 -0.5 14.5t-0.5 11.5v105h118v-158zM152 699h-107q-6 0 -13 -3.5t-13 -9
t-10.5 -11t-5.5 -9.5v-308q2 -6 10 -15t18 -14l8 -7q6 -6 13.5 -10.5t14.5 -4.5h84l-38 -92q-2 -3 -3.5 -10t-2.5 -13l-4 -10q-3 -8 -3.5 -11t-1.5 -12v-8q-1 -9 -1.5 -24.5t-0.5 -31.5v-110h6l19 -19h141v160l34 82v-191q2 -6 10 -14.5t18 -13.5l8 -8q6 -6 13.5 -10.5
t14.5 -4.5h107q12 0 23.5 11t14.5 19v306q-2 3 -4.5 7.5t-7.5 9.5l-8 7q-4 9 -16 20.5t-24 11.5h-88l60 144v173l-19 19v6h-148v-138q0 -2 0.5 -4t0.5 -4q0 -4 -1 -9v-4h-1q-1 -4 -3 -8l-34 -82v192q-2 3 -4.5 7.5t-7.5 9.5l-8 7q-4 9 -16 20.5t-24 11.5z" />
    <glyph glyph-name="FL0026h" unicode="&#x26;" horiz-adv-x="398" 
d="M136 123q5 -16 12.5 -19.5t20.5 -3.5h32v194h-66v-160q0 -10 1 -11zM72 0q-8 0 -16.5 4.5t-16 11.5t-13.5 14.5t-8 12.5v252q2 21 14.5 29.5t29.5 14.5h-2q-19 5 -29 16t-12 34v253q2 5 7.5 12.5t13 14t16 11.5t16.5 5h175v-102h-77q-13 -1 -20.5 -4.5t-12.5 -18.5
q-2 -8 -2 -10v-143h216v-113h-33v-294h-246zM169 534h1q4 9 8.5 11.5t13.5 3.5h89v126l-19 19v6h-190q-10 0 -21 -6.5t-21 -15.5t-17 -18.5t-9 -15.5v-256q3 -34 22 -50q-20 -12 -23 -42v-257q3 -9 15 -22.5t26 -21.5l3 -3q10 -11 23 -18.5t24 -7.5h258v294h33v137l-19 19v6
h-197v112zM169 260h17v-145h-17v145zM144 131l1 -2z" />
    <glyph glyph-name="FL0027h" unicode="'" 
d="M18 686h120v-109l-120 -99v208zM3 446l5 4l20 -20l144 119v127l-19 19v6h-150v-255z" />
    <glyph glyph-name="FL002Ah" unicode="(" horiz-adv-x="312" 
d="M45 -106q-15 9 -26.5 22.5t-15.5 22.5v804q2 6 9 15.5t17 18.5t21 15.5t21 6.5h209v-6l19 -19v-126h-108q-8 -1 -13 -3t-8 -10l-1 -8v-612h1h110v-6l19 -19v-123h-207q-11 0 -22.5 7t-21.5 17zM136 659q5 15 12.5 18.5t20.5 4.5h96v102h-194q-8 0 -16.5 -5t-16 -11.5
t-13 -14t-7.5 -12.5v-798q2 -5 7.5 -12.5t13 -14t15.5 -11t16 -4.5h195v99h-95q-13 0 -21 3.5t-13 19.5l-1 9v617z" />
    <glyph glyph-name="FL00A7h" unicode=")" horiz-adv-x="312" 
d="M147 659q-5 15 -12.5 18.5t-20.5 4.5h-96v102h194q8 0 16.5 -5t16 -11.5t13 -14t7.5 -12.5v-798q-2 -5 -7.5 -12.5t-13 -14t-16 -11t-15.5 -4.5h-195v99h95q13 0 21 3.5t13 19.5l1 9v617zM133 648v-615l-1 -7q-3 -8 -7.5 -9.5t-11.5 -1.5h-110v-129h6l19 -19h207
q9 0 19.5 5.5t19.5 13.5t15.5 17t9.5 15v802q-2 5 -8 13.5t-14 16.5h-1q-4 7 -11.5 15.5t-16 16t-18 12.5t-18.5 5h-209v-132h6l19 -19h105z" />
    <glyph glyph-name="asterisk" unicode="*" horiz-adv-x="227" 
d="M99 593l-24 -50l-41 34l37 42l-53 15l17 51l45 -27l-8 59h54l-7 -59l48 27l13 -52l-51 -13l35 -44l-43 -33zM115 519l3 2l20 -19l65 49l-18 22l-14 17l46 12l-20 79l-18 17l-2 10l-17 -10l2 9l-20 19l1 6h-88l6 -45l-35 20l-27 -84l8 -3l18 -17l9 -3l-21 -24l67 -57
l21 -17l11 22z" />
    <glyph glyph-name="FL002Bh" unicode="+" horiz-adv-x="333" 
d="M207 407h79v-113h-79v-49h-113v49h-76v113h76v48h113v-48zM222 470h-143v-48h-76v-143h6l19 -19h51v-30h6l19 -19h137v49h79v137l-19 19v6h-60v23l-19 19v6z" />
    <glyph glyph-name="FL002Ch" unicode="," 
d="M18 109h120v-109l-120 -99v208zM3 -131l5 4l20 -20l144 119v127l-19 19v6h-150v-255z" />
    <glyph glyph-name="FL002Dh" unicode="-" horiz-adv-x="275" 
d="M228 407v-113h-210v113h210zM3 422v-143h6l19 -19h234v137l-19 19v6h-240z" />
    <glyph glyph-name="FL002Eh" unicode="." 
d="M18 109h120v-109h-120v109zM3 -15h6l19 -19h144v133l-19 19v6h-150v-139z" />
    <glyph glyph-name="FL002Fh" unicode="/" horiz-adv-x="337" 
d="M9 -15h-6v110q0 17 0.5 32.5t1.5 24.5v7q1 9 1.5 12t3.5 11l4 10q1 6 2.5 13t3.5 10l133 318q2 4 3 8h1v4q1 5 1 9q0 2 -0.5 4t-0.5 4v138h148v-6l19 -19v-173l-155 -376v-160h-141zM290 527v158h-118v-105q0 -4 0.5 -11.5t0.5 -14.5q0 -4 -0.5 -8t-1.5 -9q-1 -2 -2.5 -6
t-1.5 -5l-132 -315q0 -1 -2.5 -7.5t-3.5 -13.5l-5 -13q-2 -6 -3 -12.5l-1 -6.5q0 -2 -1 -22t-1 -41v-95h117v151z" />
    <glyph glyph-name="FL006Fh" unicode="0" horiz-adv-x="385" 
d="M285 686q8 0 16.5 -5t16 -11.5t13 -14t7.5 -12.5v-600q-2 -5 -7.5 -12.5t-13 -14.5t-16 -11.5t-16.5 -4.5h-214q-8 0 -16.5 4.5t-16 11.5t-13 14.5t-7.5 12.5v600q2 5 7.5 12.5t13 14t16 11.5t16.5 5h214zM134 132q0 -7 2 -9q5 -16 12.5 -19.5t20.5 -3.5h18
q13 0 20.5 3.5t12.5 19.5q2 2 2 9v424q0 5 -2 8.5t-13 11.5q-7 4 -12 5t-9 1h-18q-10 0 -20 -6.5t-12 -12.5q-1 -4 -1.5 -9t-0.5 -13v-397v-12zM285 701h-214q-10 0 -21 -6.5t-21 -15.5t-17 -18.5t-9 -15.5v-606q4 -10 16 -24t27 -22l3 -3q10 -10 21.5 -17t22.5 -7h214
q10 0 20.5 5.5t19.5 14t15.5 17.5t9.5 15v604q-2 5 -8 13.5t-14 16.5h-1q-4 7 -11.5 15.5t-16 16t-18 12.5t-18.5 5zM168 519q0 7 0.5 11.5t1.5 8.5q2 3 8 6t12 3h17v-416q0 -1 -1 -3q-4 -10 -7.5 -12t-11.5 -2h-18h-1v404z" />
    <glyph glyph-name="FL0031h" unicode="1" horiz-adv-x="234" 
d="M65 685h122v-685h-122v576h-47zM-5 561h8l19 -19h28v-557h6l19 -19h146v709l-19 19v6h-147z" />
    <glyph glyph-name="FL0032h" unicode="2" horiz-adv-x="339" 
d="M9 565h-6v135h242q11 0 18.5 -7.5t12.5 -18.5l8 -7q11 -11 18 -33t13 -42q3 -11 5.5 -20t4.5 -14h1v-56l-152 -373v-5h133v-6l19 -19v-133h-255q-14 0 -23 9l-13 13q-11 4 -17.5 15.5t-9.5 24.5t-3.5 25t-0.5 19v23q0 17 0.5 32.5t1.5 24.5v7q1 9 1.5 12t3.5 11l5 13
q2 5 3.5 11.5t1.5 8.5l133 318l1.5 3t1.5 4v2q0 1 0.5 1.5t0.5 2.5h-130zM142 109l-2 6v39l152 373v50q-4 7 -8.5 24.5t-10 36t-12.5 33t-16 14.5h-227v-105h155q2 0 2 -12q0 -8 -0.5 -17.5t-2.5 -13.5q-1 -2 -2.5 -6t-1.5 -5l-132 -315q0 -1 -2 -7.5t-4 -13.5l-5 -13
q-2 -6 -3 -12.5l-1 -6.5q0 -2 -1 -22t-1 -41v-23q0 -6 0.5 -18t3.5 -24t9 -21t17 -9h243v109h-150z" />
    <glyph glyph-name="FL0033h" unicode="3" horiz-adv-x="343" 
d="M179 550q0 2 -2 10q-5 15 -12.5 18.5t-20.5 4.5h-126v102h224q8 0 16.5 -5t16 -11.5t13 -14t7.5 -12.5v-253q-2 -23 -12 -34t-29 -16h-2q17 -6 29.5 -14.5t14.5 -29.5v-252q-2 -5 -8 -12.5t-13.5 -14.5t-16 -11.5t-16.5 -4.5h-224v100h127q13 0 20.5 3.5t12.5 19.5
q1 1 1 11v160h-161v113h161v143zM28 -34h236q10 0 20.5 5.5t19.5 14t16 17.5t10 15v256q-3 23 -14 34q-1 0 -3 2l3 -2l-4 3l-6 6q19 14 23 49v255q-2 5 -8 13.5t-14 16.5h-1q-4 7 -11.5 15.5t-16 16t-18 12.5t-18.5 5h-239v-132h6l19 -19h136v-127h-161v-143h6l19 -19h136
v-131q-4 -10 -7.5 -12t-11.5 -2h-142v-130h6z" />
    <glyph glyph-name="FL0034h" unicode="4" horiz-adv-x="387" 
d="M169 422h39v278h147v-6l19 -19v-709h-141l-19 19h-6v275h-180l-19 19h-6v421h147v-6l19 -19v-253zM223 294v-294h117v685h-117v-278h-88v278h-117v-391h205z" />
    <glyph glyph-name="FL0035h" unicode="5" horiz-adv-x="339" 
d="M168 109l2 6v39l-152 373v158h274v-105h-155q-2 0 -2 -12q0 -8 0.5 -17.5t2.5 -13.5q1 -2 2.5 -6t1.5 -5l132 -315q0 -1 2 -7.5t4 -13.5l5 -13q2 -6 3 -12.5l1 -6.5q0 -2 1 -22t1 -41v-23q0 -6 -0.5 -18t-3.5 -24t-9 -21t-17 -9h-243v109h150zM3 124v-139h6l19 -19h255
q15 0 23.5 10.5t12.5 24.5t5 28t1 21v23q0 17 -0.5 32.5t-1.5 24.5v7q-1 8 -1.5 11t-3.5 11l-5 13q-2 5 -3.5 11.5t-1.5 8.5l-133 317l-1 1q0 1 -2 7v1h-1q-2 5 -2 12v16h157v129l-19 19v6h-304v-177l152 -374v-25h-152z" />
    <glyph glyph-name="FL0036h" unicode="6" horiz-adv-x="383" 
d="M134 296v-154l1 -3q6 -20 23 -23.5t32 -3.5h9q8 0 14 1.5t6 10.5v172h-85zM157 0q-12 3 -31 4t-38.5 8.5t-37 24.5t-27.5 52l-5 18v378q1 8 8 26.5t18 40.5t24.5 45.5t27 43t25.5 32t20 12.5h195v-106h-112q-9 0 -24.5 -22t-30 -50.5t-25 -56t-10.5 -39.5v-4h200v-319
l-4 -24q-6 -8 -19 -19t-30 -21.5t-36.5 -17.5t-38.5 -7h-25q-8 0 -15.5 0.5t-8.5 0.5zM246 545h124v130l-19 19v6h-210q-10 0 -23.5 -13.5t-28.5 -34t-30 -45.5t-27 -49t-20 -43.5t-9 -28.5v-383l5 -18q8 -31 22 -49t31 -28l5 -5q20 -20 45 -26t45 -8q12 -2 21 -3h4
q3 0 9.5 -0.5t12.5 -0.5h25q21 0 42 8t39.5 19.5t32.5 23.5t21 21l5 27v333l-19 19v6h-173q6 18 15 39t19 40t19.5 31.5t16.5 12.5zM190 127q-5 0 -11 -0.5t-11 1.5v134h36v-135h-14zM174 111q-4 2 -5 4z" />
    <glyph glyph-name="FL0037h" unicode="7" horiz-adv-x="338" 
d="M19 0v95q0 21 1 41t1 22l1 6.5t3 12.5l5 13q1 7 3.5 13.5t2.5 7.5l132 315q0 1 1.5 5t2.5 6q2 4 2.5 13.5t0.5 17.5q0 12 -2 12h-155v105h273v-158l-150 -373v-154h-122zM28 546h130q0 -2 -0.5 -2.5t-0.5 -1.5v-2q-1 -3 -1.5 -4l-1.5 -3l-133 -318q-2 -3 -3.5 -10
t-2.5 -13l-4 -10q-3 -8 -3.5 -11t-1.5 -12v-7q-1 -9 -1.5 -24.5t-0.5 -32.5v-110h6l19 -19h146v164l150 373v172l-19 19v6h-303v-135h6z" />
    <glyph glyph-name="FL0038h" unicode="8" horiz-adv-x="390" 
d="M135 407h91v143q0 2 -2 10q-5 14 -12 18t-18 5h-24q-13 -1 -20.5 -4.5t-12.5 -18.5q-2 -8 -2 -10v-143zM199 100q9 1 15.5 5t10.5 18q1 1 1 11v160h-91v-160q0 -10 1 -11q4 -14 10 -18t15 -5h1h37zM289 685q8 0 16.5 -5t16 -11.5t13 -14t7.5 -12.5v-253q-2 -23 -12.5 -34
t-30.5 -16q17 -6 29.5 -14.5t14.5 -29.5v-252q-2 -5 -8 -12.5t-13.5 -14.5t-16 -11.5t-16.5 -4.5h-217q-8 0 -16.5 4.5t-16 11.5t-13.5 14.5t-8 12.5v252q2 21 14.5 29.5t29.5 14.5h-2q-19 5 -29 16t-12 34v253q2 5 7.5 12.5t13 14t16 11.5t16.5 5h217zM363 308q-1 0 -3 2
l3 -2l-4 3l-6 6q19 14 23 49v255q-2 5 -8 13.5t-14 16.5h-1q-4 7 -11.5 15.5t-16 16t-18 12.5t-18.5 5h-217q-10 0 -21 -6.5t-21 -15.5t-17 -18.5t-9 -15.5v-256q3 -34 22 -50q-20 -12 -23 -42v-257q3 -9 15 -22.5t26 -21.5l3 -3q10 -11 23 -18.5t24 -7.5h217q10 0 20.5 5.5
t19.5 14t16 17.5t10 15v256q-3 23 -14 34zM198 115h-29v145h42v-126q0 -5 -1 -6q-3 -9 -5.5 -10.5t-6.5 -2.5zM169 534h1q4 10 9 12t14 3h18v-127h-42v112z" />
    <glyph glyph-name="FL0039h" unicode="9" horiz-adv-x="383" 
d="M220 388v154l-1 3q-6 20 -23 23.5t-32 3.5h-9q-8 0 -14 -1.5t-6 -10.5v-172h85zM164 686q26 0 52 -2t48.5 -11t40 -27t26.5 -51l5 -18v-378q-1 -9 -8 -27t-18 -40t-24.5 -45.5t-26.5 -42.5t-25.5 -31.5t-20.5 -12.5h-195v106h112q9 0 24.5 21.5t30 50t25 56t10.5 39.5v4
h-200v319l4 24q6 8 19 19t30 21.5t36.5 17.5t38.5 7zM163 701l-16 -1q-21 0 -42.5 -8.5t-40 -20t-33 -24t-21.5 -21.5l-5 -27v-337h6l19 -19h168q-6 -18 -15 -39t-18.5 -39.5t-19 -31t-15.5 -12.5h-127v-136h6l19 -19h207q9 0 22.5 13t28.5 33t29.5 45t26 48t19.5 42.5
t9 28.5v382l-5 18q-6 20 -14.5 35t-19.5 26l-2 1q-14 22 -32.5 35t-40.5 19t-45.5 7.5t-46.5 1.5h-1zM169 538h17h9q5 0 10 -1v-134h-36v135z" />
    <glyph glyph-name="FL003Ah" unicode=":" 
d="M18 403h120v-109h-120v109zM18 109h120v-109h-120v109zM3 -15h6l19 -19h144v133l-19 19v6h-150v-139zM3 279h6l19 -19h144v133l-19 19v6h-150v-139z" />
    <glyph glyph-name="FL003Bh" unicode=";" 
d="M18 109h120v-109l-120 -99v208zM18 403h120v-109h-120v109zM3 -131l5 4l20 -20l144 119v127l-19 19v6h-150v-255zM3 279h6l19 -19h144v133l-19 19v6h-150v-139z" />
    <glyph glyph-name="FL003Ch" unicode="&#x3c;" horiz-adv-x="337" 
d="M158 146l-17 43l-142 151l139 177l19 40v143h148v-6l19 -19v-174l-129 -178l93 -106v-2l19 -21q0 -2 1.5 -9.5t3.5 -12.5l5 -13q3 -8 3.5 -11t1.5 -11v-7q1 -9 1.5 -24.5t0.5 -32.5v-107h-141l-19 19h-6v161zM173 0h117v95q0 21 -1 41t-1 22l-1 6.5t-3 12.5l-5 13
q-2 7 -4 13.5t-2 7.5l-115 133l132 183v158h-118v-105q0 -4 0.5 -11.5t0.5 -14.5l-21 -42l-134 -171l136 -144l19 -46v-151z" />
    <glyph glyph-name="FL003Dh" unicode="=" horiz-adv-x="349" 
d="M302 483v-113h-284v113h284zM302 328v-113h-284v113h284zM3 498v-143h6l12 -12h-18v-143h6l19 -19h308v137l-18 18h18v137l-19 19v6h-314z" />
    <glyph glyph-name="FL003Eh" unicode="&#x3e;" horiz-adv-x="337" 
d="M135 0h-117v95q0 21 1 41t1 22l1 6.5t3 12.5l5 13q2 7 4 13.5t2 7.5l115 133l-132 183v158h118v-105q0 -4 -0.5 -11.5t-0.5 -14.5l21 -42l134 -171l-136 -144l-19 -46v-151zM28 -34h141v160l17 42l141 150l-140 179l2 -2l-20 40q0 3 0.5 7t0.5 7v126l-19 19v6h-148v-178
l128 -178l-111 -127q0 -2 -1.5 -9.5t-3.5 -12.5l-5 -13q-3 -8 -3.5 -11t-1.5 -12v-7q-1 -9 -1.5 -24.5t-0.5 -32.5v-110h6z" />
    <glyph glyph-name="FL003Fh" unicode="?" horiz-adv-x="338" 
d="M18 109h120v-109h-120v109zM21 159q0 -1 1 5.5t3 12.5l5 13q2 7 4 13.5t2 7.5l132 315q0 1 1.5 5t2.5 6q2 4 2.5 13.5t0.5 17.5q0 12 -2 12h-155v105h227q9 0 16 -5t12 -12.5t9.5 -16t8.5 -15.5v-109l-158 -368h-112zM28 546h130q0 -2 -0.5 -2.5t-0.5 -1.5v-2
q-1 -3 -1.5 -4l-1.5 -3l-133 -318q0 -2 -1.5 -8.5t-3.5 -11.5l-5 -13q-2 -6 -3.5 -12.5t-1.5 -9.5v-16h6l19 -19h132l162 377v116q-5 6 -7 11q-5 8 -10 17t-12 16l-5 4q-8 14 -18.5 24t-27.5 10h-242v-135h6zM3 -15h6l19 -19h144v133l-19 19v6h-150v-139z" />
    <glyph glyph-name="FL00ABh" unicode="@" horiz-adv-x="627" 
d="M312 581l-3 -2l-91 -353h174zM249 921h115l216 -921h-134l-31 101h-217l-94 -339h-154zM-70 -253h7l19 -19h180l93 339h181l25 -82h5l19 -19h159l-222 945l-17 17l-2 8h-140zM372 241h-110l59 228z" />
    <glyph glyph-name="A" unicode="A" horiz-adv-x="626" 
d="M387 293l-22 18l-5 12l-39 151l-61 -234h108l-13 69l167 -136l1 -6l18 -17v-1l9 11l-160 130zM440 -15h-6v17v6q0 4 1 7q0 2 0.5 4t0.5 4l6 7l-17 17l-4 -4l-5 24h-188l-93 -339h-180l-19 19h-7l307 1189h140l2 -8l17 -17l180 -771l-4 2l4 -3l42 -173h-158zM451 18
q-1 -6 -1.5 -10t-0.5 -6v-2h130l-32 134zM103 -238l94 339h228l5 -26l79 87l-1 4l-130 106l9 -47h-171l92 354l2 2l65 -255l3 -7l155 -125l-170 727h-115l-299 -1159h154z" />
    <glyph glyph-name="FL0042h" unicode="B" horiz-adv-x="448" 
d="M250 365h-64v-250h40q9 0 14 2t10 12v236zM185 527h65v257h-65v-257zM3 936h334q9 0 20 -5t21.5 -12.5t19.5 -16.5t13 -17l7 -6q11 -12 15 -22v-386q-3 -32 -23 -48q0 -1 1 -2l10 -9q11 -11 14 -32v-362q-4 -6 -12.5 -15t-19 -17.5t-22.5 -14t-22 -5.5h-331l-19 19h-6
v951zM265 512h-114v306h74q14 0 22.5 -3.5t15.5 -18.5l2 -10v-13v-261zM265 399v-265q0 -10 -1 -11q-7 -16 -15.5 -19.5t-22.5 -3.5h-74v299h113zM18 0h319q9 0 19 4.5t19 11.5t16 14.5t10 12.5v358q-2 20 -16.5 28.5t-34.5 15.5h3q21 5 33 15.5t13 32.5v385q-2 6 -9 13
t-16 14t-19 11.5t-18 4.5h-319v-921z" />
    <glyph glyph-name="FL0043h" unicode="C" horiz-adv-x="432" 
d="M402 121l19 -19v-136h-179q-24 0 -49 0.5t-48 4.5t-44 13t-37 25l-2 2q-19 11 -32.5 28.5t-21.5 45.5l-5 18v620q1 9 10 28.5t22.5 43.5t30.5 49t34 45.5t33 34t27 13.5h240v-6l19 -19v-130h-142q-9 0 -24.5 -20.5t-30.5 -47t-26 -52t-11 -36.5v-496q8 -2 15.5 -2.5
t15.5 -0.5h186v-6zM387 112h-171q-16 0 -35.5 3.5t-27.5 23.5l-2 3v506q0 8 6 23.5t15 34t20.5 38t23 35.5t22 26.5t17.5 10.5h130v106h-225q-10 0 -24 -12.5t-29.5 -32t-31 -43t-28 -45.5t-20.5 -40.5t-9 -26.5v-615l5 -18q9 -33 30 -51.5t48 -26.5t58 -9.5t61 -1.5h167
v112z" />
    <glyph glyph-name="FL0044h" unicode="D" horiz-adv-x="435" 
d="M237 132v654h-51v-672h26q8 0 14 1.5t10 9.5zM3 4v933h324q11 0 22.5 -5.5t22 -14t19 -17.5t12.5 -15v-2l3 -3q11 -12 16 -19v-844q-4 -6 -12 -15t-18 -17.5t-21.5 -14t-22.5 -5.5h-336l-19 19h-10zM252 131l-1 -9q-6 -16 -15.5 -19.5t-23.5 -3.5h-60v721h62
q14 0 23 -3.5t14 -18.5q1 -1 1 -8v-647v-12zM18 -1h308q9 0 18.5 4.5t18.5 11.5t15.5 14.5t9.5 12.5v838q-3 5 -10 12.5t-15 14t-17.5 11t-18.5 4.5h-309v-922h1z" />
    <glyph glyph-name="FL0045h" unicode="E" horiz-adv-x="356" 
d="M18 922h291v-105h-148v-304h147v-114h-150v-290h151v-109h-291v922zM3 -15h6l19 -19h315v133l-19 19v6h-132v241h150v138l-19 19v6h-128v255h148v129l-19 19v6h-321v-952z" />
    <glyph glyph-name="FL0046h" unicode="F" horiz-adv-x="356" 
d="M19 922h290v-105h-148v-304h147v-114h-149v-636h-140v1159zM4 -252h6l19 -19h164v636h149v138l-19 19v6h-128v255h148v129l-19 19v6h-320v-1189z" />
    <glyph glyph-name="FL0047h" unicode="G" horiz-adv-x="432" 
d="M220 0q-30 0 -60.5 1.5t-57 10t-47.5 26.5t-32 51l-5 18v615q1 8 9 26.5t20.5 40.5t28 45.5t31 43t29.5 32t24 12.5h225v-106h-130q-7 0 -17.5 -10.5t-22 -26.5t-23 -35.5t-20.5 -38t-15 -34t-6 -23.5v-506l2 -3q8 -20 27.5 -23.5t35.5 -3.5h13q7 0 13.5 1t6.5 9v282h-40
v108h174v-512l-142 -54v54h-21zM219 370h15v-243h-18q-8 0 -15.5 0.5t-15.5 2.5v496q0 11 11 36.5t26 52t30.5 47t24.5 20.5h142v130l-19 19v6h-240q-11 0 -27 -13.5t-33 -34t-34 -45.5t-30.5 -49t-22.5 -43.5t-10 -28.5v-620l5 -19q8 -26 21.5 -43t30.5 -28l4 -3
q15 -15 33.5 -24t39.5 -13.5t43.5 -5.5t45.5 -1v-42l6 2l19 -19l166 63v532l-19 19v6h-204v-138h6z" />
    <glyph glyph-name="FL0048h" unicode="H" horiz-adv-x="436" 
d="M186 527h52v409h165v-6l19 -19v-945h-158l-19 19h-6v380h-54v-637h-158l-19 19h-6v1189h165v-6l19 -19v-384zM254 399v-399h134v921h-135v-409h-101v409h-135v-1159h134v637h103z" />
    <glyph glyph-name="FL0049h" unicode="I" horiz-adv-x="207" 
d="M3 935h172v-6l19 -19v-944h-166l-19 19h-6v950zM18 0h142v920h-142v-920z" />
    <glyph glyph-name="FL004Ah" unicode="J" horiz-adv-x="435" 
d="M165 408l19 -19v-274h7h28q6 1 9.5 2.5t7.5 8.5v2q0 1 0.5 1.5t0.5 2.5v803h166v-6l19 -19v-892q-4 -6 -12 -15t-18 -17.5t-21.5 -14t-22.5 -5.5h-248q-14 0 -30 9.5t-27 20.5l-3 3q-14 8 -24.5 20t-12.5 20v375h162v-6zM150 399h-132v-356q1 -5 7 -12.5t15 -14.5
t19 -11.5t19 -4.5h248q9 0 18.5 4.5t18.5 11.5t15.5 14.5t9.5 12.5v877h-136v-788q0 -3 -0.5 -5.5t-0.5 -3.5q-6 -14 -13 -18t-18 -5h-29q-15 0 -23.5 3.5t-15.5 19.5q-2 2 -2 9v12v255z" />
    <glyph glyph-name="FL004Bh" unicode="K" horiz-adv-x="426" 
d="M373 309v-1h1zM185 554l41 87q2 4 2 11v284h165v-6l19 -19v-305l-83 -178l64 -133v-2q0 -1 1 -3h1l1 -3h-1q2 -2 3.5 -6t3.5 -6l4 -14l-1 1q3 -7 5 -15t2 -9v-7q0 -8 0.5 -23.5t0.5 -30.5v-211h-160l-19 19h-6v265l-42 88v-610h-158l-19 19h-6v1189h163v-6l19 -19v-357z
M175 397l68 -142v-255h136v199q0 20 -0.5 39.5t-0.5 21.5q0 1 -1.5 8t-4.5 12l-4 14q-3 7 -6 13t-3 7l-65 136l84 181v290h-135v-269q0 -8 -1 -12.5t-4 -9.5l-57 -120h-30v411h-133v-1159h134v635h23z" />
    <glyph glyph-name="FL004Ch" unicode="L" horiz-adv-x="356" 
d="M160 922v-818h149v-105h-291v923h142zM3 937v-953h6l19 -19h315v129l-19 19v6h-130v793l-19 19v6h-172z" />
    <glyph glyph-name="FL004Dh" unicode="M" horiz-adv-x="632" 
d="M17 920h133l152 -636l148 636h134v-920h-126v434l-111 -434h-96l-109 434v-672h-125v1158zM2 -253h6l19 -19h149v507l63 -250h5l19 -19h116l64 250v-231h6l19 -19h150v944l-19 19v6h-162l-129 -556l-126 531l-17 17l-2 8h-161v-1188z" />
    <glyph glyph-name="FL004Eh" unicode="N" horiz-adv-x="457" 
d="M18 922h133l117 -389v389h142v-922h-132l-118 434v-672h-142v1160zM3 -253h6l19 -19h166v522l72 -265h5l19 -19h154v946l-19 19v6h-172v-264l-72 239l-18 18l-2 7h-158v-1190z" />
    <glyph glyph-name="FL0050h" unicode="O" horiz-adv-x="463" 
d="M265 648q-2 9 -11 31.5t-22 48.5q-18 -28 -31.5 -58t-15.5 -42v-377q2 -11 11.5 -33.5t22.5 -47.5q9 15 17 30t14 29t10 25.5t5 18.5v375zM74 849q18 25 36 45.5t32 30.5v11h17q3 0 4 1l-1 -1h112q12 0 30 -17t38 -42q18 -20 36.5 -46t34 -51.5t25.5 -47t12 -31.5v-525
q-1 -9 -10 -28t-22.5 -42.5t-30.5 -48t-33.5 -45t-31.5 -33.5t-26 -13h-119q-13 3 -32 22l-1 1q-18 10 -42 39t-45.5 63t-37 64.5t-16.5 43.5v523q1 7 7 20.5t15.5 30.5t22 37t26.5 39zM216 781q12 -15 23 -34.5t20 -38.5t14.5 -35t6.5 -23v-379q-1 -9 -6.5 -24.5t-14.5 -34
t-20 -37.5t-23 -34q-11 15 -22 33.5t-20 37.5t-15.5 34.5t-7.5 24.5v379q1 7 7 23t15.5 35t20.5 38.5t22 34.5zM416 721q-2 13 -19 45.5t-39.5 67t-45.5 61t-38 26.5h-117v-1q-10 -2 -23.5 -15t-29 -32.5t-30.5 -42.5t-27 -44.5t-20 -39t-9 -25.5v-521q1 -13 17.5 -44.5
t38.5 -65t45 -60.5t38 -30h117q15 0 38 26.5t45.5 61t39.5 67t19 45.5v521z" />
    <glyph glyph-name="FL0052h" unicode="P" horiz-adv-x="432" 
d="M185 487h25q6 0 15.5 2.5t9.5 15.5v283h-50v-301zM10 -252h-6v1189h317q10 0 22.5 -6t24 -14.5t20 -18t11.5 -16.5v1l1 -1h-1l5 -4q12 -12 15 -20v-432l-1 -6q-2 -16 -6 -28.5t-15 -24.5q-12 -12 -25.5 -19.5t-25.5 -11t-21 -4.5t-13 -1h-117v-602h-166zM208 822
q15 0 24 -3.5t16 -19.5l2 -10v-284q0 -12 -4.5 -18.5t-10.5 -10t-13 -4t-12 -0.5h-59v350h57zM161 -237v602h129q3 0 11.5 1t19.5 4t23 9.5t23 17.5q8 9 11.5 20.5t5.5 26.5l1 6v429q-2 5 -9 12.5t-16.5 14t-19.5 11.5t-19 5h-302v-1159h142z" />
    <glyph glyph-name="FL005Ch" unicode="Q" horiz-adv-x="463" 
d="M265 650q-2 9 -10.5 32t-22.5 48q-17 -29 -31 -59t-16 -43v-240l80 21v241zM144 -11q-18 10 -42 39t-45.5 63t-37 64.5t-16.5 43.5v524q1 9 9.5 28t21.5 42t29.5 47.5t33 45.5t31.5 35t26 16h120q12 0 30 -17t38 -42q18 -20 36.5 -46t34 -51.5t25.5 -47t12 -31.5v-526
q-2 -12 -12.5 -35.5t-27.5 -51.5l39 -123h-272q-13 3 -32 22zM216 782q12 -15 23 -34t20 -38t14.5 -34.5t6.5 -23.5v-255l-113 -29l54 -222l-5 -5q-11 15 -22 33.5t-20 37.5t-15.5 34.5t-7.5 24.5v381q1 8 7.5 23.5t15.5 34t20 37.5t22 35zM416 722q-2 13 -19 45.5t-39.5 67
t-45.5 61t-38 26.5h-117q-10 -2 -24 -15t-29 -32.5t-30 -42.5t-27 -44.5t-20 -39t-9 -26.5v-522q1 -13 17.5 -44.5t38.5 -65t45 -60.5t38 -30h254l-36 113q17 28 28 52t13 35v522z" />
    <glyph glyph-name="FL0058h" unicode="R" horiz-adv-x="436" 
d="M185 487h24q6 0 16 2.5t10 17.5v281h-50v-301zM10 -253h-6v1190h316q11 0 23 -5.5t22.5 -14t18.5 -17.5t12 -16l1 -1l3 -2q14 -14 17 -23v-432q-2 -19 -6 -33t-16 -26q-18 -18 -36.5 -25.5t-31.5 -9.5l112 -366h-164l-19 19h-5l-56 179v-436h-166zM208 822q15 0 24 -3.5
t16 -19.5l2 -10v-282q0 -13 -4.5 -20t-11 -10.5t-13.5 -4t-12 -0.5h-58v350h57zM161 -238v562l101 -324h139l-111 365q7 0 30 5t45 27q10 10 13 23t5 30v429q-2 5 -8.5 12.5t-15.5 14t-19 11.5t-20 5h-301v-1160h142z" />
    <glyph glyph-name="FL0053h" unicode="S" horiz-adv-x="394" 
d="M199 147l2 8v52l-182 503v145q5 9 10.5 21t12.5 22t15.5 17t20.5 7h269v-141h-186q-2 0 -2 -17v-23q0 -6 0.5 -10.5t1.5 -8.5q1 -2 2.5 -7t1.5 -6l160 -425q0 -1 3 -9.5t5 -18.5l4 -18q3 -8 4 -17t1 -10t0.5 -9t0.5 -20v-84q0 -9 -0.5 -25.5t-3.5 -32.5t-10 -28t-19 -12
h-292v147h181zM3 162v-177h6l19 -19h304q17 0 26 13.5t13.5 31.5t5 36.5t0.5 28.5v84q0 10 -0.5 17t-0.5 10v2q0 1 -1 11t-5 20l1 -1l-4 18q-2 5 -2 8t-5 16l-2 6h-1l-158 420q-1 2 -2.5 7t-2.5 9l1 -1q-2 10 -2 17v23q0 1 -1 2l-3 3h192v165l-19 19v6h-284q-13 0 -22.5 -6
t-17.5 -15t-14 -20t-11 -21l-3 -6q-3 -5 -4 -7t-2 -3v-151l182 -503v-43h-183z" />
    <glyph glyph-name="FL0054h" unicode="T" horiz-adv-x="447" 
d="M3 935h412v-6l19 -19v-128h-120v-1053h-164l-19 19h-6v1034h-97l-19 19h-6v134zM18 816h122v-1053h140v1053h120v104h-382v-104z" />
    <glyph glyph-name="FL0055h" unicode="U" horiz-adv-x="433" 
d="M166 929l19 -19v-795h7h27q5 1 9 2.5t8 11.5v806h165v-6l19 -19v-892q-4 -6 -11.5 -15t-17.5 -17.5t-21.5 -14t-22.5 -5.5h-246q-14 0 -30 10t-27 21l-1 1q-14 9 -25.5 21t-14.5 20v896h163v-6zM151 920h-133v-877q2 -5 8.5 -12.5t15 -14.5t18.5 -11.5t19 -4.5h246
q9 0 18.5 4.5t18 11.5t15 14.5t9.5 12.5v877h-135v-788q0 -8 -1 -9q-6 -14 -13 -18t-17 -5h-28q-15 0 -23.5 3.5t-15.5 19.5q-2 2 -2 9v12v776z" />
    <glyph glyph-name="FL0056h" unicode="V" horiz-adv-x="462" 
d="M1 935h171l1 -7l18 -18l32 -291l40 316h169l-1 -6l20 -19l-128 -944h-171l-19 19h-6zM141 0h149l125 920h-138l-63 -497l-56 497h-140z" />
    <glyph glyph-name="FL0057h" unicode="W" horiz-adv-x="719" 
d="M415 920l57 -497l65 497h135l-124 -920h-150l-54 401l-54 -401h-149l-123 920h140l56 -497l61 497h140zM261 935l-39 -314l-31 289l-19 18v7h-171l126 -950h6l19 -19h171l32 240l29 -221h6l19 -19h172l127 944l-20 19l1 6h-166l-42 -321l-33 296l-18 18l-1 7h-168z" />
    <glyph glyph-name="FL0059h" unicode="X" horiz-adv-x="406" 
d="M94 460l-91 165v310h165v-6l19 -19v-275q0 -5 1 -10q0 -3 1 -5q2 -6 2 -7l1 -1l12 24l1.5 3t1.5 4v-1l2 12v281h165v-6l19 -19v-306l-89 -166l89 -166v-306h-159l-19 19h-6v281l-2 12v-1q-1 3 -3 7l-2 3l-10 -23q-1 -2 -1.5 -4t-1.5 -4t-1 -4v-1q-1 -5 -1 -10v-512h-159
l-19 19h-6v547zM18 290v-527h135v500q0 4 0.5 8t1.5 9q1 2 2.5 6t1.5 5l29 61l30 -61q0 -1 1.5 -5t2.5 -6l2 -12v-268h135v290l-91 170l91 170v290h-135v-268l-2 -12q-1 -2 -2.5 -6t-1.5 -5l-30 -61l-29 61q0 1 -1.5 5t-2.5 6q-1 5 -1.5 9t-0.5 8v263h-135v-290l94 -170z
" />
    <glyph glyph-name="FL005Bh" unicode="Y" horiz-adv-x="406" 
d="M192 612l12 24l1.5 3t1.5 4v-1l2 12v281h165v-6l19 -19v-306l-98 -181v-695h-166l-19 19h-6v698l-101 182v308h165v-6l19 -19v-275q0 -5 1 -10q0 -3 1 -5q2 -6 2 -7zM261 -238v687l98 181v290h-135v-268l-2 -12q-1 -2 -2.5 -6t-1.5 -5l-30 -61l-29 61q0 1 -1.5 5t-2.5 6
q-1 5 -1.5 9t-0.5 8v263h-135v-290l101 -181v-687h142z" />
    <glyph glyph-name="FL005Ah" unicode="Z" horiz-adv-x="394" 
d="M9 766h-6v171h359v-6l19 -19v-225l-184 -504v-21h165v-6l19 -19v-171h-350l-19 19h-6v197q0 6 0.5 11.5t0.5 9.5v8q0 1 0.5 10.5t4.5 19.5l5 19q1 2 1 5q0 1 1.5 5t2.5 8t1.5 6.5t0.5 1.5l2 5l159 423q2 6 4 10q2 10 2 17v6h-163zM165 147l-2 8v52l184 503v212h-329v-141
h187q1 0 1 -17v-23q0 -6 -0.5 -10.5t-1.5 -8.5q-2 -2 -3.5 -7t-1.5 -6l-159 -425q0 -1 -3 -9.5t-5 -18.5l-5 -18q-3 -8 -4 -17t-1 -10t-0.5 -9t-0.5 -20v-182h326v147h-182z" />
    <glyph glyph-name="FL005Eh" unicode="[" horiz-adv-x="263" 
d="M18 0v685h198v-103h-82v-483h82v-100h-198l1 1h-1zM168 548h82v127l-19 19v6h-228v-696l-20 -20h10l19 -19h238v124l-19 19v6h-63v434z" />
    <glyph glyph-name="FL005Dh" unicode="\" horiz-adv-x="337" 
d="M18 527v158h118v-105q0 -4 -0.5 -11.5t-0.5 -14.5q0 -4 0.5 -8t1.5 -9q1 -2 2.5 -6t1.5 -5l132 -315q0 -1 2.5 -7.5t3.5 -13.5l5 -13q2 -6 3 -12.5l1 -6.5q0 -2 1 -22t1 -41v-95h-117v151zM171 517q-1 2 -1 5q-1 5 -1 10q0 4 0.5 8.5t0.5 8.5v126l-19 19v6h-148v-177
l155 -377v-161h6l19 -19h141v107q0 17 -0.5 32.5t-1.5 24.5v7q-1 8 -1.5 11t-3.5 11l-5 11h1q-1 5 -2.5 11t-3.5 10v1l-133 317l-1 1q0 1 -2 7z" />
    <glyph glyph-name="FL005Fh" unicode="]" horiz-adv-x="263" 
d="M231 694l19 -19v-690l1 -1h-1v-3l16 -16h-238l-19 19h-6v130h82v434h-57l-19 19h-6v133h228v-6zM216 0v685h-198v-103h82v-483h-82v-100h198l-1 1h1z" />
    <glyph glyph-name="FL0065h" unicode="^" horiz-adv-x="498" 
d="M451 0h-110l2 23l85 85zM198 685h88l131 -533l-130 91l-41 179l-1 -7l-68 -240h117l-14 38l117 -81l1 -3l-74 -70l-5 20h-159l-69 -244h-125zM-54 -180h7l19 -19h150l69 244h120l4 -15l4 4l9 -10l-3 -39h6l19 -19h138l-30 135h1l-2 8l-139 566l-17 17l-2 8h-113zM272 237
l-22 16l23 -63h-51l34 118zM416 131l8 -7l-1 -1z" />
    <glyph glyph-name="FL0060h" unicode="_" horiz-adv-x="396" 
d="M364 113l19 -19v-128h-355l-19 19h-6v134h361v-6zM349 104h-331v-104h331v104z" />
    <glyph glyph-name="FL00B3h" unicode="`" horiz-adv-x="409" 
d="M155 199h67l-33 305zM18 0l107 920h129l108 -920h-117l-9 86h-93l-8 -86h-117zM26 -34h142l8 86h48l7 -67h6l19 -19h142l-111 944l-18 18l-1 7h-157l-110 -950h6zM205 214h-12l6 54z" />
    <glyph glyph-name="FL0061h" unicode="a" horiz-adv-x="392" 
d="M182 331l-29 -165h54zM232 0l-9 53h-87l-8 -53h-110l103 684h122l102 -684h-113zM26 -34h134l8 53h45l6 -34h6l19 -19h137l-105 708l-18 18l-1 7h-149l-107 -714h6z" />
    <glyph glyph-name="FL0062h" unicode="b" horiz-adv-x="396" 
d="M168 422h49v126h-49v-126zM217 260h-49v-145h30q8 0 11.5 2t7.5 12v131zM369 308q11 -11 14 -34v-256q-3 -6 -10 -15t-16 -17.5t-19.5 -14t-20.5 -5.5h-289l-19 19h-6v715h292q9 0 18.5 -5t18 -12.5t16 -16t11.5 -15.5h1q8 -8 14 -16.5t8 -13.5v-255q-4 -35 -23 -49l6 -6
l4 -3l-3 2q2 -2 3 -2zM232 407h-98v175h63q13 0 20.5 -3.5t12.5 -18.5q2 -8 2 -10v-12v-131zM232 294v-160q0 -10 -1 -11q-5 -16 -12.5 -19.5t-20.5 -3.5h-64v194h98zM18 0h277q8 0 16.5 4.5t16 11.5t13.5 14.5t8 12.5v252q-2 21 -14.5 29.5t-29.5 14.5h2q19 5 29 16t12 34
v253q-2 5 -7.5 12.5t-13 14t-16 11.5t-16.5 5h-277v-685z" />
    <glyph glyph-name="FL0063h" unicode="c" horiz-adv-x="354" 
d="M169 115q1 -2 5 -4zM321 121l19 -19v-136h-125q-20 0 -40.5 0.5t-40 4.5t-37 12t-31.5 22l-2 2q-19 11 -33.5 29.5t-22.5 48.5l-5 18v383q1 9 9 28.5t20 43.5t27 49t30 45.5t29 34t23 13.5h181v-6l19 -19v-130h-95q-8 0 -21.5 -20.5t-26 -47t-21.5 -52t-9 -36.5v-261
q5 -2 11 -1.5t11 0.5h131v-6zM306 112h-116q-15 0 -32 3.5t-23 23.5l-1 3v269q0 12 10.5 39.5t25 56t30 50.5t24.5 22h83v106h-166q-8 0 -20 -12.5t-25.5 -32t-27 -43t-24.5 -45.5t-18 -40.5t-8 -26.5v-378l5 -18q9 -33 27 -51t41 -26.5t49.5 -10t52.5 -1.5h113v112z" />
    <glyph glyph-name="FL0064h" unicode="d" horiz-adv-x="385" 
d="M206 548h-38v-434h18q7 0 11.5 1.5t7.5 9.5l1 6v417zM3 4v696h282q9 0 18.5 -5t18 -12.5t16 -16t11.5 -15.5h1q8 -8 14 -16.5t8 -13.5v-604q-3 -6 -9.5 -15t-15.5 -17.5t-19.5 -14t-20.5 -5.5h-295l-19 19h-10zM221 131l-1 -9q-5 -16 -13 -19.5t-21 -3.5h-52v483h53
q13 0 20.5 -3.5t12.5 -18.5l1 -10v-407v-12zM18 -1h267q8 0 16.5 4.5t16 11.5t13 14.5t7.5 12.5v600q-2 5 -7.5 12.5t-13 14t-16 11.5t-16.5 5h-267v-685h1z" />
    <glyph glyph-name="e" unicode="e" horiz-adv-x="317" 
d="M18 685h252v-105h-128v-172h126v-114h-129v-185h131v-109h-252v685zM3 -15h6l19 -19h276v133l-19 19v6h-112v136h129v138l-19 19v6h-107v123h128v129l-19 19v6h-282v-715z" />
    <glyph glyph-name="FL0066h" unicode="f" horiz-adv-x="317" 
d="M18 685h252v-105h-128v-172h126v-114h-129v-294h-121v685zM3 -15h6l19 -19h145v294h129v138l-19 19v6h-107v123h128v129l-19 19v6h-282v-715z" />
    <glyph glyph-name="g" unicode="g" horiz-adv-x="383" 
d="M193 0q-26 0 -52.5 1.5t-49.5 10t-41 26.5t-27 51l-5 18v378q1 8 8 26.5t18 40.5t24.5 45.5t27 43t25.5 32t20 12.5h195v-106h-112q-9 0 -24.5 -22t-30 -50.5t-25 -56t-10.5 -39.5v-269l1 -3q6 -20 23 -23.5t32 -3.5h9q8 0 14 1.5t6 10.5v174h-35v109h151v-407l-124 -49
v49h-18zM246 545h124v130l-19 19v6h-210q-10 0 -23.5 -13.5t-28.5 -34t-30 -45.5t-27 -49t-20 -43.5t-9 -28.5v-383l5 -18q8 -30 22.5 -48.5t33.5 -29.5l2 -2q25 -25 59.5 -31.5t70.5 -7.5v-37l5 3l20 -20l148 58v427l-19 19v6h-175q6 18 15.5 39t19.5 40t19.5 31.5
t16.5 12.5zM168 389q0 5 1 9v-115h6l19 -19h10v-137h-14q-5 0 -11 -0.5t-11 1.5v261zM174 111q-4 2 -5 4z" />
    <glyph glyph-name="FL006Bh" unicode="h" horiz-adv-x="386" 
d="M168 422h39v278h147v-6l19 -19v-709h-141l-19 19h-6v275h-39v-294h-140l-19 19h-6v715h146v-6l19 -19v-253zM222 294v-294h117v685h-117v-278h-88v278h-116v-685h116v294h88z" />
    <glyph glyph-name="FL0069h" unicode="i" horiz-adv-x="188" 
d="M18 685h123v-685h-123v685zM3 -15h6l19 -19h147v709l-19 19v6h-153v-715z" />
    <glyph glyph-name="FL006Ah" unicode="j" horiz-adv-x="385" 
d="M148 303l19 -19v-169h1h24q4 1 7 2t6 8v3q0 1 0.5 1.5t0.5 2.5v568h147v-6l19 -19v-657q-3 -6 -9.5 -15t-15.5 -17.5t-19.5 -14t-20.5 -5.5h-215q-11 0 -23 7t-22 17l-4 4q-15 9 -26.5 22t-13.5 23v270h145v-6zM133 294h-115v-251q1 -5 6.5 -12.5t13 -14.5t16 -11.5
t16.5 -4.5h215q8 0 16.5 4.5t16 11.5t13 14.5t7.5 12.5v642h-117v-553q0 -3 -0.5 -5.5t-0.5 -3.5q-5 -14 -11 -18t-16 -5h-25q-13 0 -20.5 3.5t-12.5 19.5q-2 2 -2 9v12v150z" />
    <glyph glyph-name="FL0068h" unicode="k" horiz-adv-x="377" 
d="M168 469l26 63q3 6 3 16v152h148v-6l19 -19v-173l-73 -177l56 -133q0 -4 3 -10q1 -2 1.5 -5t1.5 -5l4 -13q3 -8 3.5 -10.5t2.5 -10.5v-9q0 -9 0.5 -24.5t0.5 -31.5v-107h-141l-19 19h-6v161l-30 73v-253h-140l-19 19h-6v715h146v-6l19 -19v-206zM154 294l59 -143v-151
h117v95q0 21 -0.5 41t-0.5 22l-1.5 6.5t-3.5 12.5l-4 13q-2 7 -4.5 13.5t-2.5 7.5l-57 136l74 180v158h-118v-137q0 -14 -4 -22l-50 -119h-24v278h-116v-685h116v294h20z" />
    <glyph glyph-name="FL006Ch" unicode="l" horiz-adv-x="317" 
d="M142 684v-580h128v-105h-252v685h124zM3 699v-715h6l19 -19h276v129l-19 19v6h-109v555l-19 19v6h-154z" />
    <glyph glyph-name="FL006Dh" unicode="m" horiz-adv-x="525" 
d="M493 694l19 -19v-709h-130l-19 19h-6v132l-41 -151h-93l-19 19h-5l-43 156v-175h-128l-19 19h-6v715h140l2 -8l17 -17l92 -368l95 393h144v-6zM478 685h-116l-114 -471l-118 471h-112v-685h104v323l89 -323h73l88 323v-323h106v685z" />
    <glyph glyph-name="n" unicode="n" horiz-adv-x="385" 
d="M18 685h109l94 -289v289h117v-685h-106l-99 323v-323h-115v685zM3 -15h6l19 -19h139v195l54 -176h5l19 -19h127v709l-19 19v6h-147v-175l-49 150l-18 17l-2 8h-134v-715z" />
    <glyph glyph-name="FL004Fh" unicode="o" horiz-adv-x="410" 
d="M231 412q-2 9 -9.5 33t-18.5 50q-7 -15 -13 -30.5t-10.5 -29.5t-7.5 -25.5t-4 -17.5v-141q2 -11 8.5 -35.5t16.5 -50.5q7 15 13.5 31.5t11.5 31.5t8.5 27t4.5 18v139zM67 617q15 23 29.5 42.5t26.5 28.5v12h16q2 0 3 1l-1 -1h99q8 0 20 -11t26 -28l1 -1
q16 -16 34.5 -44.5t35 -58.5t27.5 -55.5t13 -36.5v-289q-1 -9 -9 -28t-20 -42.5t-26.5 -48t-29 -45t-28 -33.5t-22.5 -13h-104q-7 1 -20 14l-6 6q-15 6 -36 35t-41.5 64.5t-35.5 68t-16 45.5v287q1 7 6.5 21t14 32t20 38t23.5 40zM189 557q10 -15 20 -36.5t17.5 -42.5
t13 -38.5t6.5 -25.5v-143q-1 -9 -6.5 -27t-13 -39.5t-17.5 -43t-20 -36.5q-10 15 -19.5 36t-17 43t-12.5 40t-6 27v143q1 7 6 25t12.5 39t17 42.5t19.5 36.5zM363 485q-2 13 -16.5 45.5t-34 67t-39.5 61t-33 26.5h-102v-1q-8 -2 -20 -15t-25 -32.5t-26 -42.5t-23.5 -44.5
t-17.5 -39t-8 -25.5v-285q1 -8 8 -25.5t17.5 -39.5t23.5 -45t26 -42.5t24.5 -32.5t20.5 -15h102q13 0 33 26.5t39.5 61t34 67t16.5 45.5v285z" />
    <glyph glyph-name="FL0070h" unicode="p" horiz-adv-x="380" 
d="M167 422q23 0 29.5 4.5t6.5 24.5v100h-36v-129zM9 -15h-6v715h277q9 0 18.5 -5t18 -12.5t16 -16t11.5 -15.5h1q8 -8 14 -16.5t8 -13.5v-259q-4 -29 -11.5 -47.5t-30.5 -33.5q-17 -11 -32.5 -13.5t-18.5 -2.5h-98v-299h-148zM182 585q14 0 21.5 -3.5t12.5 -19.5l2 -10
v-101q0 -15 -2 -24t-7 -13.5t-15.5 -5.5t-26.5 -1h-34v178h49zM142 0v299h110q3 0 16.5 2.5t28.5 11.5q20 13 26.5 29.5t9.5 42.5v257q-2 5 -7.5 12.5t-13 14t-16 11.5t-16.5 5h-262v-685h124z" />
    <glyph glyph-name="FL0071h" unicode="q" horiz-adv-x="410" 
d="M231 412q-2 8 -9.5 28.5t-18.5 43.5q-14 -28 -23.5 -55.5t-11.5 -38.5v-68l63 18v72zM67 617q15 23 29.5 42.5t26.5 28.5v12h16q2 0 3 1l-1 -1h99q8 0 20 -11t26 -28l1 -1q16 -16 34.5 -44.5t35 -58.5t27.5 -55.5t13 -36.5v-289q-2 -13 -11.5 -37t-23.5 -50l34 -123h-238
q-7 1 -20 14l-6 6q-15 6 -36 35t-41.5 64.5t-35.5 68t-16 45.5v287q1 7 6.5 21t14 32t20 38t23.5 40zM190 544q10 -15 19.5 -34t17 -38t13 -34.5t6.5 -23.5v-85l-99 -29l47 -154q-1 -1 -1.5 -2t-2.5 -3q-10 15 -19.5 33.5t-17 37.5t-13 34.5t-6.5 24.5v143q1 7 6.5 23
t13 34.5t17 38t19.5 34.5zM363 485q-2 13 -16.5 45.5t-34 67t-39.5 61t-33 26.5h-102v-1q-8 -2 -20 -15t-25 -32.5t-26 -42.5t-23.5 -44.5t-17.5 -39t-8 -25.5v-285q1 -8 8 -25.5t17.5 -39.5t23.5 -45t26 -42.5t24.5 -32.5t20.5 -15h220l-31 113q15 28 24.5 52t11.5 35v285z
" />
    <glyph glyph-name="r" unicode="r" horiz-adv-x="386" 
d="M167 422q19 0 26.5 6t7.5 24v98q-3 1 -7 1h-27v-129zM9 -15h-6v716h276q9 0 18.5 -5t18 -12.5t16 -16t11.5 -15.5h1q8 -8 14 -16.5t8 -13.5v-255q-3 -29 -21.5 -41.5t-45.5 -20.5h-1q-1 0 -2 -0.5t-2 -0.5l97 -338h-144l-19 19h-5l-47 153v-172h-148zM172 585
q13 0 25.5 -3t16.5 -19l2 -10v-101q0 -31 -13 -38t-45 -7h-25v178h39zM142 0v300l92 -300h119l-96 335l7.5 1.5t9.5 2.5q23 7 39.5 17.5t18.5 33.5v253q-2 5 -7.5 12.5t-13 14t-16 11.5t-16.5 5h-261v-686h124z" />
    <glyph glyph-name="s" unicode="s" horiz-adv-x="339" 
d="M168 109l2 6v39l-151 373v109q4 7 8 15.5t9.5 16t12.5 12.5t16 5h227v-105h-155q-2 0 -2 -12q0 -8 0.5 -17.5t2.5 -13.5q1 -2 2.5 -6t1.5 -5l132 -315q0 -1 2 -7.5t4 -13.5l5 -13q2 -6 3 -12.5l1 -6.5q0 -2 1 -22t1 -41v-23q0 -6 -0.5 -18t-3.5 -24t-9 -21t-17 -9h-243
v109h150zM3 124v-139h6l19 -19h255q15 0 23.5 10.5t12.5 24.5t5 28t1 21v23q0 17 -0.5 32.5t-1.5 24.5v7q-1 8 -1.5 11t-3.5 11l-5 13q-2 5 -3.5 11.5t-1.5 8.5l-133 317l-1 1q0 1 -2 7v1h-1q-2 5 -2 12v16h157v129l-19 19v6h-242q-21 0 -32 -13.5t-19 -28.5q-1 -1 -1 -2
t-1 -2q-1 -2 -2 -3.5t-2 -3.5l1 1l-5 -8v-117l151 -374v-25h-152z" />
    <glyph glyph-name="FL0074h" unicode="t" horiz-adv-x="396" 
d="M349 685v-105h-103v-580h-121v580h-107v105h331zM3 700v-135h6l19 -19h82v-561h6l19 -19h145v580h103v129l-19 19v6h-361z" />
    <glyph glyph-name="FL0075h" unicode="u" horiz-adv-x="384" 
d="M149 694l19 -19v-560h1h23q3 1 6 2.5t7 9.5v573h147v-6l19 -19v-657q-3 -6 -9.5 -15t-15.5 -17.5t-19.5 -14t-20.5 -5.5h-213q-11 0 -22.5 7t-21.5 17l-3 3q-15 8 -27 22t-16 24v661h146v-6zM134 685h-116v-642q2 -5 7.5 -12.5t13 -14.5t16 -11.5t16.5 -4.5h213
q8 0 16.5 4.5t16 11.5t13 14.5t7.5 12.5v642h-117v-553q0 -8 -1 -9q-5 -14 -11 -18t-15 -5h-24q-13 0 -20.5 3.5t-12.5 19.5q-2 2 -2 9v12v541z" />
    <glyph glyph-name="FL0076h" unicode="v" horiz-adv-x="392" 
d="M1 700h145l1 -7l18 -18l23 -162l28 187h146l-1 -5l20 -20l-108 -709h-143l-19 19h-6zM119 0h122l104 685h-115l-49 -327l-49 327h-114z" />
    <glyph glyph-name="FL0077h" unicode="w" horiz-adv-x="578" 
d="M1 700h139l1 -7l18 -18l21 -153l27 178h136l1 -7l18 -18l19 -149l28 174h139l-1 -6l20 -19l-102 -709h-138l-19 19h-6l-18 128l-21 -147h-138l-19 19h-6zM114 0h116l44 303l42 -303h116l99 685h-109l-50 -316l-43 316h-109l-49 -316l-45 316h-108z" />
    <glyph glyph-name="FL007Eh" unicode="x" horiz-adv-x="361" 
d="M69 343l-66 136v222h147v-6l19 -19v-188q0 -5 1 -10v-5l7 16q2 4 3 8q1 2 1 8v196h148v-6l19 -19v-218l-64 -137l64 -137v-218h-142l-19 19h-6v196q0 5 -1 8l-1 1q1 0 0 1l-5 -14q-1 -2 -1.5 -4t-1.5 -4t-1 -4v-1q-1 -5 -1 -10v-188h-141l-19 19h-6v222zM18 203v-203h117
v176q0 4 0.5 8t1.5 9q1 2 2.5 6t1.5 5l25 61l25 -61q0 -1 1.5 -5t2.5 -6q1 -3 1 -12v-181h118v203l-65 140l65 140v203h-118v-181q0 -9 -1 -12q-1 -2 -2.5 -6t-1.5 -5l-25 -61l-25 61q0 1 -1.5 5t-2.5 6q-1 5 -1.5 9t-0.5 8v176h-117v-203l68 -140z" />
    <glyph glyph-name="FL0079h" unicode="y" horiz-adv-x="361" 
d="M106 302l-88 181v203h117v-176q0 -4 0.5 -8t1.5 -9q1 -2 2.5 -6t1.5 -5l25 -61l25 61q0 1 1.5 5t2.5 6t1 12v181h118v-203l-84 -181h-1v-302h-123v302zM91 -15h6l19 -19h147v308l85 184v218l-19 19v6h-148v-196q0 -6 -1 -8v-1q-1 -3 -1.5 -4l-1.5 -3l-7 -16v5q-1 5 -1 10
v188l-19 19v6h-147v-222l88 -182v-312z" />
    <glyph glyph-name="FL007Ah" unicode="z" horiz-adv-x="339" 
d="M9 565h-6v135h303v-6l19 -19v-173l-151 -373v-5h133v-6l19 -19v-133h-297l-19 19h-6v110q0 17 0.5 32.5t1.5 24.5v7q1 9 1.5 12t3.5 11l4 10q1 6 2.5 13t3.5 10l133 318l1.5 3t1.5 4v2q0 1 0.5 1.5t0.5 2.5h-130zM140 109v45l151 373v158h-273v-105h155q2 0 2 -12
q0 -8 -0.5 -17.5t-2.5 -13.5q-1 -2 -2.5 -6t-1.5 -5l-132 -315q0 -1 -2.5 -7.5t-3.5 -13.5l-5 -13q-2 -6 -3 -12.5l-1 -6.5q0 -2 -1 -22t-1 -41v-95h273v109h-152z" />
    <glyph glyph-name="FL007Bh" unicode="{" horiz-adv-x="330" 
d="M46 -7q-15 8 -27 22t-16 24v605q2 6 9 15.5t17 18.5t21 15.5t21 6.5h227v-6l19 -19v-127h-126q-8 0 -13 -2t-8 -10l-1 -8v-413h1h128v-6l19 -19v-124h-224q-11 0 -22.5 7t-21.5 17zM136 560q5 15 12.5 18.5t20.5 3.5h114v103h-212q-8 0 -16.5 -5t-16 -11.5t-13 -14
t-7.5 -12.5v-599q2 -5 7.5 -12.5t13 -14.5t16 -11.5t16.5 -4.5h212v100h-113q-13 0 -21 3.5t-13 19.5l-1 9v418z" />
    <glyph glyph-name="FL007Ch" unicode="|" 
d="M18 284h120v-284h-120v284zM18 685h120v-291h-120v291zM3 379h6l19 -19h144v315l-19 19v6h-150v-321zM3 -15h6l19 -19h144v308l-19 19v6h-150v-314z" />
    <glyph glyph-name="FL007Dh" unicode="}" horiz-adv-x="330" 
d="M165 560q-5 15 -12.5 18.5t-20.5 3.5h-114v103h212q8 0 16.5 -5t16 -11.5t13 -14t7.5 -12.5v-599q-2 -5 -7.5 -12.5t-13 -14.5t-16 -11.5t-16.5 -4.5h-212v100h113q13 0 21 3.5t13 19.5l1 9v418zM28 -34h224q10 0 20.5 5.5t19.5 14t15.5 17.5t9.5 15v603q-2 5 -8 13.5
t-14 16.5h-1q-4 7 -11.5 15.5t-16 16t-18 12.5t-18.5 5h-227v-133h6l19 -19h123v-415l-1 -7q-4 -8 -8 -9.5t-11 -1.5h-128v-130h6z" />
    <glyph glyph-name="FL00AAh" unicode="~" horiz-adv-x="505" 
d="M252 433l-2 -2l-66 -256h114zM205 685h88l165 -685h-119l-24 84h-145l-72 -249h-125zM-47 -180h7l19 -19h150l72 249h107l20 -65h5l19 -19h144l-171 709l-17 17l-2 8h-113zM279 190h-51l30 117z" />
    <glyph glyph-name="FL007Fh" horiz-adv-x="153" 
 />
    <glyph glyph-name="FL20ACh" unicode="&#x20ac;" horiz-adv-x="469" 
d="M3 491h87q4 17 20.5 51.5t38 69.5t43 61.5t35.5 26.5h210v-6l19 -19v-130h-124q-6 0 -16.5 -16t-22.5 -38h84v-6l19 -19v-137h-18l18 -18v-137h-115q13 -31 28 -54h1h127v-6l19 -19v-129h-207q-10 0 -25 15l-7 7q-14 7 -31.5 29.5t-34.5 50t-32 56.5t-23 50h-68l-19 19
h-6v143h18l-12 12h-6v143zM18 363h86v-42h-86v-113h86v-8q1 -9 8 -27t18 -40t24.5 -45.5t27 -43t25.5 -32t20 -12.5h195v105h-112q-6 0 -14.5 9t-18 24t-19 33.5t-17.5 36.5h121v113h-142v42h142v113h-121q8 18 17.5 36.5t19 33t18 24t14.5 9.5h112v106h-195q-8 0 -20 -12.5
t-25.5 -32t-27 -43t-24.5 -45.5t-18 -40.5t-8 -26.5v-9h-86v-113z" />
    <glyph glyph-name="FL201Ah" unicode="&#x201a;" 
d="M18 109h120v-109l-120 -99v208zM3 -131l5 4l20 -20l144 119v127l-19 19v6h-150v-255z" />
    <glyph glyph-name="FL0192h" unicode="&#x192;" horiz-adv-x="271" 
d="M158 857l7 -7l105 -135h-149l-19 19h-4l-110 141h156zM138 860h-120l86 -111h120z" />
    <glyph glyph-name="FL201Eh" unicode="&#x201e;" horiz-adv-x="336" 
d="M18 109h120v-109l-120 -99v208zM169 109h120v-109l-120 -99v208zM154 -131l5 4l20 -20l144 119v127l-19 19v6h-150v-7l-1 1v6h-150v-255l5 4l20 -20l126 105v-89z" />
    <glyph glyph-name="FL2026h" unicode="&#x2026;" horiz-adv-x="517" 
d="M18 109h120v-109h-120v109zM170 109h120v-109h-120v109zM325 109h120v-109h-120v109zM3 -15h6l19 -19h144v8l8 -8h144v11l11 -11h144v133l-19 19v6h-150v-11l-5 5v6h-150v-8l-2 2v6h-150v-139z" />
    <glyph glyph-name="FL2020h" unicode="&#x2020;" horiz-adv-x="349" 
d="M97 370h-79v113h79v202h123v-202h82v-113h-82v-370h-123v370zM82 -15h6l19 -19h147v370h82v137l-19 19v6h-63v177l-19 19v6h-153v-202h-79v-143h6l19 -19h54v-351z" />
    <glyph glyph-name="FL2021h" unicode="&#x2021;" horiz-adv-x="349" 
d="M97 215h-79v113h79v42h-79v113h79v202h123v-202h82v-113h-82v-42h82v-113h-82v-215h-123v215zM82 -15h6l19 -19h147v215h82v137l-18 18h18v137l-19 19v6h-63v177l-19 19v6h-153v-202h-79v-143h6l12 -12h-18v-143h6l19 -19h54v-196z" />
    <glyph glyph-name="FL02C6h" unicode="&#x2c6;" horiz-adv-x="361" 
d="M184 740l-19 -24h-149l-19 19h-9l110 141h136l14 -18l7 -7l105 -135h-149l-19 19h-4zM166 786l28 -36h120l-86 111h-124l-86 -111h120z" />
    <glyph glyph-name="FL2030h" unicode="&#x2030;" horiz-adv-x="693" 
d="M620 343q8 0 16 -8.5t10 -13.5v-300q-2 -5 -10 -13t-16 -8h-107q-8 0 -16.5 8t-10.5 13v300q2 5 10.5 13.5t16.5 8.5h107zM544 66q0 -2 0.5 -3t0.5 -2q2 -8 6 -9.5t11 -1.5h9q6 0 10 1.5t6 9.5q1 1 1 5v212q0 2 -1 3.5t-6 5.5q-7 4 -11 4h-9q-5 0 -9.5 -3.5t-6.5 -6.5
q0 -2 -0.5 -4.5t-0.5 -6.5v-198v-6zM445 343q8 0 16 -8.5t10 -13.5v-300q-2 -5 -10 -13t-16 -8h-107q-8 0 -16.5 8t-10.5 13v300q2 5 10.5 13.5t16.5 8.5h107zM369 66q0 -2 0.5 -3t0.5 -2q2 -8 6 -9.5t11 -1.5h9q6 0 10 1.5t6 9.5q1 1 1 5v212q0 2 -1 3.5t-6 5.5q-7 4 -11 4
h-9q-5 0 -9.5 -3.5t-6.5 -6.5q0 -2 -0.5 -4.5t-0.5 -6.5v-198v-6zM152 684q8 0 16 -8.5t10 -13.5v-300q-2 -5 -10 -13t-16 -8h-107q-8 0 -16.5 8t-10.5 13v300q2 5 10.5 13.5t16.5 8.5h107zM76 407q0 -2 0.5 -3t0.5 -2q2 -8 6 -9.5t11 -1.5h9q6 0 10 1.5t6 9.5q1 1 1 5v212
q0 2 -1 3.5t-6 5.5q-7 4 -11 4h-9q-5 0 -9.5 -3.5t-6.5 -6.5q0 -2 -0.5 -4.5t-0.5 -6.5v-198v-6zM228 151v-151h-117v95q0 21 1 41t1 22l1 6.5t3 12.5l5 13q1 7 3.5 13.5t2.5 7.5l132 315q0 1 1.5 5t2.5 6q1 5 1.5 9t0.5 8q0 7 -0.5 14.5t-0.5 11.5v105h118v-158zM152 699
h-107q-6 0 -13 -3.5t-13 -9t-10.5 -11t-5.5 -9.5v-308q2 -6 10 -15t18 -14l8 -7q6 -6 13.5 -10.5t14.5 -4.5h84l-38 -92q-2 -3 -3.5 -10t-2.5 -13l-4 -10q-3 -8 -3.5 -11t-1.5 -12v-7q-1 -9 -1.5 -24.5t-0.5 -32.5v-110h6l19 -19h141v160l34 82v-191q2 -6 10 -14.5t18 -13.5
l8 -8q6 -6 13.5 -10.5t14.5 -4.5h107q9 0 18.5 7t14.5 15l7 -7q6 -6 13.5 -10.5t14.5 -4.5h107q12 0 23.5 11t14.5 19v306q-2 3 -4.5 7.5t-7.5 9.5l-8 7q-4 9 -16 20.5t-24 11.5h-107q-9 0 -18.5 -6.5t-16.5 -14.5q-6 8 -15 14.5t-18 6.5h-88l60 144v173l-19 19v6h-148v-138
q0 -2 0.5 -4t0.5 -4q0 -4 -1 -9v-4h-1q-1 -4 -3 -8l-34 -82v192q-2 3 -4.5 7.5t-7.5 9.5l-8 7q-4 9 -16 20.5t-24 11.5z" />
    <glyph glyph-name="FL0160h" unicode="&#x160;" horiz-adv-x="595" 
d="M68 481l3 -3zM169 842q1 1 0 1l1 1h-1v-2zM164 828l2 2l-2 3v-3v-2zM179 862q0 2 -1 3v-7v-3q1 1 1 7zM164 828v-1l3 2l-1 1q1 1 1 4v1l-7 4q-6 -2 -6 -7v-3q1 -1 5 -1h5zM279 911q4 -4 4 -10v-11q-11 -23 -16 -38.5t-5 -36.5v-8q-7 -19 -21 -29h-1l-17 -33q0 -2 1 -3
q5 2 9 3t7 1h23q5 0 11 2t11 4l-2 11q-1 3 -1.5 7t-0.5 11q0 6 0.5 10.5t1.5 8.5v2q1 4 1.5 8t0.5 10l2 2v1q7 9 15.5 17.5t19.5 8.5h35l20 -12h-1q4 -5 5 -11l15 -14q5 -5 6 -15l3 -22q1 -2 1.5 -2.5l2.5 -2.5l-3 -17q6 -2 11 -2h11q26 0 41 -12t26 -29l4 -3q1 -2 2 -2.5
t3 -2.5q8 -6 13 -12.5t11 -14.5l5 -4h-1q0 1 -1 1l5 -4q4 -5 7 -9.5t7 -9.5q3 -4 9 -10v-1l1 -1q6 -7 10 -11.5t8 -9.5v-16l4 -71v-22q-2 -5 -3 -9t-2 -9q-2 -9 -4 -18.5t-11 -16.5h-1q-4 -4 -11.5 -9.5t-9.5 -5.5h-3q-5 -8 -15 -12.5t-28 -4.5l-2 2q-2 -1 -7 -1q-7 0 -11 4
l-7 6q1 -2 1 -5q0 -2 1 -4q5 -24 8.5 -48t3.5 -50q0 -7 -0.5 -11.5t-1.5 -8.5q-1 -5 -1 -13q0 -15 5 -28.5t11 -27.5q7 -14 12.5 -29.5t5.5 -32.5v-23q0 -6 -2 -16q0 -7 -3 -11v-20l4 -16q1 -3 1.5 -5t1.5 -4t1.5 -6.5t0.5 -13.5q-4 -4 -5 -6h1v-1l2 -2q3 -3 7 -11l1 -1
q2 -8 4 -15t4 -12h1q5 -5 9.5 -11.5t4.5 -9.5v-4q0 -14 -6.5 -17.5t-17.5 -3.5h-10l-36 5l-19 19h-4q-8 8 -11 13t-3 8l-2 2h-5q-3 18 -3.5 21.5t-0.5 8.5v14l-7 7h-6v39q0 9 -1 19t-4 17q-1 2 -2 3t-2 3l1 -1l-6 9q-7 11 -12.5 22.5t-5.5 26.5v51q-5 9 -8 20.5t-7 22.5
q-2 5 -3 9.5t-3 9.5t-3.5 10.5t-3.5 10.5l-3 6q-4 -17 -7 -32t-4 -19q-1 -1 -2 -5.5t-3 -8.5l-1 -2q0 -3 -1 -5.5t-2 -4.5h-1q-2 -5 -4 -11.5t-2 -8.5q-2 -6 -2 -22q0 -5 -0.5 -10.5t-0.5 -8.5v-4q-2 -11 -5 -23t-8 -23l-3 -6.5t-4 -8.5q-1 -3 -4 -9v-18l2 -44q0 -5 -3 -8.5
t-7 -7.5l-5 -5t-3 -6l2 -40q0 -20 -12 -25t-28 -5q-8 0 -18.5 2.5t-17.5 9.5l-12 12q-8 3 -14 9t-6 17q0 7 5 19v-1q0 1 0.5 1.5t0.5 1.5q1 3 3 11q0 7 2.5 10.5t6.5 8.5l2 2q-4 5 -4 17l14 48l-11 60q0 21 5 37.5t12 33.5q1 3 2 5.5t2 4.5q5 11 8.5 23t3.5 25q0 5 -1 9
q0 1 -0.5 2.5t-0.5 2.5t-0.5 1.5t-0.5 2.5q-1 3 -1.5 7t-0.5 12v24q0 9 0.5 18t2.5 19q-8 -5 -16 -5h-2l-3 1l-4 -3h-50l-2 2q-11 0 -17 8l-12 12q-4 1 -10 5q-8 2 -21 16l-5 5q-11 5 -21 17l7 6l-9 9q-7 4 -11.5 9.5t-4.5 13.5q0 9 2 12.5t9 6.5q-10 6 -16 15.5t-6 20.5
q0 21 20 24h13q-12 8 -20 20.5t-8 30.5v3q0 17 20 19l-1 1q-8 0 -9 4t-1 17l3 9l2 3q1 9 9 15l-15 16h-5v16q-7 4 -13 18q-4 2 -7 5.5t-7 8.5v8q-9 10 -9 31l5 -1q-7 8 -7 12v27l17 -8q-1 3 -1 11v3q0 11 11 19v3q0 12 21 29q11 -8 15 -14t6 -11l9 -8q8 -8 10 -13l4 -10h-1
l4 -4q4 -7 6.5 -11t7.5 -9l1 -1q6 -8 14 -19.5l8 -11.5l-1 1q2 -5 3.5 -8l3.5 -7q1 0 1.5 0.5t1.5 0.5q0 5 -1 7q-3 12 -3 30v16q0 1 -0.5 1.5t-0.5 1.5v17h5l-1 23h11q4 11 15 18q5 14 22 24l3 -2q4 5 10 10t16 10l6 -12l7 -7q3 2 9 8q8 0 14 -4t8 -12l13 -13q1 -1 2 -1z
M171 863q1 0 1.5 -0.5l0.5 -0.5q0 -2 -2 -2q-1 0 -1 2q0 1 1 1zM164 850q1 0 1.5 -0.5l0.5 -0.5q0 -3 -2 -3t-2 3q0 1 2 1zM159 837q2 0 2 -3q0 -2 -2 -2q-1 0 -1 2q0 3 1 3zM161 834q2 0 2 -2t-2 -2l-0.5 0.5t-0.5 1.5t0.5 1.5zM63 821l0.5 -0.5t0.5 -2.5t-0.5 -2.5
l-0.5 -0.5q-2 0 -2 3t2 3zM39 793l-2 1q0 2 1 2q2 0 2 -2zM143 705q3 -1 3 -8h-6zM169 697q0 2 0.5 5t3.5 3t5.5 -5t4.5 -7q0 -5 -2.5 -6t-4.5 -1q-5 0 -6 2t-1 6v3zM154 683q0 -4 4 -5l1 5h1h1q3 0 6 -3v-1q0 -5 -13 -5h-14v9h14zM454 502q6 4 8 9.5t3 10.5t3 10t8 8
q-1 -2 -3 -7.5t-2 -7.5v-3q0 -2 1 -3t1 -6q0 -3 -1 -12t-6 -9q-3 0 -7 4.5t-5 5.5zM491 0h8q5 0 8.5 1.5t3.5 7.5v4q0 2 -5 8t-7 7q-5 8 -7.5 16t-4.5 17q-2 5 -4 5q-1 0 -5 7l-1 2q0 6 5 11q0 3 -1.5 8.5t-3 12t-3 12.5t-1.5 8v28q3 0 3 3q1 2 1.5 8t0.5 8v23q0 16 -5.5 30
t-11.5 28t-11.5 28.5t-5.5 31.5q0 8 1.5 15.5t1.5 17.5q0 31 -5.5 60.5t-10.5 60.5l-0.5 1.5t-0.5 2.5l1 6q10 -3 18 -3q10 0 14 7l-4 -19q0 -7 4 -7q9 0 14.5 8.5t7.5 16.5l2 3l-2 -29q10 0 15.5 4.5t8 11.5t3 15t1.5 15v-29h5q1 0 6 4.5t8 7.5q10 9 10.5 22.5t5.5 24.5v19
l-4 70v13q-5 8 -10.5 13t-11.5 12q-8 12 -14.5 19.5t-18.5 15.5l-1 1t-1 2q-11 17 -23 28t-36 11q-15 0 -27 4q-4 1 -13 3t-12 3q-5 2 -5 9v8l3 26q-1 1 -2 3l-1 2l-3 24q-1 8 -5 9.5t-11 6.5h-30q-7 0 -12 -6.5t-9 -11.5l-1 -1q0 -10 -2 -18t-2 -16t2.5 -14t2.5 -15l-1 -9
q-7 -4 -18 -8t-19 -4h-23q-2 0 -7.5 -1.5t-7.5 -2.5q-9 -6 -13.5 -15t-12.5 -15l-3 56l-4.5 5.5t-4.5 6.5l22 43l2 1l1 1q12 8 16 20v7q0 23 5 39t16 39v4v4q0 3 -2 3q-12 -10 -18.5 -22.5t-12.5 -26.5q-1 -1 -1 -3v-1l-1 -1l2 48q0 2 -0.5 5.5l-0.5 3.5l-1 2
q-9 -5 -12.5 -17t-5.5 -21l-3 22l-3 2q-7 -4 -8 -16t-2 -17q0 1 -2 5.5t-4 6.5q-6 -4 -6 -16q0 -5 0.5 -9t0.5 -6l-8 12h-2l2 -27q0 4 -7 4v-2q0 -2 0.5 -3.5t0.5 -2.5l3 -6q0 -1 -1.5 -2l-1.5 -1v-4q0 -12 3 -24.5t3 -23.5q-7 0 -17.5 -2.5t-14.5 -9.5q-9 7 -12.5 13.5
t-5 13t-3 12.5t-6.5 13q-8 14 -18 26.5t-20 27.5q-2 5 -4.5 11t-8.5 11q-6 -5 -6 -9q0 -11 8.5 -28t13.5 -24v-3q-20 18 -30 40q-3 -2 -3 -7v-3q0 -12 9.5 -25t17.5 -21l-43 19v-3q0 -1 8.5 -9t13.5 -13l19 -11h-7l-32 5q0 -5 5 -8t10 -4q-3 0 -6 -3v-2q4 -5 12 -8.5
t13 -5.5q-2 -1 -5.5 -2t-4.5 -3q2 -5 9 -6t11 -3q-2 -1 -5 -3t-3 -6v-1q5 -4 6 -5t5 -6t15 -9t11 -5l-1 -2l-19 -14q-4 -1 -6 -6.5t-4 -9.5l-1 -3l0.5 -2t2.5 -2q1 0 2 1l22 11l-10 -9l-4 -7l2 -3q1 1 3 3.5t3 2.5h2q5 0 6 -5t9 -5q4 0 5 1q-2 -2 -3 -6v-2l3 -12v-1
l-1.5 -1.5t-1.5 -2.5q0 -4 7.5 -13t7.5 -17v-1q-3 2 -10.5 6.5t-16 10t-16.5 10.5t-11 7l-5 1q-5 0 -5 -4v-3q0 -15 7 -24.5t17.5 -16t23 -10t23.5 -5.5q-3 -4 -7.5 -5t-9.5 -2h-2q-3 0 -10 -0.5t-14.5 -1t-14.5 -1t-10 -0.5q-8 -2 -8 -9q0 -11 9 -19.5t20 -8.5l47 9v-1
l-6.5 -3.5t-15.5 -7.5t-19 -8.5t-16 -7.5q-5 -2 -6.5 -2.5t-1.5 -5.5q0 -8 11.5 -11t16.5 -3q2 0 4 0.5l2 0.5q2 1 7.5 4.5t12 8t11.5 8t7 5.5l5 3v-6q-1 -1 -10.5 -10t-14.5 -16l-15 -11l-13 -12q4 -4 12 -4h7h3h10l38 43q1 0 1.5 -0.5l0.5 -0.5l-3 -5l-37 -47v-3
q0 -5 4.5 -8t9.5 -3q4 0 7 3t7 4q-3 -2 -3 -9h34l6 4l6 -2h1q11 0 21 9t20 15q2 0 9.5 3.5t9.5 5.5q5 2 7.5 6.5t8.5 4.5q0 -17 -8.5 -37t-12.5 -34q-3 -10 -4 -19.5t-1 -19.5v-24q0 -11 2.5 -19.5t2.5 -17.5q0 -17 -5 -32.5t-11.5 -30.5t-11.5 -30.5t-5 -32.5l12 -64
l-15 -51q0 -4 3 -5t3 -5q0 -8 -6 -13t-7 -13t-5 -16t-4 -14q0 -10 11.5 -13t19.5 -3q11 0 19.5 3t8.5 15l-2 39q0 10 9 17t9 11l-2 43v4v18q2 6 6 12t6 13q7 19 12 44q0 1 0.5 7.5t0.5 13.5q0 17 2 23q0 3 4.5 15t5.5 14t3 10.5t3 9.5q1 5 5.5 22t10 35t10.5 32.5t8 14.5
l4 -1q5 -25 10.5 -41t13.5 -38q8 -20 14.5 -41t14.5 -41v-57q0 -15 10 -29.5t16 -27.5q4 -8 5 -19.5t1 -22.5v-24q10 0 13 -9v-13v-14q0 -2 1 -8.5l1 -6.5q1 0 4.5 -3t3.5 -4q1 -1 1 -5v-5q0 -2 4 -6z" />
    <glyph glyph-name="FL2039h" unicode="&#x2039;" horiz-adv-x="176" 
d="M21 277l-18 14v136l141 110v-9l19 -19v-149l-25 -19l6 -4v-4l19 -19v-149l-135 105zM93 359l36 28v120l-111 -86v-124l111 -86v120z" />
    <glyph glyph-name="FL0152h" unicode="&#x152;" horiz-adv-x="643" 
d="M416 702h-48q-2 1 -6 5t-6 5h-3l-11 -10h-37l19 -20l-3 -6q-2 -2 -5.5 -8t-4.5 -7l-3 -3v-3h3l47 18l42 -18h6l-14 21zM481 602q0 8 -3.5 11.5t-8.5 6.5l-2 2l-1 1q-4 -2 -7 -9t-5.5 -15.5t-4 -17t-1.5 -13.5v-9q0 -5 0.5 -9.5t2.5 -9.5h2q3 0 7.5 8t9 18.5t8 20.5
t3.5 15zM118 95q-6 -5 -6 -15l1 -15q0 -8 -3 -12q-1 -1 -3.5 -4.5t-2.5 -4.5l-3 -6q-9 -20 -18 -29.5t-36 -9.5l-14 1q-6 3 -10.5 7t-4.5 10q0 10 8 20.5t13 18.5q2 4 6.5 12t4.5 9q2 1 8 8.5t7 9.5q4 9 5 22.5t1 24.5v12l-14 12q4 23 10.5 36t15.5 32q2 5 4 14t8 13
q14 11 29.5 21t20.5 30q0 2 -3 2l-29 15q-35 17 -52 51.5t-17 70.5q0 35 14 61t39 48q7 6 16.5 10t14.5 11q10 16 9 33.5t5 35.5q8 18 19.5 42t28.5 38q8 7 17.5 10t19 5l19 4t18.5 7q2 2 11.5 7.5t11.5 7.5l3 3v66q0 2 4 8t6 10l38 21q3 3 3 6t3 3q2 0 3 -1l9 -12l24 -6
q1 -1 7 -3t8 -2q1 0 7 6q0 3 3 3h4q3 0 7.5 -1t4.5 -6q0 -3 -6.5 -12t-8.5 -11q-3 -14 -5.5 -28.5t-2.5 -28.5q0 -16 11.5 -23t26.5 -10.5t30.5 -5.5t23.5 -8q20 -16 31 -37t25 -41q7 -10 18.5 -19.5t11.5 -23.5l-12 -37v-2l16 -33l-79 -47q-10 -8 -10.5 -17t-10.5 -14
q14 -42 20.5 -80t10.5 -83l23 -48q3 -5 8 -6t10 -5q3 -3 5.5 -11.5t4.5 -18.5t3.5 -20t1.5 -15q0 -8 -7 -10.5t-11 -8.5q-5 -8 -5.5 -16.5t-0.5 -17.5q0 -24 11 -39.5t31 -29.5l11 -9v-23q0 -7 -8.5 -10t-13.5 -3q-15 0 -23.5 3t-13 7.5t-6 9.5t-4.5 10q-5 6 -12 8.5
t-11 5.5q-6 4 -6 15q0 9 2 17t2 16q0 11 -3.5 21.5t-11.5 17.5q-3 0 -12.5 1t-11.5 2q-4 1 -14 4.5t-10 7.5v59q5 8 5.5 12t0.5 11q0 23 -14 39t-25 33l-56 98h-8q-11 -23 -23 -40t-32 -34l-18 -18t-27 -28.5t-25 -29t-12 -19.5l3 -9v-7q0 -12 -8 -19t-10 -18v-30
q-14 -8 -28.5 -13t-29.5 -5h-4q-7 -4 -9 -13.5t-2 -18.5q0 -5 0.5 -9t0.5 -6zM453 129q6 -6 16 -10t14 -5h3q1 -3 1 -8q0 -3 -2 -13q-1 -4 -1.5 -8.5t-0.5 -11.5q0 -19 13 -28q2 -3 7 -4l13 -13q0 -1 1 -1q3 -7 8 -13t16 -11l11 -10q5 -6 15 -9.5t29 -3.5q8 0 21 6t13 19v29
l-19 19v4l-17 13q-8 4 -12 9q-5 9 -5 27v4q0 6 0.5 12t2.5 11h1l2 1t4 3h-1q6 4 10.5 8t4.5 14q0 6 -2 17t-5.5 23t-7.5 22.5t-8 14.5l-13 12q-2 5 -4 8t-4 5h-1l-11 25q-4 42 -10 79t-19 77q3 3 4.5 6.5t3.5 8.5q2 7 7 11l87 52l-20 39l12 36q0 12 -5.5 20t-13.5 16l-5 4
q-3 6 -7 10.5t-8 8.5q-9 14 -10 18q-7 11 -13 22t-16 21l-5 5q-9 12 -22 25h1q-13 11 -24.5 14t-25.5 5q-11 1 -24 5q0 11 2.5 23t4.5 25q5 5 10.5 14t5.5 13q0 9 -5 14l-15 14q-2 12 -11 14t-15 2h-4q-12 0 -16 -7q-4 2 -4 3l-21 4l-2 4q-8 8 -12 9.5t-6 1.5q-15 0 -18 -12
l-31 -18q-10 -10 -12 -14q-8 -11 -8 -19v-59l-8 -5q-3 -2 -5.5 -4t-5.5 -4q-5 -2 -11.5 -3.5t-12.5 -3.5h-3q-13 -2 -25.5 -6.5t-28.5 -18.5q-16 -15 -25.5 -34t-16.5 -35l-4 -8q-4 -12 -5 -21t-2 -17t-2 -16.5t-4 -15.5l-10 -6h1q-1 -1 -2 -1h-1l-10 -6t-7 -5
q-27 -23 -42.5 -51.5t-15.5 -68.5q0 -38 16 -73.5t49 -55.5l2 -2q10 -12 24 -21q-8 -9 -18 -15q-2 -1 -3.5 -2t-3.5 -3q-1 0 -1.5 -0.5l-0.5 -0.5l-2 -2v1q-11 -8 -14.5 -15t-5.5 -14v-1q-2 -4 -2 -6q-2 -4 -3.5 -8t-3.5 -7q-1 -2 -1.5 -3.5t-1.5 -3.5q-5 -11 -9 -23t-9 -36
l15 -13v-5q0 -11 -1 -22.5t-4 -19.5q-1 -2 -7 -6.5t-9 -5.5q0 -3 -3 -10t-5 -12l-6 -10q-7 -9 -12.5 -18.5t-5.5 -20.5t6.5 -18t15.5 -12l11 -11q3 -3 7 -5.5t9 -4.5l16 -1q17 0 27.5 2.5t17 8.5t11.5 14.5t10 20.5l4 8q0 1 2.5 4t3.5 4q3 3 3 16l-1 16q0 3 1 4l5 10v4
q0 2 -0.5 5t-0.5 6q0 5 0.5 11t2.5 9q17 0 34.5 6t35.5 17v35q1 7 5 11h1q5 6 8.5 11.5t3.5 16.5v8l-3 7q2 6 12.5 19t23.5 26.5t25 25.5l16 16h1q28 25 45 52l31 -54q1 -1 5.5 -6.5t10.5 -12.5q8 -11 14.5 -21t6.5 -23v-3q0 -3 -0.5 -5t-5.5 -10v-64q0 -6 5 -11t12 -9z
M539 15l-1 1v0q1 0 1 -1z" />
    <glyph glyph-name="FL017Dh" unicode="&#x17d;" horiz-adv-x="643" 
d="M481 104q0 2 0.5 3t0.5 3q-24 6 -48 21l-13 12q-4 2 -12 8v35q-3 4 -3 8q-1 0 -1 1q-6 8 -10 15t-4 17v9l2 6q-2 4 -8.5 11.5t-14.5 17t-17.5 19.5t-18.5 19h1l-18 18q-11 8 -18.5 16.5t-15.5 17.5l-43 -76q-2 -4 -6 -9t-9 -10q-8 -11 -15 -21.5t-7 -24.5v-3
q0 -4 0.5 -6.5t5.5 -10.5v-62q0 -5 -4.5 -9t-10 -7t-11 -5.5t-8.5 -2.5h-1q-4 -1 -9.5 -2t-10.5 -1q-5 -5 -6.5 -12t-1.5 -15q0 -4 2 -14q1 -4 1.5 -8.5t0.5 -10.5q0 -17 -11 -25h-1q-3 -3 -10 -5q-2 -2 -4 -2.5t-4 -1.5q-1 -2 -1.5 -3.5t-1.5 -3.5q-3 -5 -6 -10.5t-9 -10
t-15.5 -7t-24.5 -2.5q-5 0 -13.5 2.5t-14.5 8.5l-13 12q-7 4 -12.5 9.5t-5.5 14.5v30l16 13q17 12 27 25t10 33v4q0 5 -0.5 10t-2.5 10q-2 1 -5 4q-7 4 -11.5 9t-4.5 16q0 6 2 17.5t5.5 23.5t8 23t8.5 15q2 2 5 2l4 2h1q0 1 1 1l21 45q4 39 9.5 75t19.5 78q-3 4 -7 12
q-1 1 -1 3h-1v1l-68 41l-11 11l-15 9l20 42l-11 34q0 15 8 25t16 18q1 1 2.5 3t6.5 8h-1q5 8 10.5 16t7.5 10q1 1 1 2t1 2l-1 -1q7 12 14.5 23.5t20.5 22.5h-1q13 11 24.5 14t25.5 5q16 2 29.5 6.5t13.5 15.5q0 12 -2 25t-5 27q-5 6 -10.5 14.5t-5.5 13.5q0 17 10 19.5
t17 2.5h4q11 0 15 -7q4 2 5 3l20 4l3 4q8 8 11.5 9.5t6.5 1.5q14 0 17 -12l33 -18q3 -5 4 -6l2 -2l3 -3q1 -2 2.5 -4.5t2.5 -4.5l6 -5q1 -2 3 -4l6 -6q3 -5 6 -10.5t3 -9.5v-51q5 -2 12 -3t15 -3q12 -2 25 -6.5t29 -18.5q5 -5 9.5 -10.5t8.5 -11.5l3 -3q14 -14 23.5 -32.5
t16.5 -34.5l4 -8q4 -13 5 -21l2 -16v-10q0 -4 2 -9q2 -2 3 -2q-1 1 3 -2t7 -5q10 -9 18 -17.5t15 -18.5q21 -22 33 -47.5t12 -58.5q0 -39 -18.5 -76.5t-57.5 -56.5h1l-20 -11q1 0 1.5 -0.5t1.5 -0.5q2 -1 3.5 -2t3.5 -3l0.5 -0.5t1.5 -0.5h-1l3 -3v2q7 -5 10.5 -10t5.5 -10
l12 -11q5 -5 7.5 -11t4.5 -12h-1q1 -2 1.5 -4.5t0.5 -1.5l-1 1l4 -8t4 -7q6 -14 11 -26t10 -38l-15 -13v-6q0 -10 1 -21t3 -19l17 -17q0 -2 2.5 -9t4.5 -12l2 -1l6 -9q6 -8 11.5 -17t5.5 -20t-7 -17.5t-17 -11.5l-17 -1q-18 0 -28.5 3t-17.5 10l-11 11q-13 5 -19 15.5
t-14 27.5l-4 8q0 1 -2 3.5t-3 3.5q-4 5 -4 18l1 15v1q-1 2 -6 7v16zM198 702h48q2 1 6 5t6 5h3l11 -10h37l-19 -20l3 -6q2 -2 5.5 -8t4.5 -7l3 -3v-3h-3l-47 18l-42 -18h-6l14 21zM133 602q0 8 3.5 11.5t8.5 6.5l2 2l1 1q4 -2 7 -9t5.5 -15.5t4 -17t1.5 -13.5v-9
q0 -5 -0.5 -9.5t-2.5 -9.5h-2q-3 0 -7.5 8t-9 18.5t-8 20.5t-3.5 15zM496 95q6 -5 6 -15l-1 -15q0 -8 3 -12q1 -1 3.5 -4.5t2.5 -4.5l3 -6q9 -20 18 -29.5t36 -9.5l14 1q6 3 10.5 7t4.5 10q0 10 -8 20.5t-13 18.5q-2 4 -6.5 12t-4.5 9q-2 1 -8 8.5t-7 9.5q-4 9 -5 22.5
t-1 24.5v12l14 12q-4 23 -10.5 36t-15.5 32q-2 5 -4 14t-8 13q-14 11 -29.5 21t-20.5 30q0 2 3 2l29 15q35 17 52 51.5t17 70.5q0 35 -14 61t-39 48q-7 6 -16.5 10t-14.5 11q-10 16 -9 33.5t-5 35.5q-8 18 -19.5 42t-28.5 38q-8 7 -17.5 10t-19 5l-19 4t-18.5 7
q-2 2 -11.5 7.5t-11.5 7.5l-3 3v66q0 2 -4 8t-6 10l-38 21q-3 3 -3 6t-3 3q-2 0 -3 -1l-9 -12l-24 -6q-1 -1 -7 -3t-8 -2q-1 0 -7 6q0 3 -3 3h-4q-3 0 -7.5 -1t-4.5 -6q0 -3 6.5 -12t8.5 -11q3 -14 5.5 -28.5t2.5 -28.5q0 -16 -11.5 -23t-26.5 -10.5t-30.5 -5.5t-23.5 -8
q-20 -16 -31 -37t-25 -41q-7 -10 -18.5 -19.5t-11.5 -23.5l12 -37v-2l-16 -33l79 -47q10 -8 10.5 -17t10.5 -14q-14 -42 -20.5 -80t-10.5 -83l-23 -48q-3 -5 -8 -6t-10 -5q-3 -3 -5.5 -11.5t-4.5 -18.5t-3.5 -20t-1.5 -15q0 -8 7 -10.5t11 -8.5q5 -8 5.5 -16.5t0.5 -17.5
q0 -24 -11 -39.5t-31 -29.5l-11 -9v-23q0 -7 8.5 -10t13.5 -3q15 0 23.5 3t13 7.5t6 9.5t4.5 10q5 6 12 8.5t11 5.5q6 4 6 15q0 9 -2 17t-2 16q0 11 3.5 21.5t11.5 17.5q3 0 12.5 1t11.5 2q4 1 14 4.5t10 7.5v59q-5 8 -5.5 12t-0.5 11q0 23 14 39t25 33l56 98h8
q11 -23 23 -40t32 -34q4 -5 16.5 -18t27 -28t26 -29t12.5 -20l-3 -9v-7q0 -12 8 -19t10 -18v-30q14 -8 28.5 -13t29.5 -5h4q7 -4 9 -13.5t2 -18.5q0 -5 -0.5 -9t-0.5 -6z" />
    <glyph glyph-name="FL2018h" unicode="&#x2018;" 
d="M138 478h-120v109l120 99v-208zM153 717l-150 -123v-131h6l19 -19h144v245l-19 19v9z" />
    <glyph glyph-name="FL2019h" unicode="&#x2019;" 
d="M18 686h120v-109l-120 -99v208zM3 446l5 4l20 -20l144 119v127l-19 19v6h-150v-255z" />
    <glyph glyph-name="FL201Ch" unicode="&#x201c;" horiz-adv-x="325" 
d="M278 478h-120v109l120 99v-208zM138 478h-120v109l120 99v-208zM293 717l-121 -100v72l-19 19v9l-150 -123v-131h6l19 -19h284v245l-19 19v9z" />
    <glyph glyph-name="FL201Dh" unicode="&#x201d;" horiz-adv-x="325" 
d="M18 686h120v-109l-120 -99v208zM158 686h120v-109l-120 -99v208zM3 446l5 4l20 -20l115 94v-78l5 4l20 -20l144 119v127l-19 19v6h-290v-255z" />
    <glyph glyph-name="FL2022h" unicode="&#x2022;" horiz-adv-x="177" 
d="M74 544q10 -15 19.5 -34t17 -38t13 -34.5t6.5 -23.5v-143q-1 -9 -6 -24.5t-13 -34t-17.5 -37.5t-19.5 -34q-10 15 -19.5 33.5t-17 37.5t-13 34.5t-6.5 24.5v143q1 7 6.5 23t13 34.5t17 38t19.5 34.5zM62 554q-11 -16 -21 -36.5t-18 -40.5t-13.5 -36.5t-6.5 -24.5v-147
q1 -9 7.5 -27.5t16.5 -40.5t22.5 -45.5t25.5 -42.5q0 1 2 3l19 -19q12 19 24 41.5t21.5 43.5t15.5 38.5t7 26.5v147q-1 8 -6.5 24.5t-13.5 36t-18 39.5t-20 35l-12 11q-2 4 -4 7.5t-4 6.5h-24z" />
    <glyph glyph-name="FL2013h" unicode="&#x2013;" horiz-adv-x="275" 
d="M228 407v-113h-210v113h210zM3 422v-143h6l19 -19h234v137l-19 19v6h-240z" />
    <glyph glyph-name="FL2014h" unicode="&#x2014;" horiz-adv-x="382" 
d="M335 407v-113h-317v113h317zM3 422v-143h6l19 -19h341v137l-19 19v6h-347z" />
    <glyph glyph-name="FL0040h" unicode="&#x2dc;" horiz-adv-x="396" 
d="M133 407h99v131q0 19 -5 31.5t-31 12.5h-28q-10 0 -20 -6.5t-12 -12.5t-3 -22v-134zM295 686q7 0 16 -5t16.5 -11.5t13.5 -14t8 -12.5v-643h-117v294h-99v-294h-115v643q2 5 7.5 12.5t13 14t16 11.5t16.5 5h224zM295 701h-224q-10 0 -21 -6.5t-21 -15.5t-17 -18.5
t-9 -15.5v-660h6l19 -19h139v294h50v-275h6l19 -19h141v656q-5 12 -20 27l-2 1q-4 7 -11.5 16t-17 16.5t-19.5 13t-18 5.5zM167 519q1 11 3 19h-1q2 4 8 7t13 3h27v-10v-116h-50v97z" />
    <glyph glyph-name="a" unicode="&#x2122;" horiz-adv-x="949" 
d="M320 175q1 -3 4 -4zM464 445q-8 -14 -16.5 -29t-16.5 -29h62v111q-4 -7 -11.5 -21.5t-17.5 -31.5zM345 162q7 -5 13 -8t12 -10q22 -8 34 -10.5t33 -2.5h11q21 0 33 3q5 4 11 9t6 6v55h-137l-20 -41h2v-1l0.5 -0.5t1.5 -0.5v1zM707 663q-3 2 -7 5t-9 8v-433q13 15 23 32.5
t24 40.5q23 44 33 86.5t10 83.5q0 46 -20 93.5t-51 80.5zM185 442q0 -22 1.5 -49t8.5 -52l3 6q4 8 5 11q20 37 49 89t61.5 107t64.5 108t57 93q-56 -8 -102 -37.5t-79 -72t-51 -95.5t-18 -108zM3 441q0 102 36 187t99 146t149.5 95t187.5 34q105 0 195 -48.5t153 -129.5
q44 -50 72.5 -109.5t39.5 -126.5l1 -14v-56q0 -99 -34 -182t-94 -143.5t-142 -94.5t-179 -34q-91 0 -169 29t-139 82q-81 61 -128.5 154.5t-47.5 210.5zM508 372h-133q5 9 17 30.5t25.5 46t26 46.5t17.5 31q13 27 21.5 49.5t25.5 51.5v-255zM151 464q0 63 22.5 122t62.5 105
t95.5 73.5t121.5 27.5q4 0 11.5 -1.5t7.5 -7.5l-0.5 -0.5t-0.5 -1.5q-15 -24 -36 -57.5t-44.5 -72.5t-48.5 -81t-48.5 -83t-44 -77.5t-35.5 -64.5q-6 -11 -10.5 -23t-13.5 -19q-13 15 -21 35.5t-12 42.5t-5 43.5t-1 39.5zM662 724q0 1 6 -5l14.5 -14.5t18 -17t15.5 -12.5
q18 -18 32.5 -40t25 -47t16.5 -51t6 -51q0 -43 -10 -87.5t-34 -89.5q-11 -20 -20.5 -35.5t-20 -29t-23.5 -26t-31 -26.5v532h5zM360 133q-5 6 -14.5 11t-18.5 10t-15.5 11t-6.5 15q0 2 0.5 3.5l0.5 1.5l26 53h181v-89q0 -1 -3 -5t-7 -8.5t-8.5 -8.5t-7.5 -6q-6 -2 -17 -3.5
t-22 -1.5h-11q-12 0 -20 0.5t-16.5 2.5t-18 5.5t-22.5 8.5zM18 441q0 -96 34.5 -177t94.5 -140t141.5 -92t176.5 -33q94 0 174 33t138.5 92t91.5 140t33 177v56l-1 13q-12 78 -50 146.5t-95 120t-129 81.5t-152 30q-98 0 -181.5 -32.5t-145 -92t-96 -141.5t-34.5 -181z" />
    <glyph glyph-name="FL0161h" unicode="&#x161;" horiz-adv-x="339" 
d="M304 859l-86 -111h-124l-89 111h120l31 -36l28 36h120zM18 109h150l2 6v39l-151 373v109q4 7 8 15.5t9.5 16t12.5 12.5t16 5h227v-105h-155q-2 0 -2 -12q0 -8 0.5 -17.5t2.5 -13.5q1 -2 2.5 -6t1.5 -5l132 -315q0 -1 2 -7.5t4 -13.5l5 -13q2 -6 3 -12.5l1 -6.5
q0 -2 1 -22t1 -41v-23q0 -6 -0.5 -18t-3.5 -24t-9 -21t-17 -9h-243v109zM3 -15h6l19 -19h255q15 0 23.5 10.5t12.5 24.5t5 28t1 21v23q0 17 -0.5 32.5t-1.5 24.5v7q-1 8 -1.5 11t-3.5 11l-5 13q-2 5 -3.5 11.5t-1.5 8.5l-133 317l-1 1q0 1 -2 7v1h-1q-2 5 -2 12v16h157v129
l-19 19v6h-242q-21 0 -32 -13.5t-19 -28.5q-1 -1 -1 -2t-1 -2q-1 -2 -2 -3.5t-2 -3.5l1 1l-5 -8v-117l151 -374v-25h-152v-139zM178 874l-22 -28l-24 28h-158l113 -141h4l19 -19h135l105 135l-20 20l4 5h-156z" />
    <glyph glyph-name="FL203Ah" unicode="&#x203a;" horiz-adv-x="176" 
d="M54 359l-36 28v120l111 -86v-124l-111 -86v120zM3 337v-156l5 4l20 -20l135 105v134l-19 19v4l-141 110v-156l18 -15l9 -8z" />
    <glyph glyph-name="FL0153h" unicode="&#x153;" horiz-adv-x="587" 
d="M168 250q1 -9 5.5 -25t12 -34.5t16.5 -37t18 -32.5q1 -1 4 -1h49v425h-27q-8 0 -20.5 -19.5t-25 -45.5t-22 -51.5t-10.5 -37.5v-141zM443 124h112v-6l19 -19v-133h-411q-10 0 -25 15l-8 8q-16 9 -37.5 38t-41 63t-33.5 65t-15 44v287q1 9 9 28.5t20 43.5t27 49t30 45.5
t29 34t23 13.5h414v-6l19 -19v-129h-128v-123h107v-6l19 -19v-138h-129v-136zM288 579v-474h-64q-9 0 -24 21t-29 49t-25 55.5t-12 40.5v143q1 13 12 40t25 55t29 49t24 21h64zM540 0v109h-131v185h129v114h-126v172h128v105h-399q-8 0 -20 -12.5t-25.5 -32t-27 -43
t-24.5 -45.5t-18 -40.5t-8 -26.5v-285q1 -9 8 -27t18 -40t24.5 -45.5t27 -43t25.5 -32t20 -12.5h399z" />
    <glyph glyph-name="FL017Eh" unicode="&#x17e;" horiz-adv-x="339" 
d="M304 859l-86 -111h-124l-89 111h120l31 -36l28 36h120zM292 0h-273v95q0 21 1 41t1 22l1 6.5t3 12.5l5 13q1 7 3.5 13.5t2.5 7.5l132 315q0 1 1.5 5t2.5 6q2 4 2.5 13.5t0.5 17.5q0 12 -2 12h-155v105h273v-158l-151 -373v-45h152v-109zM307 124h-133v5l151 373v173
l-19 19v6h-303v-135h6l19 -19h130q0 -2 -0.5 -2.5t-0.5 -1.5v-2q-1 -3 -1.5 -4l-1.5 -3l-133 -318q-2 -3 -3.5 -10t-2.5 -13l-4 -10q-3 -8 -3.5 -11t-1.5 -12v-8q-1 -9 -1.5 -24.5t-0.5 -31.5v-110h6l19 -19h297v133l-19 19v6zM178 874l-22 -28l-24 28h-158l113 -141h4
l19 -19h135l105 135l-20 20l4 5h-156z" />
    <glyph glyph-name="FL00A1h" unicode="&#xa1;" 
d="M138 576h-120v109h120v-109zM138 0h-120v466h120v-466zM153 481h-150v-496h6l19 -19h144v490l-19 19v6zM153 700h-150v-139h6l19 -19h144v133l-19 19v6z" />
    <glyph glyph-name="FL00A2h" unicode="&#xa2;" horiz-adv-x="383" 
d="M168 250q2 -13 12.5 -41.5t24.5 -55.5v333q-14 -27 -24.5 -54.5t-12.5 -40.5v-141zM287 120h64v-6l19 -19v-129h-82v-80h-58l-19 19h-6v61h-42q-10 0 -25 15l-8 8q-16 9 -37.5 38t-41 63t-33.5 65t-15 44v287q1 9 9 28.5t20 43.5t27 49t30 45.5t29 34t23 13.5h64v68h63
v-6l19 -19v-43h64v-6l19 -19v-130h-83v-425zM220 106q-10 4 -24.5 25.5t-27.5 48.5t-23 53t-11 38v143q1 12 11 37.5t23 52t27.5 48t24.5 26.5v-472zM254 -80v80h82v105h-83v474h83v106h-83v68h-33v-68h-79q-8 0 -20 -12.5t-25.5 -32t-27 -43t-24.5 -45.5t-18 -40.5
t-8 -26.5v-285q1 -9 8 -27t18 -40t24.5 -45.5t27 -43t25.5 -32t20 -12.5h79v-80h34z" />
    <glyph glyph-name="FL00A3h" unicode="&#xa3;" horiz-adv-x="441" 
d="M10 279h-6v143h98v222q2 6 9 15.5t17 18.5t21 15.5t21 6.5h239v-6l19 -19v-126h-138q-9 -1 -13.5 -3.5t-8.5 -11.5h-1v-112h80v-6l19 -19v-137h-99v-145h142v-6l19 -19v-124h-400l-19 19h-6v131h98v144h-72zM233 550q0 2 2 10q5 15 12.5 18.5t20.5 4.5h126v102h-224
q-8 0 -16.5 -5t-16 -11.5t-13 -14t-7.5 -12.5v-235h-98v-113h97v-193h-98v-101h376v100h-161v194h99v113h-99v143z" />
    <glyph glyph-name="FL00A5h" unicode="&#xa5;" horiz-adv-x="361" 
d="M8 221h18l-12 12h-6v143h45l-50 103v222h147v-6l19 -19v-188q0 -5 1 -10v-5l7 16q2 4 3 8q1 2 1 8v196h148v-6l19 -19v-218l-39 -82h13v-6l19 -19v-137h-18l18 -18v-137h-78v-93h-147l-19 19h-6v74h-58l-19 19h-6v143zM106 248v-42h-83v-113h83v-93h123v93h78v113h-78v42
h78v113h-50l57 122v203h-118v-181q0 -9 -1 -12q-1 -2 -2.5 -6t-1.5 -5l-25 -61l-25 61q0 1 -1.5 5t-2.5 6q-1 5 -1.5 9t-0.5 8v176h-117v-203l59 -122h-54v-113h83z" />
    <glyph glyph-name="FL00A6h" unicode="&#xa6;" 
d="M18 284h120v-284h-120v284zM18 685h120v-291h-120v291zM3 379h6l19 -19h144v315l-19 19v6h-150v-321zM3 -15h6l19 -19h144v308l-19 19v6h-150v-314z" />
    <glyph glyph-name="c" unicode="&#xa7;" horiz-adv-x="958" 
d="M674 637h-1v1l2 -2h-1v1zM250 211q6 -6 9 -8l-17 17q2 -3 8 -9zM433 502q-3 -6 -11.5 -9.5t-20.5 -6t-25.5 -3.5t-26.5 -2q20 -15 27 -22l3 -3q1 -1 2 -1.5t2 -1.5l-1 1q3 -2 5 -4t3 -8l16 -15q4 -4 4 -14l-11 -46q3 2 6.5 4t5.5 4q17 11 29 19.5t17 10.5h20l97 -51
l-28 86q0 1 3.5 6.5t9 12t11.5 13.5t11 10l8 8l-30 2l-20 6l-17 17l-7 2l-40 72l-41 -87h-1zM179 457q0 59 23 110t62 89t90.5 59.5t108.5 21.5q69 0 127.5 -30.5t96.5 -82.5q35 -37 55 -86t20 -104q0 -57 -20.5 -109t-57 -91t-86.5 -62t-109 -23q-55 0 -103 19t-86 53
q-56 39 -88.5 100.5t-32.5 135.5zM165 430q0 -51 15 -97.5t43 -87.5q44 -53 106 -84.5t134 -31.5q67 0 124.5 26.5t99.5 71t65.5 103.5t23.5 124q0 69 -28 131t-77 107q-38 29 -84.5 46t-97.5 17q-67 0 -126 -26t-103 -70t-69.5 -103t-25.5 -126zM414 923q3 0 6.5 0.5
t6.5 0.5h29q57 0 111.5 -13t103 -37t90 -59t74.5 -79q23 -27 43 -58t34 -66q7 -17 11 -31l8 -28t7.5 -27t6.5 -21v-152q0 -6 -6 -22q-2 -6 -3.5 -12l-2.5 -10q-24 -78 -66.5 -141.5t-100.5 -108.5t-129.5 -70t-153.5 -25h-9q-5 0 -10 0.5t-10 0.5q-6 0 -11.5 0.5t-10.5 0.5
h-11q-68 12 -129 40t-112 73q-47 37 -84 84.5t-60 104.5l-2 4q-1 2 -1.5 4.5t-1.5 4.5l-2 6l-2 6q-8 23 -16 49t-8 44v131q0 15 6.5 38.5t13.5 43.5q3 7 5 13v1l0.5 2.5t1.5 4.5q21 59 58.5 109.5t85.5 90t104.5 66t115.5 37.5h20zM376 438q0 2 -4 5.5t-6 5.5
q-4 4 -15.5 12.5t-24.5 18.5t-24.5 18.5t-15.5 11.5q9 2 27 3.5t37 3.5t34 4.5t17 7.5l55 116h5q4 0 4 -4l61 -112l10 -3l92 -4q2 0 8.5 -1.5t7.5 -3.5q-3 -2 -11 -9t-17 -14.5t-16.5 -14t-10.5 -9.5q-4 -3 -9 -7.5t-9 -9t-7 -8l-3 -3.5l40 -118l-128 66h-12
q-6 -4 -20.5 -13.5t-31 -20t-31.5 -20.5l-21 -14q-3 -3 -8 -3v3zM194 457q0 -57 21.5 -107t58.5 -87t86.5 -58.5t106.5 -21.5t104.5 22t82.5 59.5t54.5 87t19.5 104.5t-21 103.5t-57 84.5t-84 57t-103 21q-54 0 -102.5 -20.5t-85.5 -56.5t-59 -84.5t-22 -103.5zM131 452
q0 69 26.5 130.5t72 107.5t106.5 72.5t131 26.5q69 0 128 -27.5t102.5 -74t68.5 -107t25 -126.5q0 -68 -25 -130t-68.5 -108.5t-104 -74t-130.5 -27.5q-68 0 -128.5 27.5t-105.5 74t-71.5 107.5t-26.5 129zM397 908q-57 -11 -111.5 -36t-101 -62t-82 -84.5t-55.5 -103.5
q-3 -9 -8 -23t-9.5 -29t-8 -29t-3.5 -24v-131q0 -11 3.5 -25.5t8.5 -30t10.5 -30.5t9.5 -26q23 -55 59 -101t81.5 -81t99 -58.5t111.5 -33.5q4 0 12.5 -0.5t18.5 -0.5q9 0 17 -0.5t12 -0.5q79 0 149 24t126.5 67.5t98 105t64.5 136.5q2 11 7 26t5 18v151q-10 26 -15.5 51.5
t-16.5 51.5q-27 64 -70 116t-98 88.5t-120 56t-135 19.5h-29q-10 0 -18.5 -0.5t-11.5 -0.5z" />
    <glyph glyph-name="FL00A8h" unicode="&#xa8;" horiz-adv-x="382" 
d="M18 860h120v-109h-120v109zM215 860h120v-109h-120v109zM200 736h6l19 -19h144v133l-19 19v6h-150v-139zM3 736h6l19 -19h144v133l-19 19v6h-150v-139z" />
    <glyph glyph-name="FL00B9h" unicode="&#xaa;" horiz-adv-x="396" 
d="M133 407h99v131q0 19 -5 31.5t-31 12.5h-28q-10 0 -20 -6.5t-12 -12.5t-3 -22v-134zM295 686q7 0 16 -5t16.5 -11.5t13.5 -14t8 -12.5v-643h-117v294h-99v-294h-115v643q2 5 7.5 12.5t13 14t16 11.5t16.5 5h224zM295 701h-224q-10 0 -21 -6.5t-21 -15.5t-17 -18.5
t-9 -15.5v-660h6l19 -19h139v294h50v-275h6l19 -19h141v656q-5 12 -20 27l-2 1q-4 7 -11.5 16t-17 16.5t-19.5 13t-18 5.5zM167 519q1 11 3 19h-1q2 4 8 7t13 3h27v-10v-116h-50v97z" />
    <glyph glyph-name="FL00B1h" unicode="&#xab;" horiz-adv-x="306" 
d="M144 528l19 -19v-59l111 87v-9l19 -19v-149l-25 -19l6 -4v-4l19 -19v-149l-130 101v-101l-135 105l-7 7l-18 14v136l141 110v-9zM93 359l36 28v120l-111 -86v-124l111 -86v120zM223 359l36 28v120l-111 -86v-124l111 -86v120z" />
    <glyph glyph-name="FL00ACh" unicode="&#xac;" horiz-adv-x="722" 
d="M511 331l-29 -165h54zM561 0l-9 53h-87l-8 -53h-110l103 684h122l102 -684h-113zM214 423l63 497h138l-125 -920h-149l-123 920h140zM172 935h-171l126 -950h6l19 -19h171l128 944l-20 19l1 6h-169l-40 -316l-32 291l-18 18zM355 -34h134l8 53h45l6 -34h6l19 -19h137
l-105 708l-18 18l-1 7h-149l-107 -714h6z" />
    <glyph glyph-name="FL00ADh" unicode="&#xad;" horiz-adv-x="215" 
d="M168 407v-113h-150v113h150zM3 422v-143h6l19 -19h174v137l-19 19v6h-180z" />
    <glyph glyph-name="FL00AEh" unicode="&#xae;" horiz-adv-x="660" 
d="M257 699l1 -8l14 -15l-3 24h145l1 -7l18 -18l23 -162l28 187h146l-1 -5l20 -20l-108 -709h-143l-19 19h-1l3 -19h-137l-19 19h-6l-6 34h-45l-8 -53h-134l-19 19h-6l107 714h149zM387 0h122l104 685h-115l-49 -327l-49 327h-114zM121 684l-103 -684h110l8 53h87l9 -53h113
l-102 684h-122zM182 331l25 -165h-54z" />
    <glyph glyph-name="FL00AFh" unicode="&#xaf;" horiz-adv-x="396" 
d="M3 700h361v-6l19 -19v-129h-355l-19 19h-6v135zM18 580h331v105h-331v-105z" />
    <glyph glyph-name="FL00B0h" unicode="&#xb0;" 
d="M18 858h120v-109h-120v109zM3 734h6l19 -19h144v133l-19 19v6h-150v-139z" />
    <glyph glyph-name="FL00B2h" unicode="&#xb1;" horiz-adv-x="334" 
d="M286 86h-268v113h268v-113zM208 407h79v-113h-79v-49h-113v49h-76v113h76v48h113v-48zM301 214h-59v46h79v137l-19 19v6h-60v23l-19 19v6h-143v-48h-76v-143h6l19 -19h51v-30h6l16 -16h-99v-143h6l19 -19h292v137l-19 19v6z" />
    <glyph glyph-name="FL00B6h" unicode="&#xb2;" horiz-adv-x="202" 
d="M9 650h-6v82h129q9 0 14.5 -6t9.5 -14l11 -10q-1 0 -1.5 0.5l-0.5 0.5l3 -2q6 -6 9.5 -16t5.5 -21q2 -6 3 -11t3 -8v-32l-70 -169h51v-6l19 -19v-78h-133q-9 0 -16 7l-13 12q-13 4 -18 17.5t-5 24.5v20q0 5 0.5 8.5t0.5 7.5v19q0 4 2 10l3 8q2 2 2 3v6l61 147h-45z
M80 429l-1 3v20l76 186v25q-2 3 -4.5 12t-5 18.5t-6 16.5t-7.5 7h-114v-52h78l0.5 -1.5t0.5 -4.5v-10q0 -4 -2 -6q0 -1 -1 -3l-1 -2l-66 -158l-0.5 -3.5t-2.5 -6.5l-2 -7q-2 -4 -2 -6v-3q0 -2 -0.5 -11.5t-0.5 -20.5v-11v-9q0 -8 3.5 -17.5t11.5 -9.5h121v54h-75z" />
    <glyph glyph-name="FL00B8h" unicode="&#xb3;" horiz-adv-x="204" 
d="M98 650q0 4 -1 5q-2 8 -6 9.5t-10 1.5h-63v51h112q8 0 16 -8t10 -13v-127q-1 -11 -6 -16.5t-14 -8.5h-1q8 -3 14 -7t8 -15v-126q-2 -5 -10.5 -13t-16.5 -8h-112v50h63q7 0 10.5 1.5t6.5 9.5v86h-80v56h80v72zM182 523h-1q8 9 9 23v131q-4 8 -12 16l-7 7q-3 8 -15.5 20
t-25.5 12h-127v-81h6l19 -19h55v-39h-80v-86h6l19 -19h55v-48h-80v-80h6l19 -19h124q12 0 24 11t15 19v131q-3 15 -9 21zM179 525l2 -2z" />
    <glyph glyph-name="FL00B4h" unicode="&#xb4;" horiz-adv-x="271" 
d="M104 860h120l-86 -111h-120zM-12 734h9l19 -19h149l105 135l-20 20l4 5h-156z" />
    <glyph glyph-name="FL00B5h" unicode="&#xb5;" horiz-adv-x="752" 
d="M307 400v0q0 1 -1 1zM271 423q-5 3 -9 9zM285 549h4l-1 -3zM29 535l1 -1q0 -1 1 -2q-1 0 -1.5 0.5t-1.5 0.5v3q0 -2 3 -2zM585 893v2l1 -1q-2 3 -3 9l1 -1q1 0 2 -1l19 -19v-1l3 -2q-1 1 -2 1l-1 1q1 -6 3 -9l-1 1q0 -2 0.5 -3.5t0.5 -3.5l-5 6q-1 2 -1.5 3.5t-1.5 3.5
q-1 3 -3 7q-4 2 -5 2h-6q0 2 -1 4l5 -4zM255 575v1l5 -5l-19 -4l3 3l-12 -2q-2 1 -5 1.5t-5 2.5q-2 1 -3 1l-2 1l-4 2q2 2 3.5 5t3.5 5q2 3 4.5 6.5t4.5 6.5q5 -5 10 -10.5t10 -10.5q0 1 1 2zM278 416q-1 0 -2 1q0 -1 1 -1q-4 -2 -8 -1.5t-9 0.5q-14 0 -21 4t-14 9
q-3 2 -6.5 5t-6.5 4l-1 1l-17 5q-9 3 -15 7.5t-11 9.5l-5 4q-10 5 -16 11q-2 2 -4.5 3t-3.5 3l-2 1l-4 4q-4 0 -8 4h-10q-12 0 -26 1.5t-25 9.5h-1q-3 2 -9 8l-2 1q-2 1 -3 1t-3 1q-3 1 -10 1h-8l-19 19h-6v35h8q4 0 5 1q2 0 3 1q2 1 5.5 1.5t2.5 0.5q5 2 7.5 2.5t5.5 1.5
q11 2 21.5 3.5t13.5 3.5h6q1 0 1.5 -0.5t1.5 -0.5h3q5 5 5 7q0 9 10 17q-1 4 -2.5 7t-3.5 6l-1 1q-5 8 -9 16t-4 17q0 24 22 24q19 0 29 -14.5t19 -31.5q3 -8 7 -15.5t7 -9.5v0q1 0 1 1t3 4q0 -2 1 -3v-1q-1 0 1 2q6 10 13.5 19t23.5 9h1q-3 9 -3 20q0 32 20 51.5t50 19.5
q16 0 27.5 -5.5t20.5 -14.5l17 -18l2 -2q5 -9 9.5 -18.5t9.5 -18.5l-1 1l2 -5t4 -7q1 -2 3 -8l1 1q0 1 1 2t1.5 2.5t1.5 2.5q0 -2 1 -3l1 1q4 8 7.5 14.5t10.5 11.5l25 17v-1q15 11 24.5 26.5t18.5 30.5v1q5 9 11.5 18.5t14.5 20.5l54 74q0 7 2 8q-2 3 -2.5 9t-0.5 18
q7 0 11 -1l-2 6q0 8 2 14t14 6l17 -18v1l-17 17q8 0 15 -7v17q11 0 19 -3t13 -8l9 -10q5 -13 5 -25v-13q0 -9 -1 -11q2 0 2.5 0.5t2.5 0.5q5 0 15 -2v-3q3 -2 6.5 -3.5t5.5 -3.5l7 -8q1 -1 1 -4q0 -5 -3.5 -10.5t-8.5 -10.5q-20 -2 -35 -5t-28 -7q-2 -5 -6 -16.5t-8 -25.5
q-2 -5 -3 -9.5t-3 -9.5q-4 -12 -6.5 -21t-6.5 -14q-7 -11 -12.5 -20.5t-11.5 -19.5h1q-9 -15 -18 -31.5t-23 -33.5v-1v-1l1 -1q1 -5 3 -13t3 -13q1 -2 1 -4t1 -4q5 -24 9 -48t6 -51l22 -48q4 2 6 4l1 -3q8 5 18 8.5t21 3.5q19 0 30.5 -6t24.5 -16l16 -17q8 -13 16.5 -31.5
t16 -37t12 -33t4.5 -20.5l-15 -102q0 -14 3.5 -26.5t8.5 -25.5q1 -2 1.5 -4t1.5 -4q5 -14 8.5 -27.5t3.5 -29.5q0 -9 -1.5 -19t-6 -18.5t-12 -14.5t-20.5 -6q-8 0 -17 6l-17 17q-10 10 -17 21.5t-7 19.5v55l-2 4q-4 8 -7.5 14.5t-3.5 17.5q0 2 0.5 2.5t0.5 1.5v5q2 6 2.5 8
l0.5 2q-5 23 -12 32l16 -14q7 -8 11.5 -16t6.5 -24v-2h-1q0 -1 -0.5 -2.5t-1.5 -5.5v-5q0 -1 -0.5 -1.5t-0.5 -2.5q0 -11 3.5 -17.5t7.5 -14.5l2 -2l1 -4l-1 1v-54q0 -13 13 -29q13 -10 23 -10q12 0 19 5.5t11 13.5t5.5 18t1.5 18q0 17 -5 32.5t-10 31.5q-5 13 -8.5 26
t-3.5 27v1l15 101q0 6 -5 21.5t-12.5 34.5t-16.5 38t-17 31q-9 6 -19.5 10t-24.5 4t-27 -5.5t-21 -11.5l6 -13l-11 7h-2l-22 22l2 2q1 1 2 1.5t3 2.5l-22 47l-1 2l-1 4l1 -1q-2 29 -7 54.5t-10 51.5q-2 8 -3 13t-3 13q-1 1 -1 4l-1 1l1 2l1 3l1 -1q11 14 19 28.5t16 27.5v1
q7 11 13.5 22.5t14.5 22.5q4 5 8.5 20.5t9.5 32.5q4 14 8 25.5t6 16.5l-1 1l2 1q13 4 28.5 7t35.5 5q3 3 6 7t4 9q-3 0 -5.5 0.5t-4.5 0.5t-3.5 -0.5t-3.5 -0.5v-1l-4 1l-22 22h4v27q0 10 -3 21q-8 3 -18 3v-16l3 -3q14 -14 17 -29l-18 7l-22 22q2 2 2 6q0 1 -1 1v2
q-10 -1 -12 -10q2 -2 4 -2.5t4 -2.5l22 -22l-20 -9l-19 19v-11l14 -13l-5 -1q-1 0 -1 -1l-1 -5l-5 5q-1 -1 -1 -3l2 -1l-2 -7l-2 2l-52 -72q-8 -11 -14.5 -20.5t-11.5 -18.5h1q-10 -16 -19.5 -31.5t-24.5 -26.5h-1l-24 -16q-7 -5 -10.5 -11.5t-7.5 -14.5q-2 -5 -3.5 -8
t-3.5 -5v-1q0 -1 -2 -1l-22 22v0q1 0 2 2q-3 5 -5.5 12t-5.5 13q-5 11 -11 23t-14 22q-16 11 -36 11q-30 0 -50 -19.5t-20 -51.5v-6l20 -20q5 -5 5 -14q0 -6 -4 -14l12 -9h7l3.5 -1t8.5 -2q3 -2 7 -2.5t6 -0.5h3l22 -22l-9 -19l-18 18q-6 4 -8 7h-2l-26 -6h-3q-2 1 -5 1.5
t-5 2.5q-4 1 -12 5q-2 -2 -2 -5v-4v-1l-34 34q6 0 14 -2q2 5 9 14q3 4 5.5 7.5t4.5 7.5q-2 2 -3.5 4.5t-3.5 5.5q-11 -3 -16.5 -11t-10.5 -16q-4 -7 -3 -7q-3 0 -6 3l-22 22q-4 4 -7.5 10.5t-6.5 14.5q-3 5 -5.5 9.5t-5.5 9.5q-5 3 -12 3q-19 0 -19 -21q0 -9 3.5 -16.5
t8.5 -14.5l2 -4l2 -4l8 -7q-1 0 -1 -1v0q-2 -1 -2 -5l-3 2q-8 -6 -8 -14q0 -3 -7 -10h1q-1 0 -3 -2l-2 2q-2 0 -2.5 0.5t-1.5 0.5h-4q-3 -2 -13 -3.5t-21 -3.5q-4 -1 -7.5 -2t-14.5 -4q-1 -1 -3 -1q-1 -1 -11 -1l24 -25q10 -4 20.5 -4.5t20.5 -0.5h9l-4 4l8 -4l3 -4h2l-3 3
q-5 5 -5 8l15 -16l8 -5l1 -1q3 -2 9 -4l-2 3h1l8 -4l22 -22q-3 0 -6 1q6 -5 13 -6l20 -6l1 -2q2 -2 5 -3.5t5 -3.5q7 -5 14 -9t21 -4q5 0 9 -0.5t8 1.5q-5 5 -5 8l15 -4l22 -22q-2 -1 -3 -2t-3 -1q6 -5 14.5 -10t11.5 -7l23 -22h-1v-1l-2 2q-2 1 -8 5q-4 3 -7 6.5t-5 5.5
q-2 0 -2 2q-4 2 -10 6l-12 8l1 -1q-2 0 -3 1l-3 3l-3 4q0 -1 0.5 -1.5l0.5 -0.5h-1v1h-1q0 1 -1 1l-8 8t-9 8q-5 -2 -9 -1.5t-9 0.5q-14 0 -21.5 4.5t-15.5 9.5l-3 3q-2 1 -5 2t-5 3v1l-17 5q-2 0 -8 2l-7 8l-9 3q-3 3 -5 7l-3 3q-3 4 -6 7q-9 4 -17 11q-3 2 -6.5 3t-6.5 3
h-10q-12 0 -26.5 2t-27.5 11q-2 2 -4 3.5t-4 3.5q-3 1 -5 1q-1 0 -3 1q-2 0 -6 0.5t-8 0.5l-3 3v29q10 0 11 1q2 0 3 1q11 3 14.5 4t7.5 2q11 2 21 3.5t13 3.5h4q1 0 1.5 -0.5t2.5 -0.5h4q7 7 7 10q0 9 10 16q-1 5 -3.5 9t-4.5 8q-5 7 -8.5 14.5t-3.5 16.5q0 21 19 21
q13 0 24 -11l16 -17l4 -4q0 1 -1 1v1l3 -3q10 -11 20 -30q6 9 14 18t22 11q-2 4 -2 8v9q0 33 20.5 53.5t52.5 20.5q24 0 39.5 -12t26.5 -29h-1l1 -1v1q0 -2 1 -2l3 -2q17 -20 29 -46q1 1 1 2t1 2l-1 -1q3 8 7 14t10 10v-1l30 20q9 8 16.5 19.5t15.5 24.5q1 1 3 5q5 11 11 19
t13 17q-2 -2 0.5 2t4.5 6l53 72q0 8 2 9q-3 7 -3 29q6 0 9 -1v2q0 9 2.5 16.5t16.5 7.5q4 0 12 -4v14q20 0 29.5 -7t14.5 -17l13 -12q7 -7 9 -16t2 -19v-3q7 -2 12 -6t7 -12l15 -14q5 -5 5 -12q0 -5 -3 -9.5t-7 -8.5q-20 -2 -35.5 -5t-28.5 -7q-2 -2 -6 -15t-9 -29
q-5 -17 -9.5 -32.5t-8.5 -20.5q-8 -11 -14.5 -22.5t-13.5 -22.5h1q-8 -14 -17 -29t-21 -31v-1q0 -3 1 -5q2 -8 3 -13t3 -13q5 -27 10 -52.5t7 -54.5l9 -21q8 5 18.5 8.5t21.5 3.5q20 0 31.5 -6t25.5 -17q6 -4 14 -19l9 -8q8 -8 18 -28t19 -41.5t15.5 -40.5t6.5 -26l-15 -102
q0 -14 3.5 -27t8.5 -26q5 -16 10 -31.5t5 -32.5q0 -8 -1.5 -18t-5.5 -18t-11 -13.5t-19 -5.5q-7 0 -16.5 6t-17.5 14l-5 5q-16 9 -30 27.5t-14 30.5v55l-0.5 0.5t-1.5 2.5t-1.5 2.5t-1.5 2.5q-3 6 -5.5 12.5t-2.5 15.5q0 1 0.5 1.5t0.5 1.5v7q1 7 2 9q-4 22 -11 31
q-3 -2 -6 -2.5t-5 -1.5q-18 -5 -30 -5h-27q-11 -8 -17 -12.5t-14 -8.5q4 -9 10 -21t8 -14q4 -8 7.5 -12.5t6.5 -8.5q10 -13 16 -25t6 -35v-2q0 -4 -3 -10.5t-7 -10.5h-7q-2 0 -2.5 -0.5t-1.5 -0.5h-7q-16 0 -26.5 4.5t-18.5 12.5l-9 9q-14 7 -22 19t-15 25l-0.5 1t-0.5 2
q-1 2 -1.5 3.5t-2.5 3.5q-1 1 -4 1q-6 0 -13 -0.5t-14 -1.5q-8 -1 -15.5 -1.5t-15.5 -0.5q-69 0 -120 49q-22 15 -41 40l-5 5q-7 7 -7 21v45q0 8 4.5 15.5t9.5 12.5v1q24 28 55 40t65 12h7t11 -1q10 -2 14 -2l-7 20q-2 1 -6 5q-2 1 -3.5 2t-5.5 6q-4 2 -9 7l-10 10
q-7 4 -13.5 8.5t-8.5 6.5l1 -1q-6 2 -14 12q-3 2 -7 6h1zM321 653q4 0 4.5 -4.5t0.5 -6.5q0 -13 -17 -13q0 5 2.5 14.5t9.5 9.5zM259 611l0.5 0.5t0.5 1.5q2 0 8.5 1.5t8.5 1.5q3 0 6 -3v-2q0 -5 -4.5 -6.5t-7.5 -1.5t-7.5 1.5t-4.5 6.5zM634 48q0 -6 5 -14.5t12 -16t15 -13
t14 -5.5q16 0 20.5 15t4.5 28q0 16 -4 31t-9.5 29t-9.5 28.5t-4 30.5l15 102q0 6 -6.5 25t-15.5 40t-18.5 39t-16.5 23q-12 9 -22.5 14.5t-25.5 5.5q-9 0 -18 -3.5t-16.5 -8t-12.5 -8t-6 -3.5l-30 66q-3 35 -9.5 68.5t-13.5 68.5l-0.5 2t-0.5 4l1 5q20 26 34 53t32 53
q4 6 9 22t10 32.5t9.5 30t8.5 15.5q34 11 66 14q2 2 2 6q0 5 -6.5 7t-13.5 2q-4 0 -7 -0.5t-4 -0.5q-5 2 -6.5 9t-1.5 17v13q0 13 -3.5 23.5t-15.5 10.5q0 -5 2 -10.5t2 -12.5q0 -11 -8 -16q-2 8 -8.5 18.5t-14.5 10.5q-4 0 -4 -6l10 -25v-3q-11 9 -19 9q0 -7 3.5 -10.5
t3.5 -9.5v-1q-1 -2 -3 -3.5t-3 -2.5l-56 -77q-20 -26 -33 -52.5t-39 -46.5l-25 -17q-6 -4 -9.5 -11t-6.5 -14t-7 -12.5t-11 -5.5q-2 0 -5.5 5t-3.5 6q-7 13 -14 29.5t-16 30.5t-22 24t-31 10q-25 0 -41.5 -16.5t-16.5 -42.5q0 -17 8.5 -31t21 -26t26 -23.5t22.5 -22.5h-3
q-3 0 -13 3t-12 3h-6l-28 -6q-10 0 -19.5 5.5t-20.5 5.5v1q0 7 4 14t8.5 13.5t8.5 12.5t4 11t-3.5 6.5t-7.5 1.5q-10 0 -15.5 -5.5t-9.5 -12t-7 -12t-8 -5.5q-11 0 -18 11t-13.5 24.5t-14 25t-19.5 11.5q-7 0 -7 -9q0 -7 3.5 -13l7 -12t7 -13t3.5 -14q0 -3 -3 -4
q-8 -5 -8 -8t-4 -9t-9 -11q-2 -2 -5 -2q-2 0 -4.5 0.5t-4.5 0.5h-2q-3 -1 -10.5 -2.5t-16 -3t-15.5 -3t-10 -2.5q-3 -3 -5 -3q-1 -1 -3 -1v-5q2 0 9.5 -1.5t10.5 -1.5q1 -1 5 -6t6 -5q11 -8 29.5 -8.5t27.5 -0.5q3 -3 9 -5q0 -2 5 -5.5t6 -3.5q1 -2 8 -4t9 -2q5 -4 13 -14.5
t19 -13.5l20 -6q13 -6 20 -13.5t23 -7.5q7 0 11.5 0.5t10.5 3.5q2 -3 11 -12t12 -11q1 -1 5 -3.5t9.5 -6t10 -6.5t6.5 -4q1 -1 5.5 -6t9.5 -10t10 -9.5t7 -5.5q6 -6 12.5 -9t9.5 -11l12 -34q1 -6 -2 -6h-6h-6q-2 0 -7.5 0.5t-12 1t-12 1t-6.5 0.5q-31 0 -59 -11t-49 -35
q-4 -3 -7.5 -9t-3.5 -11v-45q0 -5 3 -9.5l5 -7.5q24 -31 56 -47.5t72 -16.5q15 0 29.5 2t28.5 2q19 0 28.5 -12.5t18 -28t19.5 -28t34 -12.5h3q2 0 4 0.5t4 0.5h3q2 2 2 9v2q0 15 -3 24t-7.5 16.5t-10.5 15t-13 19.5q-2 2 -5.5 8.5t-7 14.5t-6.5 15t-4 10q14 5 21.5 10
t21.5 16h30q12 0 27 5q2 0 10 3.5t10 5.5q9 -11 16.5 -17.5t12.5 -13t8.5 -15.5t5.5 -25q0 -1 -1.5 -6.5l-1.5 -5.5q0 -1 -0.5 -2.5t-0.5 -3.5q0 -10 4.5 -18t8.5 -16v-57z" />
    <glyph glyph-name="FL00B7h" unicode="&#xb7;" 
d="M18 403h120v-109h-120v109zM3 279h6l19 -19h144v133l-19 19v6h-150v-139z" />
    <glyph glyph-name="FL00BAh" unicode="&#xb8;" horiz-adv-x="172" 
d="M-40 -43h47v58h133v-6l19 -19v-195h-174l-19 19h-6v143zM22 -58h-47v-113h150v171h-103v-58z" />
    <glyph glyph-name="FL00BCh" unicode="&#xb9;" horiz-adv-x="150" 
d="M42 717h61v-342h-61v288h-24zM-6 648h8l19 -19h6v-269h6l19 -19h85v366l-19 19v6h-86z" />
    <glyph glyph-name="FL00BDh" unicode="&#xba;" horiz-adv-x="225" 
d="M152 717q8 0 16 -8.5t10 -13.5v-300q-2 -5 -10 -13t-16 -8h-107q-8 0 -16.5 8t-10.5 13v300q2 5 10.5 13.5t16.5 8.5h107zM76 440q0 -2 0.5 -3t0.5 -2q2 -8 6 -9.5t11 -1.5h9q6 0 10 1.5t6 9.5q1 1 1 5v212q0 2 -1 3.5t-6 5.5q-7 4 -11 4h-9q-5 0 -9.5 -3.5t-6.5 -6.5
q0 -2 -0.5 -4.5t-0.5 -6.5v-198v-6zM152 732h-107q-6 0 -13 -3.5t-13 -9t-10.5 -11t-5.5 -9.5v-308q2 -6 10 -15t18 -14l8 -7q6 -6 13.5 -10.5t14.5 -4.5h107q12 0 23.5 11t14.5 19v306q-2 3 -4.5 7.5t-7.5 9.5l-8 7q-4 9 -16 20.5t-24 11.5z" />
    <glyph glyph-name="FL00BBh" unicode="&#xbb;" horiz-adv-x="306" 
d="M184 359l-36 28v120l111 -86v-124l-111 -86v120zM54 359l-36 28v120l111 -86v-124l-111 -86v120zM3 337v-156l5 4l20 -20l105 81v-65l5 4l20 -20l135 105v134l-19 19v4l-141 110v-102l-130 102v-156l18 -15l9 -8z" />
    <glyph glyph-name="FL00C7h" unicode="&#xbc;" horiz-adv-x="445" 
d="M270 357h41v-6l14 -14v20h88v-6l19 -19v-366h-82l-19 19h-6v128h-78l-19 19h-6v81l-28 -84v-163h-118l-19 19h-6v110q0 16 0.5 31.5t1.5 24.5v7q0 10 0.5 13t3.5 11l3 9q1 5 2 11.5t2 9.5l1 1l31 96h-44l-19 19h-6v269h-6l-19 19h-8l38 84h86v-6l19 -19v-248l35 103v1
q0 2 1 4l2 6v4q1 5 1 9q0 2 -0.5 4t-0.5 4v138h125v-6l19 -19v-171zM340 147v-147h58v342h-58v-139h-44v139h-59v-195h103zM285 527v158h-95v-105q0 -4 0.5 -11.5t0.5 -14.5q0 -4 -0.5 -8t-1.5 -9q-1 -2 -2 -6t-1 -5l-106 -315q0 -1 -2 -7.5t-3 -13.5l-4 -13
q-2 -6 -2.5 -12.5l-0.5 -6.5q0 -2 -1 -22t-1 -41v-95h94v151zM42 343h61v342h-61l-24 -54h24v-288z" />
    <glyph glyph-name="FL00BEh" unicode="&#xbd;" horiz-adv-x="420" 
d="M270 357h80q9 0 14.5 -6t9.5 -14l11 -10q-1 0 -1.5 0.5l-0.5 0.5l3 -2q6 -6 9.5 -16t5.5 -21q2 -6 2.5 -11t2.5 -8h1v-32l-70 -169h51v-6l19 -19v-78h-133q-9 0 -16 7l-13 13q-13 3 -18 16.5t-5 24.5v20q0 5 0.5 8.5t0.5 7.5v19q0 4 2 10l3 8q2 2 2 3v6l61 147h-45l-7 7
l-45 -135v-162h-118l-19 19h-6v110q0 17 0.5 32.5t1.5 24.5v6q0 10 0.5 13t3.5 11l3 9q1 5 2 11.5t2 9.5l1 1l31 96h-44l-19 19h-6v269h-6l-19 19h-8l38 84h86v-6l19 -19v-248l35 103v1q0 2 1 4l2 6v4q1 5 1 9q0 2 -0.5 4t-0.5 4v138h125v-6l19 -19v-171zM298 54l-1 3v20
l76 186v25q-2 3 -4.5 12t-5 18.5t-6 16.5t-7.5 7h-114v-52h78l0.5 -1.5t0.5 -4.5v-10q0 -4 -2 -6q0 -1 -1 -3l-1 -2l-66 -158l-0.5 -3.5t-2.5 -6.5l-2 -7q-2 -4 -2 -6v-3q0 -2 -0.5 -11.5t-0.5 -20.5v-11v-9q0 -8 3.5 -17.5t11.5 -9.5h121v54h-75zM285 527v158h-95v-105
q0 -4 0.5 -11.5t0.5 -14.5q0 -4 -0.5 -8t-1.5 -9q-1 -2 -2 -6t-1 -5l-106 -315q0 -1 -2 -7.5t-3 -13.5l-4 -13q-2 -6 -2.5 -12.5l-0.5 -6.5q0 -2 -1 -22t-1 -41v-95h94v151zM42 343h61v342h-61l-24 -54h24v-288z" />
    <glyph glyph-name="FL00C8h" unicode="&#xbe;" horiz-adv-x="491" 
d="M98 618q0 4 -1 5q-2 8 -6 9.5t-10 1.5h-63v51h112q8 0 16 -8t10 -13v-127q-1 -11 -6 -16.5t-14 -8.5h-1q8 -3 14 -7t8 -15v-126q-2 -5 -10.5 -13t-16.5 -8h-112v50h63q7 0 10.5 1.5t6.5 9.5v86h-80v56h80v72zM112 0v95q0 21 1 41t1 22l0.5 6.5t2.5 12.5l4 13q1 7 3 13.5
t2 7.5l106 315q0 1 1 5t2 6q1 5 1.5 9t0.5 8q0 7 -0.5 14.5t-0.5 11.5v105h95v-158l-125 -376v-151h-94zM342 342v-139h44v139h58v-342h-58v147h-103v195h59zM181 491q8 9 9 23v131q-4 8 -12 16l-7 7q-3 8 -15.5 20t-25.5 12h-127v-81h6l19 -19h55v-39h-80v-86h6l19 -19h55
v-48h-80v-80h6l19 -19h115l-32 -96l-1 -1q-1 -3 -2 -9.5t-2 -11.5l-3 -9q-3 -8 -3.5 -11t-0.5 -13v-6q-1 -9 -1.5 -24.5t-0.5 -32.5v-110h6l19 -19h118v163l28 84v-81h6l19 -19h78v-128h6l19 -19h82v366l-19 19v6h-88v-20l-14 14v6h-41l49 147v171l-19 19v6h-125v-138
q0 -2 0.5 -4t0.5 -4q0 -4 -1 -9v-4l-2 -6q-1 -2 -1 -5l-27 -80v20q-3 15 -9 21h-1zM179 493l2 -2z" />
    <glyph glyph-name="FL00BFh" unicode="&#xbf;" horiz-adv-x="338" 
d="M291 576h-120v109h120v-109zM288 526q0 1 -1 -5.5t-3 -12.5l-5 -13q-2 -7 -4 -13.5t-2 -7.5l-132 -315q0 -1 -1.5 -5t-2.5 -6q-2 -4 -2.5 -13.5t-0.5 -17.5q0 -12 2 -12h155v-105h-227q-9 0 -16 5t-12 12.5t-9.5 16t-8.5 15.5v109l158 368h112zM166 541l-163 -379v-118
q-1 1 1 -2t3 -5q2 -4 3 -5q7 -14 15.5 -26.5t22.5 -17.5l9 -9q13 -13 29 -13h239v129l-19 19v6h-137l1 1q0 1 1 2v1q1 2 1.5 4t1.5 4l133 317q0 2 1.5 8t3.5 12l5 13q2 5 3.5 11.5t1.5 9.5v13l-19 19v6h-137zM306 700h-150v-139h6l19 -19h144v133l-19 19v6z" />
    <glyph glyph-name="FL00C0h" unicode="&#xc0;" horiz-adv-x="550" 
d="M475 123l1 1l-8 7zM308 307l-34 -117h51l-23 63l22 -16zM318 859l7 -7l105 -135h-149l-19 19h-4l-110 141h156zM380 24l-9 10l-4 -4l-4 15h-120l-69 -244h-150l-19 19h-7l240 880h113l2 -8l17 -17l139 -566l2 -8h-1l30 -135h-138l-19 19h-6zM298 862h-120l86 -111h120z
M212 79h159l5 -20l74 70l-1 3l-117 81l14 -38h-117l68 240l1 7l41 -179l130 -91l-131 533h-88l-232 -850h125zM393 0h110l-23 108l-85 -85z" />
    <glyph glyph-name="FL00C1h" unicode="&#xc1;" horiz-adv-x="550" 
d="M279 860h120l-86 -111h-120zM503 0h-110l2 23l85 85zM250 685h88l131 -533l-130 91l-41 179l-1 -7l-68 -240h117l-14 38l117 -81l1 -3l-74 -70l-5 20h-159l-69 -244h-125zM-2 -180h7l19 -19h150l69 244h120l4 -15l4 4l9 -10l-3 -39h6l19 -19h138l-30 135h1l-2 8l-139 566
l-17 17l-2 8h-113zM163 734h9l19 -19h149l105 135l-20 20l4 5h-156zM324 237l-22 16l23 -63h-51l34 118zM467 131l9 -7l-1 -1z" />
    <glyph glyph-name="FL00C2h" unicode="&#xc2;" horiz-adv-x="550" 
d="M475 123l1 1l-8 7zM308 307l-34 -117h51l-23 63l22 -16zM308 742l-19 -24h-149l-19 19h-9l110 141h136l14 -18l7 -7l105 -135h-149l-19 19h-4zM380 24l-9 10l-4 -4l-4 15h-120l-69 -244h-150l-19 19h-7l240 880h113l2 -8l17 -17l139 -566l2 -8h-1l30 -135h-138l-19 19h-6
zM290 788l28 -36h120l-86 111h-124l-86 -111h120zM212 79h159l5 -20l74 70l-1 3l-117 81l14 -38h-117l68 240l1 7l41 -179l130 -91l-131 533h-88l-232 -850h125zM393 0h110l-23 108l-85 -85z" />
    <glyph glyph-name="FL00C3h" unicode="&#xc3;" horiz-adv-x="550" 
d="M475 123l1 1l-8 7zM308 307l-34 -117h51l-23 63l22 -16zM114 734h-9l91 141h119l10 -16l6 -6l13 21h135l-4 -6l20 -19l-85 -134h-116l-19 19h-2l-12 -19h-128zM380 24l-9 10l-4 -4l-4 15h-120l-69 -244h-150l-19 19h-7l240 880h113l2 -8l17 -17l139 -566l2 -8h-1l30 -135
h-138l-19 19h-6zM255 784l24 -35h103l70 110h-99l-23 -35l-23 36h-102l-72 -111h99zM212 79h159l5 -20l74 70l-1 3l-117 81l14 -38h-117l68 240l1 7l41 -179l130 -91l-131 533h-88l-232 -850h125zM393 0h110l-23 108l-85 -85z" />
    <glyph glyph-name="FL00C4h" unicode="&#xc4;" horiz-adv-x="550" 
d="M135 860h120v-109h-120v109zM332 860h120v-109h-120v109zM503 0h-110l2 23l85 85zM250 685h88l131 -533l-130 91l-41 179l-1 -7l-68 -240h117l-14 38l117 -81l1 -3l-74 -70l-5 20h-159l-69 -244h-125zM-2 -180h7l19 -19h150l69 244h120l4 -15l4 4l9 -10l-3 -39h6l19 -19
h138l-30 135h1l-2 8l-139 566l-17 17l-2 8h-113zM317 736h6l19 -19h144v133l-19 19v6h-150v-139zM120 736h6l19 -19h144v133l-19 19v6h-150v-139zM324 237l-22 16l23 -63h-51l34 117zM467 131l9 -7l-1 -1z" />
    <glyph glyph-name="FL00C5h" unicode="&#xc5;" horiz-adv-x="550" 
d="M233 859h120v-109h-120v109zM503 0h-110l2 23l85 85zM250 685h88l131 -533l-130 91l-41 179l-1 -7l-68 -240h117l-14 38l117 -81l1 -3l-74 -70l-5 20h-159l-69 -244h-125zM-2 -180h7l19 -19h150l69 244h120l4 -15l4 4l9 -10l-3 -39h6l19 -19h138l-30 135h1l-2 8l-139 566
l-17 17l-2 8h-113zM218 735h6l19 -19h144v133l-19 19v6h-150v-139zM324 237l-22 16l23 -63h-51l34 118zM468 131l8 -7l-1 -1z" />
    <glyph glyph-name="FL00C6h" unicode="&#xc6;" horiz-adv-x="875" 
d="M390 474l-61 -234h108l-13 69l137 -111v9l-102 83l-4 4l-21 17l-5 12zM509 -15h-6v17v6q0 4 1 7q0 2 0.5 4t0.5 4l6 7l-17 17l-4 -4l-5 24h-188l-93 -339h-180l-19 19h-7l307 1189h140l2 -8l17 -17l97 -415v204h282v-6l19 -19v-129h-128v-123h107v-6l19 -19v-138h-129
v-136h112v-6l19 -19v-133h-334zM576 167l-129 105l9 -47h-171l92 354l2 2l65 -255l3 -7l129 -104v-48zM172 -238l94 339h228l5 -26l77 85v-75l-56 -67q-1 -6 -1.5 -10t-0.5 -6v-2h310v109h-131v185h129v114h-126v172h128v105h-252v-380l-144 616h-115l-299 -1159h154z" />
    <glyph glyph-name="h" unicode="&#xc7;" horiz-adv-x="659" 
d="M142 282v-1q1 0 1 -1v-1zM553 350h1h-1zM541 809q1 1 1.5 2t1.5 2q-1 -1 -1.5 -2t-1.5 -2zM610 207q-1 1 -2 1zM557 348l1 -1v1h-1zM467 303v-1h1zM410 196q2 -2 4 -3q-1 1 -2 1.5t-2 1.5zM145 543v1l-2 1zM364 484q-1 0 -1 -2h1v2zM504 378q-6 4 -12.5 7.5t-12.5 7.5
q6 -5 12.5 -8.5t12.5 -7.5v1zM501 404q2 -4 7 -6l20 -20v-1h1q0 2 2 4v2q0 1 4 5q2 5 5.5 11t5.5 10v1q4 6 9 17.5t9 24t6.5 24t2.5 19.5q0 5 -0.5 10t-1.5 10q0 1 -0.5 2t-0.5 2q-1 3 -1.5 7t-0.5 21l7 -7q-3 6 -6.5 13.5t-6.5 14.5q-5 8 -6 13q-2 3 -6.5 11t-9 17
t-8.5 17.5t-5 11.5q-2 2 -4 5t-3 6l-5 10l-3 3q0 -1 -0.5 -1.5t-0.5 -1.5q-4 -8 -5 -9q-4 -4 -12.5 -11t-18 -14.5t-19 -14t-14.5 -8.5q-3 -1 -9.5 -2t-9.5 -3q-17 -4 -34 -10t-17 -18v-3l4 -3l2 -7q2 -2 4 -2l8 -5v-5l19 -19v-39q-1 -1 -3 -1q8 -8 18 -15t13 -9h-1
q5 -3 11 -10t11 -13q10 -5 22 -15t21 -19zM270 783v-7l19 -18q1 -10 1 -17t2 -12q6 4 10 5v1q20 8 40.5 17.5t40.5 19.5h-1q4 2 8.5 4t8.5 4v-1l13 7q2 1 13 7l12 6q2 1 3 1t6 1v28q-2 5 -4.5 9.5t-4.5 9.5q-8 14 -13 25t-6 16q-6 9 -16.5 23.5t-18.5 25.5q-23 15 -52 31.5
t-51 20.5l-31 -207h6h15zM467 395q-11 4 -20.5 11t-18.5 16q-5 2 -11 7l5 -7q9 -20 29 -45l5 -50h2q2 -1 5 -1.5t5 -1.5q4 -2 8.5 -3.5t2.5 -0.5q11 -12 19 -16q5 -4 11.5 -9t12.5 -12l2 -2q14 -17 29 -27t29 -18q2 -2 6 -4l1 1q11 -7 14 -9t11 -7q12 -9 13 -15l15 -15
q3 -3 3.5 -5.5t0.5 -7.5v-2q0 -15 -16.5 -22t-32.5 -12q-11 -4 -13 -2l-1 1v-21q5 -6 6 -15.5t4 -20.5q3 -13 6 -25.5t5 -14.5h-1q2 -2 6.5 -10t4.5 -10v-2q0 -2 0.5 -3.5t0.5 -3.5v-3q0 -24 -13 -33.5t-36 -9.5q-19 0 -31 12l-11 11q-12 4 -18.5 14.5t-10 22.5t-4.5 25
t-1 23l-3 3q0 4 -0.5 8t-0.5 8q-12 0 -18 7l-14 13q-8 2 -13 9t-5 19q-1 3 -1.5 12.5t-1.5 19.5q-7 4 -10 9l-6 6v-1l-21.5 21.5t-18.5 21.5h5v1q-6 4 -8 9q-3 8 -6 14.5t-8 12.5l-1 1q0 1 -1 2q-2 2 -3 3.5t-3 3.5q0 -20 -9.5 -25.5t-26.5 -5.5q-6 0 -11.5 2t-10.5 4
q-2 0 -6 2l-14 -13q-8 -2 -10 -2h-5l-24 5q1 -2 1 -7v-9h-14q-9 0 -16 7l-14 13q-3 1 -5.5 2.5t-4.5 3.5q-2 -2 -4 -2q-1 0 -3 -1q9 -12 9 -23v-5q0 -2 0.5 -5t3.5 -8v-1l7 -7q9 -11 11.5 -22.5t4.5 -21.5q0 -3 1 -4l6 -6q3 -3 8 -9.5t10 -14t8.5 -14t3.5 -9.5
q0 -8 -2.5 -14t-5.5 -10l-2 -2q-6 -20 -14 -29.5t-25 -23.5q-1 -1 -2 -1v0l-4 -4q-2 -1 -3 -2t-9 -6h-40q-9 0 -15 6l-14 13q-10 2 -14.5 10.5t-4.5 18.5q0 9 3.5 14.5t8.5 9.5q-6 1 -9 6l-14 14q-17 5 -17 26l2 43q0 1 -0.5 1.5t-0.5 1.5v9q0 2 -2 9.5t-3 9.5q0 1 -1 6
t-1.5 10t-1 9.5t-0.5 5.5q0 2 -3 13.5t-8 14.5v53q5 0 11.5 9.5t8.5 11.5q16 23 37.5 38.5t42.5 28.5l7 3v3q-1 0 6.5 1t12.5 2l4.5 1.5t6.5 0.5q12 2 23.5 4.5t11.5 12.5q0 5 -1 10t-3 11l-8 3l-17 16l-7 3v1q-11 12 -15.5 21t-8.5 18q-2 3 -4 9q-6 -2 -9 -2h-2
q-4 -1 -7 -1.5t-7 -1.5q-22 -5 -42 -5q-14 0 -22.5 0.5t-22.5 2.5l-18 18q-4 0 -5 1t-3.5 7t-5.5 13.5t-5 13.5l-2 6q4 7 5 9t1 3q0 3 1 5q5 14 11.5 26.5t22.5 16.5q5 1 18.5 1.5t22.5 1.5q1 0 2 0.5t2 0.5t2 0.5t2 0.5q5 1 10 1h6q-3 7 -3 12q0 6 4.5 14.5t12 17t16 15
t16.5 9.5v58l27 5q0 -4 3 -7h2l32 218v4q0 13 4 24q0 1 0.5 1.5t0.5 1.5q0 2 0.5 3t0.5 3q-5 5 -5 12v1q0 18 18 18h1q11 0 26 -5q5 0 5.5 -0.5t0.5 -1.5q2 0 4.5 -1t4.5 -1v-1q53 -7 95 -31t73 -62l3 -3q19 -20 34 -43t26 -50q10 4 21 5t28 1q0 -2 -0.5 -3t-0.5 -3l20 -19
q0 -13 -5.5 -26t-13.5 -20v-1l6 -6q2 -2 5 -10q0 -4 1 -6q1 -5 2 -12.5l1 -7.5l6 -9v-5q0 -6 -3 -10t-7 -8l-1 -1q0 -2 2 -14.5t4 -23.5q4 -6 7 -10l9 -8q6 -6 14.5 -22.5t17 -35t14 -36t5.5 -25.5v-68q0 -11 -9.5 -35t-23 -48.5t-29 -43t-27.5 -18.5q-7 0 -14 7l-13 12
q-15 5 -22 28q-11 8 -21.5 15.5t-16.5 12.5zM255 768q-4 0 -4 -4v-4q0 -4 -1 -6.5t-6 -2.5q-8 0 -17 4t-18 5l39 264l1 0.5t2 0.5q15 0 33.5 -7.5t37 -18t35.5 -22t28 -19.5q4 -4 11 -13t14 -18.5t13.5 -19t9.5 -14.5q1 -3 5 -14t8.5 -22.5t8.5 -21t6 -10.5v-26
q0 -3 -7 -7.5t-9 -5.5l-12 -6q-32 -16 -63 -31t-61 -28q-10 -4 -21.5 -12.5t-19.5 -8.5h-1q-2 19 -5.5 34.5t-5.5 33.5h-1zM267 693q34 18 68 34t69 33q11 5 24 13.5t26 8.5q0 -20 -7 -31t-27 -12q-2 -5 -5.5 -8.5t-5.5 -6.5q-18 -1 -29.5 -5t-19.5 -22l-70 -4
q-5 -1 -8.5 -3.5t-7.5 -2.5q-2 0 -5 1t-3 4zM449 426q0 -2 9.5 -11.5t21.5 -19.5t23 -18t14 -8l-15 15q-3 2 -10 8.5t-15 14t-16 13.5t-12 6zM505 74q0 -10 1 -23t5 -24.5t11.5 -19.5t21.5 -8q17 0 27 7t10 24v3q0 3 -0.5 5.5t-0.5 3.5t-3 6t-4 6q-3 4 -6.5 16.5t-6.5 25.5
t-6 24t-5 12v29q0 3 10 6t21.5 7t21.5 9t10 11q0 4 -0.5 6t-5.5 5q-23 14 -47.5 27.5t-42.5 34.5q-1 0 -4.5 4.5t-3.5 5.5q-7 8 -16 13.5t-16 12.5q-8 8 -21.5 9t-21.5 9q-6 6 -8 12.5t-3 14.5l-5 46q-10 11 -17 23t-12 24l-3 5q-3 5 -8.5 8.5t-10.5 7t-8.5 8t-3.5 12.5
q0 11 10 11q7 0 18.5 -10.5t24 -22.5t24 -22.5t17.5 -10.5v3q0 1 -6.5 8t-11.5 10q-2 1 -8 6t-12.5 10t-12 10t-6.5 6q-3 2 -11 10t-10 11l-0.5 1.5t-0.5 2.5q0 4 0.5 6.5t5.5 4.5v24l-3 2q-5 3 -10.5 7t-12.5 6l-7 26l-3 3l-0.5 2.5t-0.5 4.5q0 12 9 19.5t22 12t26.5 7.5
t21.5 6q3 0 11 5t16.5 12t16.5 13.5t11 9.5q3 4 6 10t6.5 12t8 10.5t9.5 4.5q3 0 3.5 -0.5l2.5 -2.5v-1q6 -19 15.5 -34t17.5 -32q1 -3 4.5 -10.5t7.5 -16t8 -15.5t6 -10q0 -2 2 -10t5 -17l5.5 -16.5t3.5 -7.5q0 -13 2.5 -23t2.5 -22q0 -8 -2.5 -21t-7 -27t-9.5 -26t-10 -19
q-2 -2 -7 -10.5t-5 -10.5q-3 -5 -5.5 -13t-9.5 -8q-4 0 -5.5 3.5t-7.5 3.5q0 -13 13 -13q10 0 23.5 17t25.5 39.5t20 44.5t8 32v68q0 7 -4.5 23t-11.5 32.5t-14 31t-12 19.5l-15 11q-2 1 -4.5 9.5t-5 19t-4.5 19t-2 10.5q0 5 5.5 9.5t5.5 9.5v1l-3 4.5t-3 5.5q-2 7 -2.5 14
t-1.5 14q-1 2 -6 5l-5 3v16q7 2 13 11t6 17q-14 0 -23 -2t-20 -11q-4 -3 -4 -4t-5 -3q-20 82 -76 138t-141 66q-10 2 -18.5 5.5t-18.5 3.5h-1q-3 0 -3 -3v-1q0 -4 3 -3.5t3 -4.5q0 -9 -3.5 -17.5t-3.5 -17.5l1 -6l-33 -223q0 -2 -9.5 -6t-10.5 -4l-1 1q-2 1 -6 4t-5 5v-69
q-2 5 -7 5q-6 0 -13 -4.5t-13.5 -11.5t-11 -14t-4.5 -13q0 -4 1.5 -7t1.5 -5q0 -5 -4.5 -8t-11 -5t-12.5 -3t-9 -2q-5 0 -18 -1t-18 -2q-9 -2 -14 -7.5t-8 -12.5t-5.5 -15t-5.5 -14q0 -1 2.5 -10.5t3.5 -10.5q14 -2 22 -2.5t19 -0.5q14 0 28 3t28 5q8 1 14 6t14 5
q1 0 6.5 -11t11.5 -24.5t12 -25.5t9 -15q8 -6 19.5 -9t17.5 -12q4 -11 6 -19t2 -19q0 -12 -7 -18.5t-17 -9t-21 -3.5t-20 -3q0 -3 -3 -3l-10 -4q-21 -13 -42 -28t-35 -35q-2 -3 -8.5 -15t-8.5 -12v-30q2 -2 4 -7t3.5 -11t2.5 -11.5t1 -6.5q0 -2 1 -13t2 -13t3.5 -12t2.5 -12
v-2q0 -2 0.5 -4.5t0.5 -5.5l-2 -43q0 -12 12 -12q8 0 14 3.5t11.5 8t11 8t12.5 3.5q5 0 4.5 -4t4.5 -6v-31l-6 -6.5t-10 -8.5q-8 -8 -17 -11t-9 -14q0 -5 3 -9.5t8 -4.5h36l4 2.5t6 3.5l3 3q8 7 13.5 11.5t9.5 9t7 10.5t6 17q2 5 6 10t4 13q0 2 -3 7t-6.5 11t-7.5 11t-6 7
q-1 1 -5.5 2.5t-4.5 2.5q-2 1 -3 7t-2 14t-3.5 16.5t-7.5 14.5l-5 5t-5 6q-4 7 -4.5 11t-0.5 7v5q0 5 -3 10t-13 14l-1 2q0 4 9.5 6t12.5 7q9 4 20.5 6.5t21.5 2.5h5q-4 -5 -9 -9.5t-5 -11.5q0 -5 3.5 -10t8.5 -5h2q0 6 2 11.5t9 5.5l27 -6q1 0 3.5 0.5l2.5 0.5l16 15
q6 0 15 -4.5t17 -4.5q11 0 17.5 3.5t6.5 14.5l-6 37q6 -2 15 -10t18 -17.5t16.5 -18.5t10.5 -13q8 -11 11.5 -22t9.5 -20q8 -11 18.5 -21t21.5 -21q2 -2 6.5 -5t8.5 -5q0 -2 0.5 -7.5t1 -11.5t1 -11.5t0.5 -8.5q1 -16 15 -16q1 0 2 0.5l1 0.5q1 0 7 4t8 4h3l3 -3
q5 -11 8.5 -24t3.5 -27l3 -3v-4z" />
    <glyph glyph-name="V" unicode="&#xc9;" horiz-adv-x="408" 
d="M346 68v-1h1zM128 15q0 2 -4 6q-5 5 -8.5 10t-3.5 13q0 11 9 18.5t20.5 12t23.5 6.5t18 2h16q11 0 20 -7.5t18 -16.5v2q0 9 -2.5 20t-7.5 22l-4 39q0 2 -0.5 3t-0.5 3v6q-2 13 -4 27.5t-7 31.5q0 1 -1 6t-2 8l-11 74v1q-6 6 -6 16q-1 8 -1 9q0 2 -1 7q-1 15 -3 30.5
t-5 32.5l-1 5l-1 5q0 1 -1 3l-3 3q-4 12 -4 31l-21 -3q-12 -2 -23 -4t-16 -2h-4q-6 0 -17 7.5t-20 16.5l-2 2q-12 8 -23 18.5t-13 17.5l-29 152q0 5 5 15.5t9 16.5q17 27 41.5 34t51.5 9q2 0 4 0.5t4 0.5q1 0 2 -0.5t3 0.5q1 5 5 9t15 6q14 5 24 6.5t23 1.5h11q9 -6 10 -8
l81 16q6 0 9 -1.5l7 -3.5q0 -1 1 -1l1 -2l1 1l3 -3q0 -1 3 -1q2 -1 2.5 -1.5t2.5 -1.5q8 -6 15 -12.5t11 -17.5l8 -7q9 -9 13 -21l24 -137q2 -2 2 -8v-7q0 -14 -6.5 -23.5t-15.5 -18.5l-11 -11q-12 -5 -24 -7.5t-24 -2.5q-8 0 -15 -1t-14 -3v-7l-1 1q2 -7 4 -15.5t3 -12.5
q2 -14 3.5 -29t1.5 -30l2 -6l2 -6l-1 1q2 -6 3 -11l2 -10q2 -11 3 -21l2 -20q1 -6 1.5 -11.5t1.5 -11.5q3 -7 3.5 -9t0.5 -5l3 -36q5 -6 6 -10.5t1 -9.5v-21q0 -2 1 -4t1 -4q4 -4 4 -8q2 -26 5.5 -50t8.5 -50l1 -1q2 -9 4 -19t2 -22q0 -9 -5 -15.5t-12 -10t-15.5 -5.5
t-14.5 -2h-4q-6 0 -9 3h-9l-1 -1q-1 -5 -3.5 -6t-10.5 -3q-1 0 -3 -2q-14 -8 -28 -14t-28 -6q-10 0 -15.5 2.5t-10.5 5.5q-2 1 -8 2.5t-23 4.5l-18 18q-2 0 -3.5 0.5t-3.5 0.5v16zM147 40q0 7 12.5 14t18.5 7h18q7 0 8 -1q10 -5 14.5 -12t9.5 -16q6 -2 7 -2q6 0 7 -1
q-1 -3 -9.5 -5.5t-19 -4.5t-20 -3t-13.5 -1q-14 0 -23.5 5t-9.5 20zM143 13q10 -1 15.5 -3.5t9.5 -4.5l8 -4t12 -2q15 0 28.5 7t27.5 15l2.5 0.5t2.5 1.5q3 2 2 5t4 3h21q1 -3 4 -3h4q10 0 22.5 5t12.5 16q0 10 -2 19.5t-4 18.5q-5 26 -9 51.5t-6 51.5l-0.5 1.5t-2.5 3.5
q0 2 -1.5 5.5t-1.5 4.5v21q0 4 -0.5 8.5t-5.5 9.5l-4 39q0 2 -2 7l-2 5q-2 17 -3.5 32.5t-4.5 32.5q0 8 -3 15t-5 16q0 15 -1.5 30.5t-3.5 29.5q0 2 -2 12t-3 12l-0.5 0.5t-0.5 4.5v10q0 2 0.5 3.5t0.5 2.5q18 7 40 7q21 0 42 8q10 11 18.5 20t8.5 23v7q0 2 -0.5 3l-0.5 1
l-25 139q-2 11 -11.5 18t-19.5 14q-8 5 -9 5l-85 -17h-4q-5 0 -5.5 3.5t-3.5 5.5h-7q-12 0 -21.5 -1.5t-23.5 -6.5q-5 -1 -6 -3t-1 -5q0 -2 -1 -3.5t-8 -2.5q-14 -2 -28 -3t-27.5 -4.5t-24.5 -10t-19 -19.5q-2 -2 -7 -10t-5 -12l29 -153q1 -3 5.5 -8t10.5 -10t12 -8.5
t10 -3.5h4q4 0 14.5 2t22.5 4t22.5 4t14.5 2q1 2 6.5 2.5t7.5 0.5q9 -17 9 -33q0 -18 4 -33q0 -1 2.5 -5.5t2.5 -6.5l1 -4q3 -17 5 -33t3 -33q1 -4 1.5 -11l0.5 -7q0 -2 3.5 -7t2.5 -5l11 -72q1 -3 2 -9.5t1 -7.5q5 -19 7.5 -37t4.5 -37l4 -36q10 -21 10 -46q0 -14 -3 -15
t-9 -8q-11 6 -19.5 18t-21.5 12h-16q-5 0 -14 -1t-18.5 -4t-16.5 -7.5t-7 -11.5q0 -9 8 -13.5t8 -15.5v-2z" />
    <glyph glyph-name="v" unicode="&#xca;" horiz-adv-x="658" 
d="M448 331l-29 -165h54zM498 0l-9 53h-87l-8 -53h-110l103 684h122l102 -684h-113zM181 358l49 327h115l-104 -685h-122l-101 685h114zM146 700h-145l104 -715h6l19 -19h143l2 17l17 -17h134l8 53h45l6 -34h6l19 -19h137l-105 708l-18 18l-1 7h-149l-2 -15l-11 11l1 5h-146
l-28 -187l-23 162l-18 18z" />
    <glyph glyph-name="i" unicode="&#xcb;" horiz-adv-x="925" 
d="M619 152q0 -2 2 -2zM191 165q1 -2 3 -4zM718 203v-1q1 0 1 -1q0 1 -0.5 1.5t-0.5 1.5v-1zM407 471l3 -3l3 -3zM363 556q2 -2 5.5 -2.5t6.5 -1.5q-3 2 -5 5l-4 6q-3 -3 -3 -6v-1zM111 330q0 -5 0.5 -11t1.5 -13q23 16 43.5 32t37.5 30q-15 -3 -30 -7.5t-26.5 -10
t-19 -10.5t-7.5 -10zM694 379q8 -7 17 -14t19 -15l20 -16t19 -16q7 -5 12.5 -9.5t10.5 -8.5q1 -2 6 -5q1 1 1.5 7t1.5 13.5t1.5 15.5t0.5 13q-26 13 -54 24t-54 11h-1zM218 204q-20 -16 -31 -31q40 -43 84 -65h2q0 1 3 6q2 4 4 8.5t4 8.5v-1q2 4 4 7h-1l-19 19h-3
q-1 -1 -3 -1v3l-8 8h-11l-19 19h-6v19zM564 204q18 -23 34.5 -46.5t32.5 -49.5q11 7 26.5 18t21.5 16l10.5 10.5t15.5 14.5q2 2 4.5 3.5t4.5 3.5l15 15l-1 1l-2 3q-4 4 -8 7.5t-9 8.5l-10 10v-1l-1 1q0 -2 3 -5q0 -1 -0.5 -5t-0.5 -5q-1 -1 -1 -15h-2q0 -1 0.5 -1.5
l0.5 -0.5q0 -4 -1.5 -6t-9.5 -10l-11 5q1 -4 1 -8v-9q-14 0 -23 3q0 -2 0.5 -2.5t0.5 -1.5q0 -11 -2 -12.5t-13 -1.5q-13 0 -19 6l-14 14q-12 3 -15 11.5t-5 19.5q0 1 -1 1v2q-5 2 -10.5 3t-11.5 3zM543 588q-10 5 -16.5 13.5t-6.5 28.5q0 38 23 67t52 50q-30 10 -64.5 14
t-57.5 4q-43 0 -81 -6.5t-75 -23.5q11 -11 21.5 -22t19.5 -24q14 -14 24.5 -30t15.5 -33q18 9 36.5 14t30.5 5q19 0 31 -11t21 -25l4 -4q8 -9 14.5 -20.5t11.5 -22.5q6 5 8 14zM3 423q0 91 35 171.5t95.5 141t141 95.5t171.5 35q109 0 202 -47.5t155 -127.5
q51 -57 80 -130.5t29 -156.5q0 -93 -34.5 -173.5t-94.5 -139.5t-141 -93t-174 -34q-85 0 -159 29t-133 80q-79 60 -126 151t-47 199zM650 676q0 7 5.5 12t13 8.5t15.5 5t13 1.5h7l31 -31v-5q-20 0 -44 1.5t-41 3.5v4zM201 703q5 0 14 -2t18 -5t15.5 -7.5t6.5 -10.5t-5 -6
l-85 -4v2q0 5 4 11t10 11t12 8t10 3zM739 668q2 0 2 -3q0 -4 -2 -4q-3 0 -3 4q0 3 3 3zM443 609q-4 -4 -10 -4q-2 0 -3 0.5l-1 0.5q4 3 11 3h3zM160 624q3 0 9 -0.5t12.5 -2t11.5 -4t5 -6.5v-2q-4 0 -14 -1.5t-21.5 -3.5t-22 -3.5t-14.5 -1.5h-13q6 17 18 21t29 4zM701 611
q0 4 7.5 6t8.5 2h24q11 0 18 -0.5t12 -3t8.5 -7.5t8.5 -15h-8q-4 0 -13.5 1.5t-20.5 4t-21 4.5t-14 3q-2 1 -5.5 1.5t-4.5 1.5v2zM329 579q0 10 6 14.5t13 8t13 8.5t6 16q0 30 -19 54t-39 44q-2 0 -8 4t-13 8.5t-13.5 9t-8.5 5.5l-1 0.5t-1 2.5q45 27 90 36t97 9
q18 0 43 -2.5t51 -7.5t49 -13.5t38 -21.5q0 -3 -3 -3q-16 -10 -32.5 -22t-30 -27t-22.5 -33t-9 -39q0 -14 5.5 -19.5t12.5 -9t12.5 -7.5t5.5 -14t-10 -23t-20 -13q-9 0 -15.5 13.5t-14 29.5t-18 29.5t-28.5 13.5q-9 0 -24.5 -3.5t-29.5 -10t-24.5 -16t-10.5 -21.5
q0 -5 4 -11t9 -6h2q7 1 11 5t12 4q5 0 6.5 -3.5t1.5 -7.5q0 -16 -6.5 -21t-20.5 -5q-9 0 -20.5 3t-21.5 8.5t-17 14t-7 19.5zM161 514q16 0 27 -8q-28 -8 -58 -21t-56 -23h-5q0 19 3.5 30t11 15.5t19.5 5.5t30 1h28zM704 506q13 5 26 6.5t24 1.5q37 0 54.5 -9t17.5 -48h-4
q-3 2 -14.5 7t-24.5 11t-24.5 11t-15.5 6l-32 10q-1 1 -3 2.5t-4 1.5zM514 469q5 1 9 4t6 6q0 -3 7 -7t7 -6q0 -4 -2.5 -5.5t-2.5 -9.5h-17q-1 5 -3 9.5t-4 8.5zM477 469q5 1 8 4l6 6q0 -3 7.5 -7t7.5 -6q0 -4 -3 -5.5t-3 -9.5h-17q-2 9 -6 18zM440 469q5 1 7.5 4t6.5 6
l1 -1q2 -3 4.5 -5.5t7.5 -3.5q-4 -5 -4.5 -12.5t-8.5 -7.5q-10 0 -11 7.5t-3 12.5zM401 469q0 1 3 1q4 0 5 1l6 8q3 -3 6.5 -6t7.5 -4q-3 -5 -3.5 -9t-0.5 -9h-20v6q0 1 -2 5.5t-2 6.5zM363 469q9 2 13 10q5 -3 7.5 -6t7.5 -4l-7 -18h-17q0 5 -0.5 9t-3.5 9zM549 437v-100
q0 -10 -7 -18.5t-15 -8.5v127h22zM376 441v-131q-3 0 -11.5 4.5t-8.5 9.5v117h20zM491 437v-138q0 -5 -10 -7.5t-14 -2.5v148h24zM411 404q0 9 1 18.5t3 18.5h10q2 0 5 -0.5t3 -3.5v-149q-6 0 -12.5 3t-9.5 8v105zM656 400q0 13 17 13q35 0 70.5 -15.5t64.5 -31.5l10 -5v-10
q0 -2 -2 -13.5t-5 -24.5t-7 -23.5t-7 -10.5h-3q-7 6 -25.5 21t-39 31.5t-38.5 31.5t-24 21q-8 6 -9.5 8t-1.5 8zM77 352q0 10 20 21t46.5 20t52.5 14.5t37 5.5q14 0 14 -14v-3l-18 -17q-26 -23 -61 -51t-67 -49q-6 4 -10.5 13.5t-7.5 21t-4.5 22t-1.5 16.5zM512 251
q2 0 2 -4q0 -2 -2 -2q-3 0 -3 2q0 4 3 4zM650 234q1 -1 1.5 -2t1.5 -2h-8v4h5zM481 220q2 0 2 -3q0 -4 -2 -4q-3 0 -3 4q0 3 3 3zM618 93q-23 40 -48.5 76t-55.5 72v5l7 -1q16 -5 35.5 -9.5t34.5 -12.5q6 -3 7.5 -10.5t2.5 -15t4.5 -13.5t12.5 -6q2 0 2.5 0.5l0.5 0.5
q-1 7 -3.5 13.5t-6.5 13.5l4 3q5 -5 12 -10.5t16 -5.5q0 8 -3.5 15t-7.5 12l3 1l28 -14l0.5 0.5t0.5 1.5q-1 3 -2 7.5t-3 6.5h6q0 5 1 6.5t1 3.5l-0.5 1.5t-2.5 3.5q-9 7 -11.5 10t-10.5 3q-7 0 -11 -2t-10 -2h-6q-12 14 -28 26t-27 26l11 1q18 0 36 -6t35.5 -15.5t33 -21
t28.5 -23.5q4 -4 10.5 -10t12.5 -12l10.5 -10.5l5.5 -5.5l2 -7q0 -1 -6 -8.5t-11 -12.5q-1 -1 -6.5 -6t-12 -11t-12.5 -11.5t-9 -8.5q-4 -3 -13.5 -10t-20.5 -14t-20 -12.5t-12 -5.5h-1zM149 193q9 17 30 35t46.5 33t51.5 25t46 10q2 0 7 -0.5t6 -0.5l-55 -50l-1 -0.5
t-2 -0.5q-5 0 -10 3.5t-11 3.5q-10 0 -19 -8.5t-9 -16.5v-9q3 4 6 7t8 3h4q-7 -8 -10.5 -12.5t-3.5 -14.5q10 0 17.5 8t15.5 12q-2 -9 -6.5 -14.5t-4.5 -15.5q8 0 14 8.5t16 8.5l-8 -28v-4q10 3 14 9.5t7 14.5t6 15.5t11 12.5l61 14h6q-5 -5 -15 -18.5t-21 -29.5t-21 -30
t-14 -19q-1 -1 -5 -8.5t-9.5 -16.5t-10 -17t-5.5 -9q-1 0 -1.5 -1.5t-2.5 -2.5q-38 17 -69.5 44t-58.5 60zM483 213q24 -35 45 -71t32 -76q-4 -2 -13 -4t-11 -4h-4q-5 0 -5 1v7q-3 4 -6 11l-6 14t-5 12.5l-2 5.5q-3 9 -7.5 23.5t-8 29t-6.5 25.5t-3 13v13zM338 67
q0 7 7.5 23.5t10.5 23.5q1 3 5.5 11.5t9.5 18.5t10 18t7 11q1 1 4.5 7t8 13t8.5 14t6 10l1.5 1.5t2.5 1.5v-11q0 -1 -2.5 -12.5t-6 -26.5t-7 -31t-5.5 -25q-1 -3 -3.5 -11t-5.5 -17t-5 -17t-2 -11h-20q-6 0 -15 2t-9 7zM18 423q0 -89 34 -166t92.5 -135t136 -91t165.5 -33
q90 0 169 33t137.5 90.5t92 136t33.5 168.5q0 89 -34.5 166.5t-93.5 135t-137.5 90.5t-166.5 33q-87 0 -165 -34t-136.5 -92.5t-92.5 -136.5t-34 -165z" />
    <glyph glyph-name="w" unicode="&#xcc;" horiz-adv-x="549" 
d="M394 89v-1h1zM39 22q0 9 3 14t8 10q1 4 3 6q1 1 3 6.5t4.5 11.5t4.5 11.5t2 6.5v11l2 2q-2 6 -2 9q0 4 1 7t3 7q0 2 3 4q2 30 4.5 52t7.5 45q1 1 1 3q0 5 1 9t3 9q3 6 8 13.5t10 15.5q9 14 17 29t8 32q0 4 -0.5 8.5t-1.5 9.5t-1 10v12v12q0 7 1 13q0 4 0.5 7.5t1.5 8.5
q-7 4 -7 17v6l20 64v1q-4 2 -8.5 3.5t-14.5 3.5q-11 3 -20.5 6.5t-21.5 11.5q-9 5 -18 14l-3 2l-3 3q-10 6 -18.5 15.5t-16.5 20.5q-2 2 -3.5 5t-3.5 5q-1 1 -1.5 2t-1.5 2q-8 2 -9 6t-1 12l1 22q8 6 15 14t13 16q0 1 3 4l1 1q0 1 1 2l-1 -1q4 8 11.5 17.5t17.5 19.5h2
q0 1 1 1v1q2 1 7 6l5 10h11l-1 1l5 5q3 3 7 5v3q3 10 12.5 20.5t21 19.5t23.5 15t20 6v6q3 2 9.5 6t14.5 10q7 4 5 2v-1q5 5 7 6l4 2v1l5 2q-3 9 -4 18t-1 13q0 2 1 6t4 8v1l1 1v15l10 10q2 6 7.5 11t17.5 7q6 4 15 4q4 0 9 -3h2v0q0 1 1 1q4 3 10 3q5 0 8 -3h9q2 -2 6 -5.5
t7 -7.5l1 1l2 -2q1 0 2 -1q5 -3 8 -5t5 -10l16 -15q3 -3 6 -15q1 -2 1 -5v-4v-13q0 -9 -1.5 -9.5t-2.5 -2.5q-1 -1 -1 -2v-12l-2 -6l18 -14l1 -6l18 -17l4 -14q-1 -2 -3 -4q9 -9 14 -19l8 -7q11 -12 15 -28l9 -8q6 -7 13.5 -19t9.5 -23q9 -11 19.5 -28.5t10.5 -32.5
q0 -9 -7 -22t-17 -25t-22 -21t-22 -9h-5l-7 3q-6 -2 -8 -3l-4 -2l-5 -5q-4 -4 -6.5 -7t-7.5 -6v-7l10 -49q5 -7 6 -12.5t1 -11.5v-9q1 -3 2 -8.5t3 -10.5t2.5 -9t2.5 -8v-59l10 -43q18 -21 27 -40.5t11 -47.5l3 -68q3 -5 3 -11q0 -7 -2 -9q2 -2 3 -3.5t2 -2.5q0 -1 1 -1
q-1 1 2.5 -1.5t8.5 -4.5q10 -6 19 -13t13 -19l8 -8q0 1 -1 1v1l3 -3q5 -5 8 -11.5t3 -14.5v-13h-10q-9 -4 -13 -4.5t-10 -0.5h-15q-20 0 -22 1q-9 3 -13.5 5.5t-7.5 5.5l-8 5h-1q-14 2 -22 4t-13 7l-13 12q-13 4 -16.5 13t-3.5 32l1 13l-2 4v11l-5 5l-3 9q-2 4 -2 8
q-3 17 -5.5 30t-7.5 27q-13 13 -14.5 27.5t-1.5 31.5v3l-1 16q-2 4 -3.5 6t-2.5 4l-17 17h5l-2 10v1q-2 10 -4 12t-3 5.5t-3 5.5q1 -4 0.5 -3.5t-2 3t-3 6t-2.5 5.5q-2 2 -2.5 3.5t-1.5 3.5q-4 5 -5.5 8l-4.5 9q-4 -9 -8 -17l-8 -16q-8 -16 -15.5 -31.5t-12.5 -34.5h-1
q-2 -12 -3 -21l-2 -18q-1 -6 -1 -12t-1 -12q-2 -11 -6 -16t-10 -10h-1q-1 -1 -2 -1.5t-2 -1.5h1q-5 -7 -8 -13.5t-6 -13.5l-15 -58l-4 -10q-2 -4 -2 -5l1 -1q-1 -5 -2.5 -9t-6.5 -9v-1l-7 -47q-3 -5 -3 -11v-5q-8 -14 -22 -20t-25 -6q-20 0 -31 11l-12 11q-22 8 -22 35z
M373 650q3 0 4 -3t3 -5q1 -2 5 -6t6 -5v-1v-2q0 -2 -1 -5t-1 -4q-2 -3 -8 -8t-8 -10q-2 -2 -3 -2q-5 0 -10 2t-10 2q-2 0 -3.5 -0.5t-4.5 -3.5q5 11 13.5 22.5t14.5 22.5q2 5 1.5 5.5t1.5 0.5zM117 626q15 10 30 26q5 -5 7.5 -14.5t7.5 -15.5q4 -7 10 -12.5t6 -15.5
q-4 0 -5 3.5t-6 3.5q-7 0 -12 -5t-8 -10h-1l-7 4.5t-10 7.5q0 1 -3 7t-6 12.5l-3 6.5v2zM54 22q0 -13 8.5 -18t19.5 -5q9 0 19.5 4t15.5 13v2q0 11 3 16l7 44q0 1 1.5 3.5t2.5 3.5q3 4 4 8.5t3 11.5l2 5l16 62q4 8 7.5 16t8.5 15q5 5 11 9.5t7 13.5q2 17 3 32.5t5 32.5
q8 32 24.5 59.5t27.5 58.5l4 12q1 4 4.5 5t5.5 1q5 0 9 -7t7 -16t5.5 -18t4.5 -13q6 -13 12 -22t12 -21q5 -7 6.5 -15t4.5 -17q3 -6 8.5 -12t8.5 -14l1 -18q0 -15 1.5 -29t12.5 -24q7 -20 10 -37t7 -38q2 -3 6 -6t4 -5q0 -3 -1 -4t-1 -3v-2l3 -5l-2 -18q0 -20 6 -25t27 -8h3
q7 -3 11.5 -7.5t11.5 -6.5q10 -3 24 -3h15q5 0 8.5 0.5t11.5 4.5h1v1q0 15 -15 24t-25 17q-6 5 -16.5 18.5t-15.5 19.5v4q0 2 2 3t2 3q0 5 -3 7l-3 71q-2 26 -11 45t-26 39l-11 45v58q-2 5 -5 18.5t-5 18.5v9q0 7 -0.5 12t-5.5 11l-11 50v18q9 4 12.5 7.5l10.5 10.5
q5 5 11 6t11 4l8 -4h2q8 0 18 7.5t18.5 18t14 21.5t5.5 18q0 14 -10.5 30t-18.5 26q0 8 -6 19.5t-11 16.5q-3 2 -7 2.5t-5 2.5q-2 14 -6.5 22.5t-15.5 17.5q-5 2 -6 5t-4 5q-6 2 -7 2h-5q-3 0 -7 1t-7 6q5 5 10 8t9 8l-1 3q-12 8 -22 16t-24 13v1q0 7 3.5 11.5t5.5 10.5v13
q1 3 3 5.5t2 6.5v9v4q0 4 -1 6q-2 10 -4 10.5t-9 5.5l-5 5t-6 5h-7q-1 0 -2 1.5t-3 1.5t-3.5 -1.5t-2.5 -1.5l-2.5 -0.5t-4.5 -0.5l-2 0.5t-4 0.5q0 2 -3 2q-5 0 -6 -4t-6 -4h-1v2q0 1 -1 2q-10 0 -11.5 -6t-4.5 -10q-1 -1 -3 -1h-1l-1 -1v-3v-4l1 -3q0 -5 -3.5 -8.5
t-3.5 -7.5q0 -6 2 -21t7 -19l-17 -7q-2 -1 -4.5 -1.5t-3.5 -2.5q-3 -2 -12 -8.5t-12 -8.5v-2q0 -5 7.5 -7t8.5 -4l-2 -1q-2 -1 -7 -1.5t-8 -0.5q-2 0 -4.5 1.5t-4.5 1.5l-2 0.5t-3 0.5q-7 0 -16.5 -4.5t-19 -11.5t-17 -15.5t-9.5 -15.5q-1 -2 -0.5 -4.5t-1.5 -4.5
q0 -2 -2 -2.5t-3 -2.5q-2 0 -3.5 -1.5l-2.5 -2.5q0 -1 -0.5 -4t-1.5 -3q-2 -4 -4.5 -3.5t-7.5 0.5l-1 -2q-5 -7 -8.5 -9t-10.5 -7q-13 -13 -20 -28q-7 -9 -14.5 -19t-16.5 -17l-1 -16q0 -3 1 -3q12 -13 22.5 -28.5t24.5 -23.5q15 -9 30.5 -13t32.5 -11q11 -4 20 -6t21 -2v-5
l-28 -87v-3v-1q0 -5 3 -5q4 0 4 -4q0 -13 -1.5 -24.5t-1.5 -24.5q0 -11 1.5 -20t1.5 -20q0 -15 -4.5 -27.5t-11.5 -24t-15 -23t-14 -23.5q-2 -6 -2 -10q0 -7 -1 -8q-5 -26 -7.5 -46.5t-4.5 -48.5q-2 -5 -4.5 -8.5t-2.5 -6.5t2.5 -6t4.5 -5v-1l-7 -6v-2v-1l1.5 -0.5t1.5 -1.5
q0 -2 -1 -2l-2 -2q0 -1 -2 -6.5t-4.5 -11.5t-4.5 -11.5t-3 -6.5q-5 -9 -9.5 -12t-4.5 -13z" />
    <glyph glyph-name=".0125" unicode="&#xcd;" horiz-adv-x="753" 
d="M490 31q0 3 -1 4t-1 5q0 7 3 12.5t7 10t7 9t3 10.5l-4 14l2 25v11q-11 2 -11.5 10.5t-4.5 16.5q-2 5 -10 9.5t-10 6.5q-12 8 -15 17t-5 26h-2l-9 -5q-19 -14 -34.5 -28t-33.5 -28h-1q-3 0 -5 4.5t-3.5 10.5t-3.5 11.5t-5 7.5q-23 -11 -45.5 -22.5t-49.5 -11.5
q-22 0 -22 19l9 49q0 10 -8.5 18.5t-8.5 23.5q-2 0 -8.5 -1t-8.5 -1q-1 0 -3.5 3t-2.5 4h-3q-7 -2 -9 -9l1 -13q0 -12 -7 -19q-2 -2 -11.5 -9t-11.5 -9l-20 -24v-2q0 -9 6.5 -17t6.5 -16q0 -4 -0.5 -5.5t-3.5 -4.5t-13.5 -12t-13.5 -11q-2 0 -2 -4q0 -2 -0.5 -4t-0.5 -5
q0 -4 0.5 -6t0.5 -3q-3 -3 -11.5 -12t-11.5 -11q-2 -2 -7 -6.5t-11 -9t-12 -8t-9 -3.5q-5 0 -15 4t-13 7q-1 1 -2 4l-1 3l-1 2t-1 3v12v10q0 7 2 11l12 12v11q2 8 12 17t20 9l4 -1l13 13q-2 4 -2 8v3l2 5q0 5 -6.5 11t-9.5 11q-7 17 -8 36t-1 36q0 8 0.5 15.5t4.5 14.5
q2 4 9 13.5t7 14.5q0 3 -5 8q-23 4 -44 19.5t-21 43.5q0 14 7.5 18.5t18.5 4.5l10 -1q13 8 13.5 19.5t1.5 19.5q0 5 3 8h11l11 -4q1 0 8 1.5t10 2.5q1 0 4 1t3 2l7 15q1 2 1.5 4.5l0.5 2.5l-11 8q-23 15 -43.5 32.5t-26.5 45.5q-5 23 -9 47t-4 47q0 7 0.5 14t3.5 13
q8 15 24 27t30 20l5 3q8 3 19 10.5t22 16t22 14.5t20 6h2l9 -5q20 -19 35.5 -38.5t27.5 -44.5l9 5l0.5 -0.5t1.5 -0.5v16q-2 -2 -4 -2q-7 0 -14 11t-7 17q0 5 1.5 6.5t1.5 6.5l-5 38q0 11 3.5 23.5t8.5 21.5l11 18h4v-54q0 -2 1 -6.5t3 -9.5t4.5 -9t4.5 -4l14 6q-2 6 -2 15
v8q7 8 17.5 12.5t21.5 8.5l2 1q3 2 8 4.5l5 2.5v26q5 0 10 -8.5t8 -10.5q9 3 16 4t12.5 2.5t10.5 4.5t11 11q0 1 1 2l1 1h52q8 0 20.5 -6t19.5 -10q30 -18 45.5 -51.5t22.5 -65.5v-29q0 -17 -1 -32.5t-4 -33.5q-2 -14 -5.5 -28t-3.5 -28q0 -5 4 -8t8.5 -5.5t9 -5.5t5.5 -8
q2 -7 5.5 -12t3.5 -9v-1q0 -1 -2 -5l-2 -4q-1 -1 -1 -12v-6q0 -4 1 -5q-2 -1 -4 -4.5t-3 -4.5v-2q3 -3 15.5 -10t20.5 -12q3 -3 4 -3q4 0 8 -4q9 -4 21 -9t14 -7q12 -6 15 -16.5t3 -22.5q0 -20 -7.5 -36.5t-14.5 -34.5q-1 -2 -2 -5t-1 -4q0 -4 3 -7q13 -16 27.5 -35
t14.5 -42q0 -9 -3 -16t-8 -15q-16 -17 -31.5 -33.5t-26.5 -36.5h-3l-1 7t-1 11l-2 43q0 4 -2.5 19t-6.5 31.5t-9 29t-10 12.5q-9 0 -12.5 -2.5t-5 -5.5t-2.5 -6.5t-4 -5.5q-2 -2 -8 -4t-6 -6l1 -1q0 -2 2.5 -7.5t3.5 -6.5l1 -1t2 -1q2 -3 7 -15t6 -17v-13l-5 -39l3 -8
q0 -13 -7 -22.5t-7 -23.5l9 -17l-2 -16q1 -2 5 -9t6 -9q4 -5 9 -7t7 -7q2 -2 4.5 -8.5l2.5 -6.5v-5l-2 -10q0 -3 1 -5.5t1 -4.5q0 -7 -1.5 -11.5t-7.5 -6.5h-103h-3q-7 0 -8 5.5t-1 11.5zM473 21q0 -11 2 -21t14 -12l15 -15q5 -5 15 -5h107q14 5 17 12t3 18q0 1 -0.5 3.5
t-0.5 3.5l-1 1l2 10v8q-4 10 -5 13.5t-3 5.5t-2.5 3.5t-2.5 3.5l-11 10q-1 2 -2 3.5t-2 3.5q-2 3 -6 7l3 15l-10 18q2 10 7 18q2 5 4.5 10.5t2.5 14.5l-3 7l1 9q0 -3 1 -8.5t3 -15.5h6l19 -19h20q11 20 22.5 33t23.5 26h-1q4 4 8 8.5t8 8.5q6 10 9.5 18t3.5 19
q0 24 -12.5 42.5t-25.5 33.5l-3 3h-1v1v1h-1l-1 1q0 1 -1 2l2 3q0 1 0.5 2t0.5 3q1 2 3 5.5t4 8.5q5 14 10 27.5t5 30.5q0 12 -2.5 23t-10.5 19l-12 11q-7 14 -22 22q-6 4 -13 7l-14 6q-1 0 -1.5 0.5t-1.5 0.5t-1.5 0.5t-1.5 0.5q-5 3 -10 5l-5 5v13q4 8 4.5 9.5t0.5 4.5v1
q0 5 -2 8.5t-4 8.5q-2 4 -3 7q-1 4 -7 12l-3 2l0.5 -0.5t1.5 -0.5l-13 12q-1 5 -6 10q0 10 5 23l2 10l2 10q3 18 4 34t1 34v31q-5 26 -17 55t-34 51q-17 28 -43 44q-8 5 -22 11.5t-26 6.5h-57q-9 -9 -10 -11q-5 -5 -9.5 -6t-10.5 -3q-2 -1 -5 -1q-2 0 -6 -1q-5 6 -12.5 11
t-26.5 5v-31q-2 -1 -3.5 -2t-3.5 -3l-12 -4t-11 -5v19l-19 19v6h-27l-16 -26q-6 -11 -10 -25.5t-4 -28.5l3 -28q-6 8 -12.5 14.5l-13.5 13.5l-15 8h-5q-14 0 -29.5 -9t-29.5 -20q-18 -14 -29 -19l-8 -5l1 1q-17 -9 -34.5 -23t-26.5 -31q-4 -8 -4.5 -16.5t-0.5 -16.5
q0 -26 4 -50.5t9 -47.5q5 -26 20 -42.5t34 -30.5q5 -5 10.5 -9.5t11.5 -9.5q-3 -1 -7 -1.5t-7 -2.5l-9 4h-18q-13 -13 -13 -23v-6q0 -11 -4 -18l-5 1q-18 0 -30 -7.5t-12 -30.5q0 -22 11 -38t28 -26l6 -6q6 -8 16 -14q0 -1 -0.5 -1.5l-0.5 -0.5v-1q-2 -2 -2 -3l-2 -2
q-5 -10 -6 -18.5t-1 -18.5q0 -18 1.5 -39t9.5 -42l9 -9q1 -1 1 -2l1 -1l-1 1q0 -2 2 -4v-11q-15 -2 -30 -14t-17 -23v-10l-10 -10q-4 -8 -4 -18v-22q0 -3 0.5 -4t2.5 -6q2 -6 3 -7.5t4 -4.5q2 -4 10 -7l14 -13q4 -4 16.5 -9.5t19.5 -5.5q4 0 10.5 3.5t13 8.5t12.5 9.5t9 7.5
h1l7 7.5t12 12.5l9 9v5q0 2 -0.5 4t-0.5 4t0.5 3t0.5 2v1q6 5 14 12t11 10q6 6 7 9t1 9q0 5 -2.5 11t-5.5 11q-4 3 -5 8l17 21h-1l10 8q4 3 9 7t4 3q11 11 11 27q0 -1 1 -1l-8 -48q0 -28 19 -35l14 -13q8 -8 26 -8q23 0 41.5 6.5t35.5 16.5q6 -4 10 -4l14 -14q5 -5 11 -5h5
q8 6 16.5 14t16.5 14q5 5 10.5 9.5t11.5 9.5q2 -2 4.5 -4t5.5 -4l3 -3t3 -1l1 -1l3 -3l5 -4q0 -4 1 -5q1 -6 3.5 -11.5t9.5 -10.5v-2l-2 -28l3 -14q0 -2 -1 -3t-2 -3h-1l-2 -2q-5 -6 -9 -13t-4 -18q0 -7 1 -10zM602 253l-2 1q2 1 3 2.5t3 2.5l1 -1q2 0 4 3q2 -20 3 -32
q-3 8 -6.5 14.5t-5.5 9.5zM182 213l-2 -1l13 13l2 -2q1 1 -4 -3t-9 -7zM184 211l-4 -3q2 2 4 3zM593 513v1l1 -2h-1v1zM204 258l1 -1v-1q-1 1 -1 2z" />
    <glyph glyph-name="FL00CEh" unicode="&#xce;" horiz-adv-x="892" 
d="M387 293l-22 18l-5 12l-39 151l-61 -234h108l-13 69l167 -136l1 -6l18 -17v-1l9 11l-160 130zM665 675l23 -162l28 187h146l-1 -5l20 -20l-108 -709h-143l-17 17l4 -17h-158l-19 19h-6v17v6q0 4 1 7q0 2 0.5 4t0.5 4l6 7l-17 17l-4 -4l-5 24h-188l-93 -339h-180l-19 19
h-7l307 1189h140l2 -8l17 -17l180 -771l-4 2l4 -3l19 -82l-93 643h145l1 -7zM619 0h122l104 685h-115l-49 -327l-49 327h-114zM451 18q-1 -6 -1.5 -10t-0.5 -6v-2h130l-32 134zM103 -238l94 339h228l5 -26l79 87l-1 4l-130 106l9 -47h-171l92 354l2 2l65 -255l3 -7l155 -125
l-170 727h-115l-299 -1159h154z" />
    <glyph glyph-name=".0049" unicode="&#xcf;" horiz-adv-x="1054" 
d="M114 39q-2 -4 -12 -13.5t-13 -12.5q-5 -3 -6.5 -3.5t-5.5 -0.5h-6q-5 14 -5 24v9q0 34 17.5 57t39.5 47q4 5 9 14t12 11q-8 13 -8 29q0 23 12 42t29 33q2 2 6.5 2.5t6.5 0.5q5 0 6 1q6 2 10.5 7t13.5 3q6 18 12 30.5t14 29.5l9 13.5l9 13.5q0 1 1 7t1 7q5 24 24 40.5
t42 18.5q5 8 10 16.5t5 17.5v5q0 4 -1 15.5t-2 15.5q-11 3 -13 3h-4q-26 0 -43.5 -3.5t-33.5 -23.5q-11 -5 -19 -7t-19 -2t-18.5 6t-15.5 6q-3 0 -3 -2q0 -7 1.5 -12.5t1.5 -12.5v-2v-7v-1q-3 -5 -10 -11.5t-14.5 -12t-15 -9.5t-11.5 -4q-6 0 -11.5 6.5t-8.5 11.5
q-2 -2 -8 -4.5t-8 -4.5q-8 -3 -21 -8l-13 -5h-7q-1 0 -4 3.5t-4 5.5q-11 10 -17.5 23t-6.5 25v5q7 22 24 31.5t35 19.5q8 5 12.5 15t12.5 10q5 0 8.5 -1t8.5 -1q7 0 7 4v1l-3 13v2q0 4 3.5 8t5.5 7q4 3 10.5 10.5t8.5 8.5q0 1 3.5 4t8.5 7t9.5 8t7.5 7q5 4 15 4q12 0 17 1
q8 1 14.5 7t15.5 6q14 0 24 -9.5t23 -11.5l1 1t3 2q19 14 42 27t49 13q25 0 48 -16q0 2 1 3h1h2q4 -2 17.5 -3.5t18.5 -1.5q5 -1 6 -4.5t4 -6.5q23 4 45 -6t39 -24q5 23 23 41t44 18q29 0 50.5 -18.5t21.5 -47.5q0 -7 -1.5 -13t-1.5 -14v-5q5 -1 6 -6t2 -9q2 -5 11 -5
q5 0 8.5 -0.5t7.5 -1.5q11 -5 20.5 -11.5t17.5 -17.5q2 3 6.5 8.5t10 11t11 10t9.5 4.5q2 0 7 -0.5t7 -0.5h1h1q2 0 5 3t4 5q-5 7 -16 8t-23 1t-22 0.5t-13 6.5v2v5v2v8q0 3 2 9q13 3 32 3h16q8 0 15 -1q12 4 23.5 18t23 29t22 26.5t20.5 11.5q4 0 13.5 -6t9.5 -12v-3
q-11 -9 -25.5 -23.5t-22.5 -27.5q0 -1 -0.5 -2l-0.5 -1q0 -5 7 -5q8 0 16.5 5.5t15.5 10.5q12 7 26.5 13t27.5 6q8 0 11 -8t3 -13v-6q-17 -11 -35 -18t-35 -19q5 -8 14 -9.5t16 -2.5q5 -1 20 -1.5t20 -0.5q3 -3 9 -4v-7q0 -11 -2.5 -12t-6.5 -8h-3h-9h-2q-8 0 -15.5 1
t-16.5 1q-3 0 -3 -2t3 -5q6 -5 13.5 -9.5t15 -9.5t12.5 -11.5t5 -14.5v-8q-2 -3 -5 -3q-19 0 -38.5 11t-33.5 21h-4q0 -8 1 -16t1 -18q0 -18 -7 -31t-17.5 -22.5t-24 -17.5t-26.5 -17l-1 -2q-5 -6 -10 -7.5t-13 -1.5q-12 0 -21 2.5t-19 5.5q-20 5 -40.5 10t-42.5 5
q-16 0 -29 -7q-12 -5 -21.5 -14t-20.5 -14q-8 -5 -21 -10.5t-26.5 -10.5t-25 -10.5t-15.5 -11.5q0 -12 -2 -19t-5.5 -12t-9.5 -9.5t-15 -12.5q-1 -2 -5 -7t-9.5 -10.5t-9.5 -10t-5 -5.5q-12 -12 -28 -18.5t-33.5 -11t-35 -8t-31.5 -9.5q-8 -3 -10 -6.5t-2.5 -7.5t-1 -8.5
t-4.5 -8.5q-29 -32 -69 -36q-2 -1 -9 -0.5t-12 0.5h-6q-10 -2 -22.5 -11t-19.5 -17q-2 -2 -4.5 -8.5t-3.5 -8.5v-1v-2v-2v-1q0 -1 -2.5 -2t-2.5 -2l-2 -6q-5 -9 -12 -20.5t-16 -21.5t-20 -17t-24 -7q0 10 4 20t4 19v1zM126 403q0 1 -0.5 0.5t-0.5 0.5h1v-1l4 -3q5 -4 9.5 -7
t9.5 -3t14 5t19 12t18 15t12 14v13q0 7 -1 9l10 -4t13 -2q12 0 21 2t23 9q11 15 24 19.5t30 5.5v-5q0 -5 -3 -10l-6 -10q-26 -5 -46.5 -24t-25.5 -45v-6q-1 -2 -1 -3t-1 -2l-7 -14q-2 -4 -4 -6q-4 -4 -6 -8l-1 -1q-1 -2 -1.5 -3.5t-1.5 -3.5t-2 -4.5t-2 -4.5q-4 -7 -6.5 -14
t-7.5 -20q-5 -1 -9.5 -4t-7.5 -6l-1 -1h-2q-2 0 -7.5 -0.5t-10.5 -3.5v1q-21 -18 -36 -40t-15 -50q0 -13 4 -24q-2 -2 -3.5 -5t-3.5 -5q-1 -2 -2 -3t-2 -3t-3 -4q-1 -1 -1 -3l-4 -4q-22 -24 -38.5 -47.5t-16.5 -59.5v-9q0 -6 2 -14t8 -25h5l19 -19h14q4 0 6 1l11 -11
q20 0 35.5 7.5t26.5 18t18.5 22.5t12.5 21l3 9q2 2 4.5 5t2.5 5v4q2 8 10 16q5 5 14 11t17 8h25q44 4 77 40q5 6 6.5 11.5t1.5 10.5q0 3 6 6q8 4 19.5 6.5t24.5 5.5q23 5 45.5 12t41.5 26q1 1 5.5 6t10.5 11t10.5 11.5t5.5 7.5q6 4 8 6h1q12 11 17.5 19t6.5 28q5 4 16.5 9
t23.5 10q29 10 43 19q9 4 20 13q5 4 11.5 8t8.5 6q12 6 24 6q17 0 35 -4t36 -9l-1 1q2 -1 6 -1.5t6 -1.5h1q10 -4 19.5 -6t20.5 -2t18 2.5t15 11.5l16 11h-1q24 15 43.5 33t19.5 53v12q14 -8 29.5 -15t32.5 -7q8 0 11 3.5t6 8.5v11q0 14 -12 26l-9 9l-1 1q0 1 -1 2h18
q3 5 4 7t2 3q5 5 6.5 8t1.5 14v17l-19 19v5q-4 1 -7 1q-2 0 -4 1q5 2 9.5 5.5t11.5 7.5v12q0 5 -2.5 13t-7.5 13l-3 3v-1q1 0 1 -1l-10 10q-3 8 -9 14.5t-17 6.5q-6 0 -14 -2q-2 4 -4 6l-12 11q-3 11 -17 20.5t-20 9.5q-16 0 -30.5 -16t-28.5 -35h1l-2 -2q-8 -11 -15.5 -19
t-15.5 -13q-6 1 -13 1h-16q-12 0 -23 -1t-20 -3q-6 -15 -6 -23v-21q6 -12 17 -15l12 -13l-2 -2q-13 13 -34 21q-1 0 -2 0.5t-2 0.5v0q1 0 1 1q1 4 1 15q0 31 -22 53l-6 6q-11 20 -32 32t-46 12t-44 -14.5t-30 -35.5q-15 10 -31.5 16t-33.5 6h-4q-4 7 -14 10q-5 0 -18 1.5
t-17 3.5h-10q-25 13 -47 13q-30 0 -54 -13t-44 -29h-1q-5 2 -6 4q-1 1 -2 1l-1 1l-2 2q-7 5 -14 8.5t-18 3.5q-8 0 -13.5 -3t-10.5 -6q-1 -1 -2.5 -2t-2.5 -2h-4q-5 -1 -14 -1q-6 0 -11.5 -1t-8.5 -3q-2 -2 -6 -5.5t-13 -11.5q-5 -4 -7 -6t-5 -6q-11 -7 -15 -13
q-5 -5 -5.5 -6t-1.5 -2l-4 -4q-3 -3 -4 -5q0 -1 -0.5 -1.5t-0.5 -1.5q-2 -2 -3.5 -4.5t-1.5 -8.5v-4h-1q-2 0 -3 0.5t-2 0.5q-10 0 -16.5 -7t-11.5 -15q-1 -2 -4 -5l-11 -5q-18 -10 -33 -20.5t-23 -36.5v-7q0 -16 8 -32t22 -28q4 -5 9 -8t7 -4l10 -10q9 -9 13 -9h8
q17 6 23.5 9t14.5 5h1q2 0 7 3z" />
    <glyph glyph-name="FL00D0h" unicode="&#xd0;" horiz-adv-x="505" 
d="M249 705q-2 0 -2 -2q0 -3 2 -3t2 3q0 2 -2 2zM245 703q-2 0 -2 -3q0 -2 2 -2t2 2q0 3 -2 3zM144 572h1q7 0 9.5 1.5t4.5 6.5q15 26 33 46.5t39 43.5l5 6h-9q-10 0 -18 -2.5t-17 -2.5h-3q13 8 26 15t26 12h-2q-2 0 -14.5 -5.5t-19.5 -9.5q-3 -2 -10 -5.5t-14.5 -7.5
t-14 -7.5t-8.5 -4.5l44 8q4 0 4 -4l-60 -86zM101 592q0 -6 1 -12.5t6 -11.5q4 2 6 2q1 0 7 2q8 4 19 14t11 21q0 1 -3 4.5t-6.5 7t-6.5 6l-3 2.5q-8 0 -17.5 -9.5l-13.5 -13.5v-3v-9zM271 549q6 -6 10 -6l2 1q2 2 7 5.5t6 5.5q2 1 4 3l3 3l24 37q-2 4 -3 4.5t-4 3.5l-32 38
l-2 -2q-2 -2 -5.5 -8t-7.5 -13.5t-7 -14t-4 -8.5l-6 -9q-2 -4 -7.5 -11.5l-5.5 -7.5q-1 -2 -2 -10.5t-1 -10.5h31zM393 60q-7 12 -8.5 19t-6.5 21l-2 5q-5 17 -11 33t-17 29q-1 1 -5.5 6t-10 10t-10 10t-5.5 6q-11 12 -14 27t-11 29q0 1 -2.5 4.5t-6 7.5t-6.5 7.5t-4 4.5
q-11 15 -19.5 33.5t-17.5 35.5q-1 1 -5.5 8t-10 15t-10 15.5t-5.5 9.5q-9 14 -13.5 28.5t-6.5 31.5h-9v-34l-4 -50q0 -1 0.5 -7.5t1 -14.5t1 -15t0.5 -9v-3q-1 -4 -2 -10t-1 -7l-13 -53l2 -37q0 -24 -9.5 -45.5t-9.5 -48.5v-16q0 -6 2 -14q3 -8 6 -12.5t3 -15.5q0 -7 -2 -16
t-10 -9q1 0 -7 2q-6 -18 -20 -27.5t-32 -9.5q-11 0 -11 10q0 11 5.5 17t12.5 14q8 10 15.5 25t7.5 27q0 31 -8.5 60t-8.5 59l20 112q0 13 -3.5 25t-8.5 24l-2 -10q0 -5 -1.5 -16t-3 -23t-3 -22.5t-2.5 -13.5q-2 -2 -6.5 -3t-7.5 -1h-3v9h-30q1 7 3.5 14t4.5 12l-19 5v8h-15
v7l66 154l9 25v3q0 5 -1.5 6t-2.5 5q-5 17 -16.5 32t-11.5 35q0 10 9 21t21.5 22.5t25 21.5t19.5 18l19 24q1 2 4 6.5t4 5.5q8 7 11.5 9t3.5 13q0 8 -5 15.5t-5 17.5q0 16 6 23t13 16q4 6 6.5 12t5.5 10.5t8.5 7.5t16.5 3h10q19 0 32 -7q22 -12 35.5 -36t13.5 -48v-11
q0 -9 -1 -22l-1 -13l-1 -2h1q3 0 4 3.5t3 6.5q2 -2 4.5 -5t2.5 -5q2 2 4 2q3 0 3 -3v-3q0 -15 -7 -23t-7 -9t0.5 -3t1.5 -2q3 -4 10 -13t15 -18.5t15 -18t9 -11.5q1 -2 4.5 -6t5.5 -6v-2q0 -8 -12 -20t-28.5 -25t-35 -24.5t-30.5 -18.5q-3 -2 -5 -3t-3 -2l-3 -2
q0 -1 -1 -1.5l-1 -0.5q0 -1 1 -3t1 -4l19 -44q7 -16 12 -35t8 -37q0 -2 1 -7t1.5 -11t1.5 -11.5t1 -6.5q1 -5 4.5 -10.5t7.5 -11.5q1 -1 3.5 -6.5t5.5 -11.5t6 -11.5t4 -6.5l5.5 -5.5t9.5 -10t9.5 -10.5t4.5 -6q14 -13 19 -30t8 -34q1 -5 2.5 -16.5t3 -24.5t3 -24.5
t1.5 -15.5q5 -6 9.5 -14.5t6.5 -13.5q1 -2 4.5 -7.5t7 -11.5t7 -11.5t4.5 -8.5q6 -7 10 -11.5t4 -15.5v-7q-5 -3 -10 -3h-11q-2 0 -4 0.5t-4 0.5h-2q-5 2 -12.5 7t-9.5 10zM390 14q3 -8 10.5 -14t14.5 -11l8 -8q5 -5 11.5 -9t11.5 -6h5q1 0 2 -0.5t2 -0.5h15q11 0 22 8v14
q0 12 -4 18.5t-10 12.5l-3 2q-2 5 -6.5 12.5t-7.5 14.5q-7 10 -7 11q-2 5 -6 12t-9 15q0 6 -1.5 18l-3 24t-3 22.5t-2.5 14.5q-3 17 -8 35t-19 32l-7 6l-8 12t-10 11l-1 -1q-2 2 -4 5t-4 5q0 2 -2 5t-4 7l-9 18q-1 2 -2.5 4t-2.5 4q-5 9 -6 11l-1 1q-2 8 -2 16
q-1 6 -1.5 11.5t-0.5 7.5q-3 19 -8 38.5t-13 36.5l-18 42l1 1l1 0.5t2 1.5h1q13 7 32 20t37 27t30.5 27.5t12.5 23.5v6l-7 6q-2 2 -3.5 4.5t-1.5 4.5q-2 2 -7.5 8t-11.5 14q-1 2 -3.5 5t-4.5 6q-3 3 -6 6.5t-7 7.5q-2 3 -4 5.5t-4 4.5l1 1q2 3 7 10t5 23v3q0 5 -4 11l-15 15
v23q0 21 -9 42t-25 37l-5 5q-8 11 -18.5 21t-22.5 17v-1q-14 7 -35 7h-10q-23 0 -30.5 -8.5t-13.5 -20.5v-1q-2 -6 -5 -9q-2 -3 -5 -6q-7 -8 -12 -16.5t-5 -25.5q0 -14 6 -23q4 -8 4 -10t-0.5 -3l-0.5 -1l-2 -2v-1h-2q-2 -2 -8 -9t-8 -12l-12 -15v2q-6 -9 -14 -16.5
t-16 -13.5q-19 -16 -36.5 -33.5t-17.5 -36.5q0 -15 5 -27t12 -23l6 -9h-1q5 -9 6 -11q0 -6 4 -9l-8 -20l-67 -157v-26h6l19 -19h2q-1 -5 -1.5 -10t-0.5 -10h6l19 -19h22l9 -9h2l-6 -35q0 -20 2.5 -35t5.5 -30q1 -3 1 -6q0 -2 1 -5q2 -12 4.5 -24t2.5 -22q0 -9 -6.5 -22.5
t-14.5 -21.5q-2 -3 -3 -4l-6 -6h1q-12 -12 -12 -29q0 -20 16 -24l14 -14q6 -6 18 -6q40 0 58 35h1q16 0 20 13.5t4 23.5q0 9 -2 14.5t-5 10.5h-1q-1 1 -1 6q-2 8 -2 11v16q0 14 2.5 24.5t6.5 21.5q5 13 7.5 24t2.5 24l-2 34l13 53q0 1 1 7.5t2 10.5v5q0 2 -0.5 12.5
t-1.5 19.5q-1 5 -1 8v5v15q5 -8 10 -14.5t8 -10.5q2 -2 4 -6t4 -10q0 -1 0.5 -2l0.5 -1q6 -13 12 -24.5t14 -22.5q2 -2 10 -11.5t8 -11.5q6 -10 10 -23q2 -8 5.5 -17.5t11.5 -18.5q3 -3 7.5 -8t10.5 -10l15 -16q8 -9 13 -23t10 -30q0 -1 1 -2l3 -8q0 -3 2 -7q1 -2 1.5 -5
l0.5 -3q2 -5 4 -11.5t7 -14.5zM249 696q-7 0 -7 7q0 1 0.5 1.5t0.5 1.5h1q0 1 1 1q7 0 7 -7q0 -2 -2 -4h-1zM319 341h-2v12q1 -4 1 -7t1 -5zM105 502q-1 0 -1 1z" />
    <glyph glyph-name="one" unicode="&#xd1;" horiz-adv-x="804" 
d="M146 65l35 213l-178 184v25q20 2 24 3t8 3q12 1 43 5t66 9t67.5 10t46.5 7l5 2l97 205l14 18v-1q8 10 25 14l5 -12l15 -14l103 -213l235 -30l20 -20l-2 -2l20 -20l-184 -191l40 -262h-30l-213 111l-237 -119l-20 19l-5 -2v58zM161 32l226 113l216 -113h12l-39 254
l181 187l-5 5l-248 33l-113 233q-6 -2 -6 -5l-11 -15l-100 -209l-11 -5q-12 -2 -44 -7t-68 -10t-68 -9.5t-44 -5.5q-5 -2 -13 -3.5l-8 -1.5v-5l179 -185l-36 -220v-31z" />
    <glyph glyph-name="FL00F7h" unicode="&#xd3;" horiz-adv-x="1339" 
d="M557 310q-1 4 -4.5 15.5t-8 24.5t-8 25t-4.5 17v5v3l73 -25l37 211l8 16q6 -26 11.5 -55.5t11 -59.5t10 -59t8.5 -53h4h5l58 25q3 1 5.5 2t4.5 1q0 -2 -1 -5t-1 -6l-24 -75v-4v-3l550 -52q-19 -1 -60 -4t-93 -7.5t-109.5 -9t-109.5 -9t-93.5 -7.5t-60.5 -4
q-9 -1 -16.5 -1.5t-13.5 -0.5q-17 0 -26.5 -5.5t-18.5 -25.5l-32 -83q-2 -2 -4.5 -9t-4.5 -8l-8 8l-43 108l-581 58zM12 243l6 -1l19 -18l558 -56l34 -83l19 -19q2 0 3 1l19 -19q10 5 13.5 7.5t4 3.5t-0.5 2t0 3q2 7 4 9l32 84h1q8 16 14.5 20t19.5 4h11t13 1h1q1 0 2 0.5
t3 0.5q15 1 42.5 3t63.5 5t77.5 6.5t83.5 6.5t82.5 6.5t76 6t62.5 4.5t41 3v24l-19 19v6l-514 48l16 48q0 2 1 4q0 2 0.5 10.5t0.5 9.5l-19 19v6h-17q-7 0 -10 -2q-1 -1 -2 -1l-36 -16v1q-4 22 -9 51t-11 58.5t-11.5 57.5t-10.5 48l-18 18q-1 3 -1.5 6.5t-1.5 6.5l-28 -55
l-34 -196l-76 25v-32q1 -3 3 -9.5t4 -14.5t5 -15t5 -15q1 -3 1.5 -5.5t1.5 -5.5l-525 -50v-30z" />
    <glyph glyph-name="Ntilde" unicode="&#xd4;" horiz-adv-x="477" 
d="M211 259h1h1h-2zM71 593q-3 3 -5 7t-5 12v4l12 18q7 0 13.5 -6t10.5 -13l12 -12q10 -10 10 -20v-2q4 -5 6 -9.5t4 -9.5l2 -2l2.5 -5.5t5.5 -11.5l2 -1q5 -10 10.5 -21.5t8.5 -22.5l-1 1l8 -23l5 -5q0 -3 5 -16.5t11.5 -31.5t13.5 -37t13 -34h5l24 31q5 11 11 21.5
t12 20.5q0 2 0.5 4t0.5 4v3q0 5 3 9q5 29 7 56.5t2 59.5v21q0 6 -1 10q-1 5 -2 11t-3 13q-2 8 -2.5 12.5t-2.5 18.5v18l30 2q1 -5 1 -6t1 -2l17 -17q0 -5 1 -5q0 -1 1 -1q7 -29 12 -57t5 -60v-14l-7 -56v-1q0 -3 -0.5 -8.5t-0.5 -11.5v-16q6 8 7 9l0.5 0.5t1.5 2.5
q7 7 12.5 15t10.5 16q3 6 9 15t12.5 18t11.5 15.5t7 6.5q5 0 9.5 -4.5t6.5 -10.5l15 -14q5 -5 5 -11q-5 -13 -9.5 -21t-8.5 -14h-1q-3 -5 -5 -9.5t-5 -10.5v-3q-1 -2 -2.5 -7t-3.5 -8h1q-5 -7 -8 -10.5t-6 -6.5h-1l-5 -5h1q-6 -8 -8 -12q-5 -7 -9 -13.5t-12 -14.5l-34 -30
h-1l-5 -5q1 0 1.5 -0.5t1.5 -0.5q22 -5 37 -5h19q3 0 9.5 6t13.5 13q8 8 18.5 15.5t29.5 7.5v-6l19 -19v-20l-6 -6t-9 -11q-11 -12 -24 -24t-30 -15h-7q-3 0 -5 -0.5t-4 -0.5h-31q-13 0 -22 4q-5 2 -10.5 3.5t-10.5 3.5h-2l3 -3q0 -1 1 -1q14 -16 27.5 -34t18.5 -38l28 -101
v-7q0 -4 -5 -18.5t-12 -30.5t-13 -29t-9 -13h-19l-19 19h-8q11 25 15.5 41t7.5 30l3 12q-4 11 -7 29q0 1 -0.5 1.5t-0.5 1.5q-2 5 -2.5 11.5t-2.5 11.5q-2 10 -4 19.5t-5 18.5q-8 -12 -18 -20.5t-30 -8.5q-16 0 -28 12l-11 10q-2 2 -4.5 3t-4.5 3q-5 -11 -8 -21t-5 -21
q-3 -11 -6 -21.5t-8 -22.5v-3q0 -4 -0.5 -9.5t-0.5 -10.5v-14v-10q0 -2 1 -13q0 -2 2.5 -14t4.5 -15l1 -1v-6q0 -1 0.5 -7.5t0.5 -8.5h-21l-19 19h-5l-13 20q-5 23 -7.5 49t-2.5 52v5q1 2 1.5 5t2.5 6l2 6t2 5q3 8 6 16.5t6 21.5l6 21q0 4 1 6l-31 -2h-6q-14 0 -25.5 8.5
t-22.5 19.5q-8 5 -14 10.5t-12 11.5h-6l-19 19h-6v52l69 -56l54 -5q2 2 5 4.5t8 5.5q8 6 18 13t18 12q-3 5 -5.5 8.5t-4.5 5.5q-1 1 -1.5 2t-1.5 2q-4 6 -5 7q-4 3 -4 13l-3 2q-5 5 -8 7t-8 6q-6 5 -11 11t-7 9v8l-23 22l1 2q-6 5 -13.5 11.5t-14 13t-11 11.5t-4.5 6
q0 5 2 7.5t14 14.5l9 -8l1 -1v1l7 -7t8 -7q10 -8 23 -20t20 -17q0 -1 8 -3q-3 8 -5.5 15.5t-4.5 14.5l-3 9q-1 2 -2 4.5t-2 5.5t-3 8t-4 10.5t-3.5 9t-0.5 2.5q-4 9 -7 18.5t-6 19.5q-5 18 -9.5 32t-7.5 22v4h-5q0 1 -3.5 6t-5.5 6v8zM75 619l0.5 -1t0.5 -2l3.5 -6.5
t5.5 -6.5v2q0 4 -3 9t-7 5zM86 595q2 -1 5.5 -9t3.5 -10q0 2 0.5 3l0.5 1q0 5 -2 11.5t-8 8.5v-2v-3zM218 201l3 7.5t1 7.5t-4 8.5t-4 7.5v1l13.5 3t11.5 1h4l-7 -17l0.5 -2t2.5 -4l6 -8v-2q0 -6 -11 -6h-4q-4 0 -12 2v1zM133 106q0 -23 2.5 -48t7.5 -48l6 -10h3
q0 2 -0.5 3.5t-0.5 2.5q-1 1 -2 6t-2.5 11t-2.5 11t-1 6l-0.5 8t-0.5 15v14q0 8 0.5 16t0.5 10q11 23 15 48t17 45q0 2 1 3l1 1q0 8 2 19.5t11 17.5q0 -10 2.5 -21.5t7 -21.5t12 -17t18.5 -7q13 0 20.5 5t13 12.5t10 17t10.5 17.5q3 0 6.5 -6.5t7 -15t7.5 -16.5t8 -11
q8 -26 13 -49.5t11 -47.5l1 -2l-1 -4q-4 -16 -7.5 -33t-10.5 -33h1q2 0 6.5 11t9 25t8 27t3.5 16v4l-28 101q-6 22 -22.5 42t-30.5 37l-11 12h31q1 0 9.5 -3.5t12.5 -3.5q8 -4 18 -4h25q4 0 7 0.5t8 0.5h5q19 3 33 19.5t26 28.5v4q-4 0 -11 -6.5t-15 -14.5t-16 -14.5
t-14 -6.5h-19q-26 0 -50.5 6.5t-49.5 6.5v4q0 11 11 20.5t21 16.5q1 1 2 1.5t2 1.5l34 30q9 9 14.5 18.5t12.5 19.5q6 7 10 10t9 11q2 2 2.5 8.5t1.5 8.5q6 13 14 25t14 26q0 2 -2 2q-1 0 -5 -6.5t-8.5 -15t-8.5 -16t-5 -10.5q-8 -14 -19.5 -27.5t-18.5 -24.5
q-18 -24 -42 -44t-44 -40q-2 0 -2 1v4q0 9 6.5 22t14.5 27t15 27t9 21l2 14v23q0 8 0.5 14.5t0.5 7.5l7 56v13q0 29 -5 56.5t-12 56.5q-1 1 -1.5 3.5l-0.5 2.5v-13q0 -2 1.5 -8.5t3 -14t3 -14t1.5 -7.5q1 -5 1.5 -10.5t0.5 -10.5v-21q0 -33 -2 -61.5t-7 -59.5
q-2 -3 -2.5 -9.5t-2.5 -11.5q-7 -11 -12.5 -22l-11.5 -23q-3 -5 -7.5 -14.5t-7.5 -16t-3 -7.5l-3 -3q0 3 -3 6q-2 2 -2.5 3l-0.5 1l-2.5 -2.5t-4.5 -3.5h-17v-1h-2q-1 0 -11 21t-21.5 47t-21 49t-10.5 28q-2 0 -4.5 7t-2.5 9l-7 20q-3 14 -11.5 29t-14.5 28v-3
q9 -23 15.5 -45t14.5 -45q8 -19 13 -37t13 -38l23 -47l14 -33l-2 -7q-12 14 -24.5 28.5t-25.5 30.5l-1 3q-7 0 -7 2q-2 0 -6 3.5t-5 5.5q-5 4 -14 11.5t-17 15t-14 13l-6 5.5l-4 3l-0.5 -0.5t-0.5 -1.5t5.5 -6.5t12.5 -11.5t13 -11t7 -5l27 -26v-10q1 -2 5.5 -6t9.5 -8.5
t9 -8.5t5 -6q-1 0 2.5 -6t4.5 -7q7 -8 13 -14.5t11 -16.5q1 -2 5.5 -3t4.5 -3t-1 -2q-5 -1 -16.5 -8.5t-23.5 -15.5t-21.5 -15t-10.5 -7h-2l-58 6l-2.5 1t-2.5 3l-45 36v-7q1 0 5 -4t8 -7q11 -10 25.5 -24.5t29.5 -14.5h6l44 3q9 2 16.5 8.5t15 13.5t15 12.5t16.5 5.5
q0 -6 -8 -12.5t-12 -14.5q-10 -19 -15 -39t-11 -40q-4 -14 -9.5 -28.5t-10.5 -29.5v-3z" />
    <glyph glyph-name="FL00D7h" unicode="&#xd7;" horiz-adv-x="362" 
d="M70 343l-67 136v80h148v-6l19 -19v-46q0 -5 1 -10v-5l7 16l1.5 3t1.5 4v63h149v-6l19 -19v-76l-64 -137l64 -137v-85h-142l-19 19h-6v63q0 5 -1 8l-1 1q1 0 0 1l-5 -14q-1 -2 -1.5 -4t-1.5 -4t-1 -4v-1q-1 -5 -1 -10v-55h-141l-19 19h-6v89zM19 203v-70h117v43q0 4 0.5 8
t1.5 9q1 2 2.5 6t1.5 5l25 61l25 -61q0 -1 1.5 -5t2.5 -6q1 -3 1 -12v-48h118v70l-65 140l65 140v61h-119v-39l1 -6l-1 -6q-1 -2 -2.5 -6t-1.5 -5l-25 -61l-25 61q0 1 -1.5 5t-2.5 6q-1 5 -1.5 9t-0.5 8v34h-118v-61l69 -140z" />
    <glyph glyph-name="FL00D8h" unicode="&#xd8;" horiz-adv-x="410" 
d="M67 617q15 23 29.5 42.5t26.5 28.5v12h16q2 0 3 1l-1 -1h99q8 0 20 -11t26 -28l1 -1q16 -16 34.5 -44.5t35 -58.5t27.5 -55.5t13 -36.5v-289q-1 -9 -9 -28t-20 -42.5t-26.5 -48t-29 -45t-28 -33.5t-22.5 -13h-104q-11 1 -24 15l-7 7q-18 9 -39 39.5t-45 73.5
q-16 29 -27.5 56.5t-12.5 41.5v287q1 7 6.5 21t14 32t20 38t23.5 40zM190 141q-3 5 -6 9.5t-6 9.5l68 165v-54q-1 -9 -6 -24.5t-13 -34t-17.5 -37.5t-19.5 -34zM190 544q3 -5 6.5 -11t7.5 -12l-70 -167v60q1 7 6.5 23t13 34.5t17 38t19.5 34.5zM363 485q-2 13 -16.5 45.5
t-34 67t-39.5 61t-33 26.5h-102v-1q-8 -2 -20 -15t-25 -32.5t-26 -42.5t-23.5 -44.5t-17.5 -39t-8 -25.5v-285q1 -11 12 -37t27 -55q25 -45 46 -75.5t35 -32.5h102q13 0 33 26.5t39.5 61t34 67t16.5 45.5v285z" />
    <glyph glyph-name=".0050" unicode="&#xd9;" horiz-adv-x="590" 
d="M41 805q-2 0 -2 -2t2 -2t2 2t-2 2zM48 801q0 1 -1 1q-2 0 -1.5 -1.5t1.5 -1.5t1 2zM48 792h2l-2 2v-2zM48 785q-1 0 -1 -2q0 -3 1 -3q2 0 2 3q0 2 -2 2zM53 780q-2 0 -2 -2t2 -2t2 2t-2 2zM66 765q-1 0 -1 -3q0 -2 1 -2q2 0 2 2q0 3 -2 3zM73 751h7q-1 0 -3 1l-2 1h-1h-1
v-2zM82 744q-2 0 -2 -2t2 -2t2 2t-2 2zM91 733q-1 0 -1 -1q0 -2 1 -1.5t1 1.5t-1 1zM116 713q0 1 -4 1t-3 -1t3 -1q3 0 4 1zM332 705q0 -4 3 -4h5q10 0 12 9t2 17q-7 0 -14.5 -7t-7.5 -15zM290 724q0 -5 2.5 -15t9.5 -10q3 0 3 5v2v2l-12 16h-3zM273 542l-2 -2l4 2h-1h-1z
M278 540q-2 0 -2 -3q0 -2 2 -2t2 2q0 3 -2 3zM284 526q3 0 3 -7q7 1 9 9.5t2 13.5v2q-2 3 -5 7t-4 4h-2q-5 -8 -5 -18h1l1 -1t0 -1t-3 -2t-3 -2l3 -1q5 0 8 3l1 -2q0 -5 -6 -5zM541 519q2 0 2 -2t-2 -2t-2 2t2 2zM291 519q-1 0 -1 -2t1 -2q2 0 2 2t-2 2zM482 510q-1 0 -1 -1
t1 -1t1 1t-1 1zM476 484q1 0 4 -0.5t5 -0.5l2 -2h1q4 0 10.5 3t13 7t13 9t9.5 8v-1q0 -6 -6 -11.5t-13.5 -9.5t-16 -6.5t-12.5 -2.5h-1q-2 1 -5.5 2.5l-3.5 1.5v3zM224 311q0 -5 -4.5 -12.5t-4.5 -10.5q0 -2 -1 -7.5t-1.5 -12t-1.5 -12.5t-1 -7t-2.5 -6.5t-4.5 -8.5l-4 -7
v-1v-1q6 2 14.5 9.5t12.5 12.5q2 3 3.5 15.5t7.5 20.5q1 2 6.5 9.5t7.5 8.5q3 7 2 14t4 13q7 8 11.5 13t6.5 14q2 7 7 19t5 19h-21q-4 -7 -12.5 -16.5t-17.5 -20t-15.5 -20.5t-6.5 -17q0 -5 5 -4t5 -4zM28 2q-1 1 4 9t7 13q3 5 11.5 17.5t11.5 14.5l56 56q1 0 3.5 2t3.5 3
l36 36q10 17 17 34t19 33q-4 -3 -10 -11.5t-11 -8.5q-4 0 -7.5 5t-5.5 12t-3.5 13.5t-1.5 9.5v7q0 5 0.5 10t4.5 10l20 32q0 2 2 5t3 4v2q0 13 -4.5 26t-10.5 25.5t-10.5 26t-4.5 27.5q0 23 11 41t28 32q3 11 12 19t21 8t26.5 -7t19.5 -7h2l2.5 2.5t1.5 2.5v1q0 2 -1 2.5
t-1 3.5q0 4 2 4l-0.5 1t-1.5 1l-5 -2q-4 13 -15 16l4 4l-2.5 0.5t-3.5 0.5q-9 0 -17 -8t-19 -8q-4 0 -10.5 3.5t-12.5 8.5t-10.5 10t-5.5 9h-20q-4 8 -11 15.5t-7 16.5q0 5 3 5.5t6 5.5q1 1 1.5 4.5t0.5 4.5l16 11l-2 2v3h-32l-2 2q-5 7 -14 8.5t-11 4.5q0 1 -1 5.5t-1 6.5
q-1 3 -3.5 4.5t-5.5 2.5t-5 3t-2 6t1 6t1 6t-4.5 7t-4.5 8q0 3 0.5 6t4.5 5l22 6l-10.5 3.5t-4.5 8.5q-16 14 -28 29.5t-26 30.5q-1 1 -3 3.5t-2 3.5q-9 15 -20 23q-1 0 -1 3q7 0 14 -0.5t14 -2.5l-2 -3q0 -2 2 -2q4 0 4 -2q1 -2 4 -7t3 -7l-4 -2q3 -5 6.5 -6.5t3.5 -7.5
q2 0 2.5 0.5l0.5 0.5l1.5 -0.5t3.5 -2.5l-3 -2q2 -2 5 -2q2 0 4 -2l-4 -3q1 0 6 -4.5t11 -10t11 -10.5l6 -6v-1v-3v-2v-1l0.5 -1t1.5 -1q1 -1 4.5 -1.5t4.5 -0.5q1 -1 2 -5t2 -4q0 -1 2 -1h3q4 0 9 4t10.5 8.5t11.5 8.5t13 4q8 0 11.5 -5t5.5 -10.5t4 -10.5t8 -5q7 0 11.5 2
t11.5 2h3h5h2l4 -2t5 -2q2 0 8.5 5.5t14.5 5.5h4q2 0 7.5 -0.5t7.5 -1.5v3q0 8 -1 16.5t-1 16.5v2v9v2q0 3 3.5 7.5t8 9t9 7.5t6.5 3h36q5 0 11.5 -6.5l8.5 -8.5q3 -4 5 -11t4 -13.5t4 -11.5t5 -5q9 0 15 2.5t12 5.5t12 5.5t14 2.5q27 0 46 -17.5t27 -43.5q0 -2 0.5 -6.5
t0.5 -8.5v-4q0 -36 -16 -68t-39 -59v-6h12q5 0 9.5 -7t8.5 -10v-2v-6v-2q0 -7 -1.5 -15t-11.5 -8q0 4 6 9q-3 0 -3 6q0 7 3 7q-3 1 -4.5 4.5l-3 7t-5 6t-12.5 2.5q-6 0 -14 -9t-15 -21.5t-11.5 -25t-4.5 -18.5q0 -11 1 -21t1 -21q0 -23 -6 -41.5t-23 -35.5l-79 -79
q-2 -26 -6 -45.5t-12.5 -34.5t-23 -27.5t-36.5 -25.5q-3 -1 -14 -7t-24 -12.5t-23.5 -12t-13.5 -6.5q-6 -2 -11 -9l9 -4q0 -1 1 -2l1 -1q0 -2 -1 -4.5t-1 -4.5q-11 -10 -23.5 -21t-26 -20t-28.5 -14.5t-31 -5.5q-2 0 -5 0.5l-3 0.5zM389 766q-1 1 -2 1.5t-2 2.5l-3 2
q-1 4 -6 11l-5 5q-4 5 -10.5 10.5t-15.5 5.5h-36q-4 0 -11 -4.5t-14 -11.5t-12 -14t-5 -12v-32h-2q-10 0 -15.5 -3t-7.5 -5l-1 -1q-1 0 -3 2h-21l1 1l-11 -3l-8 9q-4 8 -10.5 14t-17.5 6t-19 -5.5t-15 -11.5q-1 -1 -2 -1l-1 -1l-3 -3l-4 7h-5v1q-3 0 -5 5l-3 2v0q1 0 1 -1
q-1 2 -2 2l-2 2l4 3l-20 20l3 2q-4 2 -6.5 3.5t-4.5 3.5t-2 5l-1 1q0 1 -2 3l5 7l-20 20l3 4q-23 8 -38.5 9t-28.5 1q0 -14 1 -22.5t9 -10.5q4 -3 7 -7t6 -9h1q6 -8 7 -9q4 -4 6.5 -7t5.5 -7q4 -6 8 -10t6 -7q5 -6 9.5 -12t12.5 -13v-1q-8 -6 -9.5 -11.5t-1.5 -10.5
q0 -9 8 -17q-1 -4 -1 -10q0 -12 3.5 -15.5t8.5 -5.5l1 -0.5t2 -0.5l1 -1q0 -3 1 -4q0 -5 3 -8q3 -7 6.5 -8.5t7.5 -3.5l14 -13q3 -4 8 -6q-4 -4 -4 -13t4 -16t9 -13q0 -1 1.5 -3t8.5 -15h5l19 -19h20q1 -1 2 -1q-5 -5 -9 -10t-6 -12q-18 -16 -29.5 -35.5t-11.5 -45.5
q0 -17 4.5 -32t11.5 -29q5 -12 9 -23t5 -20q-2 -2 -2 -4l-1 1l-20 -33q-5 -11 -6 -17t-1 -11v-7q0 -7 5 -23t15 -26l-3 -6q-3 -5 -4.5 -9.5t-3.5 -7.5l-1 -2.5t-2 -4.5l-33 -33q-2 -1 -3 -1l-59 -59v1q-5 -4 -15 -18t-14 -20l3 -2l-1 -1q-3 -2 -6 -6q-3 -5 -5.5 -9.5
t-2.5 -9.5v-6l11 -12q2 0 2.5 -0.5t2.5 -0.5l18 -18q4 -1 5 -1h8q18 0 34 6.5t31 16.5t29 22t27 23q0 4 1 6q0 1 0.5 5.5t0.5 6.5h-1q0 1 -1 1v2q6 3 15.5 8.5t20.5 10.5h1l30 16q25 15 41 28.5t25.5 29.5t14 35.5t6.5 46.5l76 76q20 20 26.5 39.5t6.5 45.5q0 5 -0.5 11.5
t-0.5 11.5q-1 5 -1 9v10q0 6 4 18t11 24v-3h4q2 -1 2 -2h2l17 -17h3l1 -1q6 -3 8.5 -4t11.5 -4h2q5 0 14.5 3t19 8.5t17 12.5t9.5 15q9 4 9 13q0 6 -4 10l-5 5v4l-19 19v10q-6 -6 -10 -9q-11 -2 -15 -13l-6 -6t-6 -5l-12 12v6h-1q20 26 32.5 55.5t12.5 63.5v4q0 2 -0.5 4.5
t-0.5 4.5v7q-9 29 -28 48l-4 3q-12 20 -31.5 33t-43.5 13q-9 0 -15.5 -2.5t-11.5 -4.5q-1 -1 -5 -3l1 1q-2 -1 -2.5 -1.5t-2.5 -1.5l-4 7zM48 776h-2v2q0 5 6 7q0 -3 4 -3v-2l-1 -2v-1q-1 -1 -7 -1zM41 796h-2v5q0 4 2 5l6 -6q-2 -4 -6 -4zM88 739q-2 -4 -5 -4q0 2 5 4z
M51 797v-3l-2 -1zM45 808v-1h-3q1 0 1.5 0.5t1.5 0.5z" />
    <glyph glyph-name="C" unicode="&#xda;" horiz-adv-x="544" 
d="M267 23q0 16 5.5 23t13.5 12v14q-9 1 -17 2.5t-13 7.5l-13 12q-8 3 -13 9t-5 17l2 47v11q0 1 -0.5 1.5t-0.5 1.5v2q-1 2 -1.5 2.5l-2.5 2.5q-5 8 -9.5 23t-4.5 27q0 19 3 36l-2 6l2 2q0 2 -1 4q-2 4 -2 10q-15 13 -23 25t-12 24t-4.5 25t-0.5 30l5 76q-1 1 -2 3.5t-3 4.5
q0 1 -0.5 1.5t-0.5 1.5q-4 5 -6.5 10.5t-2.5 12.5v5q0 2 0.5 3.5t0.5 2.5t0.5 2t0.5 2q-1 2 -1 7t5 16.5t13 16.5l4 1l6 6h2q-2 4 -6 8q-2 4 -6 10l-4 8q-3 7 -3.5 16t-0.5 20v2q-2 0 -2.5 -0.5t-1.5 -0.5q-2 -1 -5 -2t-5 -2q-2 -3 -4 -3q-8 -7 -13 -8.5t-10 -1.5
q-1 -11 -7 -20t-33 -9q-21 0 -31 10l-11 11q-7 2 -12.5 6.5t-10.5 13.5q-5 4 -5.5 8t-0.5 9q-3 3 -5.5 6.5t-2.5 11.5v6l-6 14q0 18 10.5 29.5t21.5 20.5l7 7q2 2 10 5h1q4 2 9 7q1 1 3.5 6t5.5 10q2 2 2 3q0 2 1 3v1q1 0 1 1q2 2 3.5 4t6.5 13h27v-6l4 -5l2 1l9 -1q6 2 7 4
v1q8 6 10 8t1 1q2 2 8 5.5t11 3.5q11 14 23 22.5t31 8.5h3v9q0 11 5 17t14 11q4 -3 7 -5.5t5 -4.5q8 9 17 13t27 4q14 0 27.5 -7t22.5 -18h2l1 1.5t4 6.5t9 14t16 26v-15l19 -19v-51l-3 -4v-9q0 -8 -5 -14t-9 -10q-1 -2 -1 -9q3 -4 3 -9v-8l1 -1v-1q7 -6 13 -13t11 -15
q7 -8 13.5 -16.5t13.5 -19.5l4 -4q3 -3 3 -11v-1h-1q1 -2 2 -4.5t2 -4.5t1.5 -3.5t2.5 -3.5q31 -7 47 -31l13 -12q13 -13 18 -32t5 -42q0 -32 -10.5 -59t-24.5 -53q-12 -18 -17 -25t-6 -9q5 -23 8.5 -44.5t3.5 -45.5q0 -15 -7 -28t-28 -17v-14q0 -12 -9 -19.5t-20 -7.5
q-14 0 -28 14l-8 8q-14 5 -23 18.5t-13 26.5l-1 15v2l-10 -1v-8l1 -1l3 -22l10 -10h-1q6 -6 8 -11t3 -10l8 -8q2 -2 2 -4h1q5 -8 5 -20v-7q0 -1 1 -2q0 -4 4 -8q0 -1 1 -1l3 -3q1 -1 1 -2l1 -1q9 -11 18 -24.5t9 -30.5q0 -10 -8.5 -18t-16.5 -13l2 -8q0 -7 -2 -11l5 -5
q4 -14 7.5 -23t8.5 -17q5 -11 8 -21t6 -25q-4 -6 -11 -13.5t-16 -11.5l-59 3q-8 1 -20 4.5t-20 11.5l-11 11q-9 5 -15.5 11.5t-6.5 17.5zM282 23q0 -11 14 -16.5t23 -5.5l56 -3q5 2 9.5 6.5t6.5 8.5q-2 12 -5 21t-8 20q-5 8 -8.5 15t-5.5 16q-4 0 -6 5t-2 10q0 2 1.5 4.5
t1.5 6.5l-3 16q0 1 1 1q6 3 15.5 9.5t9.5 14.5q0 17 -11.5 31t-20.5 26q-5 5 -5 9q-1 1 -1 6v7q0 8 -3 13q-1 4 -6 4q-4 0 -5 3t-2 7.5l-2 9t-5 8.5l-12 13l-4 25q0 2 -0.5 3.5t-0.5 3.5v4q0 2 0.5 5l0.5 3l3 3l29 4q2 0 1.5 -1.5t1.5 -2.5l12 -12l3 -2.5t4 -2.5q4 -3 4 -16
l1 -14q4 -11 13.5 -23t21.5 -12q6 0 11.5 4t5.5 11v27l11 -1q14 2 19 12t5 21q0 23 -3.5 45t-9.5 45q0 1 6 11t11.5 18t6.5 9q14 26 24.5 52.5t10.5 55.5q0 35 -14.5 57.5t-50.5 25.5q-2 14 -8 20t-13 17q0 1 -1.5 6.5t-2.5 6.5v1q0 2 -1 2q-13 22 -25.5 36t-33.5 28l2 6v7
q0 1 -0.5 1.5t-0.5 2.5v1l-0.5 0.5t-0.5 1.5l0.5 1t0.5 2t-1.5 3l-1.5 2q0 4 0.5 9.5t2.5 9.5q3 3 7.5 8t4.5 10v13l3 4v4q-3 -5 -6.5 -6t-8.5 -3q-2 -2 -3 -4.5t-4 -4.5q-2 16 -15.5 25.5t-29.5 9.5q-20 0 -27.5 -6.5t-16.5 -22.5q0 -1 -0.5 -1.5l-0.5 -0.5q-4 5 -5 11
t-7 11q-3 -2 -3 -11v-6q0 -11 9 -21v-1q1 -1 1.5 -3l0.5 -2h-1q-4 0 -12 4.5t-16 4.5q-15 0 -25 -8t-19 -19l-2 -2q-1 0 -4.5 -0.5t-4.5 -1.5q-2 0 -5 -2t-4 -3q-5 -4 -10.5 -10.5t-13.5 -7.5l-9 1l-22 -9q-1 1 -1.5 2l-0.5 1v16h-2l-1.5 -2.5t-3.5 -4.5q-5 -8 -10.5 -18.5
t-13.5 -16.5q-4 -4 -8.5 -5t-9.5 -5q-8 -8 -19 -17.5t-11 -21.5l7 -14l-1 -11q0 -5 2.5 -6.5t4.5 -4.5q2 -2 1.5 -5.5t1.5 -5.5q7 -11 13.5 -15t18.5 -4q21 0 24.5 7t3.5 14q0 5 6 8h2q6 1 10.5 1.5t9.5 5.5q0 3 3 3q12 6 24.5 10.5t22.5 15.5h1h3q3 0 3 -2l7 -31l-2 -22
q0 -8 0.5 -16t3.5 -15q3 -8 10 -15.5t7 -16.5q0 -8 -3 -8.5t-9 -3.5l-5 -5l-6 -2q-4 -2 -6 -9t-2 -10q0 -4 2 -6q-1 -1 -1.5 -6t-1.5 -7v-3q0 -7 7.5 -18t7.5 -17l-5 -75q0 -29 4 -49t27 -40q3 -2 5 -3.5t4 -5.5q0 -2 2.5 -10.5t2.5 -10.5v-2l-1 -1l1 -2q-5 -20 -5 -38
q0 -10 4 -23.5t10 -21.5q1 -1 2 -3l1 -2q2 -6 2 -10v-11l-2 -47q0 -7 6 -9.5t14.5 -3.5t16.5 -1.5t13 -2.5t3.5 -9t5.5 -12q2 -2 2 -4v-11q5 -3 5 -8t-4 -7.5t-8.5 -5t-8 -7.5t-3.5 -16z" />
    <glyph glyph-name="M" unicode="&#xdb;" horiz-adv-x="591" 
d="M32 6q0 10 8 20h-2q6 6 7 8q3 3 4 5q14 22 14 52v5q-29 26 -44.5 56.5t-15.5 71.5q0 22 2 44.5t11 43.5l68 185v1q-9 9 -20 22t-11 26v9q2 5 5 10.5t5 9.5v-1q5 8 8 16.5t7 17.5q4 8 8 12.5t9 8.5l3 3q2 2 3 2q4 2 5 5q6 17 12.5 29.5t21.5 25.5q10 6 20 9l4 2h1
q7 5 15 10t16 8h5t6 1l2 12t4 11q1 2 3 8t7 16q4 10 7 17t4 9q8 17 22.5 23t30.5 6q5 0 13 -4t13 -9q2 -4 2 -3q0 -1 0.5 -2t0.5 -3l17 -16q1 -3 4 -10.5t6.5 -16.5t7 -17t6.5 -12q1 -2 1.5 -4t1.5 -4h1q1 -2 2 -4.5t2 -4.5q6 -2 13 -4.5t14 -7.5q11 -8 23 -28l5 -4
q7 -7 13 -16t11 -16q2 -5 4 -5q0 -1 0.5 -5t2.5 -7l4 -4q1 -2 2 -3.5t2 -3.5l9 -8q2 -2 3 -4t3 -4q8 -9 10 -17l-1 1q0 -2 3 -6l4 -6l4 -6h-1q7 -8 11.5 -17t4.5 -20q0 -16 -13 -27.5t-26 -21.5q-1 0 -1 -1v0q7 -11 16.5 -26t19.5 -30l18 -27t11 -17q20 -31 32 -64t12 -70
q0 -50 -27 -92t-60 -73v-2q5 -10 7 -16l2 -19l1 -2q4 -13 8.5 -23t14.5 -27q-2 -7 -5.5 -11t-6.5 -7q-10 -2 -24 -2.5t-25 -0.5q-6 0 -12 1t-11 6l-13 13q-7 2 -12 6.5t-5 15.5v25h-12h-2q-2 0 -5.5 1.5t-14.5 12.5l-5 5q-3 1 -7 4t-14 13l46 45q-10 11 -19 23.5t-11 18.5
q-3 6 -4 12t-2 13q-5 -2 -9.5 -5.5t-9.5 -5.5h1q-17 -11 -34.5 -20t-40.5 -9q-21 0 -38.5 5t-34.5 15q-4 -14 -9 -23.5t-11 -18.5h-1q-4 -7 -9 -14t-8 -16q0 -5 8 -22.5t18 -29.5l1 -1h-31l-5 2q0 -1 -0.5 -1.5t-0.5 -1.5v-40q0 -5 -5.5 -14.5t-10.5 -11.5
q-14 -2 -22.5 -2.5t-22.5 -0.5h-12q-6 1 -11 6l-14 14q-16 5 -16 20zM246 611q0 16 13 27.5t28 11.5q4 0 11.5 -2t10.5 -7q-11 -3 -20 -10.5t-9 -21.5q0 -11 7.5 -18.5t16.5 -11.5q-2 -3 -8 -3h-9q-15 0 -28 9t-13 26zM433 240l25 1l-1 -19q0 -6 -1.5 -15t-1.5 -10l-2 -3
q-6 13 -13 23t-14 21zM47 6q0 -4 5 -6h11q11 0 18.5 0.5t21.5 2.5q3 1 6 6t3 8v41q2 2 2 7l-2 17l21 -12h4q-5 7 -10 21t-5 21q6 15 12.5 24.5t12 18.5t10 20t6.5 28q19 -13 39 -20.5t43 -7.5q17 0 31 6t27.5 14.5l27 17t29.5 13.5q6 -4 9 -12.5t4.5 -18t2.5 -19t4 -15.5
q1 -3 7 -11t12.5 -16t11.5 -15l5 -7l-45 -44q1 -1 3 -1h2q11 0 22.5 4t21.5 8v-4q0 -9 5 -21v-46q0 -5 5.5 -6.5t10.5 -1.5q10 0 22.5 0.5t22.5 2.5q2 2 3 5q-8 14 -12 23t-8 21l-3 6l-2 21q0 2 -3 8t-4 7v4q0 4 -1 5q33 30 60.5 71t27.5 89q0 35 -11.5 67t-30.5 61l-14 21
t-21.5 32.5t-21.5 33t-14 21.5h-1l1 1l5 4q11 8 25 19t14 24t-7 22t-14 20q-4 5 -5 11t-6 11q-7 9 -14.5 14t-10.5 16q-2 2 -3 6.5t-1 5.5q-5 8 -13.5 20.5t-16.5 17.5q-7 5 -17.5 8.5l-19.5 6.5q-5 2 -4 5.5t-7 3.5q-1 10 -4.5 18t-7.5 17q-2 3 -5.5 11t-7 16.5t-6.5 16.5
t-4 11q-6 6 -14 6q-12 0 -23 -4.5t-16 -15.5q-1 -3 -4 -10t-6.5 -15t-6.5 -15t-4 -10q-3 -6 -4 -12.5t-2 -13.5q0 -1 -2 -2l-2 -1q-2 -1 -9.5 -2.5t-9.5 -1.5q-15 -5 -27 -17q-5 -3 -10.5 -3.5t-10.5 -4.5q-13 -11 -19 -22.5t-11 -27.5q-5 -8 -14 -13.5t-14 -16.5
q-5 -14 -11 -26l-13 -26v-5q0 -7 5.5 -15t12 -14.5l11.5 -11.5t4 -6l-71 -194q-8 -19 -10 -40t-2 -41q0 -38 15.5 -67.5t44.5 -53.5v-12q0 -32 -16 -60q-4 -7 -9.5 -12t-5.5 -13z" />
    <glyph glyph-name="R" unicode="&#xdc;" horiz-adv-x="643" 
d="M181 475q-2 -2 -2.5 -4.5t-2.5 -4.5q5 -4 6 -6.5t2 -5.5l2 -3q12 20 18 37.5t6 45.5q0 3 -1 4l-3 3h-1v1q-3 -2 -6 -5v-1q-1 -2 -1 -9q-1 -6 -1.5 -12t-2.5 -10q-2 -8 -5.5 -15.5t-7.5 -14.5zM415 508q0 -25 8 -49q4 4 9.5 6.5t12.5 4.5q1 0 2 0.5t2 0.5h-1q1 0 2 0.5
t3 0.5v2q0 4 -4 12q-6 8 -10.5 17t-6.5 15q0 3 -1 5t-1.5 5t-1.5 5q-1 1 -1 5q-2 -4 -3 -5h-1q-3 -10 -8 -16v-9zM530 571h-1q9 -22 13 -36.5t4 -34.5t-1.5 -39.5t-3.5 -38.5q-1 -9 -2 -19t-2 -19l-5 -10q-5 -11 -14 -22.5t-27 -11.5q-3 0 -7 3q0 -1 0.5 -2t0.5 -2h1
q5 -10 6 -19t1 -19l-1 -22v-1q0 -6 3 -15q3 -12 9.5 -23t14.5 -21l2 -2q10 -13 19 -25.5t13 -25.5q1 -11 1 -25v-28q0 -13 1.5 -25t3.5 -24q0 -2 0.5 -3.5t0.5 -3.5q5 -3 9.5 -6t9.5 -6q11 -8 19.5 -15t11.5 -16l7 -8h-1v1l4 -3q10 -10 10 -20q0 -8 -4.5 -11.5t-9.5 -3.5
h-72l-9 3q-7 3 -16 6t-14 8l-11 11q-8 3 -13.5 8.5t-5.5 13.5v28q0 14 -1.5 27.5t-8.5 23.5l-19 22q-10 11 -18 23.5t-10 28.5l-5 33q-1 4 -2 6l-2 4l-2 2q-7 6 -12 16l1 -1l-1 1q0 1 -1 2q-1 0 -3 4q-2 3 -2.5 5.5t-2.5 5.5v-1q-10 17 -17 32l-14 37l-1 2q-9 9 -17 18.5
t-16 19.5l-8 -10t-9 -10h1q-10 -13 -20 -25.5t-18 -24.5q-6 -9 -11.5 -18t-10.5 -18h1q-9 -15 -17.5 -29.5t-23.5 -30.5q0 -2 -3 -17q-3 -13 -6.5 -25t-14.5 -31q-8 -14 -18 -22h-1q-6 -5 -10 -11t-5 -14v-12l5 -36q0 -17 -4 -22t-15 -10q-1 0 -3 -2l-1 -1q-1 0 -2 -3
q-5 -15 -17 -18t-25 -3l-43 1q-6 0 -10 4l-16 16q-13 4 -13 16v3q0 8 4.5 13.5t11.5 10.5l8 8q11 10 21.5 21.5t10.5 22.5v105q0 22 14 39.5t30 33.5q5 5 11 11.5t12 16.5q6 9 6 14q0 6 0.5 12.5t1.5 13.5q0 8 1 13q-2 1 -4 3l-15 14q-10 2 -14 13q-2 7 -3 8.5t-1 3.5
q-2 2 -2 4q-4 6 -4 14q-1 2 -1 9l1 20h-1v1l-6 14q-5 18 -9 39t-4 44v6q0 1 0.5 1.5t0.5 1.5v6l13 46q7 8 9 10l6 6l2 2l4 4t4 6v-1l0.5 1.5t1.5 3.5q2 4 4 6l-1 -1q1 2 1.5 2.5t1.5 2.5q9 12 10 16q2 8 2 9v5q0 11 7 25l-10 10q-4 1 -10 7q-5 5 -5.5 6t-0.5 6q0 12 9 15.5
t19 5.5q6 0 8 1l13.5 6t8 3.5t6.5 2.5t8 3q22 11 54 18l-2 29v10q0 5 8.5 20t24.5 38v-6q0 -3 -1 -6l16 -16q3 1 11 1q2 0 11 -1.5t18.5 -4.5t17.5 -7t8 -9v-1l17 -17q2 -2 2 -4v-25q24 -5 45 -12q14 -5 29 -9t38 -5l10 -15l10 -10l8 -13q-2 -8 -8 -14t-15 -7h-3
q-2 0 -6 -0.5t-9 -1.5q1 -2 2 -3.5t2 -3.5l12 -11q8 -10 10.5 -19.5t4.5 -19.5v-8h1q2 -7 6.5 -14t9.5 -13q3 -5 7 -11.5t6 -8.5v1v-1v1zM318 751q-2 -2 -4 -2h-3zM277 751q3 0 6 -3l-2 -1q-5 0 -5 4h1zM18 2q0 -2 2 -2l43 -1q10 0 19 2t12 11q2 3 2.5 5.5t4.5 4.5
q10 5 13.5 7.5t3.5 14.5l-5 36v15q1 10 5 16.5t9 11.5t11 10.5t11 13.5q10 17 14 34.5t9 37.5q21 21 33.5 46.5t29.5 51.5q12 19 28 38t30 38l5 5q4 2 9 2h4q12 -19 25.5 -36.5t28.5 -33.5l3 -4l13 -35q6 -13 13.5 -26.5t14.5 -25.5q6 -11 11.5 -15.5t7.5 -16.5l5 -33
q2 -14 10.5 -26t17.5 -23l16 -18q9 -13 11 -28.5t2 -31.5v-28q0 -2 5 -4.5t11 -5t11.5 -4.5l5.5 -2h71q2 0 2 3q0 8 -10 15t-22.5 15.5t-24 19.5t-14.5 28q-2 12 -3.5 24.5t-1.5 26.5v26t-1 23q-4 14 -12.5 26t-17.5 23.5t-17 23.5t-11 26q-3 10 -3 18l1 23q0 8 -1 16t-5 16
q-8 22 -20 42.5t-23.5 41.5t-20 43t-8.5 47v14q6 8 13 23t15 22q3 -2 12 -11t12 -13q6 -8 8.5 -21.5t5.5 -21.5q4 -14 12.5 -24t8.5 -25l-1 -10q-3 -2 -8.5 -4t-11 -4.5t-10 -5t-4.5 -4.5v-17q0 -1 0.5 -1.5l0.5 -0.5l0.5 -0.5t1.5 -0.5l1 1q1 1 4.5 5t5.5 4l2 1q6 0 9 -8
v-15q0 -8 -3 -8h-2l-6 3q-3 0 -3.5 -3.5t-0.5 -4.5q0 -2 0.5 -5.5t3.5 -5.5q1 -2 10.5 -8.5t11.5 -6.5q14 0 21 11.5t12 21.5l1 2q2 28 5.5 56t3.5 57q0 19 -4 33t-12 34q-6 11 -15.5 22.5t-13.5 25.5l-4 22t-10 20q-11 14 -20.5 19.5t-23.5 13.5q3 4 7 4q3 0 9 0.5t13.5 1
t13.5 1t9 0.5h1q10 1 12 7l-2 3q-18 1 -34.5 6l-33 10t-33.5 9.5t-35 4.5l-1 2v56q0 1 -5.5 2.5t-12.5 2.5t-13.5 1.5t-8.5 0.5q-11 0 -17 -2.5t-15 -7.5h-2q-7 0 -7 3q-3 -5 -3 -9v-9l3 -34v-8q-29 -4 -52 -15.5t-49 -19.5q-5 -2 -15.5 -2.5t-10.5 -5.5q0 -1 0.5 -1.5
l0.5 -0.5q3 -3 13 -3h6l43 6q3 0 8 -3q-20 -7 -35 -19t-17 -34q0 -4 -1 -10l-1 -6q-3 -8 -8.5 -16.5t-10.5 -16.5q-4 -8 -13 -14.5t-11 -11.5l-13 -46q0 -1 -0.5 -3.5t-0.5 -4.5v-3q0 -20 4 -40t9 -38l4 -12q1 -1 2 -3.5l1 -2.5l-1 -22q0 -2 0.5 -3l0.5 -1q0 -2 3 -10.5
t3 -10.5q0 -1 1.5 -5l1.5 -4q1 -2 4.5 -2.5t7.5 -0.5h5h11q4 0 9 3q1 8 4 16t3 17v1q0 1 -0.5 3t-2.5 2q-4 0 -7.5 -6.5t-3.5 -7.5q-2 4 -4.5 9.5t-2.5 8.5q0 6 3 11.5t7 10.5q7 -5 8 -10t12 -5v26q0 1 -8.5 6.5t-15.5 9.5t-8 5q2 17 10.5 29t12.5 29q1 2 2 7t2 11t1.5 10.5
t1.5 6.5q5 8 14 12.5t14 11.5h3l2 -2l6 -22q5 -9 12 -14.5t7 -16.5q0 -32 -8 -53.5t-24 -45.5q-17 -25 -29.5 -52.5t-14.5 -56.5q-1 -7 -1.5 -13.5t-0.5 -11.5q0 -9 -8 -22q-6 -10 -17 -20.5t-21.5 -22t-18.5 -24t-8 -26.5v-105q0 -12 -9 -23.5t-19.5 -21.5t-19 -18
t-8.5 -13v-3z" />
    <glyph glyph-name="T" unicode="&#xdd;" horiz-adv-x="633" 
d="M119 603q-1 0 -1 -3q0 -2 1 -2q2 0 2 2q0 3 -2 3zM172 523q12 0 19 -7.5t18 -7.5q14 0 25.5 7.5t19.5 17.5q-5 4 -10.5 16t-7.5 13l-20 -2q-5 0 -19 -1t-25 -1h-10q-2 -1 -8 -3t-6 -5l18 -28zM63 55q0 14 6 23t12 21q7 12 10 27t3 29l-13 85v23q2 12 5 18.5t7 11.5t10 10
t14 14l-1 10q0 15 8 19.5t27 4.5l20 -3l7 12q4 29 14 56t33 47l-3 2q-14 0 -30.5 -8t-30.5 -8q-4 0 -9.5 2t-5.5 5l-4 27q-2 1 -3.5 7.5t-4 15.5t-6 17t-9.5 12q-3 -4 -4.5 -9.5l-3 -11t-4.5 -9.5t-9 -4q-9 0 -9 6q0 5 1 8v2q-5 0 -11.5 -3t-6.5 -9l9 -18q0 -6 -6 -6
q-9 0 -17 6t-11 14q0 -1 -1 -9.5t-6 -8.5q-8 0 -9.5 6.5t-1.5 13.5v8q0 13 10 24t21.5 19.5t21.5 14t10 8.5v1q0 2 -2 2h-2q-3 -2 -12.5 -6t-12.5 -5h-6q-17 0 -28 10t-11 28q0 17 6 22t19 14l1 2t1 3q8 10 14.5 13.5t19.5 8.5h4l2 -1t3 -1q5 1 8.5 4t8.5 3h3q2 0 10 -1
t10 -2q4 -2 6.5 -7t4.5 -8v-15q0 -13 -2.5 -22t-12.5 -17h2l49 24l3 13q0 13 -9 21.5t-14 19.5q-3 7 -3 11q0 3 0.5 6t0.5 8v5q-2 5 -5 5t-6 4q-3 2 -4 12t-1 17v7q2 0 5.5 -0.5t5.5 -2.5v3q0 4 -3 4l-12 11l-2.5 5t-6 11.5t-6.5 12t-3 7.5l-3 9v7q0 2 1 8t2 8h1
q3 0 5.5 -5.5t5 -12.5l5 -14t5.5 -9l27 -27q5 8 12.5 12.5t10.5 12.5l0.5 1t1.5 1q22 0 43 -6l-3 19v8q5 7 13 9.5t14 8.5q5 5 13 15t8 18h1q8 0 8 -9q0 -7 2 -11l1.5 -2t2.5 -2v-2q0 -1 -2.5 -6l-5.5 -11t-6.5 -11t-5.5 -6l7 -25q0 -10 -8 -11t-10 -7q3 0 12.5 -1t14.5 -4
q13 29 37 48.5t57 19.5q72 0 117.5 -31.5t65.5 -103.5q7 -25 14 -47.5t7 -48.5q0 -37 -12 -71t-21 -69l-3.5 -17.5t-5.5 -26.5t-5.5 -26.5l-3.5 -17.5v-5q0 -7 3.5 -12.5t5.5 -11.5l12 -32t6 -33q0 -21 -7 -35t-16.5 -25.5t-19.5 -23.5t-17 -29h-3q-8 32 -19 67.5t-28 65.5
q-7 -5 -17 -5h-5l-3 -4l3 -1q10 -3 16 -7t6 -16q0 -13 -10 -22.5t-23.5 -16t-28 -11.5t-23.5 -10h-5l-31 30l-6 2q-8 0 -12 -10t-6 -23t-3 -26.5t-3 -19.5q-2 -7 -11.5 -18t-17.5 -11t-13 5t-7.5 12.5t-3.5 15.5t-1 14q0 14 7 24t14 23q3 6 5 16.5t4 15.5q3 9 9 11.5t6 14.5
q0 7 -2.5 8t-10.5 2l7 31l-30 -4q-4 0 -6 -7h-1v-1q0 -6 5 -11t5 -13q0 -15 -6.5 -21t-20.5 -6q-8 0 -16 2.5t-16 2.5q-9 0 -14 -12t-8 -15q-11 -14 -24.5 -27.5t-14.5 -33.5v-34q-1 -8 -2.5 -16t-1.5 -16l4 -59q0 -3 -2.5 -11t-6 -17t-8 -15.5t-7.5 -6.5h-34l-2.5 4t-4.5 7
q-6 10 -8.5 21.5t-2.5 22.5zM48 55q0 -14 2.5 -27t8.5 -23q5 -7 6.5 -9.5t6.5 -10.5h5l19 -19h41q5 0 11 8.5t11.5 19t9.5 20.5t4 14l-4 60q0 3 0.5 6.5t1.5 8.5q2 8 2 16v33q1 13 8 23t15 18q3 4 6.5 7t6.5 7q1 2 2.5 3.5t2.5 3.5q2 4 4 8.5t3 5.5q2 -1 7 -1t8 -1
q8 -2 16 -2q-2 -3 -3 -5t-4 -5q-5 -8 -9 -16.5t-4 -22.5q0 -7 1 -16t4 -18t8.5 -16t14.5 -10l13 -13q8 -8 21 -8q6 0 12.5 4t12 10t9.5 12.5t6 10.5q2 5 3 12t2 16q1 11 2 23.5t3 17.5l12 -11h3l20 -19h13q6 3 12.5 6t11.5 5q14 5 28.5 11.5t25.5 16.5q5 -16 8.5 -31
t7.5 -29h6l19 -19h21q7 17 14.5 28t15.5 19q13 16 23.5 32.5t10.5 45.5q0 15 -5 29.5t-10 29.5q-1 2 -2 5t-2 5t-2 4.5t-2 4.5q-4 8 -4 11v3l3.5 17.5t5.5 26.5t5 26t4 17q3 11 6.5 21.5t6.5 21.5h-1q8 25 14.5 49.5t6.5 50.5q0 23 -4.5 40.5t-9.5 35.5q-2 6 -3.5 11.5
t-3.5 11.5q-16 59 -51 94h-1q-27 39 -68 57t-97 18q-30 0 -56 -16v7l-6 6q-1 4 -2.5 7t-3.5 6l-14 13q-3 17 -22 17h-16q0 -15 -5.5 -24t-10.5 -14l-2 -0.5t-5 -2.5h1q-1 0 -1.5 -0.5t-1.5 -0.5q-1 -1 -3 -1q-3 -1 -7 -4t-13 -15v-12q-6 1 -12 1.5t-13 0.5q-8 0 -10 -1
t-5 -8q-1 -3 -3 -5q-6 -4 -9 -7q0 2 -1 4.5t-1 4.5l-2 1q-2 7 -4.5 13t-5.5 10l-11 10q-3 8 -7.5 13.5t-13.5 5.5h-11q-2 -6 -5 -17.5t-3 -13.5v-9l4 -12h1q5 -11 5.5 -14t5.5 -11q4 -5 4.5 -7t2.5 -7l2 -2v-12q0 -8 1 -18.5t6 -18.5q3 -6 8 -9v-11q0 -6 1 -9q-1 1 -2 1
l-1 1q-4 2 -14.5 3.5t-12.5 1.5h-3q-10 0 -15 -4l-2 -2q0 1 -0.5 0.5t-0.5 0.5h-8q-1 0 -1.5 -0.5t-1.5 -0.5h-3q-14 -6 -22.5 -11.5t-20.5 -19.5q-10 -7 -18.5 -13.5t-2.5 -4.5q-6 -9 -6 -28q0 -38 28 -49l4 -5q-9 -8 -15 -18.5t-6 -23.5v-8q0 -10 2 -20.5t15 -13.5l14 -14
q6 -6 17 -6q7 0 12 5q12 -7 23 -7q17 0 18 20h5q3 0 5 0.5t4 1.5l2 -15q1 -6 6.5 -11t11.5 -7l12 -11q2 -4 6 -5.5t8 -3.5q-9 -26 -12 -50v-2l-10 2q-28 0 -40 -7t-12 -33v-5l-3 -3v1q-14 -13 -21 -23t-11 -30v-28l13 -85q-1 -12 -4 -24.5t-8 -23.5q-1 -2 -2 -3t-2 -3l-2 -4
q-5 -9 -9 -17.5t-4 -22.5zM216 524q-3 -1 -7 -1q-5 0 -6 1h13zM266 307q-1 0 -1 1q1 0 1 -1z" />
    <glyph glyph-name="t" unicode="&#xde;" horiz-adv-x="699" 
d="M359 263v-1l2 -2h1zM23 6q-14 4 -17 13.5t-3 27.5q0 28 17.5 40t40.5 19l37 25q4 1 7 10v2q-3 5 -5 11l-3 9l-1 8q0 24 6 38t15 28q3 5 6.5 10t5.5 9v1q2 6 3 14.5t1 13.5v3q0 5 -3 7.5t-6 5.5l-16 16q-5 6 -12 22t-12 32q-1 1 -1 3q-1 2 -2 3.5l-1 1.5v-1q-1 2 -1 6v4
q-2 2 -2.5 3t-0.5 6l-1 5q0 1 -1 4v1h-1q-2 5 -3 11.5t-1 11.5q-5 10 -6 20t-1 19v21q0 17 2 32t13 31q3 5 13 16.5t16 18.5q5 16 9.5 30t9.5 26q-1 3 -1 10q0 33 10.5 54t35.5 44q8 6 21.5 9.5t27.5 6.5q2 1 3 1q2 0 4 1q17 3 31.5 5.5t18.5 3.5v12q-5 7 -5.5 9t-0.5 5
q-9 4 -12.5 12.5t-3.5 10.5v8q5 20 16.5 33.5t30.5 28.5v-1q8 5 16.5 6t16.5 1h3q28 0 42.5 -11t30.5 -32l2 -2q5 -5 9 -11t9 -12l1 -1v-1q2 -4 2 -11v-4q0 -12 -13 -14v-11l24 -2h7q4 0 8.5 1t8.5 4h41q10 -8 18 -10h-1q1 0 1.5 -0.5t1.5 -0.5q11 -4 22 -10t22 -23v-2l9 -9
l5 -5t5 -7v-7q0 -1 2 -3l3 -3q5 -5 8 -9t5 -11v-9q0 -6 1 -8h1q2 -16 3.5 -21.5t3.5 -9.5h1q2 -3 3.5 -7t3.5 -6l1 -1q2 -4 4 -12l-1 1q3 -14 9 -21l1 -1v-18q0 -5 6 -17t12 -23l-3 2q1 -1 1.5 -2.5t2.5 -3.5l1 -1l3 -6v-28q0 -29 -7.5 -49.5t-16.5 -42.5q-2 -5 -4.5 -11
t-4.5 -11l-3 -4l-3 -5t-6 -11.5t-6.5 -13.5t-4.5 -11l-1 -1q-9 -25 -18 -46t-24 -39q0 -6 3 -10q2 -2 5 -6.5t7 -9.5l8 -8q4 -5 13 -17.5t9 -20.5v-84q4 -7 4 -17q3 -2 11 -4q12 -5 23 -11t16 -18l12 -12q10 -10 10 -27q0 -15 -6 -23.5t-15.5 -13t-21 -6.5t-22.5 -3
q-4 0 -6 -1q-23 -3 -44 -3h-5q-11 0 -25.5 1.5t-23.5 10.5l-12 12q-10 5 -15 11q-13 0 -15 2q-9 1 -15 7l-14 13q-14 5 -16.5 17t-2.5 25v6q0 8 1 22t6 27l-3 6l-9 6t-4 6q-3 2 -4.5 4t-4.5 5l-1 1q-10 6 -11.5 18t-1.5 15v9q0 2 -0.5 4t-0.5 4t0.5 3t0.5 3v5q-7 7 -11.5 16
t-7.5 18l-4 4l-4 4l-9 8q-6 5 -11.5 10t-10.5 11q-3 -5 -6.5 -10t-6.5 -10q-16 -20 -25 -39q0 -4 1 -10t3 -12q2 -7 3 -13.5t1 -18.5l-31 -66q2 -4 4 -5q2 -3 4.5 -6.5t3.5 -10.5v-18q0 -3 0.5 -7t0.5 -7v-12q-2 -5 -6 -10.5t-8 -7.5h1l-52 -15l-7 -4l-69 -24h-14
q-1 0 -10 1t-20 2.5t-22.5 3.5t-18.5 4q-21 3 -28 10zM461 475q0 2 2 4v63l7 7l13 -15v-26q-1 -1 -2.5 -3t-1.5 -3v-3l9 -29q0 -7 -5 -19l-22 23v1zM205 490q0 7 -2.5 15.5t-2.5 16.5q0 3 4.5 9.5t8.5 6.5h2l1.5 -3t2.5 -4v-1q0 -25 -4 -45l-3.5 -5.5t-7.5 -12.5t-7.5 -12.5
t-4.5 -5.5l-26 -48v10q0 12 4.5 21.5t11 18.5l13 18t10.5 19v2zM493 32q5 -5 5 -9t2 -10q5 -11 20.5 -12.5t26.5 -1.5h2q19 0 42 3q9 1 20 2.5t20 4.5t15 9.5t6 18.5q0 13 -7.5 19t-17 10t-19.5 7.5t-15 11.5q-2 1 -7.5 9.5t-6.5 10.5l1 6q0 9 -4 13v86q0 5 -8 16t-11 15
l-19 19q-2 6 -4.5 12.5t-2.5 13.5v1q19 20 27.5 42t17.5 47q1 4 4 10t5.5 11.5t5 10l2.5 4.5l6 8q11 28 21 51.5t10 55.5v25l-2 4q-6 11 -13.5 26t-7.5 24v14q-2 2 -6 14l-6 18q-5 13 -9.5 19t-6.5 22q-2 1 -2.5 11t-0.5 12q-2 9 -8 14t-10 13v5q-6 9 -13 13.5t-14 7.5
t-14 5.5t-13 7.5h-32q-4 -3 -9.5 -4t-11.5 -1h-7l-57 5q-1 5 -1.5 8t-0.5 7l2 42q0 3 3 3l3 -1.5t4 -1.5q2 0 2 2v4q0 2 -2 8q-13 18 -25 27t-35 9q-7 0 -16.5 -0.5t-14.5 -5.5q-14 -12 -23.5 -23t-13.5 -28v-4q0 -1 1 -5t3 -4l7 2q2 0 4 -0.5t3 -0.5q0 -2 -1 -6.5t-1 -7.5
v-1q0 -1 3 -5l3 -4v-21q-2 -5 -17.5 -9.5t-34.5 -8.5t-36.5 -8t-22.5 -8q-22 -20 -31.5 -39t-9.5 -48q0 -5 2 -11q-6 -14 -11 -30t-9 -30q-2 -2 -6 -6.5t-9 -10.5t-9.5 -11.5t-5.5 -7.5q-10 -13 -12 -27t-2 -30v-21q0 -9 1 -18t6 -16q0 -5 3 -18t4 -18q1 -2 1.5 -6.5
t2.5 -9.5q6 -16 13.5 -35t10.5 -22q4 -6 9.5 -9.5t9.5 -7.5t7 -8.5t3 -12.5q0 -3 -0.5 -9t-1.5 -12.5t-2 -12l-1 -5.5q-6 -11 -12 -19.5t-10.5 -17t-7 -18t-2.5 -22.5l1 -8q0 -2 3.5 -11t5.5 -11q-3 -8 -5.5 -13.5t-8.5 -9.5l-41 -28q-18 -5 -33 -14.5t-15 -29.5
q0 -16 4.5 -21.5t21.5 -7.5q7 -2 18 -4t21.5 -3.5t19 -2.5t9.5 -1h13l60 21l11 6l55 16q2 0 4 7v2q0 4 -0.5 10.5t-0.5 12.5v11v5q-2 8 -7 13t-5 13l31 67q0 13 -4 26t-4 25v2q11 23 26.5 43t27.5 44h5q1 -2 4.5 -8.5t7.5 -13t7.5 -12.5t4.5 -7q6 -11 20.5 -20.5t21.5 -16.5
q2 -11 7 -21.5t13 -16.5q0 -3 -0.5 -8t-0.5 -10q0 -6 0.5 -10.5t0.5 -6.5t0.5 -10t4.5 -10q2 -2 9 -10t9 -8q0 -1 3.5 -3l3.5 -2q2 -2 6 -9t5 -9q-5 -9 -7 -24t-2 -25v-4q0 -9 1.5 -18.5t12.5 -11.5q2 0 7 -1t11 -1.5t11 -1t8 -0.5z" />
    <glyph glyph-name="y" unicode="&#xdf;" horiz-adv-x="556" 
d="M62 116q1 -1 1 -2l1 -1q-1 1 -1 2t-1 2v-1zM140 651q-4 2 -6 4l-9 -11h22zM90 590q1 -4 2 -7.5t2 -6.5q7 4 14 7t14 7h-32zM231 693q-2 6 -2.5 11t-1.5 9h-10h-3l4 -10l4 -10l-3 3q1 -2 2.5 -6t2.5 -6q5 -6 10 -7q-1 4 -1.5 7.5t-1.5 8.5zM89 825q1 0 1 -1q2 -2 4 -3v1
q0 21 21 21q10 0 18 -8q6 3 13 3h12l6 -11l14 -14l6 -11q3 -12 8 -22q1 -1 3 -1v-1h1q-2 5 -2 16q0 28 16 42t38 20q8 15 11.5 20.5t7.5 6.5q9 11 16.5 13t15.5 2h2q15 0 32 -8t24 -25l9 -9q13 -13 13 -30q0 -4 -2 -12l32 -6l2 2q8 5 17.5 11t23.5 6q43 0 81 -52
q5 -5 10 -11.5t10 -13.5h-25v-12q-1 0 -1.5 0.5t-1.5 0.5q3 -6 3 -15q-2 0 -8.5 -2.5t-17.5 -10.5q5 -8 9 -17t4 -20q0 -16 -9 -35t-23 -35.5t-31 -28t-33 -11.5l-10 1l7 -7q5 -5 8.5 -11t3.5 -15q0 -20 -9.5 -28.5t-22.5 -15.5q-3 -2 -5 -3t-4 -3q-5 -3 -11 -11t-8 -13
q1 -1 1 -2l1 -1l1 -1q4 -8 8 -12l2 -2v-2l2 -2l2 -2q3 2 13 2h17v-2q4 1 9.5 1.5t15.5 0.5v-4l4 2l6 -12l8 -8h19q-2 -2 -2.5 -3t-1.5 -2l20 -20q-22 -24 -34 -30t-21 -8q-5 -2 -9 -2.5t-6 -2.5h-1l-3 -6q-2 -7 -6.5 -14.5t-28.5 -21.5l-11 11q-2 -4 -2 -6q-2 -9 -5.5 -17
t-10.5 -16l-27 -28q-6 -6 -8 -9l17 -54v-9q0 -12 -3 -25t-20 -13q-10 0 -13 4l-16 15q-10 2 -11 10l-1 1l-14 15q-10 10 -12 17.5t-2 16.5q0 8 -1 12t-3.5 7t-4.5 6q-3 3 -4.5 7t-1.5 12q0 9 5.5 15.5t13.5 12.5l1 1v1q0 1 2 3l2 38l2 6q-22 2 -43 6t-42 14l-2 1
q-5 -17 -11.5 -30.5t-13.5 -27.5q-11 -20 -19 -38.5t-8 -39.5q0 -7 2.5 -13t5.5 -13t6 -13.5t4 -14.5v-53q0 -2 0.5 -6t2.5 -7q0 -4 1 -5l1 -1q1 -3 3 -11q2 -6 3 -12t5 -11l2 -1q1 -1 4 -8q11 -16 17 -29t6 -36q0 -8 -11.5 -15.5t-15.5 -7.5h-6q-6 2 -17 9.5t-19 15.5l-2 2
q-11 6 -21 15.5t-12 17.5l-8 75q-1 5 -5.5 10.5t-10.5 11.5l-3 3q-14 14 -26.5 30t-12.5 39l6 54v1l-13 84q0 21 5 39t12 36q0 1 0.5 2t0.5 2q5 14 9.5 27.5t4.5 27.5q0 6 -1 11.5t-3 13.5l-4 4q-6 4 -6 14l-3 -2l3 6v14h6q7 13 10 23t3 26v12q0 3 -1 5l-12 26v12
q8 7 20.5 19.5t25.5 26.5t23.5 29t14.5 27h-25l-19 19h-4l-18 21l18 18h5q-9 12 -9 35q17 0 21 -0.5t9 -3.5v1zM361 655l10 -5l-5 -2l-0.5 -0.5t-1.5 -0.5l-1 1l-1 2t-1 3v1v1zM334 658q2 -2 5 -6.5t3 -8.5v-1q-5 1 -6.5 4.5t-1.5 7.5v4zM379 632v-3h-8v3h8zM55 629
q14 16 26.5 30t25.5 31l11 15q0 3 3 3q0 -17 7.5 -26.5t20.5 -18.5q11 -9 19.5 -22t22.5 -20h-4l-41 8h-91zM288 579q1 -1 6 -4t11 -7t11.5 -7.5t7.5 -4.5q1 0 2 -1l1 -1v-3q-10 -2 -21 -6.5t-21 -4.5v5q0 5 1 18t2 16zM61 576q0 14 -2 23t-10 22l14 3h78q15 0 32 -6t31 -12
q-42 -14 -79 -30.5t-73 -42.5q5 11 7 20.5t2 22.5zM42 514q32 28 69 45.5t77 30.5q-5 -8 -11 -22.5t-13 -22.5l-10 -10l-36 -18q-18 -9 -27.5 -22t-20.5 -28l-12 -16h-1q0 18 -2 33.5t-13 29.5zM143 488q18 2 31 7.5t27 16.5h14l29 -3q14 0 28 8q-2 -22 -6.5 -27t-11.5 -5
h-6q-5 0 -10.5 -3t-10.5 -15q-26 -5 -51.5 -18t-36.5 -40v9l4 60v10zM25 194q0 -16 8.5 -28.5t19 -23t20 -20.5t10.5 -20l8 -69q1 -5 5.5 -10t10.5 -9.5t12 -8.5t9 -5h3q2 0 8.5 3.5t6.5 7.5q0 24 -7.5 37t-20.5 33q-5 5 -7 15.5t-4 18.5q-1 3 -3.5 12t-2.5 11v52
q-2 15 -10 27t-8 28q0 20 6.5 38t15 35t17.5 34t14 37q0 1 2.5 4.5t4.5 3.5q1 0 5.5 -2.5t5.5 -3.5q33 -14 67.5 -17.5t70.5 -5.5v-1l-3.5 -4.5t-7.5 -10.5t-7.5 -12.5t-4.5 -10.5l-2 -36q0 -1 -1 -4t-2 -5q-4 -7 -11.5 -10.5t-7.5 -12.5q0 -8 5.5 -13t7.5 -13
q4 -14 2.5 -23t8.5 -19l9 -9t10 -9q0 -3 4 -3q8 0 9.5 9t1.5 17v5v3l-18 57q3 5 5.5 8t7.5 8l26 26q10 11 12.5 22.5t8.5 24.5q1 2 7.5 12t8.5 12q3 5 3.5 9t1.5 9q0 -7 2 -13q0 -1 1.5 -3l1.5 -2l2 -31q6 3 8 6.5t3.5 7.5t2.5 8t5 9t10 6.5t13.5 3t15 4t13.5 9.5h-19
q12 7 12 13q0 1 -0.5 2l-0.5 1l-18 -7l-3 1q10 3 10 12q-8 0 -13 -6t-13 -6h-2q3 3 3 9v3h-2q-1 0 -1 -1l-9 -5h-2q-9 7 -20 20.5t-18 21.5q-2 2 -7 10t-7 11v1q0 6 9.5 18.5t14.5 16.5q12 8 24 14.5t12 25.5q0 7 -4 12.5t-9 10t-9 9t-4 10.5l1 1.5t2 2.5l27 -2q13 0 28 10
t27 25t20 32t8 31q0 12 -5.5 22.5t-12 18.5t-12 14t-5.5 10v2l3 2q1 0 2.5 0.5t3.5 0.5h7q5 0 12 -3t12 -3h2l-2 -6q5 4 8 4q0 15 -16.5 22.5t-28.5 7.5q1 3 6 3h5q17 0 34 -10v5q4 0 6 -1t7 -1h2q-10 15 -24.5 21.5t-32.5 6.5q-17 0 -26.5 -9.5t-16.5 -9.5l-45 9l-43 -3
q-11 0 -12 6q4 6 10 10.5l12 9t10 10t4 13.5q0 17 -15 26t-29 9h-2q-6 0 -12.5 -1t-9.5 -7h13l-16 -6q-1 0 -1.5 -1l-0.5 -1h7v-2q8 -2 17 -5t9 -13q-14 0 -30.5 -1.5t-31 -6.5t-24.5 -15.5t-10 -29.5q0 -15 8.5 -23.5t19.5 -16.5q-2 -4 -2 -11v-7l5 -13q4 -11 7.5 -30
t8.5 -33l-12 -1q-14 0 -25.5 11t-22.5 20q-1 1 -3 2t-2 2q-1 2 -1.5 9.5t-1.5 8.5q-2 11 -6.5 20t-6.5 20l23 -5q2 0 5.5 0.5t3.5 2.5q0 8 -12 12t-18 8q-9 11 -15 23.5t-11 25.5l-2 4h-3q-5 0 -5 -3v-21q-7 6 -12 17.5t-14 11.5q-6 0 -6 -6q0 -8 6 -12.5t6 -11.5v-2l-4 -3
q-1 0 -1.5 0.5l-0.5 0.5l-26 13q-6 4 -7 5t-8 1q0 -11 9 -17.5t16 -10.5l2 -1q-14 -5 -33 -6l-3 -3l5 -6h40q5 -4 9.5 -7t8.5 -8v-8q0 -13 -10 -30t-23.5 -34t-28.5 -32t-24 -23v-2l10 -22q2 -4 2.5 -7t0.5 -6v-12q0 -20 -4 -32t-12 -28l-2 -4h-1v-1q0 -3 3.5 -7t5.5 -7
q2 -8 3.5 -15t1.5 -16q0 -17 -5 -33t-11 -32t-11 -32.5t-5 -34.5l13 -85z" />
    <glyph glyph-name="FL00E0h" unicode="&#xe0;" horiz-adv-x="392" 
d="M211 857l7 -7l105 -135h-149l-19 19h-4l-110 141h156zM217 19h-45l-9 -53h-137l-19 19h-6l105 714h149l1 -7l18 -18l107 -708h-134l-19 19h-6zM191 860h-120l86 -111h120zM140 53h87l8 -53h110l-103 684h-122l-102 -684h113zM210 166h-54l25 165z" />
    <glyph glyph-name="FL00E1h" unicode="&#xe1;" horiz-adv-x="392" 
d="M172 860h120l-86 -111h-120zM223 53h-87l-8 -53h-110l103 684h122l102 -684h-113zM153 166h54l-25 165zM219 -15h6l19 -19h137l-105 708l-18 18l-1 7h-149l-107 -714h6l19 -19h134l8 53h45zM56 734h9l19 -19h149l105 135l-20 20l4 5h-156z" />
    <glyph glyph-name="FL00E2h" unicode="&#xe2;" horiz-adv-x="392" 
d="M199 740l-19 -24h-149l-19 19h-9l110 141h136l14 -18l7 -7l105 -135h-149l-19 19h-4zM258 692l18 -18l105 -708h-137l-19 19h-6l-6 34h-45l-8 -53h-134l-19 19h-6l107 714h149zM181 786l28 -36h120l-86 111h-124l-86 -111h120zM153 166l29 165l25 -165h-54zM243 684h-122
l-103 -684h110l8 53h87l9 -53h113z" />
    <glyph glyph-name="FL00E4h" unicode="&#xe3;" horiz-adv-x="392" 
d="M7 734h-9l91 141h119l10 -16l6 -6l13 21h135l-4 -6l20 -19l-85 -134h-116l-19 19h-2l-12 -19h-128zM258 692l18 -18l105 -708h-137l-19 19h-6l-6 34h-45l-8 -53h-134l-19 19h-6l107 714h149zM148 784l24 -35h103l70 110h-99l-23 -35l-23 36h-102l-72 -111h99zM153 166
l29 165l25 -165h-54zM243 684h-122l-103 -684h110l8 53h87l9 -53h113z" />
    <glyph glyph-name="FL00E6h" unicode="&#xe4;" horiz-adv-x="392" 
d="M26 859h120v-109h-120v109zM223 859h120v-109h-120v109zM223 53h-87l-8 -53h-110l103 684h122l102 -684h-113zM153 166h54l-25 165zM219 -15h6l19 -19h137l-105 708l-18 18l-1 7h-149l-107 -714h6l19 -19h134l8 53h45zM11 735h6l19 -19h144v133l-19 19v6h-150v-139z
M208 735h6l19 -19h144v133l-19 19v6h-150v-139z" />
    <glyph glyph-name="FL00E5h" unicode="&#xe5;" horiz-adv-x="392" 
d="M121 858h120v-109h-120v109zM223 53h-87l-8 -53h-110l103 684h122l102 -684h-113zM153 166h54l-25 165zM219 -15h6l19 -19h137l-105 708l-18 18l-1 7h-149l-107 -714h6l19 -19h134l8 53h45zM106 734h6l19 -19h144v133l-19 19v6h-150v-139z" />
    <glyph glyph-name="FL00E7h" unicode="&#xe6;" horiz-adv-x="583" 
d="M439 124h112v-6l19 -19v-133h-326l-19 19h-6l-6 34h-45l-8 -53h-134l-19 19h-6l107 714h149l1 -7l11 -11v19h282v-6l19 -19v-129h-128v-123h107v-6l19 -19v-138h-129v-136zM207 166h-54l29 165zM536 0v109h-131v185h129v114h-126v172h128v105h-252v-276l-41 275h-122
l-103 -684h110l8 53h87l9 -53h304z" />
    <glyph glyph-name="FL00EAh" unicode="&#xe7;" horiz-adv-x="383" 
d="M130 -11q-16 9 -37.5 38t-41 63t-33.5 65t-15 44v287q1 9 9 28.5t20 43.5t27 49t30 45.5t29 34t23 13.5h210v-6l19 -19v-130h-124q-8 0 -20.5 -19.5t-25 -45.5t-22 -51.5t-10.5 -37.5v-141q1 -9 5.5 -25t12 -34.5t16.5 -37t18 -32.5q1 -1 4 -1h127v-6l19 -19v-129h-67
v-171h-174l-19 19h-6v143h47v13q-4 2 -7 5l-6 6zM336 579v106h-195q-8 0 -20 -12.5t-25.5 -32t-27 -43t-24.5 -45.5t-18 -40.5t-8 -26.5v-285q1 -9 8 -27t18 -40t24.5 -45.5t27 -43t25.5 -32t20 -12.5h25v-58h-47v-113h150v171h67v105h-112q-9 0 -24 21t-29 49t-25 55.5
t-12 40.5v143q1 13 12 40t25 55t29 49t24 21h112z" />
    <glyph glyph-name="FL00E8h" unicode="&#xe8;" horiz-adv-x="317" 
d="M164 857l7 -7l105 -135h-149l-19 19h-4l-110 141h156zM285 118l19 -19v-133h-276l-19 19h-6v715h282v-6l19 -19v-129h-128v-123h107v-6l19 -19v-138h-129v-136h112v-6zM144 860h-120l86 -111h120zM270 109h-131v185h129v114h-126v172h128v105h-252v-685h252v109z" />
    <glyph glyph-name="FL00E9h" unicode="&#xe9;" horiz-adv-x="317" 
d="M141 861h120l-86 -111h-120zM18 685h252v-105h-128v-172h126v-114h-129v-185h131v-109h-252v685zM3 -15h6l19 -19h276v133l-19 19v6h-112v136h129v138l-19 19v6h-107v123h128v129l-19 19v6h-282v-715zM25 735h9l19 -19h149l105 135l-20 20l4 5h-156z" />
    <glyph glyph-name="FL00ECh" unicode="&#xea;" horiz-adv-x="317" 
d="M164 740l-19 -24h-149l-19 19h-9l110 141h136l14 -18l7 -7l105 -135h-149l-19 19h-4zM285 118l19 -19v-133h-276l-19 19h-6v715h282v-6l19 -19v-129h-128v-123h107v-6l19 -19v-138h-129v-136h112v-6zM146 786l28 -36h120l-86 111h-124l-86 -111h120zM270 109h-131v185
h129v114h-126v172h128v105h-252v-685h252v109z" />
    <glyph glyph-name="FL00EBh" unicode="&#xeb;" horiz-adv-x="317" 
d="M-13 860h120v-109h-120v109zM184 860h120v-109h-120v109zM18 685h252v-105h-128v-172h126v-114h-129v-185h131v-109h-252v685zM3 -15h6l19 -19h276v133l-19 19v6h-112v136h129v138l-19 19v6h-107v123h128v129l-19 19v6h-282v-715zM-28 736h6l19 -19h144v133l-19 19v6
h-150v-139zM169 736h6l19 -19h144v133l-19 19v6h-150v-139z" />
    <glyph glyph-name="FL0ACFh" unicode="&#xec;" horiz-adv-x="188" 
d="M114 858l7 -7l105 -135h-149l-19 19h-4l-110 141h156zM156 694l19 -19v-709h-147l-19 19h-6v715h153v-6zM94 861h-120l86 -111h120zM141 685h-123v-685h123v685z" />
    <glyph glyph-name="FL00EDh" unicode="&#xed;" horiz-adv-x="188" 
d="M63 861h120l-86 -111h-120zM18 685h123v-685h-123v685zM3 -15h6l19 -19h147v709l-19 19v6h-153v-715zM-53 735h9l19 -19h149l105 135l-20 20l4 5h-156z" />
    <glyph glyph-name="FL00EEh" unicode="&#xee;" horiz-adv-x="188" 
d="M97 740l-19 -24h-149l-19 19h-9l110 141h136l14 -18l7 -7l105 -135h-149l-19 19h-4zM156 694l19 -19v-709h-147l-19 19h-6v715h153v-6zM79 786l28 -36h120l-86 111h-124l-86 -111h120zM141 685h-123v-685h123v685z" />
    <glyph glyph-name="FL00EFh" unicode="&#xef;" horiz-adv-x="188" 
d="M-79 858h120v-109h-120v109zM118 858h120v-109h-120v109zM18 685h123v-685h-123v685zM3 -15h6l19 -19h147v709l-19 19v6h-153v-715zM-94 734h6l19 -19h144v133l-19 19v6h-150v-139zM103 734h6l19 -19h144v133l-19 19v6h-150v-139z" />
    <glyph glyph-name="FL00F0h" unicode="&#xf0;" horiz-adv-x="383" 
d="M169 127q11 0 21.5 2.5t13.5 13.5l1 2v117h-36v-135zM9 564h-6v136h210q8 0 20 -11t26 -28l1 -1q16 -16 35 -44.5t35 -58.5t27.5 -56t12.5 -37v-382l-5 -18q-9 -32 -23.5 -50t-31.5 -27.5t-35 -12.5t-33 -5q-12 -2 -21 -3h-4q-3 0 -9.5 -0.5t-12.5 -0.5h-25
q-17 0 -35 5.5t-34 14.5t-30 19.5t-24 19.5q-13 9 -22.5 18t-14.5 16l-5 27v337h198q-3 11 -8.5 27t-13 33.5t-15.5 34t-16 28.5h-122zM220 296v-154l-1 -3q-6 -20 -23 -23.5t-32 -3.5h-9q-8 0 -14 1.5t-6 10.5v172h85zM197 0q12 3 31 4t38.5 8.5t37 24.5t27.5 52l5 18v378
q-2 13 -16.5 45.5t-34 67t-40 61t-32.5 26.5h-195v-106h112q9 0 24.5 -22t30 -50.5t25 -56t10.5 -39.5v-4h-200v-319l4 -24q6 -8 19 -19t30 -21.5t36.5 -17.5t38.5 -7h25q8 0 15.5 0.5t8.5 0.5z" />
    <glyph glyph-name="FL00F1h" unicode="&#xf1;" horiz-adv-x="388" 
d="M3 735h-9l91 141h119l10 -16l6 -6l13 21h135l-4 -6l20 -19l-85 -134h-116l-19 19h-2l-12 -19h-128zM167 161v-195h-139l-19 19h-6v715h134l2 -8l18 -17l49 -150v175h147v-6l19 -19v-709h-127l-19 19h-5zM144 785l24 -35h103l70 110h-99l-23 -35l-23 36h-102l-72 -111h99z
M133 323l99 -323h106v685h-117v-289l-94 289h-109v-685h115v323z" />
    <glyph glyph-name="FL00F2h" unicode="&#xf2;" horiz-adv-x="410" 
d="M277 667q8 -11 16.5 -22t16.5 -25q-8 14 -16.5 26.5t-16.5 22.5v-2zM232 412q-2 8 -9 28.5t-18 43.5q-14 -26 -24 -52.5t-12 -39.5v-141q2 -11 8.5 -31.5t16.5 -43.5q14 27 25 55.5t13 41.5v139zM221 857l7 -7l105 -135h-149l-19 19h-4l-110 141h156zM3 487q2 14 18 49
t38 71.5t44.5 64.5t37.5 28h98v1q1 -1 3 -1h16v-6l19 -19v-4l10 -10q15 -15 34 -43.5t35.5 -59t28 -57t12.5 -37.5v-288q-1 -9 -8.5 -27t-19 -41t-25.5 -47.5t-28 -44.5t-27 -34t-22 -16h-104q-10 0 -25 15l-8 8q-16 9 -37.5 38t-41 62.5t-33.5 64.5t-15 44v289zM201 860
h-120l86 -111h120zM18 200q2 -13 16.5 -45.5t34 -67t39.5 -61t33 -26.5h102q8 1 20 14.5t25 33t26 42.5t23.5 45t17.5 39.5t8 25.5v285q-1 8 -8 25.5t-17.5 39t-23.5 44.5t-26 42.5t-25 32.5t-20 15v1h-102q-13 0 -33 -26.5t-39.5 -61t-34 -67t-16.5 -45.5v-285zM191 544
q10 -15 19.5 -34.5t17 -38t13 -34.5t6.5 -23v-143q-1 -9 -6.5 -24.5t-13 -34.5t-17 -37.5t-19.5 -33.5q-10 15 -19.5 34t-17.5 37.5t-13 34t-6 24.5v143q1 8 6.5 23.5t13 34.5t17 38t19.5 34z" />
    <glyph glyph-name="FL00F3h" unicode="&#xf3;" horiz-adv-x="410" 
d="M180 860h120l-86 -111h-120zM363 200q-2 -13 -16.5 -45.5t-34 -67t-39.5 -61t-33 -26.5h-102q-9 2 -20.5 15t-24.5 32.5t-26 42.5t-23.5 45t-17.5 39.5t-8 25.5v285q1 8 8 25.5t17.5 39t23.5 44.5t26 42.5t25 32.5t20 15v1h102q13 0 33 -26.5t39.5 -61t34 -67t16.5 -45.5
v-285zM190 544q-10 -15 -19.5 -34.5t-17 -38t-13 -34.5t-6.5 -23v-143q1 -9 6.5 -24.5t13 -34.5t17 -37.5t19.5 -33.5q10 15 19.5 34t17.5 37.5t13 34t6 24.5v143q-1 8 -6.5 23.5t-13 34.5t-17 38t-19.5 34zM67 617q-12 -20 -23.5 -40t-20 -38t-14 -32t-6.5 -21v-287
q1 -13 16 -45.5t35.5 -68t41.5 -64.5t36 -35l6 -6q13 -13 20 -14h104q9 0 22.5 13t28 33.5t29 45t26.5 48t20 42.5t9 28v289q-2 11 -13 36.5t-27.5 55.5t-35 58.5t-34.5 44.5l-1 1q-14 17 -26 28t-20 11h-99l1 1q-1 -1 -3 -1h-16v-12q-12 -9 -26.5 -28.5t-29.5 -42.5z
M64 734h9l19 -19h149l105 135l-20 20l4 5h-156zM231 412v-139q-2 -13 -12.5 -41t-25.5 -56q-10 23 -16.5 43.5t-8.5 31.5v139q2 11 11.5 38.5t23.5 55.5q11 -23 18.5 -43.5t9.5 -28.5z" />
    <glyph glyph-name="FL00F4h" unicode="&#xf4;" horiz-adv-x="410" 
d="M231 412q-2 8 -9.5 28.5t-18.5 43.5q-14 -28 -23.5 -55.5t-11.5 -38.5v-139q2 -11 8.5 -31.5t16.5 -43.5q15 28 25.5 56t12.5 41v139zM207 740l-19 -24h-149l-19 19h-9l110 141h136l14 -18l7 -7l105 -135h-149l-19 19h-4zM67 617q15 23 29.5 42.5t26.5 28.5v12h16
q2 0 3 1l-1 -1h99q8 0 20 -11t26 -28l1 -1q16 -16 34.5 -44.5t35 -58.5t27.5 -55.5t13 -36.5v-289q-1 -9 -9 -28t-20 -42.5t-26.5 -48t-29 -45t-28 -33.5t-22.5 -13h-104q-7 1 -20 14l-6 6q-15 6 -36 35t-41.5 64.5t-35.5 68t-16 45.5v287q1 7 6.5 21t14 32t20 38t23.5 40z
M189 786l28 -36h120l-86 111h-124l-86 -111h120zM190 544q10 -15 19.5 -34t17 -38t13 -34.5t6.5 -23.5v-143q-1 -9 -6 -24.5t-13 -34t-17.5 -37.5t-19.5 -34q-10 15 -19.5 33.5t-17 37.5t-13 34.5t-6.5 24.5v143q1 7 6.5 23t13 34.5t17 38t19.5 34.5zM363 485
q-2 13 -16.5 45.5t-34 67t-39.5 61t-33 26.5h-102v-1q-8 -2 -20 -15t-25 -32.5t-26 -42.5t-23.5 -44.5t-17.5 -39t-8 -25.5v-285q1 -8 8 -25.5t17.5 -39.5t23.5 -45t26 -42.5t24.5 -32.5t20.5 -15h102q13 0 33 26.5t39.5 61t34 67t16.5 45.5v285z" />
    <glyph glyph-name="FL00F5h" unicode="&#xf5;" horiz-adv-x="410" 
d="M231 412q-2 8 -9.5 28.5t-18.5 43.5q-14 -28 -23.5 -55.5t-11.5 -38.5v-139q2 -11 8.5 -31.5t16.5 -43.5q15 28 25.5 56t12.5 41v139zM15 734h-9l91 141h119l10 -16l6 -6l13 21h135l-4 -6l20 -19l-85 -134h-116l-19 19h-2l-12 -19h-128zM67 617q15 23 29.5 42.5
t26.5 28.5v12h16q2 0 3 1l-1 -1h99q8 0 20 -11t26 -28l1 -1h-1h1q16 -16 34.5 -44.5t35 -58.5t27.5 -55.5t13 -36.5v-289q-1 -9 -9 -28t-20 -42.5t-26.5 -48t-29 -45t-28 -33.5t-22.5 -13h-104q-7 1 -20 14l-6 6q-15 6 -36 35t-41.5 64.5t-35.5 68t-16 45.5v287q1 7 6.5 21
t14 32t20 38t23.5 40zM156 784l24 -35h103l70 110h-99l-23 -35l-23 36h-102l-72 -111h99zM190 544q10 -15 19.5 -34t17 -38t13 -34.5t6.5 -23.5v-143q-1 -9 -6 -24.5t-13 -34t-17.5 -37.5t-19.5 -34q-10 15 -19.5 33.5t-17 37.5t-13 34.5t-6.5 24.5v143q1 7 6.5 23t13 34.5
t17 38t19.5 34.5zM363 485q-2 13 -16.5 45.5t-34 67t-39.5 61t-33 26.5h-102v-1q-8 -2 -20 -15t-25 -32.5t-26 -42.5t-23.5 -44.5t-17.5 -39t-8 -25.5v-285q1 -8 8 -25.5t17.5 -39.5t23.5 -45t26 -42.5t24.5 -32.5t20.5 -15h102q13 0 33 26.5t39.5 61t34 67t16.5 45.5v285z
" />
    <glyph glyph-name="FL00F6h" unicode="&#xf6;" horiz-adv-x="410" 
d="M34 858h120v-109h-120v109zM231 858h120v-109h-120v109zM363 200q-2 -13 -16.5 -45.5t-34 -67t-39.5 -61t-33 -26.5h-102q-9 2 -20.5 15t-24.5 32.5t-26 42.5t-23.5 45t-17.5 39.5t-8 25.5v285q1 8 8 25.5t17.5 39t23.5 44.5t26 42.5t25 32.5t20 15v1h102q13 0 33 -26.5
t39.5 -61t34 -67t16.5 -45.5v-285zM190 544q-10 -15 -19.5 -34.5t-17 -38t-13 -34.5t-6.5 -23v-143q1 -9 6.5 -24.5t13 -34.5t17 -37.5t19.5 -33.5q10 15 19.5 34t17.5 37.5t13 34t6 24.5v143q-1 8 -6.5 23.5t-13 34.5t-17 38t-19.5 34zM67 617q-12 -20 -23.5 -40t-20 -38
t-14 -32t-6.5 -21v-287q1 -13 16 -45.5t35.5 -68t41.5 -64.5t36 -35l6 -6q13 -13 20 -14h104q9 0 22.5 13t28 33.5t29 45t26.5 48t20 42.5t9 28v289q-2 11 -13 36.5t-27.5 55.5t-35 58.5t-34.5 44.5l-1 1q-14 17 -26 28t-20 11h-99l1 1q-1 -1 -3 -1h-16v-12
q-12 -9 -26.5 -28.5t-29.5 -42.5zM19 734h6l19 -19h144v133l-19 19v6h-150v-139zM216 734h6l19 -19h144v133l-19 19v6h-150v-139zM231 412v-139q-2 -13 -12.5 -41t-25.5 -56q-10 23 -16.5 43.5t-8.5 31.5v139q2 11 11.5 38.5t23.5 55.5q11 -23 18.5 -43.5t9.5 -28.5z" />
    <glyph glyph-name="FL0100h" unicode="&#xf7;" horiz-adv-x="382" 
d="M117 552h120v-109h-120v109zM117 258h120v-109h-120v109zM335 407v-113h-317v113h317zM102 428h6l6 -6h-111v-143h6l19 -19h74v-126h6l19 -19h144v133l-12 12h110v137l-19 19v6h-79v120l-19 19v6h-150v-139z" />
    <glyph glyph-name="FL00F8h" unicode="&#xf8;" horiz-adv-x="410" 
d="M67 617q15 23 29.5 42.5t26.5 28.5v12h16q2 0 3 1l-1 -1h203v-6l19 -19v-126q14 -27 23 -49.5t11 -33.5v-290q-1 -9 -9 -28t-20 -42.5t-26.5 -48t-29 -45t-28 -33.5t-22.5 -13h-195l-19 19h-6v117q-16 28 -27 55t-12 42v287q1 7 6.5 21t14 32t20 38t23.5 40zM190 141
q-3 5 -6 9.5t-6 9.5l68 165v-54q-1 -9 -6 -24.5t-13 -34t-17.5 -37.5t-19.5 -34zM190 544q3 -5 6.5 -11t7.5 -12l-70 -167v60q1 7 6.5 23t13 34.5t17 38t19.5 34.5zM363 485q-2 10 -11 32.5t-23 49.5v118h-191v-1q-8 -2 -20 -15t-25 -32.5t-26 -42.5t-23.5 -44.5t-17.5 -39
t-8 -25.5v-285q1 -11 12 -37t27 -55v-108h183q13 0 33 26.5t39.5 61t34 67t16.5 45.5v285z" />
    <glyph glyph-name="FL00F9h" unicode="&#xf9;" horiz-adv-x="384" 
d="M146 129v-1v1zM192 858l7 -7l105 -135h-149l-19 19h-4l-110 141h156zM206 700h146v-6l19 -19v-657q-3 -6 -9.5 -15t-15.5 -17.5t-19.5 -14t-20.5 -5.5h-213q-11 0 -22.5 7t-21.5 17l-3 3q-15 8 -27 22t-16 24v661h147v-6l19 -19v-560h17q8 0 11.5 2t7.5 12q1 2 1 3v568z
M172 861h-120l86 -111h120zM221 132q0 -7 -2 -9q-5 -16 -12.5 -19.5t-20.5 -3.5h-24q-9 1 -15 5t-11 18q-1 1 -1 9v553h-117v-642q2 -5 7.5 -12.5t13 -14.5t16 -11.5t16.5 -4.5h213q8 0 16.5 4.5t16 11.5t13 14.5t7.5 12.5v642h-116v-553z" />
    <glyph glyph-name="FL00FAh" unicode="&#xfa;" horiz-adv-x="384" 
d="M173 861h120l-86 -111h-120zM134 132q0 -7 2 -9q5 -16 12.5 -19.5t20.5 -3.5h24q9 1 15 5t11 18q1 1 1 9v553h117v-642q-2 -5 -7.5 -12.5t-13 -14.5t-16 -11.5t-16.5 -4.5h-213q-8 0 -16.5 4.5t-16 11.5t-13 14.5t-7.5 12.5v642h116v-553zM49 -10q10 -10 21.5 -17
t22.5 -7h213q10 0 20.5 5.5t19.5 14t15.5 17.5t9.5 15v657l-19 19v6h-147v-573q-4 -8 -7 -9.5t-6 -2.5h-23h-1v560l-19 19v6h-146v-661q4 -10 16 -24t27 -22zM57 735h9l19 -19h149l105 135l-20 20l4 5h-156z" />
    <glyph glyph-name="FL00FBh" unicode="&#xfb;" horiz-adv-x="384" 
d="M199 740l-19 -24h-149l-19 19h-9l110 141h136l14 -18l7 -7l105 -135h-149l-19 19h-4zM149 700v-6l19 -19v-560h1h23q4 1 6.5 2.5t6.5 9.5v573h147v-6l19 -19v-657q-3 -6 -9.5 -15t-15.5 -17.5t-19.5 -14t-20.5 -5.5h-213q-11 0 -22.5 7t-21.5 17l-3 3q-15 8 -27 22
t-16 24v661h146zM181 786l28 -36h120l-86 111h-124l-86 -111h120zM18 685v-642q2 -5 7.5 -12.5t13 -14.5t16 -11.5t16.5 -4.5h213q8 0 16.5 4.5t16 11.5t13 14.5t7.5 12.5v642h-117v-553q0 -8 -1 -9q-5 -14 -11 -18t-15 -5h-24q-13 0 -20.5 3.5t-12.5 19.5q-2 2 -2 9v553
h-116z" />
    <glyph glyph-name="FL00FCh" unicode="&#xfc;" horiz-adv-x="384" 
d="M19 860h120v-109h-120v109zM216 860h120v-109h-120v109zM134 132q0 -7 2 -9q5 -16 12.5 -19.5t20.5 -3.5h24q9 1 15 5t11 18q1 1 1 9v553h117v-642q-2 -5 -7.5 -12.5t-13 -14.5t-16 -11.5t-16.5 -4.5h-213q-8 0 -16.5 4.5t-16 11.5t-13 14.5t-7.5 12.5v642h116v-553z
M49 -10q10 -10 21.5 -17t22.5 -7h213q10 0 20.5 5.5t19.5 14t15.5 17.5t9.5 15v657l-19 19v6h-147v-573q-4 -8 -6.5 -9.5t-6.5 -2.5h-23h-1v560l-19 19v6h-146v-661q4 -10 16 -24t27 -22zM4 736h6l19 -19h144v133l-19 19v6h-150v-139zM201 736h6l19 -19h144v133l-19 19v6
h-150v-139z" />
    <glyph glyph-name="FL00FDh" unicode="&#xfd;" horiz-adv-x="361" 
d="M159 861h120l-86 -111h-120zM18 483v203h117v-176q0 -4 0.5 -8t1.5 -9q1 -2 2.5 -6t1.5 -5l25 -61l25 61q0 1 1.5 5t2.5 6q1 3 1 12v181h118v-203l-84 -181h-1v-302h-123v302zM170 478q-1 5 -1 10v188l-19 19v6h-147v-222l88 -182v-312h6l19 -19h147v308l85 184v218
l-19 19v6h-148v-196q0 -6 -1 -8q-1 -4 -3 -8l-7 -16v5zM43 735h9l19 -19h149l105 135l-20 20l4 5h-156z" />
    <glyph glyph-name="FL00FEh" unicode="&#xfe;" horiz-adv-x="379" 
d="M175 274q17 0 22 5.5t5 23.5v100h-27v-129zM175 552h104q9 0 18.5 -5t18 -12.5t16 -16t11.5 -15.5h1q8 -8 14 -16.5t8 -13.5v-259q-4 -29 -11.5 -47.5t-30.5 -33.5q-17 -11 -32.5 -13.5t-18.5 -2.5h-98v-151h-147l-19 19h-6v715h153v-6l19 -19v-123zM181 437
q14 0 21.5 -3.5t12.5 -19.5q2 -8 2 -10v-101q0 -15 -2 -24t-7 -13.5t-15.5 -5.5t-26.5 -1h-25v178h40zM141 0v151h110q3 0 16.5 2.5t28.5 11.5q20 13 26.5 29.5t9.5 42.5v257q-2 5 -7.5 12.5t-13 14t-16 11.5t-16.5 5h-138v148h-123v-685h123z" />
    <glyph glyph-name="FL00FFh" unicode="&#xff;" horiz-adv-x="382" 
d="M18 860h120v-109h-120v109zM215 860h120v-109h-120v109zM28 483v203h117v-176q0 -4 0.5 -8t1.5 -9q1 -2 2.5 -6t1.5 -5l25 -61l25 61q0 1 1.5 5t2.5 6q1 3 1 12v181h118v-203l-84 -181h-1v-302h-123v302zM180 478q-1 5 -1 10v188l-19 19v6h-147v-222l88 -182v-312h6
l19 -19h147v308l85 184v218l-19 19v6h-148v-196q0 -6 -1 -8q-1 -4 -3 -8l-7 -16v5zM200 736h6l19 -19h144v133l-19 19v6h-150v-139zM3 736h6l19 -19h144v133l-19 19v6h-150v-139z" />
  </font>
</defs>
</svg>
