<?xml version="1.0" standalone="no"?>
<!DOCTYPE svg PUBLIC "-//W3C//DTD SVG 1.1//EN" "http://www.w3.org/Graphics/SVG/1.1/DTD/svg11.dtd" >
<svg xmlns="http://www.w3.org/2000/svg" xmlns:xlink="http://www.w3.org/1999/xlink" version="1.1">
<metadata>
Created by FontForge 20170924 at Fri May 24 11:06:13 2019
 By www-data
2019 Iconian Fonts - www.iconian.com
</metadata>
<defs>
<font id="SpaceRanger3D" horiz-adv-x="715" >
  <font-face 
    font-family="Space Ranger 3D"
    font-weight="400"
    font-stretch="normal"
    units-per-em="1000"
    panose-1="0 0 0 0 0 0 0 0 0 0"
    ascent="800"
    descent="-200"
    x-height="514.999"
    cap-height="515"
    bbox="-86 -228.005 1204 696"
    underline-thickness="50"
    underline-position="-125"
    unicode-range="U+0020-2122"
  />
<missing-glyph horiz-adv-x="500" 
 />
    <glyph glyph-name=".notdef" horiz-adv-x="500" 
 />
    <glyph glyph-name="space" unicode=" " horiz-adv-x="368" 
 />
    <glyph glyph-name="space" unicode="&#xa0;" horiz-adv-x="368" 
 />
    <glyph glyph-name="FL0021h" unicode="!" horiz-adv-x="236" 
d="M20 515h168v-6l17 -17v-330h-162l-17 17h-6v336zM34 501v-308h140v308h-140zM43 -29l-17 17h-6v160h168v-6l17 -16v-155h-162zM34 135v-133h140v133h-140z" />
    <glyph glyph-name="FL0022h" unicode="&#x22;" horiz-adv-x="416" 
d="M86 295h-52v204h141v-127c0 -8 -3 -16.5 -9 -25.5s-13.5 -17.333 -22.5 -25s-18.667 -14 -29 -19s-19.833 -7.5 -28.5 -7.5zM265 295h-52v204h141v-127c0 -8 -3 -16.5 -9 -25.5s-13.5 -17.333 -22.5 -25s-18.667 -14 -29 -19s-19.833 -7.5 -28.5 -7.5zM368 513h-169.002
v-16l-10 10v6h-169v-232h6l17 -17h62c7.33301 0 15.5 1.83301 24.5 5.5s17.833 8.5 26.5 14.5s16.834 12.833 24.501 20.5s13.834 15.5 18.501 23.5v-47h6l17 -17h62c9.33301 0 19.833 3 31.5 9s22.667 13.333 33 22s19 18.167 26 28.5s10.5 19.833 10.5 28.5v138l-17 17v6z
" />
    <glyph glyph-name="FL0023h" unicode="#" horiz-adv-x="716" 
d="M20 237h103v12h-80l-17 17h-6v148h103v101h169v-6l17 -17v-78h86v101h169v-6l17 -17v-78h87v-6l17 -16v-143h-104v-12h87v-6l17 -17v-142h-104v-101h-163l-17 17h-6v84h-86v-101h-163l-17 17h-6v84h-80l-17 17h-6v148zM137 223h-103v-120h103v-101h141v101h131v-101h141
v101h104v120h-104v57h104v121h-104v100h-141v-100h-131v100h-141v-100h-103v-121h103v-57zM409 223h-131v57h131v-57zM309 249v-12h86v12h-86z" />
    <glyph glyph-name="FL0024h" unicode="$" horiz-adv-x="703" 
d="M252 617l169.999 0.00390625v-6l17 -17v-78h216v-6l17 -17v-155h-233v-12h123c15.333 0 30.333 -5 45 -15s26.334 -22.333 35.001 -37h1c8.66699 -8.66699 15.667 -18.334 21 -29.001s8 -21.667 8 -33v-150c0 -11.333 -2.66699 -22.333 -8 -33
s-12.333 -20.334 -21 -29.001s-18.334 -15.667 -29.001 -21s-21.334 -8 -32.001 -8h-143v-103h-164l-17 17h-6v86h-209l-17 17h-6v161h232v12h-119c-11.333 0 -22.166 2.5 -32.499 7.5s-19.833 11.5 -28.5 19.5l-4 3c-13.333 9.33301 -24.666 21.166 -33.999 35.499
s-14 29.166 -14 44.499v151c0 10.667 2.83301 21.667 8.5 33s13 21.5 22 30.5s19 16.333 30 22s21.833 8.5 32.5 8.5h139v101zM407.999 312.004v57h233v133h-233v101h-142v-101h-153c-9.33301 0 -18.833 -2.33301 -28.5 -7s-18.167 -10.667 -25.5 -18
s-13.333 -15.833 -18 -25.5s-7 -19.5 -7 -29.5v-151c0 -10 2.33301 -19.833 7 -29.5s10.667 -18.167 18 -25.5s15.833 -13.333 25.5 -18s19.167 -7 28.5 -7h153v-56h-232v-133h232v-103h142v103h154c9.33301 0 18.666 2.33301 27.999 7s17.833 10.667 25.5 18
s13.834 15.833 18.501 25.5s7 19.5 7 29.5v150c0 10 -2.33301 19.833 -7 29.5s-10.834 18.167 -18.501 25.5s-16.167 13.333 -25.5 18s-18.666 7 -27.999 7h-154zM407.999 191.004h91v-56h-91v56zM174.999 369.004h91v-57h-91v57zM438.999 161.004v-12h47v12h-47z
M205.999 338.004v-12h46v12h-46z" />
    <glyph glyph-name="FL0025h" unicode="%" horiz-adv-x="895" 
d="M549 -12l-5.00098 4.99902h1c-9.33301 4.66699 -17.666 11.834 -24.999 21.501s-11 18.5 -11 26.5v117l-90 -187h-181l-17 17h-8l112 234h-232c-10.667 0 -21.667 5.66699 -33 17l-5 5h1c-9.33301 4.66699 -17.666 11.834 -24.999 21.501s-11 18.5 -11 26.5v170
c0 4.66699 1.83301 10.167 5.5 16.5s8.16699 12.166 13.5 17.499s11 9.83301 17 13.5s11.667 5.5 17 5.5h232c8.66699 0 17.5 -3.83301 26.5 -11.5s15.833 -16.167 20.5 -25.5h1v1l1 -1l4 -3c11.333 -11.333 17 -22.333 17 -33v-118l91 191h187l-3 -7l18 -16l-109 -228h235
c8 0 16.667 -3.66699 26 -11s16.666 -15.333 21.999 -24l5 -5c11.333 -11.333 17 -22.333 17 -33v-170c0 -5.33301 -1.66699 -10.833 -5 -16.5s-7.5 -11 -12.5 -16s-10.5 -9.16699 -16.5 -12.5s-11.333 -5 -16 -5h-232c-10.667 0 -21.667 5.66699 -33 17zM233.999 1.99902
h157l241 499h-157zM343.999 291.999v170c0 8 -4.5 16.5 -13.5 25.5s-17.5 13.5 -25.5 13.5h-232c-8 0 -16.5 -4.5 -25.5 -13.5s-13.5 -17.5 -13.5 -25.5v-170c0 -8 4.5 -16.5 13.5 -25.5s17.5 -13.5 25.5 -13.5h232c8 0 16.5 4.5 25.5 13.5s13.5 17.5 13.5 25.5z
M832.999 40.999v170c0 8 -4.5 16.5 -13.5 25.5s-17.5 13.5 -25.5 13.5h-232c-8 0 -16.5 -4.5 -25.5 -13.5s-13.5 -17.5 -13.5 -25.5v-170c0 -8 4.5 -16.5 13.5 -25.5s17.5 -13.5 25.5 -13.5h232c8 0 16.5 4.5 25.5 13.5s13.5 17.5 13.5 25.5zM250.999 411.999v-70h-124v70
h124zM739.999 160.999v-70h-124v70h124zM157.999 381.999v-26h79v26h-79zM645.999 130.999v-26h80v26h-80z" />
    <glyph glyph-name="FL0026h" unicode="&#x26;" horiz-adv-x="754" 
d="M545 338l-268.001 0.00292969v-12h429v-6l17 -17v-143h-65v-98c0 -11.333 -2.66699 -22.333 -8 -33s-12.333 -20.334 -21 -29.001s-18.334 -15.667 -29.001 -21s-21.334 -8 -32.001 -8h-435c-11.333 0 -22.166 2.5 -32.499 7.5s-19.833 11.833 -28.5 20.5l-4 3
c-13.333 9.33301 -24.666 21.166 -33.999 35.499s-14 29.166 -14 44.499v150c0 18 7 35.333 21 52s30.667 28.667 50 36v101c0 10.667 2.83301 21.667 8.5 33s13 21.5 22 30.5s18.833 16.333 29.5 22s21.334 8.5 32.001 8.5h345v-6l17 -17v-154zM112.999 2.00293h434.997
c9.33301 0 18.666 2.33301 27.999 7s17.833 10.667 25.5 18s13.834 15.833 18.501 25.5s7 19.5 7 29.5v109h65v121h-446v57h269v132h-332c-9.33301 0 -18.666 -2.33301 -27.999 -7s-17.666 -10.667 -24.999 -18s-13.333 -15.833 -18 -25.5s-7 -19.5 -7 -29.5v-110
c-9.33301 -1.33301 -18.166 -4.5 -26.499 -9.5s-15.833 -11.167 -22.5 -18.5s-12 -15.5 -16 -24.5s-6 -17.833 -6 -26.5v-150c0 -10 2.33301 -19.833 7 -29.5s10.667 -18.167 18 -25.5s15.833 -13.333 25.5 -18s19.167 -7 28.5 -7zM485.996 135.003h-310v56h310v-56z
M205.996 160.003v-12h266v12h-266z" />
    <glyph glyph-name="FL0027h" unicode="'" horiz-adv-x="236" 
d="M85 295h-51v204h140v-127c0 -8 -3 -16.5 -9 -25.5s-13.5 -17.333 -22.5 -25s-18.667 -14 -29 -19s-19.833 -7.5 -28.5 -7.5zM188 513h-168v-232h6l17 -17h62c9.33301 0 19.833 3 31.5 9s22.5 13.333 32.5 22s18.5 18.167 25.5 28.5s10.5 19.833 10.5 28.5v138l-17 17v6z
" />
    <glyph glyph-name="FL0028h" unicode="(" horiz-adv-x="411" 
d="M349 -38l-237 0.000976562c-9.33301 0 -18.666 2.33301 -27.999 7s-17.666 10.667 -24.999 18s-13.333 15.833 -18 25.5s-7 19.5 -7 29.5v420c0 10 2.33301 19.667 7 29s10.667 17.666 18 24.999s15.666 13.333 24.999 18s18.666 7 27.999 7h237v-132h-174v-314h174v-133
zM206 378.001h174.002v154l-17 17v6h-251c-10.667 0 -21.334 -2.83301 -32.001 -8.5s-20.5 -12.834 -29.5 -21.501s-16.333 -18.667 -22 -30s-8.5 -22.333 -8.5 -33v-420c0 -15.333 4.66699 -30.166 14 -44.499s20.666 -25.833 33.999 -34.5l4 -4
c8.66699 -8.66699 18 -15.5 28 -20.5s20.667 -7.5 32 -7.5h248v155l-17 17v6h-157v269z" />
    <glyph glyph-name="FL0029h" unicode=")" horiz-adv-x="411" 
d="M43 378l-16.999 17h-6v160h250c15.333 0 30.333 -5 45 -15s26.334 -22.333 35.001 -37h1c8.66699 -8.66699 15.667 -18.167 21 -28.5s8 -21.166 8 -32.499v-420c0 -11.333 -2.66699 -22.333 -8 -33s-12.333 -20.334 -21 -29.001s-18.334 -15.667 -29.001 -21
s-21.334 -8 -32.001 -8h-247l-17 17h-6v161h174v269h-151zM208.001 95l-174 0.000976562v-133h236c9.33301 0 18.666 2.33301 27.999 7s17.833 10.667 25.5 18s13.834 15.833 18.501 25.5s7 19.5 7 29.5v420c0 10 -2.33301 19.667 -7 29s-10.834 17.666 -18.501 24.999
s-16.167 13.333 -25.5 18s-18.666 7 -27.999 7h-236v-132h174v-314z" />
    <glyph glyph-name="FL002Ah" unicode="*" horiz-adv-x="266" 
d="M115 408l-21 -44l-59 49l33 31l-44 10l22 70l36 -22l-6 43h78l-5 -43l39 20l25 -69l-49 -8l34 -34l-59 -47zM217 408l2 2l-9 7l38 7l-34 94l-14 12v-1l-3 11l-13 -6l1 2l-17 17l1 6h-108l3 -30l-25 17l-33 -102l9 -2h-1l14 -15l-15 -14l86 -74v1l18 -15l12 25l6 -9l3 2
l18 -17l79 65z" />
    <glyph glyph-name="FL002Bh" unicode="+" horiz-adv-x="443" 
d="M20 325h112v114h149v-6l16 -17v-91h98v-6l17 -17v-142h-115v-115h-142l-17 17h-6v98h-89l-17 17h-6v148zM146 311h-112v-120h112v-115h121v115h114v120h-114v114h-121v-114z" />
    <glyph glyph-name="FL002Ch" unicode="," horiz-adv-x="236" 
d="M85 -70h-51v204h140v-127c0 -8 -3 -16.5 -9 -25.5s-13.5 -17.333 -22.5 -25s-18.667 -14 -29 -19s-19.833 -7.5 -28.5 -7.5zM188 148h-168v-232h6l17 -17h62c9.33301 0 19.833 3 31.5 9s22.5 13.333 32.5 22s18.5 18.167 25.5 28.5s10.5 19.833 10.5 28.5v138l-17 17v6z
" />
    <glyph glyph-name="FL002Dh" unicode="-" horiz-adv-x="413" 
d="M34 190v119h317v-119h-317zM20 323v-147h6l17 -17h339v141l-17 17v6h-345z" />
    <glyph glyph-name="period" unicode="." horiz-adv-x="236" 
d="M43 -29l-17 17h-6v159h168v-6l17 -16v-154h-162zM34 133v-131h140v131h-140z" />
    <glyph glyph-name="FL0032h" unicode="/" horiz-adv-x="457" 
d="M-5 -12l248 527h191l-3 -7l18 -16l-245 -521h-184l-17 17h-8zM16 2h160l236 499h-160z" />
    <glyph glyph-name="FL0030h" unicode="0" 
d="M72 -1l-4.00098 3.00195c-13.333 9.33301 -24.666 21.166 -33.999 35.499s-14 29.166 -14 44.499v339c0 10.667 2.83301 21.667 8.5 33s13 21.5 22 30.5s19 16.333 30 22s21.833 8.5 32.5 8.5h461c15.333 0 30.333 -5 45 -15s26.334 -22.333 35.001 -37h1
c8.66699 -8.66699 15.667 -18.167 21 -28.5s8 -21.166 8 -32.499v-340c0 -11.333 -2.66699 -22.333 -8 -33s-12.333 -20.334 -21 -29.001s-18.334 -15.667 -29.001 -21s-21.334 -8 -32.001 -8h-461c-11.333 0 -22.166 2.5 -32.499 7.5s-19.833 11.833 -28.5 20.5z
M112.999 2.00195h461c9.33301 0 18.666 2.33301 27.999 7s17.833 10.667 25.5 18s13.834 15.833 18.501 25.5s7 19.5 7 29.5v339c0 10 -2.33301 19.833 -7 29.5s-10.834 18.167 -18.501 25.5s-16.167 13.333 -25.5 18s-18.666 7 -27.999 7h-461
c-9.33301 0 -18.833 -2.33301 -28.5 -7s-18.167 -10.667 -25.5 -18s-13.333 -15.833 -18 -25.5s-7 -19.5 -7 -29.5v-339c0 -10 2.33301 -19.833 7 -29.5s10.667 -18.167 18 -25.5s15.833 -13.333 25.5 -18s19.167 -7 28.5 -7zM510.999 135.002h-183l183 215v-215z
M174.999 369.002h184l-184 -216v216zM311.999 338.002h-106v-127zM390.999 148.002h107v122z" />
    <glyph glyph-name="FL0031h" unicode="1" horiz-adv-x="339" 
d="M122 -12l-0.00195312 349.999h-79l-17 17h-6v160h179c14.667 0 29.334 -5 44.001 -15s26.334 -22.333 35.001 -37h1c8.66699 -8.66699 15.667 -18.167 21 -28.5s8 -21.166 8 -32.499v-431h-163l-17 17h-6zM135.998 368.999l-0.00195312 -367h141v419
c0 10 -2.33301 19.833 -7 29.5s-10.667 18.167 -18 25.5s-15.666 13.333 -24.999 18s-18.666 7 -27.999 7h-165v-132h102z" />
    <glyph glyph-name="two" unicode="2" horiz-adv-x="703" 
d="M43 338l-16.999 17h-6v160h542c15.333 0 30.333 -5 45 -15s26.334 -22.333 35.001 -37h1c8.66699 -8.66699 15.667 -18.167 21 -28.5s8 -21.166 8 -32.499v-151c0 -11.333 -2.66699 -22.333 -8 -33s-12.333 -20.334 -21 -29.001s-18.334 -15.667 -29.001 -21
s-21.334 -8 -32.001 -8h-376v-12h449v-6l17 -16v-155h-629l-17 17h-6v244c0 10.667 2.83301 21.667 8.5 33s13 21.5 22 30.5s19 16.333 30 22s21.833 8.5 32.5 8.5h373v12h-443zM175.001 135v56h387c9.33301 0 18.666 2.33301 27.999 7s17.833 10.667 25.5 18
s13.834 15.833 18.501 25.5s7 19.5 7 29.5v150c0 10 -2.33301 19.833 -7 29.5s-10.834 18.167 -18.501 25.5s-16.167 13.333 -25.5 18s-18.666 7 -27.999 7h-528v-132h465v-57h-386c-9.33301 0 -18.833 -2.33301 -28.5 -7s-18.167 -10.667 -25.5 -18
s-13.333 -15.833 -18 -25.5s-7 -19.5 -7 -29.5v-230h607v133h-466z" />
    <glyph glyph-name="three" unicode="3" horiz-adv-x="697" 
d="M21 326h388v12h-366l-17 17h-6v160h465c15.333 0 30.333 -5 45 -15s26.334 -22.333 35.001 -37h1c8.66699 -8.66699 15.667 -18.167 21 -28.5s8 -21.166 8 -32.499v-89c14.667 -9.33301 26.334 -19.333 35.001 -30l8 -8c8.66699 -8.66699 15.5 -18.5 20.5 -29.5
s7.5 -22.167 7.5 -33.5v-150c0 -11.333 -2.66699 -22.333 -8 -33s-12.333 -20.334 -21 -29.001s-18.334 -15.667 -29.001 -21s-21.334 -8 -32.001 -8h-533l-17 17h-6v160h460v12h-436l-17 17h-6v149zM423 312h-387.998v-121h458v-56h-459v-133h522
c9.33301 0 18.666 2.33301 27.999 7s17.833 10.667 25.5 18s13.834 15.833 18.501 25.5s7 19.5 7 29.5v150c0 8.66699 -2 17.5 -6 26.5s-9.33301 17.167 -16 24.5s-14.334 13.5 -23.001 18.5s-17.334 8.16699 -26.001 9.5v110c0 10 -2.33301 19.833 -7 29.5
s-10.834 18.167 -18.501 25.5s-16.167 13.333 -25.5 18s-18.666 7 -27.999 7h-451v-132h389v-57z" />
    <glyph glyph-name="four" unicode="4" horiz-adv-x="698" 
d="M175 501v-189h319v189h142v-499h-142v189h-381c-9.33301 0 -18.833 2.33301 -28.5 7s-18.167 10.667 -25.5 18s-13.333 15.833 -18 25.5s-7 19.5 -7 29.5v230h141zM189 509l0.00195312 5.99805h-169v-244c0 -15.333 4.66699 -30.166 14 -44.499
s20.666 -26.166 33.999 -35.499l4 -3c8.66699 -8.66699 18.167 -15.5 28.5 -20.5s21.166 -7.5 32.499 -7.5h348v-172h5l17 -17h164v521l-17 17v6h-169v-189h-275v166z" />
    <glyph glyph-name="five" unicode="5" horiz-adv-x="703" 
d="M499 135v56h-465v310h607v-132h-466v-57h387c9.33301 0 18.666 -2.33301 27.999 -7s17.833 -10.667 25.5 -18s13.834 -15.833 18.501 -25.5s7 -19.5 7 -29.5v-150c0 -10 -2.33301 -19.833 -7 -29.5s-10.834 -18.167 -18.501 -25.5s-16.167 -13.333 -25.5 -18
s-18.666 -7 -27.999 -7h-528v133h465zM20 148l-0.000976562 -160.002h6l17 -17h539c10.667 0 21.334 2.66699 32.001 8s20.334 12.333 29.001 21s15.667 18.334 21 29.001s8 21.667 8 33v150c0 11.333 -2.66699 22.333 -8 33s-12.333 20.334 -21 29.001h-1
c-8.66699 14.667 -20.334 27 -35.001 37s-29.667 15 -45 15h-356v12h466v154l-17 17v6h-635v-338h6l17 -17h443v-12h-466z" />
    <glyph glyph-name="six" unicode="6" horiz-adv-x="703" 
d="M206 148v12h280v-12h-280zM499 135v56h-324v-56h324zM641 369h-466v-57h387c9.33301 0 18.666 -2.33301 27.999 -7s17.833 -10.667 25.5 -18s13.834 -15.833 18.501 -25.5s7 -19.5 7 -29.5v-150c0 -10 -1.83301 -19.833 -5.5 -29.5s-8.5 -18.167 -14.5 -25.5
s-13.167 -13.333 -21.5 -18s-16.833 -7 -25.5 -7h-461c-9.33301 0 -18.833 2.33301 -28.5 7s-18.167 10.667 -25.5 18s-13.333 15.833 -18 25.5s-7 19.5 -7 29.5v339c0 10 2.33301 19.833 7 29.5s10.667 18.167 18 25.5s15.833 13.333 25.5 18s19.167 7 28.5 7h528v-132z
M68 2l4.00195 -3.00391c8.66699 -8.66699 18.167 -15.5 28.5 -20.5s21.166 -7.5 32.499 -7.5h461c10.667 0 20.834 2.66699 30.501 8s18 12.333 25 21s12.5 18.334 16.5 29.001s6 21.667 6 33v150c0 11.333 -2.66699 22.333 -8 33s-12.333 20.334 -21 29.001h-1
c-8.66699 14.667 -20.334 27 -35.001 37s-29.667 15 -45 15h-356v12h466v154l-17 17v6h-542c-10.667 0 -21.5 -2.83301 -32.5 -8.5s-21 -13 -30 -22s-16.333 -19.167 -22 -30.5s-8.5 -22.333 -8.5 -33v-339c0 -15.333 4.66699 -30.166 14 -44.499
s20.666 -26.166 33.999 -35.499z" />
    <glyph glyph-name="FL0037h" unicode="7" horiz-adv-x="648" 
d="M57 -12l279.001 350.001h-293l-17 17h-6v160h580v-6l17 -17v-81c0 -2.66699 -1 -7.33398 -3 -14.001s-4.5 -14 -7.5 -22s-6.33301 -16 -10 -24s-6.83398 -14 -9.50098 -18l-292 -362h-210l-17 17h-11zM381.001 369.001l-294.001 -366.999h181l288 357
c2.66699 4 5.83398 9.66699 9.50098 17s7 14.666 10 21.999s5.5 14 7.5 20s3 10.333 3 13v70h-552v-132h347z" />
    <glyph glyph-name="FL0038h" unicode="8" horiz-adv-x="713" 
d="M20 232c0 10.667 2.3291 21.334 6.99609 32.001s10.834 20.334 18.501 29.001s16.5 16 26.5 22s20.333 9.66699 31 11h322v12h-311l-17 17h-6v66c0 10.667 2.83301 21.667 8.5 33s13 21.5 22 30.5s18.833 16.333 29.5 22s21.334 8.5 32.001 8.5h318
c15.333 0 30.333 -5 45 -15s26.334 -22.333 35.001 -37h1c8.66699 -8.66699 15.667 -18.167 21 -28.5s8 -21.166 8 -32.499v-89c14.667 -9.33301 26.334 -19.333 35.001 -30l8 -8c8.66699 -8.66699 15.5 -18.5 20.5 -29.5s7.5 -22.167 7.5 -33.5v-150
c0 -11.333 -2.66699 -22.333 -8 -33s-12.333 -20.334 -21 -29.001s-18.334 -15.667 -29.001 -21s-21.334 -8 -32.001 -8h-459c-11.333 0 -22.166 2.5 -32.499 7.5s-19.833 11.833 -28.5 20.5l-4 3c-13.333 9.33301 -24.666 21.166 -33.999 35.499s-14 29.166 -14 44.499v150
zM438.996 369v-57h-335c-8.66699 -1.33301 -17.167 -4.5 -25.5 -9.5s-15.833 -11.333 -22.5 -19s-12 -16 -16 -25s-6 -17.833 -6 -26.5v-150c0 -10 2.33301 -19.833 7 -29.5s10.667 -18.167 18 -25.5s15.833 -13.333 25.5 -18s19.167 -7 28.5 -7h459
c9.33301 0 18.666 2.33301 27.999 7s17.833 10.667 25.5 18s13.834 15.833 18.501 25.5s7 19.5 7 29.5v150c0 8.66699 -2 17.5 -6 26.5s-9.33301 17.167 -16 24.5s-14.334 13.5 -23.001 18.5s-17.334 8.16699 -26.001 9.5v110c0 10 -2.33301 19.833 -7 29.5
s-10.834 18.167 -18.501 25.5s-16.167 13.333 -25.5 18s-18.666 7 -27.999 7h-318c-9.33301 0 -18.666 -2.33301 -27.999 -7s-17.666 -10.667 -24.999 -18s-13.333 -15.833 -18 -25.5s-7 -19.5 -7 -29.5v-52h334zM174.996 135v56h334v-56h-334zM205.996 160v-12h290v12h-290
z" />
    <glyph glyph-name="nine" unicode="9" horiz-adv-x="703" 
d="M206 326v12h280v-12h-280zM175 369v-57h324v57h-324zM34 135h465v56h-386c-9.33301 0 -18.833 2.33301 -28.5 7s-18.167 10.667 -25.5 18s-13.333 15.833 -18 25.5s-7 19.5 -7 29.5v150c0 10 1.83301 19.833 5.5 29.5s8.5 18.167 14.5 25.5s13 13.333 21 18
s16.667 7 26 7h461c9.33301 0 18.666 -2.33301 27.999 -7s17.833 -10.667 25.5 -18s13.834 -15.833 18.501 -25.5s7 -19.5 7 -29.5v-339c0 -10 -2.33301 -19.833 -7 -29.5s-10.834 -18.167 -18.501 -25.5s-16.167 -13.333 -25.5 -18s-18.666 -7 -27.999 -7h-528v133z
M486 148l-466 -0.00195312v-160h6l17 -17h539c10.667 0 21.334 2.66699 32.001 8s20.334 12.333 29.001 21s15.667 18.334 21 29.001s8 21.667 8 33v340c0 11.333 -2.66699 22.166 -8 32.499s-12.333 19.833 -21 28.5h-1c-8.66699 14.667 -20.334 27 -35.001 37
s-29.667 15 -45 15h-461c-11.333 0 -21.833 -2.83301 -31.5 -8.5s-18.167 -13 -25.5 -22s-13.166 -19.167 -17.499 -30.5s-6.5 -22.333 -6.5 -33v-150c0 -15.333 4.66699 -30.166 14 -44.499s20.666 -26.166 33.999 -35.499l4 -3c8.66699 -8.66699 18.167 -15.5 28.5 -20.5
s21.166 -7.5 32.499 -7.5h353v-12z" />
    <glyph glyph-name="FL003Ah" unicode=":" horiz-adv-x="236" 
d="M43 -29l-17 17h-6v160h168v-6l17 -17v-154h-162zM43 229l-17 17h-6v160h168v-6l17 -17v-154h-162zM34 134v-132h140v132h-140zM34 392v-132h140v132h-140z" />
    <glyph glyph-name="FL003Bh" unicode=";" horiz-adv-x="236" 
d="M34 260v132h140v-132h-140zM85 -71h-51v205h140v-127c0 -8 -3 -16.5 -9 -25.5s-13.5 -17.333 -22.5 -25s-18.667 -14.167 -29 -19.5s-19.833 -8 -28.5 -8zM26 246l17 -17h162v154l-17 17v6h-168v-160h6zM188 148h-168v-233h6l17 -17h62c9.33301 0 19.833 3 31.5 9
s22.5 13.5 32.5 22.5s18.5 18.667 25.5 29s10.5 19.833 10.5 28.5v139l-17 16v6z" />
    <glyph glyph-name="FL003Ch" unicode="&#x3c;" horiz-adv-x="462" 
d="M25 251l216 250h175l-216 -250l216 -249h-175zM5 251l229 -263h4l17 -17h207l-15 17h1l-212 244l225 259l-18 18l5 6h-214z" />
    <glyph glyph-name="FL003Dh" unicode="=" horiz-adv-x="443" 
d="M20 414h375v-6l17 -17v-142h-369l-17 16h-6v149zM20 237h375v-6l17 -17v-142h-369l-17 16h-6v149zM34 223v-121h347v121h-347zM34 400v-121h347v121h-347z" />
    <glyph glyph-name="FL003Eh" unicode="&#x3e;" horiz-adv-x="462" 
d="M429 251l-1 -1l17 -19l-226 -260h-205l-17 17h-11l228 263l-228 264h214zM193 2l216 249l-216 250h-176l217 -250l-217 -249h176z" />
    <glyph glyph-name="FL003Fh" unicode="?" horiz-adv-x="698" 
d="M64 177l0.000976562 55c0 10.667 2.83301 21.667 8.5 33s13 21.5 22 30.5s19 16.333 30 22s21.833 8.5 32.5 8.5h324v12h-438l-17 17h-6v160h537c15.333 0 30.333 -5 45 -15s26.334 -22.333 35.001 -37h1c8.66699 -8.66699 15.667 -18.167 21 -28.5s8 -21.166 8 -32.499
v-151c0 -11.333 -2.66699 -22.333 -8 -33s-12.333 -20.334 -21 -29.001s-18.334 -15.667 -29.001 -21s-21.334 -8 -32.001 -8h-490l-17 17h-6zM78.001 232v-41h479c9.33301 0 18.666 2.33301 27.999 7s17.833 10.667 25.5 18s13.834 15.833 18.501 25.5s7 19.5 7 29.5v150
c0 10 -2.33301 19.833 -7 29.5s-10.834 18.167 -18.501 25.5s-16.167 13.333 -25.5 18s-18.666 7 -27.999 7h-523v-132h460v-57h-337c-9.33301 0 -18.833 -2.33301 -28.5 -7s-18.167 -10.667 -25.5 -18s-13.333 -15.833 -18 -25.5s-7 -19.5 -7 -29.5zM87.001 -29l-17 17h-6
v160h169v-6l17 -16v-155h-163zM78.001 135v-133h141v133h-141z" />
    <glyph glyph-name="FL0040h" unicode="@" horiz-adv-x="802" 
d="M771 188c0 -18.667 -6.83594 -36.168 -20.5029 -52.501s-29.167 -27.5 -46.5 -33.5h26v-6l17 -17v-155h-614c-11.333 0 -22.166 2.5 -32.499 7.5s-19.833 11.833 -28.5 20.5l-4 4c-13.333 8.66699 -24.666 20.167 -33.999 34.5s-14 29.166 -14 44.499v434
c0 10.667 2.83301 21.667 8.5 33s13 21.333 22 30s19 15.834 30 21.501s21.833 8.5 32.5 8.5h548c15.333 0 30.333 -5 45 -15s26.334 -22.333 35.001 -37h1c8.66699 -8.66699 15.667 -18.167 21 -28.5s8 -21.166 8 -32.499v-261zM553.997 225.999l-0.00195312 109.001
c0 8 -4.5 16.5 -13.5 25.5s-17.5 13.5 -25.5 13.5h-256c-8 0 -16.5 -4.5 -25.5 -13.5s-13.5 -17.5 -13.5 -25.5v-168c0 -4 1.33301 -8.16699 4 -12.5s5.83398 -8.33301 9.50098 -12s7.83398 -6.83398 12.501 -9.50098s9 -4 13 -4h402c9.33301 0 18.666 2.16699 27.999 6.5
s17.833 10.333 25.5 18s13.834 16.167 18.501 25.5s7 19 7 29v261c0 10 -2.33301 19.667 -7 29s-10.834 17.666 -18.501 24.999s-16.167 13.333 -25.5 18s-18.666 7 -27.999 7h-548c-9.33301 0 -18.833 -2.33301 -28.5 -7s-18.167 -10.667 -25.5 -18
s-13.333 -15.666 -18 -24.999s-7 -19 -7 -29v-434c0 -10 2.33301 -19.833 7 -29.5s10.667 -18.167 18 -25.5s15.833 -13.333 25.5 -18s19.167 -7 28.5 -7h603v133h-540v328h422v-190h-44zM456.995 276v-50h-140v50h140zM583.995 315v70h-57
c15.333 -7.33301 27.333 -18 36 -32l4 -5c11.333 -11.333 17 -22.333 17 -33zM245.995 115l-5 5h1c-9.33301 4 -17.5 10.5 -24.5 19.5s-10.833 17.167 -11.5 24.5v-62h57c-3.33301 1.33301 -6.5 3 -9.5 5s-5.5 4.66699 -7.5 8zM205.995 338c1.33301 8.66699 6 17.667 14 27
s16.667 16 26 20h-40v-47zM347.995 245v-5h95v5h-95z" />
    <glyph glyph-name="A" unicode="A" horiz-adv-x="705" 
d="M398 217l65.999 79.001l4 4c3.33301 3.33301 6.83301 6.66602 10.5 9.99902s6.83398 6 9.50098 8v-101h-90zM501.999 203.001v132.001c0 4 -2 8.16699 -6 12.5s-9.66699 6.5 -17 6.5c-8 0 -15.833 -3.33301 -23.5 -10s-14.5 -13.334 -20.5 -20.001l-100 -121h167z
M642.999 389.002l-0.00195312 -386.999h-141v83h-254l-66 -83h-165l348 463c15.333 13.333 36.5 22.666 63.5 27.999s53.5 8 79.5 8c20 0 38.333 -1.83301 55 -5.5s30.834 -9.83398 42.501 -18.501s20.834 -20.167 27.501 -34.5s10 -32.166 10 -53.499z
M-0.00292969 -11.9971l16.999 -16.999h192l65 83h214v-66h6l17 -17h163v398c0 20.667 -2.66699 38.167 -8 52.5s-12.666 26.166 -21.999 35.499l-3 3c-12 20.667 -29.167 35 -51.5 43s-49.5 12 -81.5 12c-28.667 0 -57 -2.66699 -85 -8s-50.333 -15.333 -67 -30l-366 -489
h10z" />
    <glyph glyph-name="B" unicode="B" horiz-adv-x="708" 
d="M206 148v12h285v-12h-285zM504 135v56h-329v-56h329zM34 312h399.998v57h-400v132h462c9.33301 0 18.666 -2.33301 27.999 -7s17.833 -10.667 25.5 -18s13.834 -15.833 18.501 -25.5s7 -19.5 7 -29.5v-110c8.66699 -1.33301 17.334 -4.5 26.001 -9.5
s16.334 -11.167 23.001 -18.5s12 -15.5 16 -24.5s6 -17.833 6 -26.5v-150c0 -10 -2.33301 -19.833 -7 -29.5s-10.834 -18.167 -18.501 -25.5s-16.167 -13.333 -25.5 -18s-18.666 -7 -27.999 -7h-533v310zM419.998 326h-400v-338h6l17 -17h544
c10.667 0 21.334 2.66699 32.001 8s20.334 12.333 29.001 21s15.667 18.334 21 29.001s8 21.667 8 33v150c0 11.333 -2.5 22.5 -7.5 33.5s-11.833 20.833 -20.5 29.5l-8 8c-8.66699 10.667 -20.334 20.667 -35.001 30v89c0 11.333 -2.66699 22.166 -8 32.499
s-12.333 19.833 -21 28.5h-1c-8.66699 14.667 -20.334 27 -35.001 37s-29.667 15 -45 15h-476v-160h6l17 -17h377v-12z" />
    <glyph glyph-name="C" unicode="C" horiz-adv-x="656" 
d="M594 2h-481c-9.33301 0 -18.833 2.33301 -28.5 7s-18.167 10.667 -25.5 18s-13.333 15.833 -18 25.5s-7 19.5 -7 29.5v339c0 10 2.33301 19.833 7 29.5s10.667 18.167 18 25.5s15.833 13.333 25.5 18s19.167 7 28.5 7h481v-132h-419v-234h419v-133zM206 338
l419.002 -0.00195312v154l-17 17v6h-495c-10.667 0 -21.5 -2.83301 -32.5 -8.5s-21 -13 -30 -22s-16.333 -19.167 -22 -30.5s-8.5 -22.333 -8.5 -33v-339c0 -15.333 4.66699 -30.166 14 -44.499s20.666 -26.166 33.999 -35.499l4 -3
c8.66699 -8.66699 18.167 -15.5 28.5 -20.5s21.166 -7.5 32.499 -7.5h492v155l-17 16v6h-402v190z" />
    <glyph glyph-name="D" unicode="D" horiz-adv-x="713" 
d="M175 135h334v234h-475v132h538c9.33301 0 18.666 -2.33301 27.999 -7s17.833 -10.667 25.5 -18s13.834 -15.833 18.501 -25.5s7 -19.5 7 -29.5v-339c0 -10 -2.33301 -19.833 -7 -29.5s-10.834 -18.167 -18.501 -25.5s-16.167 -13.333 -25.5 -18s-18.666 -7 -27.999 -7
h-538v310h141v-177zM26 355l16.999 -17h453v-190h-290v155l-17 17v6h-169v-338h6l17 -17h549c10.667 0 21.334 2.66699 32.001 8s20.334 12.333 29.001 21s15.667 18.334 21 29.001s8 21.667 8 33v340c0 11.333 -2.66699 22.166 -8 32.499s-12.333 19.833 -21 28.5h-1
c-8.66699 14.667 -20.334 27 -35.001 37s-29.667 15 -45 15h-552v-160h6z" />
    <glyph glyph-name="FL0045h" unicode="E" horiz-adv-x="709" 
d="M218 177l-0.000976562 149.002h274v12h-286v-190h455v-6l17 -16v-155h-545c-11.333 0 -22.166 2.5 -32.499 7.5s-19.833 11.833 -28.5 20.5l-4 3c-13.333 9.33301 -24.666 21.166 -33.999 35.499s-14 29.166 -14 44.499v339c0 10.667 2.83301 21.667 8.5 33
s13 21.5 22 30.5s19 16.333 30 22s21.833 8.5 32.5 8.5h455c15.333 0 30.333 -5 45 -15s26.334 -22.333 35.001 -37h1c8.66699 -8.66699 15.667 -18.167 21 -28.5s8 -21.166 8 -32.499v-151c0 -11.333 -2.66699 -22.333 -8 -33s-12.333 -20.334 -21 -29.001
s-18.334 -15.667 -29.001 -21s-21.334 -8 -32.001 -8h-347l-17 17h-6zM504.999 369.002v-57h-273v-121h336c9.33301 0 18.666 2.33301 27.999 7s17.833 10.667 25.5 18s13.834 15.833 18.501 25.5s7 19.5 7 29.5v150c0 10 -2.33301 19.833 -7 29.5
s-10.834 18.167 -18.501 25.5s-16.167 13.333 -25.5 18s-18.666 7 -27.999 7h-455c-9.33301 0 -18.833 -2.33301 -28.5 -7s-18.167 -10.667 -25.5 -18s-13.333 -15.833 -18 -25.5s-7 -19.5 -7 -29.5v-339c0 -10 2.33301 -19.833 7 -29.5s10.667 -18.167 18 -25.5
s15.833 -13.333 25.5 -18s19.167 -7 28.5 -7h534v133h-472v234h330z" />
    <glyph glyph-name="F" unicode="F" horiz-adv-x="656" 
d="M34 2v419c0 10 2.33301 19.833 7 29.5s10.667 18.167 18 25.5s15.833 13.333 25.5 18s19.167 7 28.5 7h481v-132h-419v-57h418v-121h-418v-189h-141zM206 338h419v154l-17 17v6h-495c-10.667 0 -21.5 -2.83301 -32.5 -8.5s-21 -13 -30 -22s-16.333 -19.167 -22 -30.5
s-8.5 -22.333 -8.5 -33v-433h6l17 -17h163v189h418v143l-17 17v6h-401v12z" />
    <glyph glyph-name="G" unicode="G" 
d="M511 135v56h-241v121h304c9.33301 0 18.666 -2.33301 27.999 -7s17.833 -10.667 25.5 -18s13.834 -15.833 18.501 -25.5s7 -19.5 7 -29.5v-150c0 -10 -2.33301 -19.833 -7 -29.5s-10.834 -18.167 -18.501 -25.5s-16.167 -13.333 -25.5 -18s-18.666 -7 -27.999 -7h-461
c-9.33301 0 -18.833 2.33301 -28.5 7s-18.167 10.667 -25.5 18s-13.333 15.833 -18 25.5s-7 19.5 -7 29.5v339c0 10 2.33301 19.833 7 29.5s10.667 18.167 18 25.5s15.833 13.333 25.5 18s19.167 7 28.5 7h540v-132h-478v-234h336zM68 2l4.00098 -3.00391
c8.66699 -8.66699 18.167 -15.5 28.5 -20.5s21.166 -7.5 32.499 -7.5h461c10.667 0 21.334 2.66699 32.001 8s20.334 12.333 29.001 21s15.667 18.334 21 29.001s8 21.667 8 33v150c0 11.333 -2.66699 22.333 -8 33s-12.333 20.334 -21 29.001h-1
c-8.66699 14.667 -20.334 27 -35.001 37s-29.667 15 -45 15h-318v-149h6l17 -17h219v-12h-292v190h478v154l-17 17v6h-554c-10.667 0 -21.5 -2.83301 -32.5 -8.5s-21 -13 -30 -22s-16.333 -19.167 -22 -30.5s-8.5 -22.333 -8.5 -33v-339
c0 -15.333 4.66699 -30.166 14 -44.499s20.666 -26.166 33.999 -35.499z" />
    <glyph glyph-name="H" unicode="H" horiz-adv-x="703" 
d="M175 312h324v189h142v-499h-142v189h-324v-189h-141v499h141v-189zM189 515h-169v-527h6l17 -17h163v189h280v-172h5l17 -17h164v521l-17 17v6h-169v-189h-280v166l-17 17v6z" />
    <glyph glyph-name="I" unicode="I" horiz-adv-x="237" 
d="M34 369v132h141v-132h-141zM189 515h-169v-160h6l17 -17h163v154l-17 17v6zM34 2v308h141v-308h-141zM26 -12l17 -17h163v330l-17 17v6h-169v-336h6z" />
    <glyph glyph-name="J" unicode="J" horiz-adv-x="656" 
d="M515 2h-481v133h419v366h141v-419c0 -10 -2.33301 -19.833 -7 -29.5s-10.834 -18.167 -18.501 -25.5s-16.167 -13.333 -25.5 -18s-18.666 -7 -27.999 -7zM20 148l-0.00195312 -160.001h6l17 -17h492c10.667 0 21.334 2.66699 32.001 8s20.334 12.333 29.001 21
s15.667 18.334 21 29.001s8 21.667 8 33v430l-17 17v6h-169v-367h-419z" />
    <glyph glyph-name="K" unicode="K" horiz-adv-x="700" 
d="M176 312h138l166 190h174l-216 -251l389 -448h-174l-339 388h-138v-189h-142v500h142v-190zM190 516h-170v-528h6l17 -17h164v190h114l325 -372h4l17 -17h206l-15 17h1l-385 443l225 260l-18 18l5 6h-213l-167 -190h-99v167l-17 17v6z" />
    <glyph glyph-name="L" unicode="L" horiz-adv-x="656" 
d="M189 515l-0.00195312 -5.99805l17 -17v-344h402v-6l17 -16v-155h-492c-11.333 0 -22.166 2.5 -32.499 7.5s-19.833 11.833 -28.5 20.5l-4 3c-13.333 9.33301 -24.666 21.166 -33.999 35.499s-14 29.166 -14 44.499v433h169zM174.998 135.002v366h-141v-419
c0 -10 2.33301 -19.833 7 -29.5s10.667 -18.167 18 -25.5s15.833 -13.333 25.5 -18s19.167 -7 28.5 -7h481v133h-419z" />
    <glyph glyph-name="FL004Dh" unicode="M" horiz-adv-x="840" 
d="M34 2v437.002c0 7.33301 2.16699 14.666 6.5 21.999s10.166 14 17.499 20s15.833 10.833 25.5 14.5s20.167 5.5 31.5 5.5h39c17.333 -2.66699 34.333 -9.33398 51 -20.001s30 -24.334 40 -41.001l161 -265l161 265c10 16.667 23.333 30.334 40 41.001
s33.667 17.334 51 20.001h39c10.667 0 21 -1.83301 31 -5.5s18.667 -8.5 26 -14.5s13.166 -12.667 17.499 -20s6.5 -14.666 6.5 -21.999v-437h-142v279h-2c-30.667 -54 -60.167 -102 -88.5 -144s-49.833 -73 -64.5 -93c-13.333 -18.667 -25.666 -30.334 -36.999 -35.001
s-20.333 -7 -27 -7h-22c-10 0 -19.833 2.33301 -29.5 7s-21.167 16.334 -34.5 35.001c-7.33301 10 -16.666 22.833 -27.999 38.5s-23.833 33.667 -37.5 54s-28 42.666 -43 66.999s-29.833 50.166 -44.5 77.499h-2v-279h-142zM320 35.002c7.33301 -10 14.167 -18 20.5 -24
s12.166 -10.667 17.499 -14l3 -3c10 -10 19.167 -16.333 27.5 -19s17.166 -4 26.499 -4h22c7.33301 0 17.5 2.66699 30.5 8s27.167 18 42.5 38l6 8c11.333 16 26.5 37.333 45.5 64s39.167 58 60.5 94v-195h6l17 -17h164v448c0 15.333 -7 30 -21 44l-4 3v-1
c-7.33301 13.333 -18.833 25 -34.5 35s-33.167 15 -52.5 15h-40c-21.333 -2.66699 -41.166 -10 -59.499 -22s-32.833 -26.667 -43.5 -44l-147 -241l-132 219c-5.33301 8.66699 -11 16 -17 22c-10.667 17.333 -25.167 32 -43.5 44s-38.166 19.333 -59.499 22h-40
c-13.333 0 -25.833 -2.33301 -37.5 -7s-21.667 -10.667 -30 -18s-15 -15.5 -20 -24.5s-7.5 -17.833 -7.5 -26.5v-451h6l17 -17h163v231c23.333 -38 45.333 -71.5 66 -100.5s36.667 -51.167 48 -66.5z" />
    <glyph glyph-name="N" unicode="N" 
d="M142 515c4 0 7.33203 -0.663086 9.99902 -1.99609h-1c11.333 -2 24.5 -7.66699 39.5 -17s33 -22.833 54 -40.5s45.833 -39.834 74.5 -66.501s62.334 -58.334 101.001 -95.001c4.66699 -4 9.16699 -8.16699 13.5 -12.5s9.16602 -8.83301 14.499 -13.5
c4.66699 -4.66699 9 -9.16699 13 -13.5s8.66699 -8.83301 14 -13.5c6.66699 -8 14.334 -15.667 23.001 -23v297h169v-6l17 -17v-448c0 -8.66699 -2.33301 -17.334 -7 -26.001s-11.167 -16.5 -19.5 -23.5s-18 -12.667 -29 -17s-22.833 -6.5 -35.5 -6.5h-28
c-4 0 -7.33301 0.666992 -10 2h1c-20 4 -50 23 -90 57c-28 21.333 -62.833 51.166 -104.5 89.499s-93.5 87.5 -155.5 147.5v-296h-163l-17 17h-6v451c0 8.66699 2.5 17.5 7.5 26.5s11.667 17.167 20 24.5s18.333 13.333 30 18s24.167 7 37.5 7h27zM147.999 500.004
l-1 -0.00488281c-0.666992 0.666992 -2.33398 1 -5.00098 1h-27c-11.333 0 -21.833 -1.83301 -31.5 -5.5s-18.167 -8.5 -25.5 -14.5s-13.166 -12.667 -17.499 -20s-6.5 -14.666 -6.5 -21.999v-437h141v316c56 -54 104.667 -100.667 146 -140s76.5 -71.666 105.5 -96.999
s52.667 -44.333 71 -57s32.833 -19.667 43.5 -21c0.666992 -0.666992 2 -1 4 -1h28c10.667 0 20.834 1.83301 30.501 5.5s18.167 8.33398 25.5 14.001s13.166 12.167 17.499 19.5s6.5 15 6.5 23v437h-142v-315c-18 17.333 -35.5 34.333 -52.5 51s-33.167 32 -48.5 46
c-40 37.333 -74.333 69.333 -103 96s-53.334 48.834 -74.001 66.501s-37.667 30.834 -51 39.501s-24.666 13.667 -33.999 15z" />
    <glyph glyph-name="O" unicode="O" 
d="M206 148v190h292v-190h-292zM511 135v234h-336v-234h336zM113 501h461c9.33301 0 18.666 -2.33301 27.999 -7s17.833 -10.667 25.5 -18s13.834 -15.833 18.501 -25.5s7 -19.5 7 -29.5v-339c0 -10 -2.33301 -19.833 -7 -29.5s-10.834 -18.167 -18.501 -25.5
s-16.167 -13.333 -25.5 -18s-18.666 -7 -27.999 -7h-461c-9.33301 0 -18.833 2.33301 -28.5 7s-18.167 10.667 -25.5 18s-13.333 15.833 -18 25.5s-7 19.5 -7 29.5v339c0 10 2.33301 19.833 7 29.5s10.667 18.167 18 25.5s15.833 13.333 25.5 18s19.167 7 28.5 7zM574 515
l-460.999 -0.00195312c-10.667 0 -21.5 -2.83301 -32.5 -8.5s-21 -13 -30 -22s-16.333 -19.167 -22 -30.5s-8.5 -22.333 -8.5 -33v-339c0 -15.333 4.66699 -30.166 14 -44.499s20.666 -26.166 33.999 -35.499l4 -3c8.66699 -8.66699 18.167 -15.5 28.5 -20.5
s21.166 -7.5 32.499 -7.5h461c10.667 0 21.334 2.66699 32.001 8s20.334 12.333 29.001 21s15.667 18.334 21 29.001s8 21.667 8 33v340c0 11.333 -2.66699 22.166 -8 32.499s-12.333 19.833 -21 28.5h-1c-8.66699 14.667 -20.334 27 -35.001 37s-29.667 15 -45 15z" />
    <glyph glyph-name="P" unicode="P" horiz-adv-x="676" 
d="M34 310h438v59h-438v132h501c9.33301 0 18.666 -2.33301 27.999 -7s17.833 -10.667 25.5 -18s13.834 -15.833 18.501 -25.5s7 -19.5 7 -29.5v-152c0 -10 -2.33301 -19.833 -7 -29.5s-10.834 -18.167 -18.501 -25.5s-16.167 -13.333 -25.5 -18s-18.666 -7 -27.999 -7h-360
v-187h-141v308zM20 324l-0.000976562 -336h6l17 -17h163v187h349c10.667 0 21.334 2.66699 32.001 8s20.334 12.333 29.001 21s15.667 18.334 21 29.001s8 21.667 8 33v153c0 11.333 -2.66699 22.166 -8 32.499s-12.333 19.833 -21 28.5h-1
c-8.66699 14.667 -20.334 27 -35.001 37s-29.667 15 -45 15h-515v-160h6l17 -17h416v-14h-439z" />
    <glyph glyph-name="Q" unicode="Q" 
d="M426 260h-192l71 -111h-99v189h292v-183l-54 82l-9 8zM417 246l73 -111h22v234h-336v-234h157l-72 111h156zM113 502l461 -0.00195312c9.33301 0 18.666 -2.33301 27.999 -7s17.833 -10.667 25.5 -18s13.834 -15.833 18.501 -25.5s7 -19.5 7 -29.5v-340
c0 -9.33301 -2.33301 -18.666 -7 -27.999s-10.5 -17.666 -17.5 -24.999s-15.167 -13.5 -24.5 -18.5s-18.333 -7.83301 -27 -8.5l128 -199h-156l-129 199h-307c-9.33301 0 -18.833 2.33301 -28.5 7s-18.167 10.667 -25.5 18s-13.333 15.833 -18 25.5s-7 19.5 -7 29.5v340
c0 10 2.33301 19.833 7 29.5s10.667 18.167 18 25.5s15.833 13.333 25.5 18s19.167 7 28.5 7zM574 515.998l-460.997 -0.00488281c-10.667 0 -21.5 -2.83301 -32.5 -8.5s-21 -13 -30 -22s-16.333 -19.167 -22 -30.5s-8.5 -22.333 -8.5 -33v-340
c0 -15.333 4.66699 -30.166 14 -44.499s20.666 -26.166 33.999 -35.499l4 -3c8.66699 -8.66699 18.167 -15.5 28.5 -20.5s21.166 -7.5 32.499 -7.5h288l120 -182h4l17 -17h185l-131 203c8.66699 2.66699 17 6.83398 25 12.501s15.167 12.334 21.5 20.001
s11.5 16.167 15.5 25.5s6 19 6 29v340c0 11.333 -2.66699 22.333 -8 33s-12.333 20.334 -21 29.001h-1c-8.66699 14.667 -20.334 27 -35.001 37s-29.667 15 -45 15z" />
    <glyph glyph-name="R" unicode="R" horiz-adv-x="675" 
d="M34 312h439v57h-439v133h502c9.33301 0 18.666 -2.33301 27.999 -7s17.666 -10.667 24.999 -18s13.333 -15.833 18 -25.5s7 -19.5 7 -29.5v-151c0 -10 -2.33301 -19.833 -7 -29.5s-10.667 -18.167 -18 -25.5s-15.666 -13.333 -24.999 -18s-18.666 -7 -27.999 -7h-43
l281 -388h-158l-292 388h-148v-189h-142v310zM20 326l-0.00195312 -338h6l17 -17h163v190h123l280 -372h4l17 -17h186l-282 389h22c10 0 20.333 2.66699 31 8s20.334 12.166 29.001 20.499s15.667 17.833 21 28.5s8 21.667 8 33v151c0 11.333 -2.66699 22.333 -8 33
s-12.333 20.334 -21 29.001h-1c-8.66699 14.667 -20.167 27 -34.5 37s-29.166 15 -44.499 15h-516v-161h6l17 -17h416v-12h-439z" />
    <glyph glyph-name="S" unicode="S" horiz-adv-x="760" 
d="M556 135v56h-386c-9.33301 0 -18.833 2.33301 -28.5 7s-18.167 10.667 -25.5 18s-13.333 15.833 -18 25.5s-7 19.5 -7 29.5v150c0 10 2.33301 19.833 7 29.5s10.667 18.167 18 25.5s15.833 13.333 25.5 18s19.167 7 28.5 7h528v-132h-466v-57h387
c9.33301 0 18.666 -2.33301 27.999 -7s17.833 -10.667 25.5 -18s13.834 -15.833 18.501 -25.5s7 -19.5 7 -29.5v-150c0 -10 -2.33301 -19.833 -7 -29.5s-10.834 -18.167 -18.501 -25.5s-16.167 -13.333 -25.5 -18s-18.666 -7 -27.999 -7h-585v133h522zM20 148v-160.004h6
l17 -17h596c10.667 0 21.334 2.66699 32.001 8s20.334 12.333 29.001 21s15.667 18.334 21 29.001s8 21.667 8 33v150c0 11.333 -2.66699 22.333 -8 33s-12.333 20.334 -21 29.001h-1c-8.66699 14.667 -20.334 27 -35.001 37s-29.667 15 -45 15h-356v12h466v154l-17 17v6
h-542c-10.667 0 -21.5 -2.83301 -32.5 -8.5s-21 -13 -30 -22s-16.333 -19.167 -22 -30.5s-8.5 -22.333 -8.5 -33v-150c0 -15.333 4.66699 -30.166 14 -44.499s20.666 -26.166 33.999 -35.499l4 -3c8.66699 -8.66699 18.167 -15.5 28.5 -20.5s20.833 -7.5 31.5 -7.5h353v-12
h-522z" />
    <glyph glyph-name="T" unicode="T" horiz-adv-x="696" 
d="M405 369v-367h-142v367h-229v132h600v-132h-229zM26 355l17 -17h206v-350h6l17 -17h164v367h229v154l-17 17v6h-628v-160h6z" />
    <glyph glyph-name="U" unicode="U" horiz-adv-x="713" 
d="M175 501v-366h334v366h142v-499h-538c-9.33301 0 -18.833 2.33301 -28.5 7s-18.167 10.667 -25.5 18s-13.333 15.833 -18 25.5s-7 19.5 -7 29.5v419h141zM189 509l0.00195312 5.99805h-169v-433c0 -15.333 4.66699 -30.166 14 -44.499s20.666 -26.166 33.999 -35.499
l4 -3c8.66699 -8.66699 18.167 -15.5 28.5 -20.5s21.166 -7.5 32.499 -7.5h549v521l-17 17v6h-169v-367h-290v344z" />
    <glyph glyph-name="V" unicode="V" horiz-adv-x="701" 
d="M639 501l0.00195312 -386.998c0 -23.333 -3.33301 -42.333 -10 -57s-15.834 -26.167 -27.501 -34.5s-25.834 -14 -42.501 -17s-35 -4.5 -55 -4.5c-26 0 -51.833 2.66699 -77.5 8s-46.167 14.666 -61.5 27.999l-348 464h169l243 -319
c6 -6.66699 12.5 -12.334 19.5 -17.001s15.167 -7 24.5 -7c7.33301 0 13.333 2.33301 18 7s7 9 7 13v323h141zM653.002 509.002v6.00098h-169v-337c0 -1.33301 -1.16699 -2.66602 -3.5 -3.99902s-4.83301 -2 -7.5 -2c-8 0 -17 4 -27 12l-234 308l-7 6l-12 17h-203l366 -490
c2 -2.66699 4.16699 -4.83398 6.5 -6.50098s4.83301 -3.16699 7.5 -4.5l8 -7c16 -14 37.167 -23.667 63.5 -29s53.5 -8 81.5 -8c22 0 42 1.66699 60 5s33.5 9.5 46.5 18.5s23 21.667 30 38s10.5 37.166 10.5 62.499v398z" />
    <glyph glyph-name="W" unicode="W" horiz-adv-x="943" 
d="M276 160l113.002 298c4 8 10.167 17.167 18.5 27.5s16.166 15.5 23.499 15.5h53c7.33301 0 15.166 -5.16699 23.499 -15.5s14.5 -19.5 18.5 -27.5l113 -298l102 341h157l-140 -428c-8 -22 -21.833 -39.333 -41.5 -52s-39.834 -19 -60.501 -19h-36
c-17.333 0 -35.5 6 -54.5 18s-34.167 29.667 -45.5 53l-63 180l-62 -180c-11.333 -23.333 -26.5 -41 -45.5 -53s-37.167 -18 -54.5 -18h-36c-21.333 0 -41.666 6.33301 -60.999 19s-33 30 -41 52l-141 428h157zM184.002 515h-186.997l146 -446
c4.66699 -13.333 11 -25 19 -35s17 -18.333 27 -25l3 -2c11.333 -11.333 24.666 -20.166 39.999 -26.499s31 -9.5 47 -9.5h36c19.333 0 39.5 6.83301 60.5 20.5s38.167 34.5 51.5 62.5l42 121l39 -110c5.33301 -12.667 12.166 -23.667 20.499 -33s17.166 -17 26.499 -23
l2 -2c12 -12 25.333 -21 40 -27s29 -9 43 -9h36c22 0 44 6.83301 66 20.5s37.333 33.167 46 58.5l146 442l-18 17l2 6h-187l-90 -298l-87 228c-2.66699 5.33301 -6 10.833 -10 16.5s-8.33301 10.834 -13 15.501v-1c-5.33301 9.33301 -12.333 18.166 -21 26.499
s-17.334 12.5 -26.001 12.5h-53c-5.33301 0 -10.666 -1.66699 -15.999 -5s-10.5 -7.5 -15.5 -12.5s-9.33301 -10.333 -13 -16s-6.5 -10.834 -8.5 -15.501l-95 -246l-81 272l-16 16v-1z" />
    <glyph glyph-name="X" unicode="X" horiz-adv-x="671" 
d="M193 502l128 -148l130 148h175l-217 -251l389 -448h-172l-305 347l-128 -148h-176l216 249l-216 251h176zM200 516h-214l227 -265l-227 -263h11l17 -17h204l120 137l281 -319h4l17 -17h204l-15 17h1l-385 443l225 260l-18 18l5 6h-213l-123 -140z" />
    <glyph glyph-name="Y" unicode="Y" horiz-adv-x="698" 
d="M175 501v-189h319v189h142v-419c0 -10 -2.33301 -19.833 -7 -29.5s-10.834 -18.167 -18.501 -25.5s-16.167 -13.333 -25.5 -18s-18.666 -7 -27.999 -7h-523v133h460v56h-381c-9.33301 0 -18.833 2.33301 -28.5 7s-18.167 10.667 -25.5 18s-13.333 15.833 -18 25.5
s-7 19.5 -7 29.5v230h141zM189 509v5.99707h-169v-244c0 -15.333 4.66699 -30.166 14 -44.499s20.666 -26.166 33.999 -35.499l4 -3c8.66699 -8.66699 18.167 -15.5 28.5 -20.5s21.166 -7.5 32.499 -7.5h348v-12h-461v-160h6l17 -17h534c10.667 0 21.334 2.66699 32.001 8
s20.334 12.333 29.001 21s15.667 18.334 21 29.001s8 21.667 8 33v430l-17 17v6h-169v-189h-275v166z" />
    <glyph glyph-name="Z" unicode="Z" horiz-adv-x="659" 
d="M567 395l-285.001 -260.001h315v-133h-563v47c0 8 2.16699 17.833 6.5 29.5s10.833 20.834 19.5 27.501l289 263h-315v132h563v-43c0 -9.33301 -2.66699 -20.5 -8 -33.5s-12.666 -22.833 -21.999 -29.5zM25.999 354.999l17 -17.001h249l-244 -223
c-9.33301 -8 -16.333 -18.667 -21 -32s-7 -24.666 -7 -33.999v-61h6l17 -17h585v155l-17 16v6h-255l241 220h-1c10 8 17.833 19.167 23.5 33.5s8.5 26.5 8.5 36.5v54l-17 17v6h-591v-160h6z" />
    <glyph glyph-name="FL005Bh" unicode="[" horiz-adv-x="403" 
d="M175 409v-314h166v-133h-307v579h307v-132h-166zM206 378h166v154l-17 17v6h-335v-607h6l17 -17h329v155l-17 17v6h-149v269z" />
    <glyph glyph-name="FL002Fh" unicode="\" horiz-adv-x="457" 
d="M16 501h160l236 -499h-160zM190 504l-4 11h-191l248 -527h5l17 -17h184l-246 522l-13 12v-1z" />
    <glyph glyph-name="FL005Dh" unicode="]" horiz-adv-x="403" 
d="M43 378l-17 17h-6v160h335v-6l17 -17v-601h-329l-17 17h-6v161h166v269h-143zM200 95h-166v-133h307v579h-307v-132h166v-314z" />
    <glyph glyph-name="FL005Eh" unicode="^" horiz-adv-x="713" 
d="M43 338l-17.001 16.999h-6v66c0 10.667 2.83301 21.667 8.5 33s13 21.5 22 30.5s19 16.333 30 22s21.833 8.5 32.5 8.5h459c15.333 0 30.333 -5 45 -15s26.334 -22.333 35.001 -37h1c8.66699 -8.66699 15.667 -18.167 21 -28.5s8 -21.166 8 -32.499v-431h-164l-17 17h-5
v172h-290v-189h-163l-17 17h-6v338h476v12h-453zM508.999 311.999h-475v-310h141v189h334v-189h142v419c0 10 -2.33301 19.833 -7 29.5s-10.834 18.167 -18.501 25.5s-16.167 13.333 -25.5 18s-18.666 7 -27.999 7h-459c-9.33301 0 -18.833 -2.33301 -28.5 -7
s-18.167 -10.667 -25.5 -18s-13.333 -15.833 -18 -25.5s-7 -19.5 -7 -29.5v-52h475v-57z" />
    <glyph glyph-name="FL005Fh" unicode="_" horiz-adv-x="583" 
d="M20 85h515v-6l17 -17v-127h-509l-17 17h-6v133zM34 71v-106h487v106h-487z" />
    <glyph glyph-name="FL0062h" unicode="`" horiz-adv-x="224" 
d="M33 546l-63 130h132l60 -130h-129zM116 680l-4 10h-164l76 -158h5l17 -17h152l-69 153l-13 13v-1z" />
    <glyph glyph-name="a" unicode="a" horiz-adv-x="727" 
d="M320 217l43 79l42 -79h-85zM271 203h159l-80 148zM486 86h-272.999l-39 -84h-158l205 428c23.333 47.333 57.333 71 102 71h64c22.667 0 40.667 -6 54 -18s25.666 -29.667 36.999 -53l204 -428h-157zM484.001 55l32 -67h5l17 -17h181l-211 443
c-6 11.333 -11.667 21.5 -17 30.5s-11 16.5 -17 22.5h-1c-10.667 16 -22.667 28 -36 36s-30 12 -50 12h-64c-50.667 0 -89 -26.667 -115 -80l-213 -447h8l17 -17h181l38 84h245z" />
    <glyph glyph-name="b" unicode="b" horiz-adv-x="708" 
d="M206 148v12h285v-12h-285zM504 135v56h-329v-56h329zM34 312h399.998v57h-400v132h462c9.33301 0 18.666 -2.33301 27.999 -7s17.833 -10.667 25.5 -18s13.834 -15.833 18.501 -25.5s7 -19.5 7 -29.5v-110c8.66699 -1.33301 17.334 -4.5 26.001 -9.5
s16.334 -11.167 23.001 -18.5s12 -15.5 16 -24.5s6 -17.833 6 -26.5v-150c0 -10 -2.33301 -19.833 -7 -29.5s-10.834 -18.167 -18.501 -25.5s-16.167 -13.333 -25.5 -18s-18.666 -7 -27.999 -7h-533v310zM419.998 326h-400v-338h6l17 -17h544
c10.667 0 21.334 2.66699 32.001 8s20.334 12.333 29.001 21s15.667 18.334 21 29.001s8 21.667 8 33v150c0 11.333 -2.5 22.5 -7.5 33.5s-11.833 20.833 -20.5 29.5l-8 8c-8.66699 10.667 -20.334 20.667 -35.001 30v89c0 11.333 -2.66699 22.166 -8 32.499
s-12.333 19.833 -21 28.5h-1c-8.66699 14.667 -20.334 27 -35.001 37s-29.667 15 -45 15h-476v-160h6l17 -17h377v-12z" />
    <glyph glyph-name="c" unicode="c" horiz-adv-x="713" 
d="M572 2h-459c-9.33301 0 -18.833 2.33301 -28.5 7s-18.167 10.667 -25.5 18s-13.333 15.833 -18 25.5s-7 19.5 -7 29.5v339c0 10 2.33301 19.833 7 29.5s10.667 18.167 18 25.5s15.833 13.333 25.5 18s19.167 7 28.5 7h459c9.33301 0 18.666 -2.33301 27.999 -7
s17.833 -10.667 25.5 -18s13.834 -15.833 18.501 -25.5s7 -19.5 7 -29.5v-112h-142v60h-334v-234h334v59h142v-112c0 -10 -2.33301 -19.833 -7 -29.5s-10.834 -18.167 -18.501 -25.5s-16.167 -13.333 -25.5 -18s-18.666 -7 -27.999 -7zM501 295l17.001 -17.002h164v124
c0 11.333 -2.66699 22.166 -8 32.499s-12.333 19.833 -21 28.5h-1c-8.66699 14.667 -20.334 27 -35.001 37s-29.667 15 -45 15h-459c-10.667 0 -21.5 -2.83301 -32.5 -8.5s-21 -13 -30 -22s-16.333 -19.167 -22 -30.5s-8.5 -22.333 -8.5 -33v-339
c0 -15.333 4.66699 -30.166 14 -44.499s20.666 -26.166 33.999 -35.499l4 -3c8.66699 -8.66699 18.167 -15.5 28.5 -20.5s21.166 -7.5 32.499 -7.5h459c10.667 0 21.334 2.66699 32.001 8s20.334 12.333 29.001 21s15.667 18.334 21 29.001s8 21.667 8 33v123l-17 17v6h-169
v-60h-290v190h290v-43h5z" />
    <glyph glyph-name="d" unicode="d" horiz-adv-x="713" 
d="M175 135h334v234h-475v132h538c9.33301 0 18.666 -2.33301 27.999 -7s17.833 -10.667 25.5 -18s13.834 -15.833 18.501 -25.5s7 -19.5 7 -29.5v-339c0 -10 -2.33301 -19.833 -7 -29.5s-10.834 -18.167 -18.501 -25.5s-16.167 -13.333 -25.5 -18s-18.666 -7 -27.999 -7
h-538v310h141v-177zM26 355l16.999 -17h453v-190h-290v155l-17 17v6h-169v-338h6l17 -17h549c10.667 0 21.334 2.66699 32.001 8s20.334 12.333 29.001 21s15.667 18.334 21 29.001s8 21.667 8 33v340c0 11.333 -2.66699 22.166 -8 32.499s-12.333 19.833 -21 28.5h-1
c-8.66699 14.667 -20.334 27 -35.001 37s-29.667 15 -45 15h-552v-160h6z" />
    <glyph glyph-name="e" unicode="e" horiz-adv-x="656" 
d="M594 2h-481c-9.33301 0 -18.833 2.33301 -28.5 7s-18.167 10.667 -25.5 18s-13.333 15.833 -18 25.5s-7 19.5 -7 29.5v339c0 10 2.33301 19.833 7 29.5s10.667 18.167 18 25.5s15.833 13.333 25.5 18s19.167 7 28.5 7h481v-132h-419v-57h418v-121h-418v-56h419v-133z
M206 160l418.002 -0.00195312v143l-17 17v6h-401v12h419v154l-17 17v6h-495c-10.667 0 -21.5 -2.83301 -32.5 -8.5s-21 -13 -30 -22s-16.333 -19.167 -22 -30.5s-8.5 -22.333 -8.5 -33v-339c0 -15.333 4.66699 -30.166 14 -44.499s20.666 -26.166 33.999 -35.499l4 -3
c8.66699 -8.66699 18.167 -15.5 28.5 -20.5s21.166 -7.5 32.499 -7.5h492v155l-17 16v6h-402v12z" />
    <glyph glyph-name="f" unicode="f" horiz-adv-x="656" 
d="M34 2v419c0 10 2.33301 19.833 7 29.5s10.667 18.167 18 25.5s15.833 13.333 25.5 18s19.167 7 28.5 7h481v-132h-419v-57h418v-121h-418v-189h-141zM206 338h419v154l-17 17v6h-495c-10.667 0 -21.5 -2.83301 -32.5 -8.5s-21 -13 -30 -22s-16.333 -19.167 -22 -30.5
s-8.5 -22.333 -8.5 -33v-433h6l17 -17h163v189h418v143l-17 17v6h-401v12z" />
    <glyph glyph-name="g" unicode="g" horiz-adv-x="713" 
d="M509 135v56h-239v121h302c9.33301 0 18.666 -2.33301 27.999 -7s17.833 -10.667 25.5 -18s13.834 -15.833 18.501 -25.5s7 -19.5 7 -29.5v-150c0 -10 -2.33301 -19.833 -7 -29.5s-10.834 -18.167 -18.501 -25.5s-16.167 -13.333 -25.5 -18s-18.666 -7 -27.999 -7h-459
c-9.33301 0 -18.833 2.33301 -28.5 7s-18.167 10.667 -25.5 18s-13.333 15.833 -18 25.5s-7 19.5 -7 29.5v339c0 10 2.33301 19.833 7 29.5s10.667 18.167 18 25.5s15.833 13.333 25.5 18s19.167 7 28.5 7h538v-132h-476v-234h334zM68 2l4.00098 -3.00391
c8.66699 -8.66699 18.167 -15.5 28.5 -20.5s21.166 -7.5 32.499 -7.5h459c10.667 0 21.334 2.66699 32.001 8s20.334 12.333 29.001 21s15.667 18.334 21 29.001s8 21.667 8 33v150c0 11.333 -2.66699 22.333 -8 33s-12.333 20.334 -21 29.001h-1
c-8.66699 14.667 -20.334 27 -35.001 37s-29.667 15 -45 15h-316v-149h6l17 -17h217v-12h-290v190h476v154l-17 17v6h-552c-10.667 0 -21.5 -2.83301 -32.5 -8.5s-21 -13 -30 -22s-16.333 -19.167 -22 -30.5s-8.5 -22.333 -8.5 -33v-339
c0 -15.333 4.66699 -30.166 14 -44.499s20.666 -26.166 33.999 -35.499z" />
    <glyph glyph-name="h" unicode="h" horiz-adv-x="703" 
d="M175 312h324v189h142v-499h-142v189h-324v-189h-141v499h141v-189zM189 515h-169v-527h6l17 -17h163v189h280v-172h5l17 -17h164v521l-17 17v6h-169v-189h-280v166l-17 17v6z" />
    <glyph glyph-name="i" unicode="i" horiz-adv-x="237" 
d="M34 2v499h141v-499h-141zM189 515h-169v-527h6l17 -17h163v521l-17 17v6z" />
    <glyph glyph-name="j" unicode="j" horiz-adv-x="701" 
d="M175 194v-59h322v366h142v-419c0 -10 -2.33301 -19.833 -7 -29.5s-10.834 -18.167 -18.501 -25.5s-16.167 -13.333 -25.5 -18s-18.666 -7 -27.999 -7h-447c-9.33301 0 -18.833 2.33301 -28.5 7s-18.167 10.667 -25.5 18s-13.333 15.833 -18 25.5s-7 19.5 -7 29.5v112h141
zM189 202v5.99707h-169v-126c0 -15.333 4.66699 -30.166 14 -44.499s20.666 -26.166 33.999 -35.499l4 -3c8.66699 -8.66699 18.167 -15.5 28.5 -20.5s21.166 -7.5 32.499 -7.5h447c10.667 0 21.334 2.66699 32.001 8s20.334 12.333 29.001 21s15.667 18.334 21 29.001
s8 21.667 8 33v430l-17 17v6h-169v-367h-278v37z" />
    <glyph glyph-name="k" unicode="k" horiz-adv-x="699" 
d="M175 312h138l166 189h174l-216 -250l216 -249h-174l-166 189h-138v-189h-141v499h141v-189zM189 515h-169v-527h6l17 -17h163v189h114l152 -172h4l17 -17h206l-15 17h1l-212 244l225 259l-18 18l5 6h-213l-167 -189h-99v166l-17 17v6z" />
    <glyph glyph-name="l" unicode="l" horiz-adv-x="652" 
d="M189 515l-0.00195312 -5.99805l17 -17v-344h398v-6l17 -16v-155h-488c-11.333 0 -22.166 2.5 -32.499 7.5s-19.833 11.833 -28.5 20.5l-4 3c-13.333 9.33301 -24.666 21.166 -33.999 35.499s-14 29.166 -14 44.499v433h169zM174.998 135.002v366h-141v-419
c0 -10 2.33301 -19.833 7 -29.5s10.667 -18.167 18 -25.5s15.833 -13.333 25.5 -18s19.167 -7 28.5 -7h477v133h-415z" />
    <glyph glyph-name="m" unicode="m" horiz-adv-x="840" 
d="M34 2l0.00195312 437.001c0 7.33301 2.16699 14.666 6.5 21.999s10.166 14 17.499 20s15.833 10.833 25.5 14.5s20.167 5.5 31.5 5.5h39c17.333 -2.66699 34.333 -9.33398 51 -20.001s30 -24.334 40 -41.001l161 -265l161 265c10 16.667 23.333 30.334 40 41.001
s33.667 17.334 51 20.001h39c10.667 0 21 -1.83301 31 -5.5s18.667 -8.5 26 -14.5s13.166 -12.667 17.499 -20s6.5 -14.666 6.5 -21.999v-437h-142v279h-2c-23.333 -42.667 -47.333 -82 -72 -118s-45.334 -66 -62.001 -90c-4.66699 -6 -8.5 -11.5 -11.5 -16.5
s-5.83301 -9.16699 -8.5 -12.5c-13.333 -18.667 -25.5 -30.334 -36.5 -35.001s-19.833 -7 -26.5 -7h-22c-10 0 -19.667 2.33301 -29 7s-20.666 16.334 -33.999 35.001c-15.333 20 -37 50.667 -65 92s-57.667 89.666 -89 144.999h-2v-279h-142zM321.002 35.001
c14 -19.333 27.3311 -32.335 39.998 -39.002h-1l3 -3c9.33301 -9.33301 18 -15.333 26 -18s16.667 -4 26 -4h22c7.33301 0 17.333 2.66699 30 8s26.667 18 42 38c2.66699 3.33301 5.5 7.5 8.5 12.5s6.83301 10.5 11.5 16.5c11.333 16.667 25.333 36.834 42 60.501
s33.667 49.5 51 77.5v-196h6l17 -17h164v448c0 14.667 -7 29 -21 43h-1l1 1l-4 3v-1c-7.33301 13.333 -18.833 25 -34.5 35s-33.167 15 -52.5 15h-40c-21.333 -2.66699 -41.166 -10 -59.499 -22s-32.833 -26.667 -43.5 -44l-147 -241l-132 219
c-5.33301 8.66699 -11 16 -17 22c-10.667 17.333 -25.167 32 -43.5 44s-38.166 19.333 -59.499 22h-40c-13.333 0 -25.833 -2.33301 -37.5 -7s-21.667 -10.667 -30 -18s-15 -15.5 -20 -24.5s-7.5 -17.833 -7.5 -26.5v-451h6l17 -17h163v232
c23.333 -38 45.333 -71.667 66 -101s37 -51.666 49 -66.999z" />
    <glyph glyph-name="n" unicode="n" 
d="M142 515c4 0 7.33203 -0.663086 9.99902 -1.99609h-1c11.333 -2 24.5 -7.66699 39.5 -17s33 -22.833 54 -40.5s45.833 -39.834 74.5 -66.501s62.334 -58.334 101.001 -95.001c4.66699 -4 9.16699 -8.16699 13.5 -12.5s9.16602 -8.83301 14.499 -13.5
c4.66699 -4.66699 9 -9.16699 13 -13.5s8.66699 -8.83301 14 -13.5c6.66699 -8 14.334 -15.667 23.001 -23v297h169v-6l17 -17v-448c0 -8.66699 -2.33301 -17.334 -7 -26.001s-11.167 -16.5 -19.5 -23.5s-18 -12.667 -29 -17s-22.833 -6.5 -35.5 -6.5h-28
c-4 0 -7.33301 0.666992 -10 2h1c-20 4 -50 23 -90 57c-28 21.333 -62.833 51.166 -104.5 89.499s-93.5 87.5 -155.5 147.5v-296h-163l-17 17h-6v451c0 8.66699 2.5 17.5 7.5 26.5s11.667 17.167 20 24.5s18.333 13.333 30 18s24.167 7 37.5 7h27zM147.999 500.004
l-1 -0.00488281c-0.666992 0.666992 -2.33398 1 -5.00098 1h-27c-11.333 0 -21.833 -1.83301 -31.5 -5.5s-18.167 -8.5 -25.5 -14.5s-13.166 -12.667 -17.499 -20s-6.5 -14.666 -6.5 -21.999v-437h141v316c56 -54 104.667 -100.667 146 -140s76.5 -71.666 105.5 -96.999
s52.667 -44.333 71 -57s32.833 -19.667 43.5 -21c0.666992 -0.666992 2 -1 4 -1h28c10.667 0 20.834 1.83301 30.501 5.5s18.167 8.33398 25.5 14.001s13.166 12.167 17.499 19.5s6.5 15 6.5 23v437h-142v-315c-18 17.333 -35.5 34.333 -52.5 51s-33.167 32 -48.5 46
c-40 37.333 -74.333 69.333 -103 96s-53.334 48.834 -74.001 66.501s-37.667 30.834 -51 39.501s-24.666 13.667 -33.999 15z" />
    <glyph glyph-name="o" unicode="o" 
d="M206 148v190h292v-190h-292zM511 135v234h-336v-234h336zM113 501h461c9.33301 0 18.666 -2.33301 27.999 -7s17.833 -10.667 25.5 -18s13.834 -15.833 18.501 -25.5s7 -19.5 7 -29.5v-339c0 -10 -2.33301 -19.833 -7 -29.5s-10.834 -18.167 -18.501 -25.5
s-16.167 -13.333 -25.5 -18s-18.666 -7 -27.999 -7h-461c-9.33301 0 -18.833 2.33301 -28.5 7s-18.167 10.667 -25.5 18s-13.333 15.833 -18 25.5s-7 19.5 -7 29.5v339c0 10 2.33301 19.833 7 29.5s10.667 18.167 18 25.5s15.833 13.333 25.5 18s19.167 7 28.5 7zM574 515
l-460.999 -0.00195312c-10.667 0 -21.5 -2.83301 -32.5 -8.5s-21 -13 -30 -22s-16.333 -19.167 -22 -30.5s-8.5 -22.333 -8.5 -33v-339c0 -15.333 4.66699 -30.166 14 -44.499s20.666 -26.166 33.999 -35.499l4 -3c8.66699 -8.66699 18.167 -15.5 28.5 -20.5
s21.166 -7.5 32.499 -7.5h461c10.667 0 21.334 2.66699 32.001 8s20.334 12.333 29.001 21s15.667 18.334 21 29.001s8 21.667 8 33v340c0 11.333 -2.66699 22.166 -8 32.499s-12.333 19.833 -21 28.5h-1c-8.66699 14.667 -20.334 27 -35.001 37s-29.667 15 -45 15z" />
    <glyph glyph-name="p" unicode="p" horiz-adv-x="676" 
d="M34 312h438v57h-438v132h501c9.33301 0 18.666 -2.33301 27.999 -7s17.833 -10.667 25.5 -18s13.834 -15.833 18.501 -25.5s7 -19.5 7 -29.5v-150c0 -10 -2.33301 -19.833 -7 -29.5s-10.834 -18.167 -18.501 -25.5s-16.167 -13.333 -25.5 -18s-18.666 -7 -27.999 -7h-360
v-189h-141v310zM20 326l-0.000976562 -338h6l17 -17h163v189h349c10.667 0 21.334 2.66699 32.001 8s20.334 12.333 29.001 21s15.667 18.334 21 29.001s8 21.667 8 33v151c0 11.333 -2.66699 22.166 -8 32.499s-12.333 19.833 -21 28.5h-1
c-8.66699 14.667 -20.334 27 -35.001 37s-29.667 15 -45 15h-515v-160h6l17 -17h416v-12h-439z" />
    <glyph glyph-name="q" unicode="q" 
d="M426 260h-192l71 -111h-99v189h292v-183l-54 82l-9 8zM417 246l73 -111h21v234h-336v-234h158l-72 111h156zM113 501l461 -0.00195312c9.33301 0 18.666 -2.16699 27.999 -6.5s17.833 -10.333 25.5 -18s13.834 -16.167 18.501 -25.5s7 -19 7 -29v-340
c0 -9.33301 -2.33301 -18.666 -7 -27.999s-10.5 -17.666 -17.5 -24.999s-15.167 -13.5 -24.5 -18.5s-18.333 -7.83301 -27 -8.5l63 -98h-156l-64 98h-307c-9.33301 0 -18.833 2.33301 -28.5 7s-18.167 10.667 -25.5 18s-13.333 15.833 -18 25.5s-7 19.5 -7 29.5v340
c0 10 2.33301 19.667 7 29s10.667 17.833 18 25.5s15.833 13.667 25.5 18s19.167 6.5 28.5 6.5zM574 514.998l-460.997 -0.00488281c-10.667 0 -21.5 -2.66699 -32.5 -8s-21 -12.5 -30 -21.5s-16.333 -19 -22 -30s-8.5 -22.167 -8.5 -33.5v-340
c0 -15.333 4.66699 -30.166 14 -44.499s20.666 -26.166 33.999 -35.499l4 -3c8.66699 -8.66699 18.167 -15.5 28.5 -20.5s21.166 -7.5 32.499 -7.5h288l54 -81h5l17 -17h185l-66 102c8.66699 2.66699 17 6.83398 25 12.501s15.167 12.334 21.5 20.001s11.5 16.167 15.5 25.5
s6 19 6 29v340c0 11.333 -2.66699 22.333 -8 33s-12.333 20.334 -21 29.001h-1c-8.66699 14 -20.334 26 -35.001 36s-29.667 15 -45 15z" />
    <glyph glyph-name="r" unicode="r" horiz-adv-x="675" 
d="M34 312h439v57h-439v132h501c9.33301 0 18.666 -2.33301 27.999 -7s17.833 -10.667 25.5 -18s13.834 -15.833 18.501 -25.5s7 -19.5 7 -29.5v-150c0 -10 -2.33301 -19.833 -7 -29.5s-10.834 -18.167 -18.501 -25.5s-16.167 -13.333 -25.5 -18s-18.666 -7 -27.999 -7h-43
l137 -189h-158l-147 189h-149v-189h-141v310zM20 326l-0.000976562 -338h6l17 -17h163v189h123l134 -172h4l17 -17h187l-138 189h22c10.667 0 21.334 2.66699 32.001 8s20.334 12.333 29.001 21s15.667 18.334 21 29.001s8 21.667 8 33v151
c0 11.333 -2.66699 22.166 -8 32.499s-12.333 19.833 -21 28.5h-1c-8.66699 14.667 -20.334 27 -35.001 37s-29.667 15 -45 15h-515v-160h6l17 -17h416v-12h-439z" />
    <glyph glyph-name="s" unicode="s" horiz-adv-x="703" 
d="M499 135v56h-386c-9.33301 0 -18.833 2.33301 -28.5 7s-18.167 10.667 -25.5 18s-13.333 15.833 -18 25.5s-7 19.5 -7 29.5v150c0 10 2.33301 19.833 7 29.5s10.667 18.167 18 25.5s15.833 13.333 25.5 18s19.167 7 28.5 7h528v-132h-466v-57h387
c9.33301 0 18.666 -2.33301 27.999 -7s17.833 -10.667 25.5 -18s13.834 -15.833 18.501 -25.5s7 -19.5 7 -29.5v-150c0 -10 -2.33301 -19.833 -7 -29.5s-10.834 -18.167 -18.501 -25.5s-16.167 -13.333 -25.5 -18s-18.666 -7 -27.999 -7h-528v133h465zM20 148
l0.000976562 -160.004h6l17 -17h539c10.667 0 21.334 2.66699 32.001 8s20.334 12.333 29.001 21s15.667 18.334 21 29.001s8 21.667 8 33v150c0 11.333 -2.66699 22.333 -8 33s-12.333 20.334 -21 29.001h-1c-8.66699 14.667 -20.334 27 -35.001 37s-29.667 15 -45 15h-356
v12h466v154l-17 17v6h-542c-10.667 0 -21.5 -2.83301 -32.5 -8.5s-21 -13 -30 -22s-16.333 -19.167 -22 -30.5s-8.5 -22.333 -8.5 -33v-150c0 -15.333 4.66699 -30.166 14 -44.499s20.666 -26.166 33.999 -35.499l4 -3c8.66699 -8.66699 18.167 -15.5 28.5 -20.5
s21.166 -7.5 32.499 -7.5h353v-12h-466z" />
    <glyph glyph-name="t" unicode="t" horiz-adv-x="690" 
d="M402 369v-367h-142v367h-226v132h594v-132h-226zM26 355l17 -17h203v-350h6l17 -17h164v367h226v154l-17 17v6h-622v-160h6z" />
    <glyph glyph-name="u" unicode="u" horiz-adv-x="713" 
d="M175 501v-366h334v366h142v-419c0 -10 -2.33301 -19.833 -7 -29.5s-10.834 -18.167 -18.501 -25.5s-16.167 -13.333 -25.5 -18s-18.666 -7 -27.999 -7h-459c-9.33301 0 -18.833 2.33301 -28.5 7s-18.167 10.667 -25.5 18s-13.333 15.833 -18 25.5s-7 19.5 -7 29.5v419
h141zM189 509v5.99707h-169v-433c0 -15.333 4.66699 -30.166 14 -44.499s20.666 -26.166 33.999 -35.499l4 -3c8.66699 -8.66699 18.167 -15.5 28.5 -20.5s21.166 -7.5 32.499 -7.5h459c10.667 0 21.334 2.66699 32.001 8s20.334 12.333 29.001 21s15.667 18.334 21 29.001
s8 21.667 8 33v430l-17 17v6h-169v-367h-290v344z" />
    <glyph glyph-name="v" unicode="v" horiz-adv-x="717" 
d="M177 501l168 -344l167 344h160l-203 -428c-23.333 -47.333 -56.333 -71 -99 -71h-51c-21.333 0 -40.5 6.5 -57.5 19.5s-30.833 30.167 -41.5 51.5l-204 428h161zM191 504l-5.99805 11.001h-190l212 -447c12 -26.667 29.333 -47.334 52 -62.001l1 -1
c10.667 -10.667 22.667 -19 36 -25s27.666 -9 42.999 -9h51c47.333 0 83.666 26 108.999 78l210 443l-18 16l3 7h-191l-155 -320l-145 298l-12 12v-1z" />
    <glyph glyph-name="w" unicode="w" horiz-adv-x="943" 
d="M276 160l113.002 298c4 8 10.167 17.167 18.5 27.5s16.166 15.5 23.499 15.5h53c7.33301 0 15.166 -5.16699 23.499 -15.5s14.5 -19.5 18.5 -27.5l113 -298l102 341h157l-140 -428c-8 -22 -21.833 -39.333 -41.5 -52s-39.834 -19 -60.501 -19h-36
c-17.333 0 -35.5 6 -54.5 18s-34.167 29.667 -45.5 53l-63 180l-62 -180c-11.333 -23.333 -26.5 -41 -45.5 -53s-37.167 -18 -54.5 -18h-36c-21.333 0 -41.666 6.33301 -60.999 19s-33 30 -41 52l-141 428h157zM184.002 515h-186.997l146 -446
c4.66699 -13.333 11 -25 19 -35s17 -18.333 27 -25l3 -2c11.333 -11.333 24.666 -20.166 39.999 -26.499s31 -9.5 47 -9.5h36c19.333 0 39.5 6.83301 60.5 20.5s38.167 34.5 51.5 62.5l42 121l39 -110c5.33301 -12.667 12.166 -23.667 20.499 -33s17.166 -17 26.499 -23
l2 -2c12 -12 25.333 -21 40 -27s29 -9 43 -9h36c22 0 44 6.83301 66 20.5s37.333 33.167 46 58.5l146 442l-18 17l2 6h-187l-90 -298l-87 228c-2.66699 5.33301 -6 10.833 -10 16.5s-8.33301 10.834 -13 15.501v-1c-5.33301 9.33301 -12.333 18.166 -21 26.499
s-17.334 12.5 -26.001 12.5h-53c-5.33301 0 -10.666 -1.66699 -15.999 -5s-10.5 -7.5 -15.5 -12.5s-9.33301 -10.333 -13 -16s-6.5 -10.834 -8.5 -15.501l-95 -246l-81 272l-16 16v-1z" />
    <glyph glyph-name="x" unicode="x" horiz-adv-x="671" 
d="M192 501l129 -147l130 147h174l-216 -250l216 -249h-174l-130 147l-129 -147h-175l216 249l-216 250h175zM199 515h-213l227 -264l-227 -263h11l17 -17h204l120 137l106 -120h4l17 -17h206l-15 17h1l-212 244l225 259l-18 18l5 6h-213l-123 -139z" />
    <glyph glyph-name="y" unicode="y" horiz-adv-x="698" 
d="M175 501v-189h319v189h142v-419c0 -10 -2.33301 -19.833 -7 -29.5s-10.834 -18.167 -18.501 -25.5s-16.167 -13.333 -25.5 -18s-18.666 -7 -27.999 -7h-523v133h460v56h-381c-9.33301 0 -18.833 2.33301 -28.5 7s-18.167 10.667 -25.5 18s-13.333 15.833 -18 25.5
s-7 19.5 -7 29.5v230h141zM189 509v5.99707h-169v-244c0 -15.333 4.66699 -30.166 14 -44.499s20.666 -26.166 33.999 -35.499l4 -3c8.66699 -8.66699 18.167 -15.5 28.5 -20.5s21.166 -7.5 32.499 -7.5h348v-12h-461v-160h6l17 -17h534c10.667 0 21.334 2.66699 32.001 8
s20.334 12.333 29.001 21s15.667 18.334 21 29.001s8 21.667 8 33v430l-17 17v6h-169v-189h-275v166z" />
    <glyph glyph-name="z" unicode="z" horiz-adv-x="659" 
d="M567 395l-285.001 -260.001h315v-133h-563v47c0 8 2.16699 17.833 6.5 29.5s10.833 20.834 19.5 27.501l289 263h-315v132h563v-43c0 -9.33301 -2.66699 -20.5 -8 -33.5s-12.666 -22.833 -21.999 -29.5zM25.999 354.999l17 -17.001h249l-244 -223
c-9.33301 -8 -16.333 -18.667 -21 -32s-7 -24.666 -7 -33.999v-61h6l17 -17h585v155l-17 16v6h-255l241 220h-1c10 8 17.833 19.167 23.5 33.5s8.5 26.5 8.5 36.5v54l-17 17v6h-591v-160h6z" />
    <glyph glyph-name="FL007Bh" unicode="{" horiz-adv-x="705" 
d="M20 389c0 24 3.66699 44.167 11 60.5s17.5 29.333 30.5 39s28.667 16.5 47 20.5s38.833 6 61.5 6c28 0 56 -2.66699 84 -8s50.333 -15.333 67 -30l12 -16l6 -6l362 -484h-193l-17 17h-4l-53 66h-228v-83h-163l-17 17h-6v401zM34 389v-386.999h141v83h254l66 -83h164
l-347 463c-15.333 13.333 -36.5 22.666 -63.5 27.999s-53.167 8 -78.5 8c-20 0 -38.333 -1.83301 -55 -5.5s-31 -9.83398 -43 -18.501s-21.333 -20.167 -28 -34.5s-10 -32.166 -10 -53.499zM175 203.001v132.001c0 4 2 8.16699 6 12.5s9.66699 6.5 17 6.5
c8 0 15.833 -3.33301 23.5 -10s14.5 -13.334 20.5 -20.001l100 -121h-167zM206 315.002l-0.000976562 -98h104l-79 97l-6 6c-3.33301 2 -5.66602 3 -6.99902 3c-8 0 -12 -2.66699 -12 -8z" />
    <glyph glyph-name="FL007Ch" unicode="|" horiz-adv-x="236" 
d="M34 -131v764h140v-764h-140zM20 647v-792h6l17 -17h162v786l-17 17v6h-168z" />
    <glyph glyph-name="FL007Dh" unicode="}" horiz-adv-x="701" 
d="M20 114v401.001h169v-6l17 -17v-320c4.66699 1.33301 9.16699 3.83301 13.5 7.5s9.16602 8.16699 14.499 13.5l246 322h204l-5 -6l18 -18l-362 -484c-16 -14 -37.333 -23.667 -64 -29s-54 -8 -82 -8c-25.333 0 -47.833 2.16699 -67.5 6.5s-36.167 13.166 -49.5 26.499
l-4 3c-15.333 9.33301 -27.166 22.5 -35.499 39.5s-12.5 39.833 -12.5 68.5zM200 158.001c-7.33301 0 -13.335 2.33496 -18.002 7.00195s-7 9 -7 13v323h-141v-387c0 -23.333 3.33301 -42.333 10 -57s15.834 -26.167 27.501 -34.5s25.834 -14 42.501 -17s35 -4.5 55 -4.5
c26 0 51.833 2.66699 77.5 8s46.167 14.666 61.5 27.999l347 464h-168l-243 -319c-6 -6.66699 -12.5 -12.334 -19.5 -17.001s-15.167 -7 -24.5 -7z" />
    <glyph glyph-name="FL007Eh" unicode="~" horiz-adv-x="713" 
d="M509 2v367h-334v-367h-141v499h538c9.33301 0 18.666 -2.33301 27.999 -7s17.833 -10.667 25.5 -18s13.834 -15.833 18.501 -25.5s7 -19.5 7 -29.5v-419h-142zM496 338l0.000976562 -349.999h5l17 -17h164v431c0 11.333 -2.66699 22.166 -8 32.499
s-12.333 19.833 -21 28.5h-1c-8.66699 14.667 -20.334 27 -35.001 37s-29.667 15 -45 15h-552v-527h6l17 -17h163v367h290z" />
    <glyph glyph-name="FL007Fh" horiz-adv-x="197" 
 />
    <glyph glyph-name="FL00A1h" unicode="&#xa1;" horiz-adv-x="236" 
d="M34 369v132h140v-132h-140zM188 515h-168v-160h6l17 -17h162v154l-17 17v6zM34 2v308h140v-308h-140zM26 -12l17 -17h162v330l-17 17v6h-168v-336h6z" />
    <glyph glyph-name="FL00A2h" unicode="&#xa2;" horiz-adv-x="656" 
d="M428 515l-0.00195312 -6.00098l17 -17v-32h163v-6l17 -17v-154h-180v-80h163v-6l17 -17v-154h-180v-55h-159l-17 17h-6v38h-130c-11.333 0 -22.166 2.5 -32.499 7.5s-19.833 11.833 -28.5 20.5l-4 3c-13.333 9.33301 -24.666 21 -33.999 35s-14 28.667 -14 44v231
c0 10.667 2.83301 21.667 8.5 33s13 21.333 22 30s19 15.834 30 21.501s21.833 8.5 32.5 8.5h150v55h165zM413.998 445.999v54.999h-137v-55h-164c-9.33301 0 -18.833 -2.16699 -28.5 -6.5s-18.167 -10.333 -25.5 -18s-13.333 -16.167 -18 -25.5s-7 -19 -7 -29v-231
c0 -10 2.33301 -19.667 7 -29s10.667 -17.666 18 -24.999s15.833 -13.333 25.5 -18s19.167 -7 28.5 -7h164v-55h137v55h180v132h-180v125h180v132h-180zM174.998 313.998h102v-125h-102v125zM205.998 282.998v-80h57v80h-57z" />
    <glyph glyph-name="FL00A3h" unicode="&#xa3;" horiz-adv-x="685" 
d="M20 326h123.999v95c0 10.667 2.83301 21.667 8.5 33s12.834 21.5 21.501 30.5s18.5 16.333 29.5 22s21.833 8.5 32.5 8.5h153v-6l17 -17v-154h-76v-12h171v-6l17 -17v-143h-245v-12h364v-6l17 -16v-155h-611l-17 17h-6v160h67v12h-44l-17 17h-6v149zM157.999 312
h-124.002v-121h67v-56h-67v-133h589v133h-381v56h245v121h-188v57h76v132h-139c-9.33301 0 -18.666 -2.33301 -27.999 -7s-17.666 -10.667 -24.999 -18s-13.333 -15.833 -18 -25.5s-7 -19.5 -7 -29.5v-109z" />
    <glyph glyph-name="FL00A4h" unicode="&#xa4;" horiz-adv-x="671" 
d="M14 -29l-17 17.002h-11l126 146c-2 4.66699 -3 10 -3 16v204v6c0 1.33301 0.666992 4 2 8l-125 147h213l89 -102h65l91 102h213l-5 -6l18 -18l-126 -143c2.66699 -2.66699 4 -7.33398 4 -14.001v-203c0 -3.33301 -1.33301 -7.33301 -4 -12
c-0.666992 -0.666992 -1 -1.33398 -1 -2.00098l114 -129h-1l15 -17h-206l-17 17h-4l-77 86h-60l-89 -103h-204zM517 150.002l-0.000976562 204.001c0 4 -2 9 -6 15l114 132h-174l-90 -101h-80l-89 101h-175l113 -130c-4.66699 -6.66699 -7 -12.334 -7 -17.001v-204
c0 -5.33301 2.66699 -11.333 8 -18l-114 -130h175l89 103h79l91 -103h174l-114 131c1.33301 1.33301 2.33301 3 3 5s0.333984 2.33301 -0.999023 1c2.66699 3.33301 4 7 4 11zM399.999 293.003v-83h-159v83h159zM271.999 262.003v-38h114v38h-114zM512.999 139.003v-1v1z
" />
    <glyph glyph-name="FL00A5h" unicode="&#xa5;" horiz-adv-x="671" 
d="M82 151h19l-13 13h-6v123h101l-197 228h213l122 -139l123 139h213l-5 -6l18 -18l-179 -204h69v-6l17 -17v-117h-17v-2l17 -16v-116h-154v-42h-164l-17 17h-6v25h-131l-17 17h-6v121zM250 137h-154v-93h154v-42h142v42h154v93h-154v41h154v95h-119l198 228h-174l-130 -147
l-129 147h-175l198 -228h-119v-95h154v-41z" />
    <glyph glyph-name="FL00A6h" unicode="&#xa6;" horiz-adv-x="236" 
d="M188 237v-6l17 -17v-376h-162l-17 17h-6v382h168zM20 647h168v-6l17 -17v-372h-162l-17 17h-6v378zM34 223v-354h140v354h-140zM34 633v-350h140v350h-140z" />
    <glyph glyph-name="FL00A7h" unicode="&#xa7;" horiz-adv-x="671" 
d="M14 -29l-16.998 17.0029h-11l126 146c-2 4.66699 -3 10 -3 16v204c0 5.33301 2.16699 11.5 6.5 18.5s9.66602 13.5 15.999 19.5s13.166 11 20.499 15s14 6 20 6h181l91 102h213l-5 -6l18 -18l-126 -143c2.66699 -2.66699 4 -7.33398 4 -14.001v-203
c0 -6 -2 -12.333 -6 -19s-9 -12.834 -15 -18.501s-12.333 -10.334 -19 -14.001s-13 -5.5 -19 -5.5h-182l-89 -103h-204zM517.002 150.003v204.001c0 4 -2 9 -6 15l114 132h-174l-90 -101h-189c-4.66699 0 -9.83398 -1.5 -15.501 -4.5s-11 -6.83301 -16 -11.5
s-9.16699 -9.66699 -12.5 -15s-5 -10.333 -5 -15v-204c0 -5.33301 2.66699 -11.333 8 -18l-114 -130h175l89 103h188c4.66699 0 9.83398 1.5 15.501 4.5s11 6.66699 16 11s9 9.16602 12 14.499s4.5 10.333 4.5 15zM400.002 293.004v-83h-159v83h159zM272.002 262.004v-38
h114v38h-114z" />
    <glyph glyph-name="FL00A8h" unicode="&#xa8;" horiz-adv-x="437" 
d="M242 546v130h133v-130h-133zM34 546v130h133v-130h-133zM20 690v-158h6l17 -17h155v152l-17 17v6h-161zM228 690v-158h6l17 -17h155v152l-17 17v6h-161z" />
    <glyph glyph-name="copyright" unicode="&#xa9;" horiz-adv-x="294" 
d="M98 368h-1.00098l-1 1c0.666992 -0.666992 1.33398 -1 2.00098 -1zM79.999 381v-1l-1 1h1zM155.999 450v-1v1zM192.999 488h-1.00098l3 -3c1.33301 -1.33301 2.33301 -2.5 3 -3.5l1 -1.5v-1c0.666992 0 1 -0.333008 1 -1c2 -4 3.5 -8 4.5 -12s2.16699 -7.66699 3.5 -11
c-2 3.33301 -3.83301 6.5 -5.5 9.5s-3.5 5.5 -5.5 7.5l-5 6c-5.33301 7.33301 -9.66602 12.333 -12.999 15l9 -3l1 -1h1c1.33301 0 2.33301 -0.333008 3 -1zM205.998 412l-6 5.99902c0.666992 0.666992 1 1.33398 1 2.00098s0.666992 1.66699 2 3l-21 6l29 7
c0 -6 -1.66699 -14 -5 -24zM179.998 429.999l-20.999 6c-4.66699 -20.667 -13.667 -31 -27 -31h-7v12c0 12 2.66699 21.167 8 27.5s12.333 9.5 21 9.5c1.33301 -4 2 -5.66699 2 -5c1.33301 -1.33301 2.16602 -2.33301 2.49902 -3l0.5 -1l5 1zM132.999 374.999
c-17.333 0 -31.1689 5.5 -41.502 16.5s-15.5 26.167 -15.5 45.5s5.33301 34.333 16 45s24.667 16 42 16c26 0 42.333 -11.333 49 -34l-16 -3c-7.33301 15.333 -18.333 23 -33 23c-26.667 0 -40 -15.667 -40 -47c0 -30.667 12.667 -46 38 -46c20 0 32.333 9.33301 37 28
l17 -5c-3.33301 -12 -9.66602 -21.5 -18.999 -28.5s-20.666 -10.5 -33.999 -10.5zM132.996 529.999c-15.333 0 -30.334 -3.83398 -45.001 -11.501s-26.334 -19.5 -35.001 -35.5c-8 -15.333 -12 -30.666 -12 -45.999s4 -30.333 12 -45s19 -26.334 33 -35.001
c14.667 -8 30.334 -12 47.001 -12c15.333 0 30.666 4 45.999 12c14 8 25.333 19.333 34 34c8 14.667 12 30 12 46c0 15.333 -4 30.666 -12 45.999c-3.33301 6.66699 -7.66602 12.834 -12.999 18.501s-12.666 11.167 -21.999 16.5h1
c-7.33301 4.66699 -14.833 7.83398 -22.5 9.50098s-15.5 2.5 -23.5 2.5zM132.995 545.998c18.667 0 36.667 -4.66602 54 -13.999c17.333 -8.66699 30.666 -22.334 39.999 -41.001c10 -17.333 15 -35.333 15 -54c0 -18 -4.33301 -34.333 -13 -49
c-5.33301 -11.333 -11.333 -20.5 -18 -27.5s-14.667 -13.167 -24 -18.5h1c-28 -9.33301 -46.333 -14 -55 -14c-19.333 0 -37.666 4.66699 -54.999 14h1c-8 5.33301 -15.333 11.333 -22 18s-12.667 14.667 -18 24c-10 16.667 -15 34.334 -15 53.001c0 10 1.33301 19.333 4 28
s6.33398 17.667 11.001 27c9.33301 17.333 22.666 30.666 39.999 39.999s35.333 14 54 14zM132.995 559.999c-21.333 0 -41 -5.00293 -59 -15.0029c-21.333 -12 -37.333 -28 -48 -48c-5.33301 -10 -9.33301 -19.667 -12 -29s-4 -19.666 -4 -30.999c0 -23.333 6 -45 18 -65v1
c5.33301 -10 11 -17.833 17 -23.5s12.667 -11.167 20 -16.5l4 -3h-1c2.66699 -2 5.5 -4.16699 8.5 -6.5s6.83301 -4.83301 11.5 -7.5c22 -12 43.667 -18 65 -18c12.667 0 32.667 5 60 15c9.33301 6 17.333 12.167 24 18.5s12.667 14.833 18 25.5h2
c10.667 16.667 16 36.667 16 60c0 24 -5.33301 44.333 -16 61l-1 1l-8 12c-2.66699 4 -5.66699 7.66699 -9 11h-1c-0.666992 0.666992 -1 1.33398 -1 2.00098s-0.333008 1.33398 -1 2.00098c-1.33301 1.33301 -2 2.33301 -2 3h-1c-10 12.667 -23.667 24.667 -41 36
c-18 10 -37.667 15 -59 15z" />
    <glyph glyph-name="FL00AAh" unicode="&#xaa;" horiz-adv-x="713" 
d="M43 -29l-17.001 16.999h-6v433c0 10.667 2.83301 21.667 8.5 33s13 21.5 22 30.5s19 16.333 30 22s21.833 8.5 32.5 8.5h459c15.333 0 30.333 -5 45 -15s26.334 -22.333 35.001 -37h1c8.66699 -8.66699 15.667 -18.167 21 -28.5s8 -21.166 8 -32.499v-431h-164l-17 17h-5
v172h-290v-189h-163zM33.999 420.999v-419h141v189h334v-189h142v419c0 10 -2.33301 19.833 -7 29.5s-10.834 18.167 -18.501 25.5s-16.167 13.333 -25.5 18s-18.666 7 -27.999 7h-459c-9.33301 0 -18.833 -2.33301 -28.5 -7s-18.167 -10.667 -25.5 -18
s-13.333 -15.833 -18 -25.5s-7 -19.5 -7 -29.5zM508.999 311.999h-334v57h334v-57zM205.999 337.999v-12h290v12h-290z" />
    <glyph glyph-name="FL00ABh" unicode="&#xab;" horiz-adv-x="387" 
d="M20 134v233l159 74v-8l17 -17v-43l143 68v-8l17 -17v-156l-50 -22l33 -15v-5l17 -17v-156l-154 71l-6 6v-77l-154 71l-13 12h1zM34 357v-215l131 -61v132l-80 39l80 35v132zM194 357v-215l131 -61v132l-79 39l79 35v132zM179 223v-5l1 -1v35l-35 -14z" />
    <glyph glyph-name="FL00ACh" unicode="&#xac;" horiz-adv-x="443" 
d="M20 325h375v-6l17 -17v-257h-142l-17 17h-6v98h-204l-17 17h-6v148zM261 191v-116h120v236h-347v-120h227z" />
    <glyph glyph-name="FL00ADh" unicode="&#xad;" horiz-adv-x="371" 
d="M34 190v119h275v-119h-275zM20 323v-147h6l17 -17h297v141l-17 17v6h-303z" />
    <glyph glyph-name="FL00AEh" unicode="&#xae;" horiz-adv-x="294" 
d="M71 417c0 7.33301 0.333008 12 1 14v-28c-0.666992 2 -1 6.66699 -1 14zM140 388l14.001 -23.999h3l1 -1c-6 -2.66699 -14 -4 -24 -4v38c1.33301 -2.66699 2.66602 -4.83398 3.99902 -6.50098zM193.001 488.001l-1.00098 -0.00195312l3 -3
c1.33301 -1.33301 2.33301 -2.5 3 -3.5l1 -1.5v-1c0.666992 0 1 -0.333008 1 -1c7.33301 -16 11 -29.667 11 -41c0 -8.66699 -2.66699 -19.334 -8 -32.001l-3 -6c-0.666992 -2 -2.66699 -4.66699 -6 -8c-2 2.66699 -3.83301 5.16699 -5.5 7.5s-3.16699 4.5 -4.5 6.5
c14 6.66699 21 19.334 21 38.001c0 8.66699 -2.66699 16.667 -8 24l-2 2h1l-10 10v-1l-6 12h-1c-3.33301 3.33301 -5.66602 5.33301 -6.99902 6c3.33301 -1.33301 6.83301 -2.66602 10.5 -3.99902s7.16699 -2.66602 10.5 -3.99902zM103 478.999v-36.999h24
c12 0 20 1.66699 24 5s6 7.66602 6 12.999c0 8.66699 -4 14.667 -12 18h1c-0.666992 0.666992 -7.66699 1 -21 1h-22zM86 494l39.001 -0.00195312c14 0 23 -1 27 -3c8.66699 -4 14.667 -8.66699 18 -14s5 -10.333 5 -15c0 -7.33301 -3 -14.166 -9 -20.499
s-14 -9.83301 -24 -10.5v-2c5.33301 -2 9.66602 -5.16699 12.999 -9.5s8 -11.166 14 -20.499l13 -21h-21l-9 17c-9.33301 17.333 -16.333 27 -21 29c-2.66699 2.66699 -8 4 -16 4h-12v-50h-17v116zM133.001 529.998c-15.333 0 -30.334 -3.83398 -45.001 -11.501
s-26.334 -19.5 -35.001 -35.5c-8 -15.333 -12 -30.666 -12 -45.999s4 -30.333 12 -45s19 -26.334 33 -35.001c14.667 -8 30.334 -12 47.001 -12c15.333 0 30.666 4 45.999 12c14 8 25.333 19.333 34 34c8 14.667 12 30 12 46c0 15.333 -4 30.666 -12 45.999
c-3.33301 6.66699 -7.66602 12.834 -12.999 18.501s-12.666 11.167 -21.999 16.5h1c-7.33301 4.66699 -14.833 7.83398 -22.5 9.50098s-15.5 2.5 -23.5 2.5zM133 545.997c18.667 0 36.667 -4.66602 54 -13.999c17.333 -8.66699 30.666 -22.334 39.999 -41.001
c10 -17.333 15 -35.333 15 -54c0 -18 -4.33301 -34.333 -13 -49c-5.33301 -11.333 -11.333 -20.5 -18 -27.5s-14.667 -13.167 -24 -18.5h1c-28 -9.33301 -46.333 -14 -55 -14c-19.333 0 -37.666 4.66699 -54.999 14h1c-8 5.33301 -15.333 11.333 -22 18
s-12.667 14.667 -18 24c-10 16.667 -15 34.334 -15 53.001c0 10 1.33301 19.333 4 28s6.33398 17.667 11.001 27c9.33301 17.333 22.666 30.666 39.999 39.999s35.333 14 54 14zM133 559.998c-21.333 0 -41 -5.00293 -59 -15.0029c-21.333 -12 -37.333 -28 -48 -48
c-5.33301 -10 -9.33301 -19.667 -12 -29s-4 -19.666 -4 -30.999c0 -23.333 6 -45 18 -65v1c5.33301 -10 11 -17.833 17 -23.5s12.667 -11.167 20 -16.5l4 -3h-1c2.66699 -2 5.5 -4.16699 8.5 -6.5s6.83301 -4.83301 11.5 -7.5c22 -12 43.667 -18 65 -18
c12.667 0 32.667 5 60 15c9.33301 6 17.333 12.167 24 18.5s12.667 14.833 18 25.5h2c10.667 16.667 16 36.667 16 60c0 24 -5.33301 44.333 -16 61l-1 1l-8 12c-2.66699 4 -5.66699 7.66699 -9 11h-1c-0.666992 0.666992 -1 1.33398 -1 2.00098
s-0.333008 1.33398 -1 2.00098c-1.33301 1.33301 -2 2.33301 -2 3h-1c-10 12.667 -23.667 24.667 -41 36c-18 10 -37.667 15 -59 15z" />
    <glyph glyph-name="FL00AFh" unicode="&#xaf;" horiz-adv-x="583" 
d="M20 547h515v-6l17 -17v-127h-509l-17 16h-6v134zM34 533v-106h487v106h-487z" />
    <glyph glyph-name="FL00B0h" unicode="&#xb0;" horiz-adv-x="228" 
d="M20 532v158h160v-6l17 -17v-152h-154l-17 17h-6zM34 676v-130h132v130h-132zM80 589v44h40v-44h-40z" />
    <glyph glyph-name="FL00B1h" unicode="&#xb1;" horiz-adv-x="443" 
d="M20 407h112v108h149v-6l16 -17v-85h98v-6l17 -17v-143h-115v-105h98v-5l17 -17v-143h-369l-17 17h-6v148h129l-11 11h-6v94h-89l-17 17h-6v149zM146 393h-112v-121h112v-111h121v111h114v121h-114v108h-121v-108zM34 123v-121h347v121h-347z" />
    <glyph glyph-name="FL00B2h" unicode="&#xb2;" horiz-adv-x="394" 
d="M34 299v108c0 13.333 4.16699 25 12.5 35s17.5 15 27.5 15h166v16h-204v73h253c13.333 0 23.833 -5.5 31.5 -16.5s11.5 -22.833 11.5 -35.5v-76c-1.33301 -7.33301 -5.33301 -14 -12 -20s-13.667 -9 -21 -9h-162c-7.33301 -2 -11 -6.66699 -11 -14v-2h206v-74h-298z
M26 285l16.999 -16.999h320v97l-11 9c4 5.33301 7.66699 12.666 11 21.999v78c0 20 -6.33301 36.333 -19 49l-6 6v-1c-4.66699 9.33301 -11.167 17 -19.5 23s-18.166 9 -29.499 9h-267v-101h6l7 -8c-10 -12 -15 -26.667 -15 -44v-122h6z" />
    <glyph glyph-name="FL00B3h" unicode="&#xb3;" horiz-adv-x="394" 
d="M22 286v101h3v72h-3v101h267c11.333 0 21.166 -3 29.499 -9s14.833 -13.667 19.5 -23v1l6 -6c12.667 -12.667 19 -29 19 -49v-141c0 -16.667 -4.66699 -31.5 -14 -44.5s-22.666 -19.5 -39.999 -19.5h-264l-17 17h-6zM240 457h-201v-68h201v-16h-204v-73h253
c13.333 0 23.833 5.5 31.5 16.5s11.5 23.167 11.5 36.5v141c0 12.667 -3.83301 24.5 -11.5 35.5s-18.167 16.5 -31.5 16.5h-253v-73h204v-16z" />
    <glyph glyph-name="FL00B4h" unicode="&#xb4;" horiz-adv-x="225" 
d="M34 546l59 130h133l-63 -130h-129zM84 690l-71 -158h8l17 -17h152l73 152l-18 16l3 7h-164z" />
    <glyph glyph-name="FL00B5h" unicode="&#xb5;" horiz-adv-x="713" 
d="M189 515l0.00195312 -5.99902l17 -16v-344h290v366h169v-6l17 -16v-431c0 -11.333 -2.66699 -22.333 -8 -33s-12.333 -20.334 -21 -29.001s-18.334 -15.667 -29.001 -21s-21.334 -8 -32.001 -8h-386v-133h-163l-17 17h-6v660h169zM175.002 135.001v367h-141v-633h141v133
h397c9.33301 0 18.666 2.33301 27.999 7s17.833 10.667 25.5 18s13.834 15.833 18.501 25.5s7 19.5 7 29.5v420h-142v-367h-334z" />
    <glyph glyph-name="FL00B6h" unicode="&#xb6;" horiz-adv-x="610" 
d="M174 -144l-0.00195312 199.002h-41c-11.333 0 -22.166 2.5 -32.499 7.5s-19.833 11.833 -28.5 20.5l-4 3c-13.333 9.33301 -24.666 21.166 -33.999 35.499s-14 29.166 -14 44.499v256c0 11.333 2.83301 22.5 8.5 33.5s13 21 22 30s19 16.167 30 21.5s21.833 8 32.5 8h449
v-6l17 -16v-654h-163l-17 17h-6v482h-32v-499h-164l-17 17h-6zM187.998 86.002v-216h142v499h77v-499h141v632h-435c-9.33301 0 -18.833 -2.33301 -28.5 -7s-18.167 -10.667 -25.5 -18s-13.333 -15.833 -18 -25.5s-7 -19.5 -7 -29.5v-256c0 -10 2.33301 -19.833 7 -29.5
s10.667 -18.167 18 -25.5s15.833 -13.333 25.5 -18s19.167 -7 28.5 -7h75z" />
    <glyph glyph-name="FL00B7h" unicode="&#xb7;" horiz-adv-x="236" 
d="M43 153l-17 17h-6v159h168v-6l17 -16v-154h-162zM34 315v-131h140v131h-140z" />
    <glyph glyph-name="FL00B8h" unicode="&#xb8;" horiz-adv-x="207" 
d="M-78 -35h97v49h140v-6l17 -17v-182h-232l-16 17h-6v139zM33 -49h-97v-111h209v160h-112v-49z" />
    <glyph glyph-name="FL00B9h" unicode="&#xb9;" horiz-adv-x="220" 
d="M42 427l-16 17h-6v116h100c8 0 16.5 -3.83301 25.5 -11.5s15.833 -16.167 20.5 -25.5h1v1l1 -1l4 -3c11.333 -10 17 -20.667 17 -32v-220h-114l-17 17h-6v142h-10zM66 458l0.000976562 -159.001h92v209c0 4 -1.33301 8.16699 -4 12.5s-5.83398 8.33301 -9.50098 12
s-7.66699 6.83398 -12 9.50098s-8.5 4 -12.5 4h-86v-88h32z" />
    <glyph glyph-name="FL00BAh" unicode="&#xba;" horiz-adv-x="405" 
d="M60 285l-5 4.99902h1c-9.33301 4.66699 -17.666 11.834 -24.999 21.501s-11 18.5 -11 26.5v170c0 4.66699 1.83301 10.167 5.5 16.5s8.16699 12 13.5 17s11 9.33301 17 13s11.667 5.5 17 5.5h231c8 0 16.667 -3.66699 26 -11s16.666 -15.333 21.999 -24l5 -5
c11.333 -10 17 -20.667 17 -32v-170c0 -5.33301 -1.66699 -10.833 -5 -16.5s-7.5 -11 -12.5 -16s-10.5 -9.16699 -16.5 -12.5s-11.333 -5 -16 -5h-232c-10 0 -20.667 5.66699 -32 17zM343 337.999l0.00390625 170c0 4 -1.33301 8.16699 -4 12.5
s-5.83398 8.33301 -9.50098 12s-7.83398 6.83398 -12.501 9.50098s-9 4 -13 4h-231c-4 0 -8.33301 -1.33301 -13 -4s-8.83398 -5.83398 -12.501 -9.50098s-6.83398 -7.66699 -9.50098 -12s-4 -8.5 -4 -12.5v-170c0 -8 4.5 -16.5 13.5 -25.5s17.5 -13.5 25.5 -13.5h231
c8 0 16.5 4.5 25.5 13.5s13.5 17.5 13.5 25.5zM251.004 457.999v-71h-125v71h125zM157.004 426.999v-26h80v26h-80z" />
    <glyph glyph-name="FL00BBh" unicode="&#xbb;" horiz-adv-x="387" 
d="M196 267l6 -6l31 -14l-37 -18v38zM34 213l79 39l-79 35v132l131 -62v-215l-131 -61v132zM194 213l79 39l-79 35v132l131 -62v-215l-131 -61v132zM339 362v5l-159 74v-80l-1 1v5l-159 74v-163l10 -4h-1l13 -13l31 -14l-53 -24v-163l5 2l18 -17l137 62v-47l5 2l18 -17
l153 70v230z" />
    <glyph glyph-name="FL00BCh" unicode="&#xbc;" horiz-adv-x="757" 
d="M67 253v159h-33v89h87c8 0 16.5 -4.5 25.5 -13.5s13.5 -17.5 13.5 -25.5v-209h-93zM602 2v91h-172c-7.33301 0 -14.333 3 -21 9s-10.667 12.667 -12 20v128h93v-90h112v90h93v-248h-93zM234 2h-156l240 499h157zM165 479l5.00098 -4.99902c0 2.66699 -0.666992 4 -2 4
c-4.66699 9.33301 -11.5 17.833 -20.5 25.5s-17.833 11.5 -26.5 11.5h-101v-116h6l17 -17h10v-143h6l17 -17h93l-112 -234h8l17 -17h180l121 252v-103c3.33301 -16.667 13.333 -29.334 30 -38.001h-1l7 -6c9.33301 -9.33301 19.666 -14 30.999 -14h138v-74h6l17 -17h115v270
l-17 17v6h-121v-90h-67v67l-17 17v6h-103l111 228l-18 16l3 7h-188l-119 -249v176c0 5.33301 -1.5 10.833 -4.5 16.5s-6.83301 11.167 -11.5 16.5l-4 3l-1 1v-1h-1c0 0.666992 -1 1 -3 1z" />
    <glyph glyph-name="FL00BDh" unicode="&#xbd;" horiz-adv-x="756" 
d="M170 474l-4.99902 5c2 0 3 -0.333008 3 -1h1v1l1 -1l4 -3c4.66699 -5.33301 8.5 -10.833 11.5 -16.5s4.5 -11.167 4.5 -16.5v-176l119 249h188l-3 -7l18 -16l-111 -228h250c11.333 0 21.166 -3 29.499 -9s14.833 -13.667 19.5 -23v1l6 -6
c12.667 -12.667 19 -29.334 19 -50.001v-77c-3.33301 -9.33301 -7 -16.666 -11 -21.999l11 -10v-97h-321l-17 17h-6v123c0 16.667 5 31 15 43l-7 8h-6v61l-121 -252h-180l-17 17h-8l112 234h-93l-17 17h-6v143h-10l-17 17h-6v116h101c8.66699 0 17.5 -3.83301 26.5 -11.5
s15.833 -16.167 20.5 -25.5c1.33301 0 2 -1.33301 2 -4zM78.001 2h156l241 499h-157zM395.001 111v-109h299v75h-206v2c0 7.33301 3.66699 12 11 14h162c7.33301 0 14.333 3 21 9s10.667 12.667 12 20v75c0 13.333 -3.83301 25.5 -11.5 36.5s-18.167 16.5 -31.5 16.5h-254
v-74h204v-16h-166c-10 0 -19.167 -5 -27.5 -15s-12.5 -21.333 -12.5 -34zM67.001 412v-159h93v209c0 8 -4.5 16.5 -13.5 25.5s-17.5 13.5 -25.5 13.5h-87v-89h33z" />
    <glyph glyph-name="FL00BEh" unicode="&#xbe;" horiz-adv-x="908" 
d="M20 239v102h3v71h-3v102h268c11.333 0 21.166 -3 29.499 -9s14.833 -13.667 19.5 -23v1l6 -6c12.667 -12.667 19 -29.334 19 -50.001v-116l98 204h187l-3 -7l18 -16l-110 -228h102v-6l17 -17v-67h68v90h121v-6l17 -17v-270h-115l-17 17h-6v74h-138
c-11.333 0 -21.666 4.66699 -30.999 14l-7 6h1c-16.667 8.66699 -26.667 21.334 -30 38.001v103l-121 -252h-181l-17 17h-7l111 234h-11h-265l-17 17h-6zM228 2h157l241 499h-157zM238 410h-201v-67h201v-16h-204v-74h254c13.333 0 23.833 5.5 31.5 16.5
s11.5 23.167 11.5 36.5v141c0 13.333 -3.83301 25.5 -11.5 36.5s-18.167 16.5 -31.5 16.5h-254v-74h204v-16zM753 93v-91h93v248h-93v-90h-112v90h-93v-128c1.33301 -7.33301 5.33301 -14 12 -20s13.667 -9 21 -9h172z" />
    <glyph glyph-name="FL00BFh" unicode="&#xbf;" horiz-adv-x="698" 
d="M606 326v-5.99707l17 -17v-52c0 -11.333 -2.66699 -22.333 -8 -33s-12.333 -20.334 -21 -29.001s-18.334 -15.667 -29.001 -21s-21.334 -8 -32.001 -8h-327v-12h444v-6l17 -16v-155h-534c-11.333 0 -22.166 2.5 -32.499 7.5s-19.833 11.833 -28.5 20.5l-4 3
c-13.333 9.33301 -24.666 21.166 -33.999 35.499s-14 29.166 -14 44.499v150c0 10.667 2.83301 21.667 8.5 33s13 21.5 22 30.5s19 16.333 30 22s21.833 8.5 32.5 8.5h493zM592 271.003v41h-479c-9.33301 0 -18.833 -2.33301 -28.5 -7s-18.167 -10.667 -25.5 -18
s-13.333 -15.833 -18 -25.5s-7 -19.5 -7 -29.5v-150c0 -10 2.33301 -19.833 7 -29.5s10.667 -18.167 18 -25.5s15.833 -13.333 25.5 -18s19.167 -7 28.5 -7h523v133h-461v56h338c9.33301 0 18.666 2.33301 27.999 7s17.833 10.667 25.5 18s13.834 15.833 18.501 25.5
s7 19.5 7 29.5zM437 515.003h169v-6l17 -17v-154h-163l-17 17h-6v160zM451 501.003v-132h141v132h-141z" />
    <glyph glyph-name="FL00C0h" unicode="&#xc0;" horiz-adv-x="704" 
d="M394 217l62 75c4 4.66699 8.83301 9.66699 14.5 15s11.167 9.33301 16.5 12v-102h-93zM501 203l-0.000976562 132c0 4 -2.16699 8.16699 -6.5 12.5s-10.166 6.5 -17.499 6.5c-9.33301 0 -18.5 -4 -27.5 -12s-16.5 -15.333 -22.5 -22l-95 -117h169zM415.999 550l-64 132
h134l59 -132h-129zM499.999 686l-4 10h-165l76 -159h5l17 -17h153l-70 154l-12 13v-1zM641.999 389l-0.000976562 -386.999h-141v83h-256l-67 -83h-161l350 464c15.333 13.333 35.5 22.666 60.5 27.999s50.5 8 76.5 8c42 0 75.333 -8.83301 100 -26.5
s37.334 -46.5 38.001 -86.5zM-1.00195 -11.999l16.999 -17h189l66 83h216v-66h6l17 -17h163v398c0 19.333 -2.83301 36 -8.5 50s-13.5 26 -23.5 36h-2c-11.333 21.333 -28.666 36.833 -51.999 46.5s-51 14.5 -83 14.5c-28.667 0 -56 -2.66699 -82 -8
s-47.333 -15.333 -64 -30l-370 -490h11z" />
    <glyph glyph-name="FL00C1h" unicode="&#xc1;" horiz-adv-x="704" 
d="M394 217l62 75c4 4.66699 8.83301 9.66699 14.5 15s11.167 9.33301 16.5 12v-102h-93zM501 203l-0.000976562 132c0 4 -2.16699 8.16699 -6.5 12.5s-10.166 6.5 -17.499 6.5c-9.33301 0 -18.5 -4 -27.5 -12s-16.5 -15.333 -22.5 -22l-95 -117h169zM398.999 550l60 132
h133l-64 -132h-129zM449.999 696l-72 -159h8l17 -17h153l73 153l-18 16l3 7h-164zM641.999 389l-0.000976562 -386.999h-141v83h-256l-67 -83h-161l350 464c15.333 13.333 35.5 22.666 60.5 27.999s50.5 8 76.5 8c42 0 75.333 -8.83301 100 -26.5s37.334 -46.5 38.001 -86.5
zM-1.00195 -11.999l16.999 -17h189l66 83h216v-66h6l17 -17h163v398c0 19.333 -2.83301 36 -8.5 50s-13.5 26 -23.5 36h-2c-11.333 21.333 -28.666 36.833 -51.999 46.5s-51 14.5 -83 14.5c-28.667 0 -56 -2.66699 -82 -8s-47.333 -15.333 -64 -30l-370 -490h11z" />
    <glyph glyph-name="FL00C2h" unicode="&#xc2;" horiz-adv-x="704" 
d="M394 217l62 75c4 4.66699 8.83301 9.66699 14.5 15s11.167 9.33301 16.5 12v-102h-93zM501 203l-0.000976562 132c0 4 -2.16699 8.16699 -6.5 12.5s-10.166 6.5 -17.499 6.5c-9.33301 0 -18.5 -4 -27.5 -12s-16.5 -15.333 -22.5 -22l-95 -117h169zM472.999 630l-39 -80
h-133l62 132h215l62 -132h-132zM353.999 696l-74 -159h8l17 -17h157l23 48l14 -31h5l16 -17h157l-72 154l-13 12v-1l-4 11h-234zM641.999 389l-0.000976562 -386.999h-141v83h-256l-67 -83h-161l350 464c15.333 13.333 35.5 22.666 60.5 27.999s50.5 8 76.5 8
c42 0 75.333 -8.83301 100 -26.5s37.334 -46.5 38.001 -86.5zM-1.00195 -11.999l16.999 -17h189l66 83h216v-66h6l17 -17h163v398c0 19.333 -2.83301 36 -8.5 50s-13.5 26 -23.5 36h-2c-11.333 21.333 -28.666 36.833 -51.999 46.5s-51 14.5 -83 14.5
c-28.667 0 -56 -2.66699 -82 -8s-47.333 -15.333 -64 -30l-370 -490h11z" />
    <glyph glyph-name="FL00C3h" unicode="&#xc3;" horiz-adv-x="704" 
d="M394 217l62 75c4 4.66699 8.83301 9.66699 14.5 15s11.167 9.33301 16.5 12v-102h-93zM501 203l-0.000976562 132c0 4 -2.16699 8.16699 -6.5 12.5s-10.166 6.5 -17.499 6.5c-9.33301 0 -18.5 -4 -27.5 -12s-16.5 -15.333 -22.5 -22l-95 -117h169zM382.999 627l-38 -77
h-133l62 132h216l37 -78l36 78h133l-62 -132h-215zM714.999 689l3 7h-163l-25 -53l-13 31l-13 13v-1l-4 10h-235l-74 -159h8l17 -17h157l22 47l15 -30h5l17 -17h230l71 153zM641.999 389l-0.000976562 -386.999h-141v83h-256l-66 -83h-162l350 464
c15.333 13.333 35.5 22.666 60.5 27.999s50.5 8 76.5 8c42 0 75.333 -8.83301 100 -26.5s37.334 -46.5 38.001 -86.5zM-1.00195 -11.999l16.999 -17h189l66 83h216v-66h6l17 -17h163v398c0 19.333 -2.83301 36 -8.5 50s-13.5 26 -23.5 36h-2
c-11.333 21.333 -28.666 36.833 -51.999 46.5s-51 14.5 -83 14.5c-28.667 0 -56 -2.66699 -82 -8s-47.333 -15.333 -64 -30l-370 -490h11z" />
    <glyph glyph-name="FL0060h" unicode="&#xc4;" horiz-adv-x="704" 
d="M394 217l62 75c4 4.66699 8.83301 9.66699 14.5 15s11.167 9.33301 16.5 12v-102h-93zM501 203l-0.000976562 132c0 4 -2.16699 8.16699 -6.5 12.5s-10.166 6.5 -17.499 6.5c-9.33301 0 -18.5 -4 -27.5 -12s-16.5 -15.333 -22.5 -22l-95 -117h169zM507.999 550v132h133
v-132h-133zM298.999 550v132h134v-132h-134zM284.999 696v-159h6l17 -17h156v153l-17 17v6h-162zM493.999 696v-159h6l16 -17h156v153l-17 17v6h-161zM641.999 389l-0.000976562 -386.999h-141v83h-256l-67 -83h-161l350 464c15.333 13.333 35.5 22.666 60.5 27.999
s50.5 8 76.5 8c42 0 75.333 -8.83301 100 -26.5s37.334 -46.5 38.001 -86.5zM-1.00195 -11.999l16.999 -17h189l66 83h216v-66h6l17 -17h163v398c0 19.333 -2.83301 36 -8.5 50s-13.5 26 -23.5 36h-2c-11.333 21.333 -28.666 36.833 -51.999 46.5s-51 14.5 -83 14.5
c-28.667 0 -56 -2.66699 -82 -8s-47.333 -15.333 -64 -30l-370 -490h11z" />
    <glyph glyph-name="FL0061h" unicode="&#xc5;" horiz-adv-x="704" 
d="M16 -29l-16.999 17h-11l370 490c16.667 14.667 38 24.667 64 30s53.333 8 82 8c32 0 59.667 -4.83301 83 -14.5s40.666 -25.167 51.999 -46.5h2c10 -10 17.833 -22 23.5 -36s8.5 -30.667 8.5 -50v-398h-163l-17 17h-6v66h-216l-66 -83h-189zM501.001 85
l0.000976562 -83.001h141v387c-0.666992 40 -13.334 68.833 -38.001 86.5s-58 26.5 -100 26.5c-26 0 -51.5 -2.66699 -76.5 -8s-45.167 -14.666 -60.5 -27.999l-350 -464h161l67 83h256zM407.002 536.999v159h161v-6l17 -17v-153h-155l-17 17h-6zM421.002 681.999v-132h133
v132h-133zM501.002 334.999l0.000976562 -132h-169l95 117c6 6.66699 13.5 14 22.5 22s18.167 12 27.5 12c7.33301 0 13.166 -2.16699 17.499 -6.5s6.5 -8.5 6.5 -12.5zM456.003 291.999l-62 -75h93v102c-5.33301 -2.66699 -10.833 -6.66699 -16.5 -12
s-10.5 -10.333 -14.5 -15zM468.003 593.999v44h40v-44h-40z" />
    <glyph glyph-name="FL00C6h" unicode="&#xc6;" horiz-adv-x="1124" 
d="M1092 160h-418v-12h402v-6l17 -16v-155h-583l-17 17h-6v66h-215l-66 -83h-190l-17 17h-11l370 489c16.667 14.667 38 24.667 64 30s53.333 8 82 8h572v-6l17 -17v-154h-419v-12h401v-6l17 -17v-143zM501 85v-83.001h561v133h-419v56h418v121h-418v57h419v132h-558
c-26 0 -51.5 -2.66699 -76.5 -8s-45.167 -14.666 -60.5 -27.999l-350 -463h162l67 83h255zM501 335.999l0.000976562 -133h-169l95 118c6 6.66699 13.5 14 22.5 22s18.167 12 27.5 12c7.33301 0 13.166 -2.16699 17.499 -6.5s6.5 -8.5 6.5 -12.5zM456.001 292.999l-62 -76
h93v103c-5.33301 -2.66699 -10.833 -6.66699 -16.5 -12s-10.5 -10.333 -14.5 -15z" />
    <glyph glyph-name="FL00C7h" unicode="&#xc7;" horiz-adv-x="656" 
d="M194 -35l97.998 0.00195312v6h-159c-11.333 0 -22.166 2.5 -32.499 7.5s-19.833 11.833 -28.5 20.5l-4 3c-13.333 9.33301 -24.666 21.166 -33.999 35.499s-14 29.166 -14 44.499v340c0 10.667 2.83301 21.667 8.5 33s13 21.5 22 30.5s19 16.333 30 22
s21.833 8.5 32.5 8.5h495v-6l17 -17v-155h-419v-189h402v-6l17 -17v-155h-175v-163h-233l-17 16h-6v141zM305.998 -48.998h-98v-113h211v164h175v133h-419v234h419v133h-481c-9.33301 0 -18.833 -2.33301 -28.5 -7s-18.167 -10.667 -25.5 -18s-13.333 -15.833 -18 -25.5
s-7 -19.5 -7 -29.5v-340c0 -10 2.33301 -19.833 7 -29.5s10.667 -18.167 18 -25.5s15.833 -13.333 25.5 -18s19.167 -7 28.5 -7h193v-51z" />
    <glyph glyph-name="FL00C8h" unicode="&#xc8;" horiz-adv-x="709" 
d="M287 550l-64 132h134l60 -132h-130zM371 686l-4 10h-165l76 -159h5l17 -17h154l-70 154l-13 13v-1zM505 312v57h-330v-234h472v-133h-534c-9.33301 0 -18.833 2.33301 -28.5 7s-18.167 10.667 -25.5 18s-13.333 15.833 -18 25.5s-7 19.5 -7 29.5v340
c0 10 2.33301 19.833 7 29.5s10.667 18.167 18 25.5s15.833 13.333 25.5 18s19.167 7 28.5 7h455c9.33301 0 18.666 -2.33301 27.999 -7s17.833 -10.667 25.5 -18s13.834 -15.833 18.501 -25.5s7 -19.5 7 -29.5v-151c0 -10 -2.33301 -19.833 -7 -29.5
s-10.834 -18.167 -18.501 -25.5s-16.167 -13.333 -25.5 -18s-18.666 -7 -27.999 -7h-335v121h272zM219 326l0.000976562 -148.002h6l17 -17h346c10.667 0 21.334 2.66699 32.001 8s20.334 12.166 29.001 20.499s15.667 17.833 21 28.5s8 21.667 8 33v151
c0 11.333 -2.66699 22.333 -8 33s-12.333 20.334 -21 29.001h-1c-8.66699 14.667 -20.334 27 -35.001 37s-29.667 15 -45 15h-455c-10.667 0 -21.5 -2.83301 -32.5 -8.5s-21 -13 -30 -22s-16.333 -19.167 -22 -30.5s-8.5 -22.333 -8.5 -33v-340
c0 -15.333 4.66699 -30.166 14 -44.499s20.666 -26.166 33.999 -35.499l4 -3c8.66699 -8.66699 18.167 -15.5 28.5 -20.5s21.166 -7.5 32.499 -7.5h545v155l-17 17v6h-455v189h286v-12h-273z" />
    <glyph glyph-name="FL00C9h" unicode="&#xc9;" horiz-adv-x="709" 
d="M263 550l60 132h134l-64 -132h-130zM314 696l-72 -159h8l17 -17h154l72 153l-17 16l3 7h-165zM505 312v57h-330v-234h472v-133h-534c-9.33301 0 -18.833 2.33301 -28.5 7s-18.167 10.667 -25.5 18s-13.333 15.833 -18 25.5s-7 19.5 -7 29.5v340
c0 10 2.33301 19.833 7 29.5s10.667 18.167 18 25.5s15.833 13.333 25.5 18s19.167 7 28.5 7h455c9.33301 0 18.666 -2.33301 27.999 -7s17.833 -10.667 25.5 -18s13.834 -15.833 18.501 -25.5s7 -19.5 7 -29.5v-151c0 -10 -2.33301 -19.833 -7 -29.5
s-10.834 -18.167 -18.501 -25.5s-16.167 -13.333 -25.5 -18s-18.666 -7 -27.999 -7h-335v121h272zM219 326l0.000976562 -148.002h6l17 -17h346c10.667 0 21.334 2.66699 32.001 8s20.334 12.166 29.001 20.499s15.667 17.833 21 28.5s8 21.667 8 33v151
c0 11.333 -2.66699 22.333 -8 33s-12.333 20.334 -21 29.001h-1c-8.66699 14.667 -20.334 27 -35.001 37s-29.667 15 -45 15h-455c-10.667 0 -21.5 -2.83301 -32.5 -8.5s-21 -13 -30 -22s-16.333 -19.167 -22 -30.5s-8.5 -22.333 -8.5 -33v-340
c0 -15.333 4.66699 -30.166 14 -44.499s20.666 -26.166 33.999 -35.499l4 -3c8.66699 -8.66699 18.167 -15.5 28.5 -20.5s21.166 -7.5 32.499 -7.5h545v155l-17 17v6h-455v189h286v-12h-273z" />
    <glyph glyph-name="FL00CAh" unicode="&#xca;" horiz-adv-x="709" 
d="M342 630l-39 -80h-133l62 132h216l61 -132h-132zM223 696l-73 -159h8l16 -17h157l23 48l14 -31h5l17 -17h156l-71 154l-13 12v-1l-4 11h-235zM505 312v57h-330v-234h472v-133h-534c-9.33301 0 -18.833 2.33301 -28.5 7s-18.167 10.667 -25.5 18s-13.333 15.833 -18 25.5
s-7 19.5 -7 29.5v340c0 10 2.33301 19.833 7 29.5s10.667 18.167 18 25.5s15.833 13.333 25.5 18s19.167 7 28.5 7h455c9.33301 0 18.666 -2.33301 27.999 -7s17.833 -10.667 25.5 -18s13.834 -15.833 18.501 -25.5s7 -19.5 7 -29.5v-151c0 -10 -2.33301 -19.833 -7 -29.5
s-10.834 -18.167 -18.501 -25.5s-16.167 -13.333 -25.5 -18s-18.666 -7 -27.999 -7h-335v121h272zM219 326l0.000976562 -148.002h6l17 -17h346c10.667 0 21.334 2.66699 32.001 8s20.334 12.166 29.001 20.499s15.667 17.833 21 28.5s8 21.667 8 33v151
c0 11.333 -2.66699 22.333 -8 33s-12.333 20.334 -21 29.001h-1c-8.66699 14.667 -20.334 27 -35.001 37s-29.667 15 -45 15h-455c-10.667 0 -21.5 -2.83301 -32.5 -8.5s-21 -13 -30 -22s-16.333 -19.167 -22 -30.5s-8.5 -22.333 -8.5 -33v-340
c0 -15.333 4.66699 -30.166 14 -44.499s20.666 -26.166 33.999 -35.499l4 -3c8.66699 -8.66699 18.167 -15.5 28.5 -20.5s21.166 -7.5 32.499 -7.5h545v155l-17 17v6h-455v189h286v-12h-273z" />
    <glyph glyph-name="FL00CBh" unicode="&#xcb;" horiz-adv-x="709" 
d="M378 550v132h133v-132h-133zM169 550v132h134v-132h-134zM156 696v-159h6l16 -17h156v153l-17 17v6h-161zM364 696v-159h6l17 -17h155v153l-17 17v6h-161zM505 312v57h-330v-234h472v-133h-534c-9.33301 0 -18.833 2.33301 -28.5 7s-18.167 10.667 -25.5 18
s-13.333 15.833 -18 25.5s-7 19.5 -7 29.5v340c0 10 2.33301 19.833 7 29.5s10.667 18.167 18 25.5s15.833 13.333 25.5 18s19.167 7 28.5 7h455c9.33301 0 18.666 -2.33301 27.999 -7s17.833 -10.667 25.5 -18s13.834 -15.833 18.501 -25.5s7 -19.5 7 -29.5v-151
c0 -10 -2.33301 -19.833 -7 -29.5s-10.834 -18.167 -18.501 -25.5s-16.167 -13.333 -25.5 -18s-18.666 -7 -27.999 -7h-335v121h272zM219 326l0.000976562 -148.002h6l17 -17h346c10.667 0 21.334 2.66699 32.001 8s20.334 12.166 29.001 20.499s15.667 17.833 21 28.5
s8 21.667 8 33v151c0 11.333 -2.66699 22.333 -8 33s-12.333 20.334 -21 29.001h-1c-8.66699 14.667 -20.334 27 -35.001 37s-29.667 15 -45 15h-455c-10.667 0 -21.5 -2.83301 -32.5 -8.5s-21 -13 -30 -22s-16.333 -19.167 -22 -30.5s-8.5 -22.333 -8.5 -33v-340
c0 -15.333 4.66699 -30.166 14 -44.499s20.666 -26.166 33.999 -35.499l4 -3c8.66699 -8.66699 18.167 -15.5 28.5 -20.5s21.166 -7.5 32.499 -7.5h545v155l-17 17v6h-455v189h286v-12h-273z" />
    <glyph glyph-name="FL00CCh" unicode="&#xcc;" horiz-adv-x="237" 
d="M71 550l-63 132h133l59 -132h-129zM34 369v133h142v-133h-142zM155 686l-4 10h-164l75 -159h5l17 -17h153l-69 154l-13 13v-1zM189 516h-169v-161h6l17 -17h163v155l-17 17v6zM34 2v308h142v-308h-142zM26 -12l17 -17h163v330l-17 17v6h-169v-336h6z" />
    <glyph glyph-name="FL00CDh" unicode="&#xcd;" horiz-adv-x="237" 
d="M8 550l59 132h133l-63 -132h-129zM34 369v133h142v-133h-142zM59 696l-72 -159h8l17 -17h153l72 153l-18 16l3 7h-163zM189 516h-169v-161h6l17 -17h163v155l-17 17v6zM34 2v308h142v-308h-142zM26 -12l17 -17h163v330l-17 17v6h-169v-336h6z" />
    <glyph glyph-name="FL00CEh" unicode="&#xce;" horiz-adv-x="238" 
d="M34 369v133h142v-133h-142zM190 516h-170v-161h6l17 -17h164v155l-17 17v6zM106 630l-38 -80h-132l62 132h214l62 -132h-133zM34 2v308h142v-308h-142zM-12 696l-74 -159h8l17 -17h157l22 48l14 -31h5l17 -17h156l-71 154l-13 12v-1l-4 11h-234zM26 -12l17 -17h164v330
l-17 17v6h-170v-336h6z" />
    <glyph glyph-name="FL00CFh" unicode="&#xcf;" horiz-adv-x="238" 
d="M142 550v132h134v-132h-134zM-66 550v132h134v-132h-134zM34 369v133h142v-133h-142zM128 696v-159h6l17 -17h155v153l-17 17v6h-161zM-80 696v-159h6l17 -17h155v153l-16 17v6h-162zM190 516h-170v-161h6l17 -17h164v155l-17 17v6zM34 2v308h142v-308h-142zM26 -12
l17 -17h164v330l-17 17v6h-170v-336h6z" />
    <glyph glyph-name="FL00D0h" unicode="&#xd0;" horiz-adv-x="800" 
d="M20 326h350.001v-6l17 -17v-143h-94v-12h289v190h-452l-17 17h-6v160h552c15.333 0 30.333 -5 45 -15s26.334 -22.333 35.001 -37h1c8.66699 -8.66699 15.667 -18.167 21 -28.5s8 -21.166 8 -32.499v-340c0 -11.333 -2.66699 -22.333 -8 -33s-12.333 -20.334 -21 -29.001
s-18.334 -15.667 -29.001 -21s-21.334 -8 -32.001 -8h-549l-17 17h-6v172h-64l-17 17h-6v149zM262.001 135v56h94v121h-322v-121h87v-189h538c9.33301 0 18.666 2.33301 27.999 7s17.833 10.667 25.5 18s13.834 15.833 18.501 25.5s7 19.5 7 29.5v339
c0 10 -2.33301 19.833 -7 29.5s-10.834 18.167 -18.501 25.5s-16.167 13.333 -25.5 18s-18.666 7 -27.999 7h-538v-132h475v-234h-334z" />
    <glyph glyph-name="FL00D1h" unicode="&#xd1;" 
d="M271 627l-38 -77h-132l62 132h215l37 -78l37 78h132l-62 -132h-215zM603 689l3 7h-163l-25 -53l-13 31l-13 13v-1l-4 10h-234l-74 -159h8l17 -17h156l22 47l15 -30h5l17 -17h230l71 153zM147 501l0.998047 0.00292969c9.33301 -1.33301 20.666 -6.5 33.999 -15.5
s30.333 -22.167 51 -39.5s45.334 -39.5 74.001 -66.5s63 -59.167 103 -96.5c15.333 -14 31.5 -29.333 48.5 -46s34.5 -33.667 52.5 -51v316h142v-438c0 -8 -2.16699 -15.667 -6.5 -23s-10.166 -13.833 -17.499 -19.5s-15.833 -10.334 -25.5 -14.001
s-19.834 -5.5 -30.501 -5.5h-27c-2 0 -3.33301 0.333008 -4 1c-10.667 1.33301 -25.167 8.33301 -43.5 21s-42.166 31.667 -71.499 57s-64.666 57.666 -105.999 96.999s-90 86 -146 140v-316h-141v438c0 7.33301 2.16699 14.666 6.5 21.999s10.166 14 17.499 20
s15.833 10.833 25.5 14.5s20.167 5.5 31.5 5.5h27c2.66699 0 4.33398 -0.333008 5.00098 -1zM141.998 516.003h-27.001c-13.333 0 -25.833 -2.33301 -37.5 -7s-21.667 -10.667 -30 -18s-15 -15.5 -20 -24.5s-7.5 -17.833 -7.5 -26.5v-452h6l17 -17h163v296
c56 -52.667 103.5 -97.334 142.5 -134.001s72.5 -66 100.5 -88c50.667 -44 86.667 -68 108 -72h-1c2.66699 -1.33301 6 -2 10 -2h27c12.667 0 24.5 2.16699 35.5 6.5s20.667 10 29 17s14.833 14.833 19.5 23.5s7 17.334 7 26.001v449l-17 17v6h-169v-298
c-8.66699 7.33301 -16.334 15 -23.001 23c-5.33301 4.66699 -10 9.16699 -14 13.5s-8.33301 8.83301 -13 13.5c-5.33301 4.66699 -10.166 9.16699 -14.499 13.5s-8.83301 8.5 -13.5 12.5c-39.333 36.667 -73.166 68.5 -101.499 95.5s-53 49.333 -74 67s-39 31.167 -54 40.5
s-28.167 15 -39.5 17h1c-2.66699 1.33301 -6 2 -10 2z" />
    <glyph glyph-name="FL00D2h" unicode="&#xd2;" 
d="M290 550l-64 132h134l60 -132h-130zM374 686l-4 10h-165l76 -159h5l17 -17h154l-70 154l-13 13v-1zM206 149v189h292v-189h-292zM175 369v-234h336v234h-336zM113 502h461c9.33301 0 18.666 -2.33301 27.999 -7s17.833 -10.667 25.5 -18s13.834 -15.833 18.501 -25.5
s7 -19.5 7 -29.5v-340c0 -10 -2.33301 -19.833 -7 -29.5s-10.834 -18.167 -18.501 -25.5s-16.167 -13.333 -25.5 -18s-18.666 -7 -27.999 -7h-461c-9.33301 0 -18.833 2.33301 -28.5 7s-18.167 10.667 -25.5 18s-13.333 15.833 -18 25.5s-7 19.5 -7 29.5v340
c0 10 2.33301 19.833 7 29.5s10.667 18.167 18 25.5s15.833 13.333 25.5 18s19.167 7 28.5 7zM574 516l-460.999 -0.00390625c-10.667 0 -21.5 -2.83301 -32.5 -8.5s-21 -13 -30 -22s-16.333 -19.167 -22 -30.5s-8.5 -22.333 -8.5 -33v-340
c0 -15.333 4.66699 -30.166 14 -44.499s20.666 -26.166 33.999 -35.499l4 -3c8.66699 -8.66699 18.167 -15.5 28.5 -20.5s21.166 -7.5 32.499 -7.5h461c10.667 0 21.334 2.66699 32.001 8s20.334 12.333 29.001 21s15.667 18.334 21 29.001s8 21.667 8 33v340
c0 11.333 -2.66699 22.333 -8 33s-12.333 20.334 -21 29.001h-1c-8.66699 14.667 -20.334 27 -35.001 37s-29.667 15 -45 15z" />
    <glyph glyph-name="FL00D3h" unicode="&#xd3;" 
d="M266 550l60 132h134l-64 -132h-130zM317 696l-72 -159h8l17 -17h154l73 153l-18 16l3 7h-165zM206 149v189h292v-189h-292zM511 135v234h-336v-234h336zM113 502h461c9.33301 0 18.666 -2.33301 27.999 -7s17.833 -10.667 25.5 -18s13.834 -15.833 18.501 -25.5
s7 -19.5 7 -29.5v-340c0 -10 -2.33301 -19.833 -7 -29.5s-10.834 -18.167 -18.501 -25.5s-16.167 -13.333 -25.5 -18s-18.666 -7 -27.999 -7h-461c-9.33301 0 -18.833 2.33301 -28.5 7s-18.167 10.667 -25.5 18s-13.333 15.833 -18 25.5s-7 19.5 -7 29.5v340
c0 10 2.33301 19.833 7 29.5s10.667 18.167 18 25.5s15.833 13.333 25.5 18s19.167 7 28.5 7zM574 516l-460.999 -0.00390625c-10.667 0 -21.5 -2.83301 -32.5 -8.5s-21 -13 -30 -22s-16.333 -19.167 -22 -30.5s-8.5 -22.333 -8.5 -33v-340
c0 -15.333 4.66699 -30.166 14 -44.499s20.666 -26.166 33.999 -35.499l4 -3c8.66699 -8.66699 18.167 -15.5 28.5 -20.5s21.166 -7.5 32.499 -7.5h461c10.667 0 21.334 2.66699 32.001 8s20.334 12.333 29.001 21s15.667 18.334 21 29.001s8 21.667 8 33v340
c0 11.333 -2.66699 22.333 -8 33s-12.333 20.334 -21 29.001h-1c-8.66699 14.667 -20.334 27 -35.001 37s-29.667 15 -45 15z" />
    <glyph glyph-name="FL00D4h" unicode="&#xd4;" 
d="M345 630l-39 -80h-133l62 132h216l61 -132h-132zM206 149v189h292v-189h-292zM226 696l-73 -159h8l16 -17h157l23 48l14 -31h5l17 -17h156l-71 154l-13 12v-1l-4 11h-235zM511 135v234h-336v-234h336zM113 502h461c9.33301 0 18.666 -2.33301 27.999 -7
s17.833 -10.667 25.5 -18s13.834 -15.833 18.501 -25.5s7 -19.5 7 -29.5v-340c0 -10 -2.33301 -19.833 -7 -29.5s-10.834 -18.167 -18.501 -25.5s-16.167 -13.333 -25.5 -18s-18.666 -7 -27.999 -7h-461c-9.33301 0 -18.833 2.33301 -28.5 7s-18.167 10.667 -25.5 18
s-13.333 15.833 -18 25.5s-7 19.5 -7 29.5v340c0 10 2.33301 19.833 7 29.5s10.667 18.167 18 25.5s15.833 13.333 25.5 18s19.167 7 28.5 7zM574 516l-460.999 -0.00390625c-10.667 0 -21.5 -2.83301 -32.5 -8.5s-21 -13 -30 -22s-16.333 -19.167 -22 -30.5
s-8.5 -22.333 -8.5 -33v-340c0 -15.333 4.66699 -30.166 14 -44.499s20.666 -26.166 33.999 -35.499l4 -3c8.66699 -8.66699 18.167 -15.5 28.5 -20.5s21.166 -7.5 32.499 -7.5h461c10.667 0 21.334 2.66699 32.001 8s20.334 12.333 29.001 21s15.667 18.334 21 29.001
s8 21.667 8 33v340c0 11.333 -2.66699 22.333 -8 33s-12.333 20.334 -21 29.001h-1c-8.66699 14.667 -20.334 27 -35.001 37s-29.667 15 -45 15z" />
    <glyph glyph-name="FL00D5h" unicode="&#xd5;" 
d="M271 627l-38 -77h-132l62 132h215l37 -78l37 78h132l-62 -132h-215zM206 149v189h292v-189h-292zM511 135v234h-336v-234h336zM603 689l3 7h-163l-25 -53l-13 31l-13 13v-1l-4 10h-234l-74 -159h8l17 -17h156l22 47l15 -30h5l17 -17h230l71 153zM113 502h461
c9.33301 0 18.666 -2.33301 27.999 -7s17.833 -10.667 25.5 -18s13.834 -15.833 18.501 -25.5s7 -19.5 7 -29.5v-340c0 -10 -2.33301 -19.833 -7 -29.5s-10.834 -18.167 -18.501 -25.5s-16.167 -13.333 -25.5 -18s-18.666 -7 -27.999 -7h-461
c-9.33301 0 -18.833 2.33301 -28.5 7s-18.167 10.667 -25.5 18s-13.333 15.833 -18 25.5s-7 19.5 -7 29.5v340c0 10 2.33301 19.833 7 29.5s10.667 18.167 18 25.5s15.833 13.333 25.5 18s19.167 7 28.5 7zM574 516l-460.999 -0.00390625
c-10.667 0 -21.5 -2.83301 -32.5 -8.5s-21 -13 -30 -22s-16.333 -19.167 -22 -30.5s-8.5 -22.333 -8.5 -33v-340c0 -15.333 4.66699 -30.166 14 -44.499s20.666 -26.166 33.999 -35.499l4 -3c8.66699 -8.66699 18.167 -15.5 28.5 -20.5s21.166 -7.5 32.499 -7.5h461
c10.667 0 21.334 2.66699 32.001 8s20.334 12.333 29.001 21s15.667 18.334 21 29.001s8 21.667 8 33v340c0 11.333 -2.66699 22.333 -8 33s-12.333 20.334 -21 29.001h-1c-8.66699 14.667 -20.334 27 -35.001 37s-29.667 15 -45 15z" />
    <glyph glyph-name="FL00D6h" unicode="&#xd6;" 
d="M381 550v132h133v-132h-133zM172 550v132h134v-132h-134zM159 696v-159h6l16 -17h156v153l-17 17v6h-161zM367 696v-159h6l17 -17h155v153l-17 17v6h-161zM206 149v189h292v-189h-292zM511 135v234h-336v-234h336zM113 502h461c9.33301 0 18.666 -2.33301 27.999 -7
s17.833 -10.667 25.5 -18s13.834 -15.833 18.501 -25.5s7 -19.5 7 -29.5v-340c0 -10 -2.33301 -19.833 -7 -29.5s-10.834 -18.167 -18.501 -25.5s-16.167 -13.333 -25.5 -18s-18.666 -7 -27.999 -7h-461c-9.33301 0 -18.833 2.33301 -28.5 7s-18.167 10.667 -25.5 18
s-13.333 15.833 -18 25.5s-7 19.5 -7 29.5v340c0 10 2.33301 19.833 7 29.5s10.667 18.167 18 25.5s15.833 13.333 25.5 18s19.167 7 28.5 7zM574 516l-460.999 -0.00390625c-10.667 0 -21.5 -2.83301 -32.5 -8.5s-21 -13 -30 -22s-16.333 -19.167 -22 -30.5
s-8.5 -22.333 -8.5 -33v-340c0 -15.333 4.66699 -30.166 14 -44.499s20.666 -26.166 33.999 -35.499l4 -3c8.66699 -8.66699 18.167 -15.5 28.5 -20.5s21.166 -7.5 32.499 -7.5h461c10.667 0 21.334 2.66699 32.001 8s20.334 12.333 29.001 21s15.667 18.334 21 29.001
s8 21.667 8 33v340c0 11.333 -2.66699 22.333 -8 33s-12.333 20.334 -21 29.001h-1c-8.66699 14.667 -20.334 27 -35.001 37s-29.667 15 -45 15z" />
    <glyph glyph-name="FL00D7h" unicode="&#xd7;" horiz-adv-x="409" 
d="M111 435l80 -80l80 81l104 -105l-2 -2l18 -18l-78 -78l63 -63l-2 -2l18 -18l-101 -100l-17 18l-2 -2l-63 62l-80 -79l-18 18l-2 -2l-104 104l82 82l-80 79zM191 335l-80 80l-84 -85l79 -79l-81 -82l84 -84l82 81l81 -80l84 84l-80 81l79 80l-84 85z" />
    <glyph glyph-name="FL00D8h" unicode="&#xd8;" 
d="M272 191v121h142v-121h-142zM264 177l17 -17h164v143l-17 17v6h-170v-149h6zM206 148v190h292v-190h-292zM511 135v234h-336v-234h336zM113 501h461c9.33301 0 18.666 -2.33301 27.999 -7s17.833 -10.667 25.5 -18s13.834 -15.833 18.501 -25.5s7 -19.5 7 -29.5v-339
c0 -10 -2.33301 -19.833 -7 -29.5s-10.834 -18.167 -18.501 -25.5s-16.167 -13.333 -25.5 -18s-18.666 -7 -27.999 -7h-461c-9.33301 0 -18.833 2.33301 -28.5 7s-18.167 10.667 -25.5 18s-13.333 15.833 -18 25.5s-7 19.5 -7 29.5v339c0 10 2.33301 19.833 7 29.5
s10.667 18.167 18 25.5s15.833 13.333 25.5 18s19.167 7 28.5 7zM574 515l-460.999 -0.00195312c-10.667 0 -21.5 -2.83301 -32.5 -8.5s-21 -13 -30 -22s-16.333 -19.167 -22 -30.5s-8.5 -22.333 -8.5 -33v-339c0 -15.333 4.66699 -30.166 14 -44.499
s20.666 -26.166 33.999 -35.499l4 -3c8.66699 -8.66699 18.167 -15.5 28.5 -20.5s21.166 -7.5 32.499 -7.5h461c10.667 0 21.334 2.66699 32.001 8s20.334 12.333 29.001 21s15.667 18.334 21 29.001s8 21.667 8 33v340c0 11.333 -2.66699 22.166 -8 32.499
s-12.333 19.833 -21 28.5h-1c-8.66699 14.667 -20.334 27 -35.001 37s-29.667 15 -45 15z" />
    <glyph glyph-name="FL00D9h" unicode="&#xd9;" horiz-adv-x="713" 
d="M289 550l-64 132h134l60 -132h-130zM373 686l-4 10h-165l76 -159h5l17 -17h154l-70 154l-13 13v-1zM175 502v-367h334v367h142v-500h-538c-9.33301 0 -18.833 2.33301 -28.5 7s-18.167 10.667 -25.5 18s-13.333 15.833 -18 25.5s-7 19.5 -7 29.5v420h141zM189 510
l0.00195312 5.99805h-169v-434c0 -15.333 4.66699 -30.166 14 -44.499s20.666 -26.166 33.999 -35.499l4 -3c8.66699 -8.66699 18.167 -15.5 28.5 -20.5s21.166 -7.5 32.499 -7.5h549v522l-17 17v6h-169v-367h-290v344z" />
    <glyph glyph-name="FL00DAh" unicode="&#xda;" horiz-adv-x="713" 
d="M265 550l60 132h134l-64 -132h-130zM316 696l-72 -159h8l17 -17h154l73 153l-18 16l3 7h-165zM175 502v-367h334v367h142v-500h-538c-9.33301 0 -18.833 2.33301 -28.5 7s-18.167 10.667 -25.5 18s-13.333 15.833 -18 25.5s-7 19.5 -7 29.5v420h141zM189 510
l0.00195312 5.99805h-169v-434c0 -15.333 4.66699 -30.166 14 -44.499s20.666 -26.166 33.999 -35.499l4 -3c8.66699 -8.66699 18.167 -15.5 28.5 -20.5s21.166 -7.5 32.499 -7.5h549v522l-17 17v6h-169v-367h-290v344z" />
    <glyph glyph-name="FL00DBh" unicode="&#xdb;" horiz-adv-x="713" 
d="M344 630l-39 -80h-133l62 132h216l61 -132h-132zM225 696l-73 -159h8l16 -17h157l23 48l14 -31h5l17 -17h156l-71 154l-13 12v-1l-4 11h-235zM175 502v-367h334v367h142v-500h-538c-9.33301 0 -18.833 2.33301 -28.5 7s-18.167 10.667 -25.5 18s-13.333 15.833 -18 25.5
s-7 19.5 -7 29.5v420h141zM189 510l0.00195312 5.99805h-169v-434c0 -15.333 4.66699 -30.166 14 -44.499s20.666 -26.166 33.999 -35.499l4 -3c8.66699 -8.66699 18.167 -15.5 28.5 -20.5s21.166 -7.5 32.499 -7.5h549v522l-17 17v6h-169v-367h-290v344z" />
    <glyph glyph-name="FL00DCh" unicode="&#xdc;" horiz-adv-x="713" 
d="M380 550v132h133v-132h-133zM171 550v132h134v-132h-134zM158 696v-159h6l16 -17h156v153l-17 17v6h-161zM366 696v-159h6l17 -17h155v153l-17 17v6h-161zM175 502v-367h334v367h142v-500h-538c-9.33301 0 -18.833 2.33301 -28.5 7s-18.167 10.667 -25.5 18
s-13.333 15.833 -18 25.5s-7 19.5 -7 29.5v420h141zM189 510l0.00195312 5.99805h-169v-434c0 -15.333 4.66699 -30.166 14 -44.499s20.666 -26.166 33.999 -35.499l4 -3c8.66699 -8.66699 18.167 -15.5 28.5 -20.5s21.166 -7.5 32.499 -7.5h549v522l-17 17v6h-169v-367
h-290v344z" />
    <glyph glyph-name="FL00DDh" unicode="&#xdd;" horiz-adv-x="698" 
d="M257 550l60 132h134l-64 -132h-130zM308 696l-72 -159h8l17 -17h154l72 153l-17 16l3 7h-165zM175 502v-190h319v190h142v-420c0 -10 -2.33301 -19.833 -7 -29.5s-10.834 -18.167 -18.501 -25.5s-16.167 -13.333 -25.5 -18s-18.666 -7 -27.999 -7h-523v133h460v56h-381
c-9.33301 0 -18.833 2.33301 -28.5 7s-18.167 10.667 -25.5 18s-13.333 15.833 -18 25.5s-7 19.5 -7 29.5v231h141zM189 510v5.99707h-169v-245c0 -15.333 4.66699 -30.166 14 -44.499s20.666 -26.166 33.999 -35.499l4 -3c8.66699 -8 18.167 -14.5 28.5 -19.5
s21.166 -7.5 32.499 -7.5h348v-12h-461v-161h6l17 -17h534c10.667 0 21.334 2.66699 32.001 8s20.334 12.333 29.001 21s15.667 18.334 21 29.001s8 21.667 8 33v431l-17 17v6h-169v-190h-275v167z" />
    <glyph glyph-name="FL00DEh" unicode="&#xde;" horiz-adv-x="676" 
d="M20 515l169.001 0.00390625v-6l17 -17v-72h329c15.333 0 30.333 -4.83301 45 -14.5s26.334 -21.834 35.001 -36.501h1c8.66699 -8.66699 15.667 -18.334 21 -29.001s8 -21.667 8 -33v-151c0 -10.667 -2.66699 -21.334 -8 -32.001s-12.333 -20.334 -21 -29.001
s-18.334 -15.667 -29.001 -21s-21.334 -8 -32.001 -8h-349v-95h-163l-17 17h-6v243h439v12h-416l-17 17h-6v255zM535.001 407.004h-360v94h-141v-227h438v-57h-438v-215h141v95h360c9.33301 0 18.666 2.16699 27.999 6.5s17.833 10.333 25.5 18s13.834 16.167 18.501 25.5
s7 19 7 29v151c0 10 -2.33301 19.833 -7 29.5s-10.834 18.167 -18.501 25.5s-16.167 13.333 -25.5 18s-18.666 7 -27.999 7z" />
    <glyph glyph-name="FL00DFh" unicode="&#xdf;" horiz-adv-x="713" 
d="M20 422c0 11.333 2.83301 22.502 8.5 33.502s13 21 22 30s19 16.167 30 21.5s21.833 8 32.5 8h383c15.333 0 30.333 -5 45 -15s26.334 -22 35.001 -36h1c8.66699 -8.66699 15.667 -18.334 21 -29.001s8 -21.667 8 -33v-89c14.667 -9.33301 26.334 -19.333 35.001 -30
l8 -8c8.66699 -8.66699 15.5 -18.5 20.5 -29.5s7.5 -22.167 7.5 -33.5v-150c0 -11.333 -2.66699 -22.333 -8 -33s-12.333 -20.334 -21 -29.001s-18.334 -15.667 -29.001 -21s-21.334 -8 -32.001 -8h-351l-17 17h-6v161h278v12h-255l-17 16h-6v149h207v12h-214v-470h-163
l-17 17h-6v537zM34 422.002l0.00195312 -523h141v470h259v-57h-207v-121h277v-56h-277v-133h340c9.33301 0 18.666 2.33301 27.999 7s17.833 10.667 25.5 18s13.834 15.833 18.501 25.5s7 19.5 7 29.5v150c0 8.66699 -2 17.5 -6 26.5s-9.33301 17.167 -16 24.5
s-14.334 13.5 -23.001 18.5s-17.334 8.16699 -26.001 9.5v111c0 10 -2.33301 19.667 -7 29s-10.834 17.833 -18.501 25.5s-16.167 13.667 -25.5 18s-18.666 6.5 -27.999 6.5h-383c-9.33301 0 -18.833 -2.16699 -28.5 -6.5s-18.167 -10.333 -25.5 -18
s-13.333 -16.167 -18 -25.5s-7 -19 -7 -29z" />
    <glyph glyph-name="FL00E0h" unicode="&#xe0;" horiz-adv-x="727" 
d="M319 217l43 79l42 -79h-85zM349 351l-80 -148h159zM301 550l-64 132h134l60 -132h-130zM385 686l-4 10h-165l76 -159h5l17 -17h154l-70 154l-13 13v-1zM525 2l-39 84h-273l-39 -84h-158l205 429c11.333 23.333 23.833 41 37.5 53s31.5 18 53.5 18h64
c44.667 0 78.667 -23.667 102 -71l204 -429h-157zM484 55l31.998 -67h5l17 -17h181l-211 444c-5.33301 9.33301 -10.5 18 -15.5 26s-10.167 14.667 -15.5 20h-1c-24.667 36.667 -58 55 -100 55h-64c-25.333 0 -45.666 -6.66699 -60.999 -20s-29.666 -33.333 -42.999 -60
l-213 -448h8l17 -17h181l38 84h245z" />
    <glyph glyph-name="FL00E1h" unicode="&#xe1;" horiz-adv-x="727" 
d="M320 217l43 79l42 -79h-85zM430 203l-80 148l-79 -148h159zM267 550l60 132h134l-64 -132h-130zM318 696l-72 -159h8l17 -17h154l73 153l-18 16l3 7h-165zM16 2l205.001 429c23.333 47.333 57.333 71 102 71h64c22.667 0 40.667 -6 54 -18s25.666 -29.667 36.999 -53
l204 -429h-157l-39 84h-273l-39 -84h-158zM484.001 55l32 -67h5l17 -17h181l-211 444c-6 11.333 -11.667 21.5 -17 30.5s-11 16.5 -17 22.5h-1c-10.667 16 -22.667 28 -36 36s-30 12 -50 12h-64c-50.667 0 -89 -26.667 -115 -80l-213 -448h8l17 -17h181l38 84h245z" />
    <glyph glyph-name="FL00E2h" unicode="&#xe2;" horiz-adv-x="727" 
d="M320 217l43 79l42 -79h-85zM430 203l-80 148l-79 -148h159zM351 630l-39 -80h-132l61 132h216l62 -132h-133zM232 696l-73 -159h8l16 -17h157l23 48l14 -31h5l17 -17h156l-71 154l-13 12v-1l-4 11h-235zM16 2l205.001 429c23.333 47.333 57.333 71 102 71h64
c22.667 0 40.667 -6 54 -18s25.666 -29.667 36.999 -53l204 -429h-157l-39 84h-273l-39 -84h-158zM484.001 55l32 -67h5l17 -17h181l-211 444c-6 11.333 -11.667 21.5 -17 30.5s-11 16.5 -17 22.5h-1c-10.667 16 -22.667 28 -36 36s-30 12 -50 12h-64
c-50.667 0 -89 -26.667 -115 -80l-213 -448h8l17 -17h181l38 84h245z" />
    <glyph glyph-name="FL00E3h" unicode="&#xe3;" horiz-adv-x="727" 
d="M320 217l43 79l42 -79h-85zM430 203l-80 148l-79 -148h159zM277 627l-38 -77h-132l62 132h215l37 -78l37 78h132l-61 -132h-216zM609 689l3 7h-163l-25 -53l-13 31l-13 13v-1l-4 10h-234l-74 -159h8l17 -17h156l22 47l15 -30h5l17 -17h230l71 153zM16 2l205.001 429
c23.333 47.333 57.333 71 102 71h64c22.667 0 40.667 -6 54 -18s25.666 -29.667 36.999 -53l204 -429h-157l-39 84h-273l-39 -84h-158zM484.001 55l32 -67h5l17 -17h181l-211 444c-6 11.333 -11.667 21.5 -17 30.5s-11 16.5 -17 22.5h-1c-10.667 16 -22.667 28 -36 36
s-30 12 -50 12h-64c-50.667 0 -89 -26.667 -115 -80l-213 -448h8l17 -17h181l38 84h245z" />
    <glyph glyph-name="FL00E4h" unicode="&#xe4;" horiz-adv-x="727" 
d="M320 217l43 79l42 -79h-85zM430 203l-80 148l-79 -148h159zM387 550v132h134v-132h-134zM179 550v132h133v-132h-133zM165 696v-159h6l16 -17h156v153l-17 17v6h-161zM373 696v-159h6l17 -17h155v153l-16 17v6h-162zM16 2l205.001 429c23.333 47.333 57.333 71 102 71h64
c22.667 0 40.667 -6 54 -18s25.666 -29.667 36.999 -53l204 -429h-157l-39 84h-273l-39 -84h-158zM484.001 55l32 -67h5l17 -17h181l-211 444c-6 11.333 -11.667 21.5 -17 30.5s-11 16.5 -17 22.5h-1c-10.667 16 -22.667 28 -36 36s-30 12 -50 12h-64
c-50.667 0 -89 -26.667 -115 -80l-213 -448h8l17 -17h181l38 84h245z" />
    <glyph glyph-name="FL00E5h" unicode="&#xe5;" horiz-adv-x="727" 
d="M516 -12l-32 67h-245l-38 -84h-181l-17 17h-8l213 448c26 53.333 64.333 80 115 80h64c20 0 36.667 -4 50 -12s25.333 -20 36 -36h1c6 -6 11.667 -13.5 17 -22.5s11 -19.167 17 -30.5l211 -444h-181l-17 17h-5zM221 431l-205.001 -429h158l39 84h273l39 -84h157l-204 429
c-11.333 23.333 -23.666 41 -36.999 53s-31.333 18 -54 18h-64c-44.667 0 -78.667 -23.667 -102 -71zM267.999 537v159h162v-6l17 -17v-153h-156l-17 17h-6zM281.999 682v-132h134v132h-134zM349.999 351l80 -148h-159zM362.999 296l-43 -79h85zM328.999 594v44h40v-44h-40z
" />
    <glyph glyph-name="FL00E6h" unicode="&#xe6;" horiz-adv-x="1108" 
d="M1076 160l-408.001 0.000976562v-12h392v-6l17 -16v-155h-539l-17 17h-5l-32 67h-244l-38 -84h-182l-17 17h-8l214 447c26 53.333 64 80 114 80h64c20 0 36.5 -3.83301 49.5 -11.5s24.5 -19.167 34.5 -34.5l3 -2c4 -4 8 -9 12 -15
c0 -0.666992 0.333008 -1.33398 1 -2.00098c8 17.333 20.333 32.5 37 45.5s33.334 19.5 50.001 19.5h486v-6l17 -17v-154h-409v-12h391v-6l17 -17v-143zM221.999 430.001l-206.001 -428h158l40 84h272l39 -84h521v133h-409v56h408v121h-408v57h409v132h-472
c-9.33301 0 -18.833 -2.33301 -28.5 -7s-18.167 -10.667 -25.5 -18s-13.333 -15.833 -18 -25.5s-7 -19.5 -7 -29.5v-22h-2l-15 31c-11.333 23.333 -23.666 41 -36.999 53s-31.333 18 -54 18h-64c-44 0 -77.667 -23.667 -101 -71zM270.998 203.001l79 148l80 -148h-159z
M362.998 296.001l-43 -79h85z" />
    <glyph glyph-name="FL00E7h" unicode="&#xe7;" horiz-adv-x="713" 
d="M202 -35l97.999 0.00390625v6h-167c-11.333 0 -22.166 2.5 -32.499 7.5s-19.833 11.833 -28.5 20.5l-4 3c-13.333 9.33301 -24.666 21.166 -33.999 35.499s-14 29.166 -14 44.499v340c0 10.667 2.83301 21.667 8.5 33s13 21.5 22 30.5s19 16.333 30 22
s21.833 8.5 32.5 8.5h459c15.333 0 30.333 -5 45 -15s26.334 -22.333 35.001 -37h1c8.66699 -8.66699 15.667 -18.334 21 -29.001s8 -21.667 8 -33v-124h-164l-17 17h-5v43h-290v-189h290v59h169v-6l17 -17v-123c0 -11.333 -2.66699 -22.333 -8 -33
s-12.333 -20.334 -21 -29.001s-18.334 -15.667 -29.001 -21s-21.334 -8 -32.001 -8h-134v-163h-233l-17 16h-6v141zM313.999 -48.9961h-98v-113h211v164h145c9.33301 0 18.666 2.33301 27.999 7s17.833 10.667 25.5 18s13.834 15.833 18.501 25.5s7 19.5 7 29.5v112h-142
v-59h-334v234h334v-60h142v113c0 10 -2.33301 19.833 -7 29.5s-10.834 18.167 -18.501 25.5s-16.167 13.333 -25.5 18s-18.666 7 -27.999 7h-459c-9.33301 0 -18.833 -2.33301 -28.5 -7s-18.167 -10.667 -25.5 -18s-13.333 -15.833 -18 -25.5s-7 -19.5 -7 -29.5v-340
c0 -10 2.33301 -19.833 7 -29.5s10.667 -18.167 18 -25.5s15.833 -13.333 25.5 -18s19.167 -7 28.5 -7h201v-51z" />
    <glyph glyph-name="FL00E8h" unicode="&#xe8;" horiz-adv-x="656" 
d="M269 550l-64 132h134l60 -132h-130zM353 686l-4 10h-165l76 -159h5l17 -17h154l-70 154l-13 13v-1zM594 2h-481c-9.33301 0 -18.833 2.33301 -28.5 7s-18.167 10.667 -25.5 18s-13.333 15.833 -18 25.5s-7 19.5 -7 29.5v340c0 10 2.33301 19.833 7 29.5
s10.667 18.167 18 25.5s15.833 13.333 25.5 18s19.167 7 28.5 7h481v-133h-419v-57h418v-121h-418v-56h419v-133zM206 161l418.002 -0.00195312v142l-17 17v6h-401v12h419v155l-17 17v6h-495c-10.667 0 -21.5 -2.83301 -32.5 -8.5s-21 -13 -30 -22
s-16.333 -19.167 -22 -30.5s-8.5 -22.333 -8.5 -33v-340c0 -15.333 4.66699 -30.166 14 -44.499s20.666 -26.166 33.999 -35.499l4 -3c8.66699 -8.66699 18.167 -15.5 28.5 -20.5s21.166 -7.5 32.499 -7.5h492v155l-17 17v6h-402v12z" />
    <glyph glyph-name="FL00E9h" unicode="&#xe9;" horiz-adv-x="656" 
d="M245 550l60 132h134l-64 -132h-130zM296 696l-72 -159h8l17 -17h154l72 153l-18 16l3 7h-164zM594 2h-481c-9.33301 0 -18.833 2.33301 -28.5 7s-18.167 10.667 -25.5 18s-13.333 15.833 -18 25.5s-7 19.5 -7 29.5v340c0 10 2.33301 19.833 7 29.5s10.667 18.167 18 25.5
s15.833 13.333 25.5 18s19.167 7 28.5 7h481v-133h-419v-57h418v-121h-418v-56h419v-133zM206 161l418.002 -0.00195312v142l-17 17v6h-401v12h419v155l-17 17v6h-495c-10.667 0 -21.5 -2.83301 -32.5 -8.5s-21 -13 -30 -22s-16.333 -19.167 -22 -30.5
s-8.5 -22.333 -8.5 -33v-340c0 -15.333 4.66699 -30.166 14 -44.499s20.666 -26.166 33.999 -35.499l4 -3c8.66699 -8.66699 18.167 -15.5 28.5 -20.5s21.166 -7.5 32.499 -7.5h492v155l-17 17v6h-402v12z" />
    <glyph glyph-name="FL00EAh" unicode="&#xea;" horiz-adv-x="656" 
d="M324 630l-39 -80h-133l62 132h216l61 -132h-132zM205 696l-73 -159h8l16 -17h157l23 48l14 -31h5l17 -17h156l-72 154l-12 12v-1l-4 11h-235zM594 2h-481c-9.33301 0 -18.833 2.33301 -28.5 7s-18.167 10.667 -25.5 18s-13.333 15.833 -18 25.5s-7 19.5 -7 29.5v340
c0 10 2.33301 19.833 7 29.5s10.667 18.167 18 25.5s15.833 13.333 25.5 18s19.167 7 28.5 7h481v-133h-419v-57h418v-121h-418v-56h419v-133zM206 161l418.002 -0.00195312v142l-17 17v6h-401v12h419v155l-17 17v6h-495c-10.667 0 -21.5 -2.83301 -32.5 -8.5
s-21 -13 -30 -22s-16.333 -19.167 -22 -30.5s-8.5 -22.333 -8.5 -33v-340c0 -15.333 4.66699 -30.166 14 -44.499s20.666 -26.166 33.999 -35.499l4 -3c8.66699 -8.66699 18.167 -15.5 28.5 -20.5s21.166 -7.5 32.499 -7.5h492v155l-17 17v6h-402v12z" />
    <glyph glyph-name="FL00EBh" unicode="&#xeb;" horiz-adv-x="656" 
d="M360 550v132h133v-132h-133zM151 550v132h134v-132h-134zM138 696v-159h6l16 -17h156v153l-17 17v6h-161zM346 696v-159h6l17 -17h155v153l-17 17v6h-161zM594 2h-481c-9.33301 0 -18.833 2.33301 -28.5 7s-18.167 10.667 -25.5 18s-13.333 15.833 -18 25.5
s-7 19.5 -7 29.5v340c0 10 2.33301 19.833 7 29.5s10.667 18.167 18 25.5s15.833 13.333 25.5 18s19.167 7 28.5 7h481v-133h-419v-57h418v-121h-418v-56h419v-133zM206 161l418.002 -0.00195312v142l-17 17v6h-401v12h419v155l-17 17v6h-495
c-10.667 0 -21.5 -2.83301 -32.5 -8.5s-21 -13 -30 -22s-16.333 -19.167 -22 -30.5s-8.5 -22.333 -8.5 -33v-340c0 -15.333 4.66699 -30.166 14 -44.499s20.666 -26.166 33.999 -35.499l4 -3c8.66699 -8.66699 18.167 -15.5 28.5 -20.5s21.166 -7.5 32.499 -7.5h492v155
l-17 17v6h-402v12z" />
    <glyph glyph-name="FL00ECh" unicode="&#xec;" horiz-adv-x="237" 
d="M71 550l-63 132h133l59 -132h-129zM155 686l-4 10h-164l75 -159h5l17 -17h153l-69 154l-13 13v-1zM34 2v500h142v-500h-142zM189 516h-169v-528h6l17 -17h163v522l-17 17v6z" />
    <glyph glyph-name="FL00EDh" unicode="&#xed;" horiz-adv-x="237" 
d="M8 550l59 132h133l-63 -132h-129zM59 696l-72 -159h8l17 -17h153l72 153l-18 16l3 7h-163zM34 2v500h142v-500h-142zM189 516h-169v-528h6l17 -17h163v522l-17 17v6z" />
    <glyph glyph-name="FL00EEh" unicode="&#xee;" horiz-adv-x="238" 
d="M106 630l-38 -80h-132l62 132h214l62 -132h-133zM-12 696l-74 -159h8l17 -17h157l22 48l14 -31h5l17 -17h156l-71 154l-13 12v-1l-4 11h-234zM34 2v500h142v-500h-142zM190 516h-170v-528h6l17 -17h164v522l-17 17v6z" />
    <glyph glyph-name="FL00EFh" unicode="&#xef;" horiz-adv-x="238" 
d="M142 550v132h134v-132h-134zM-66 550v132h134v-132h-134zM128 696v-159h6l17 -17h155v153l-17 17v6h-161zM-80 696v-159h6l17 -17h155v153l-16 17v6h-162zM34 2v500h142v-500h-142zM190 516h-170v-528h6l17 -17h164v522l-17 17v6z" />
    <glyph glyph-name="FL00F0h" unicode="&#xf0;" horiz-adv-x="709" 
d="M72 -1l-4.00098 3.00195c-13.333 9.33301 -24.666 21.166 -33.999 35.499s-14 29.166 -14 44.499v150c0 10.667 2.83301 21.667 8.5 33s13 21.5 22 30.5s19 16.333 30 22s21.833 8.5 32.5 8.5h349v-6l17 -17v-143h-273v-12h286v190h-449l-17 17h-6v160h548
c15.333 0 30.333 -5 45 -15s26.334 -22.333 35.001 -37h1c8.66699 -8.66699 15.667 -18.167 21 -28.5s8 -21.166 8 -32.499v-340c0 -11.333 -2.66699 -22.333 -8 -33s-12.333 -20.334 -21 -29.001s-18.334 -15.667 -29.001 -21s-21.334 -8 -32.001 -8h-455
c-11.333 0 -22.166 2.5 -32.499 7.5s-19.833 11.833 -28.5 20.5zM174.999 135.002v56h273v121h-335c-9.33301 0 -18.833 -2.33301 -28.5 -7s-18.167 -10.667 -25.5 -18s-13.333 -15.833 -18 -25.5s-7 -19.5 -7 -29.5v-150c0 -10 2.33301 -19.833 7 -29.5
s10.667 -18.167 18 -25.5s15.833 -13.333 25.5 -18s19.167 -7 28.5 -7h455c9.33301 0 18.666 2.33301 27.999 7s17.833 10.667 25.5 18s13.834 15.833 18.501 25.5s7 19.5 7 29.5v339c0 10 -2.33301 19.833 -7 29.5s-10.834 18.167 -18.501 25.5s-16.167 13.333 -25.5 18
s-18.666 7 -27.999 7h-534v-132h471v-234h-330z" />
    <glyph glyph-name="FL00F1h" unicode="&#xf1;" 
d="M271 627l-38 -77h-132l62 132h215l37 -78l37 78h132l-62 -132h-215zM603 689l3 7h-163l-25 -53l-13 31l-13 13v-1l-4 10h-234l-74 -159h8l17 -17h156l22 47l15 -30h5l17 -17h230l71 153zM147 501l1 0.00292969c9.33301 -1.33301 20.666 -6.5 33.999 -15.5
s30.333 -22.167 51 -39.5s45.334 -39.5 74.001 -66.5s63 -59.167 103 -96.5c15.333 -14 31.5 -29.333 48.5 -46s34.5 -33.667 52.5 -51v316h142v-438c0 -8 -2.16699 -15.667 -6.5 -23s-10.166 -13.833 -17.499 -19.5s-15.833 -10.334 -25.5 -14.001
s-19.834 -5.5 -30.501 -5.5h-28c-2 0 -3.33301 0.333008 -4 1c-10.667 1.33301 -25.167 8.33301 -43.5 21s-42 31.667 -71 57s-64.167 57.666 -105.5 96.999s-90 86 -146 140v-316h-141v438c0 7.33301 2.16699 14.666 6.5 21.999s10.166 14 17.499 20
s15.833 10.833 25.5 14.5s20.167 5.5 31.5 5.5h27c2.66699 0 4.33398 -0.333008 5.00098 -1zM142 516.003l-27.001 -0.000976562c-13.333 0 -25.833 -2.33301 -37.5 -7s-21.667 -10.667 -30 -18s-15 -15.5 -20 -24.5s-7.5 -17.833 -7.5 -26.5v-452h6l17 -17h163v296
c62 -59.333 113.833 -108.333 155.5 -147s76.5 -68.667 104.5 -90c40 -34 70 -53 90 -57h-1c2.66699 -1.33301 6 -2 10 -2h28c12.667 0 24.5 2.16699 35.5 6.5s20.667 10 29 17s14.833 14.833 19.5 23.5s7 17.334 7 26.001v449l-17 17v6h-169v-298
c-8.66699 7.33301 -16.334 15 -23.001 23c-5.33301 4.66699 -10 9.16699 -14 13.5s-8.33301 8.83301 -13 13.5c-5.33301 4.66699 -10.166 9.16699 -14.499 13.5s-8.83301 8.5 -13.5 12.5c-39.333 36.667 -73.166 68.5 -101.499 95.5s-53 49.333 -74 67s-39 31.167 -54 40.5
s-28.167 15 -39.5 17h1c-2.66699 1.33301 -6 2 -10 2z" />
    <glyph glyph-name="FL00F2h" unicode="&#xf2;" 
d="M290 550l-64 132h134l60 -132h-130zM374 686l-4 10h-165l76 -159h5l17 -17h154l-70 154l-13 13v-1zM206 149v189h292v-189h-292zM175 369v-234h336v234h-336zM113 502h461c9.33301 0 18.666 -2.33301 27.999 -7s17.833 -10.667 25.5 -18s13.834 -15.833 18.501 -25.5
s7 -19.5 7 -29.5v-340c0 -10 -2.33301 -19.833 -7 -29.5s-10.834 -18.167 -18.501 -25.5s-16.167 -13.333 -25.5 -18s-18.666 -7 -27.999 -7h-461c-9.33301 0 -18.833 2.33301 -28.5 7s-18.167 10.667 -25.5 18s-13.333 15.833 -18 25.5s-7 19.5 -7 29.5v340
c0 10 2.33301 19.833 7 29.5s10.667 18.167 18 25.5s15.833 13.333 25.5 18s19.167 7 28.5 7zM574 516l-460.999 -0.00390625c-10.667 0 -21.5 -2.83301 -32.5 -8.5s-21 -13 -30 -22s-16.333 -19.167 -22 -30.5s-8.5 -22.333 -8.5 -33v-340
c0 -15.333 4.66699 -30.166 14 -44.499s20.666 -26.166 33.999 -35.499l4 -3c8.66699 -8.66699 18.167 -15.5 28.5 -20.5s21.166 -7.5 32.499 -7.5h461c10.667 0 21.334 2.66699 32.001 8s20.334 12.333 29.001 21s15.667 18.334 21 29.001s8 21.667 8 33v340
c0 11.333 -2.66699 22.333 -8 33s-12.333 20.334 -21 29.001h-1c-8.66699 14.667 -20.334 27 -35.001 37s-29.667 15 -45 15z" />
    <glyph glyph-name="FL00F3h" unicode="&#xf3;" 
d="M266 550l60 132h134l-64 -132h-130zM317 696l-72 -159h8l17 -17h154l73 153l-18 16l3 7h-165zM206 149v189h292v-189h-292zM511 135v234h-336v-234h336zM113 502h461c9.33301 0 18.666 -2.33301 27.999 -7s17.833 -10.667 25.5 -18s13.834 -15.833 18.501 -25.5
s7 -19.5 7 -29.5v-340c0 -10 -2.33301 -19.833 -7 -29.5s-10.834 -18.167 -18.501 -25.5s-16.167 -13.333 -25.5 -18s-18.666 -7 -27.999 -7h-461c-9.33301 0 -18.833 2.33301 -28.5 7s-18.167 10.667 -25.5 18s-13.333 15.833 -18 25.5s-7 19.5 -7 29.5v340
c0 10 2.33301 19.833 7 29.5s10.667 18.167 18 25.5s15.833 13.333 25.5 18s19.167 7 28.5 7zM574 516l-460.999 -0.00390625c-10.667 0 -21.5 -2.83301 -32.5 -8.5s-21 -13 -30 -22s-16.333 -19.167 -22 -30.5s-8.5 -22.333 -8.5 -33v-340
c0 -15.333 4.66699 -30.166 14 -44.499s20.666 -26.166 33.999 -35.499l4 -3c8.66699 -8.66699 18.167 -15.5 28.5 -20.5s21.166 -7.5 32.499 -7.5h461c10.667 0 21.334 2.66699 32.001 8s20.334 12.333 29.001 21s15.667 18.334 21 29.001s8 21.667 8 33v340
c0 11.333 -2.66699 22.333 -8 33s-12.333 20.334 -21 29.001h-1c-8.66699 14.667 -20.334 27 -35.001 37s-29.667 15 -45 15z" />
    <glyph glyph-name="FL00F4h" unicode="&#xf4;" 
d="M345 630l-39 -80h-133l62 132h216l61 -132h-132zM206 149v189h292v-189h-292zM226 696l-73 -159h8l16 -17h157l23 48l14 -31h5l17 -17h156l-71 154l-13 12v-1l-4 11h-235zM511 135v234h-336v-234h336zM113 502h461c9.33301 0 18.666 -2.33301 27.999 -7
s17.833 -10.667 25.5 -18s13.834 -15.833 18.501 -25.5s7 -19.5 7 -29.5v-340c0 -10 -2.33301 -19.833 -7 -29.5s-10.834 -18.167 -18.501 -25.5s-16.167 -13.333 -25.5 -18s-18.666 -7 -27.999 -7h-461c-9.33301 0 -18.833 2.33301 -28.5 7s-18.167 10.667 -25.5 18
s-13.333 15.833 -18 25.5s-7 19.5 -7 29.5v340c0 10 2.33301 19.833 7 29.5s10.667 18.167 18 25.5s15.833 13.333 25.5 18s19.167 7 28.5 7zM574 516l-460.999 -0.00390625c-10.667 0 -21.5 -2.83301 -32.5 -8.5s-21 -13 -30 -22s-16.333 -19.167 -22 -30.5
s-8.5 -22.333 -8.5 -33v-340c0 -15.333 4.66699 -30.166 14 -44.499s20.666 -26.166 33.999 -35.499l4 -3c8.66699 -8.66699 18.167 -15.5 28.5 -20.5s21.166 -7.5 32.499 -7.5h461c10.667 0 21.334 2.66699 32.001 8s20.334 12.333 29.001 21s15.667 18.334 21 29.001
s8 21.667 8 33v340c0 11.333 -2.66699 22.333 -8 33s-12.333 20.334 -21 29.001h-1c-8.66699 14.667 -20.334 27 -35.001 37s-29.667 15 -45 15z" />
    <glyph glyph-name="FL00F5h" unicode="&#xf5;" 
d="M271 627l-38 -77h-132l62 132h215l37 -78l37 78h132l-62 -132h-215zM206 149v189h292v-189h-292zM511 135v234h-336v-234h336zM603 689l3 7h-163l-25 -53l-13 31l-13 13v-1l-4 10h-234l-74 -159h8l17 -17h156l22 47l15 -30h5l17 -17h230l71 153zM113 502h461
c9.33301 0 18.666 -2.33301 27.999 -7s17.833 -10.667 25.5 -18s13.834 -15.833 18.501 -25.5s7 -19.5 7 -29.5v-340c0 -10 -2.33301 -19.833 -7 -29.5s-10.834 -18.167 -18.501 -25.5s-16.167 -13.333 -25.5 -18s-18.666 -7 -27.999 -7h-461
c-9.33301 0 -18.833 2.33301 -28.5 7s-18.167 10.667 -25.5 18s-13.333 15.833 -18 25.5s-7 19.5 -7 29.5v340c0 10 2.33301 19.833 7 29.5s10.667 18.167 18 25.5s15.833 13.333 25.5 18s19.167 7 28.5 7zM574 516l-460.999 -0.00390625
c-10.667 0 -21.5 -2.83301 -32.5 -8.5s-21 -13 -30 -22s-16.333 -19.167 -22 -30.5s-8.5 -22.333 -8.5 -33v-340c0 -15.333 4.66699 -30.166 14 -44.499s20.666 -26.166 33.999 -35.499l4 -3c8.66699 -8.66699 18.167 -15.5 28.5 -20.5s21.166 -7.5 32.499 -7.5h461
c10.667 0 21.334 2.66699 32.001 8s20.334 12.333 29.001 21s15.667 18.334 21 29.001s8 21.667 8 33v340c0 11.333 -2.66699 22.333 -8 33s-12.333 20.334 -21 29.001h-1c-8.66699 14.667 -20.334 27 -35.001 37s-29.667 15 -45 15z" />
    <glyph glyph-name="FL00F6h" unicode="&#xf6;" 
d="M381 550v132h133v-132h-133zM172 550v132h134v-132h-134zM159 696v-159h6l16 -17h156v153l-17 17v6h-161zM367 696v-159h6l17 -17h155v153l-17 17v6h-161zM206 149v189h292v-189h-292zM511 135v234h-336v-234h336zM113 502h461c9.33301 0 18.666 -2.33301 27.999 -7
s17.833 -10.667 25.5 -18s13.834 -15.833 18.501 -25.5s7 -19.5 7 -29.5v-340c0 -10 -2.33301 -19.833 -7 -29.5s-10.834 -18.167 -18.501 -25.5s-16.167 -13.333 -25.5 -18s-18.666 -7 -27.999 -7h-461c-9.33301 0 -18.833 2.33301 -28.5 7s-18.167 10.667 -25.5 18
s-13.333 15.833 -18 25.5s-7 19.5 -7 29.5v340c0 10 2.33301 19.833 7 29.5s10.667 18.167 18 25.5s15.833 13.333 25.5 18s19.167 7 28.5 7zM574 516l-460.999 -0.00390625c-10.667 0 -21.5 -2.83301 -32.5 -8.5s-21 -13 -30 -22s-16.333 -19.167 -22 -30.5
s-8.5 -22.333 -8.5 -33v-340c0 -15.333 4.66699 -30.166 14 -44.499s20.666 -26.166 33.999 -35.499l4 -3c8.66699 -8.66699 18.167 -15.5 28.5 -20.5s21.166 -7.5 32.499 -7.5h461c10.667 0 21.334 2.66699 32.001 8s20.334 12.333 29.001 21s15.667 18.334 21 29.001
s8 21.667 8 33v340c0 11.333 -2.66699 22.333 -8 33s-12.333 20.334 -21 29.001h-1c-8.66699 14.667 -20.334 27 -35.001 37s-29.667 15 -45 15z" />
    <glyph glyph-name="FL00F7h" unicode="&#xf7;" horiz-adv-x="511" 
d="M174 342v131h134v-131h-134zM174 30v131h134v-131h-134zM34 191v121h415v-121h-415zM160 487v-159h6l2 -2h-148v-149h6l17 -17h117v-144h6l17 -17h156v153l-8 8h149v143l-17 17v6h-124v138l-17 17v6h-162z" />
    <glyph glyph-name="FL00F8h" unicode="&#xf8;" 
d="M206 290l121 -142h-121v142zM498 191l-126 147h126v-147zM511 369h-183l183 -216v216zM175 135h184l-184 215v-215zM574 2h-461c-9.33301 0 -18.833 2.33301 -28.5 7s-18.167 10.667 -25.5 18s-13.333 15.833 -18 25.5s-7 19.5 -7 29.5v339c0 10 2.33301 19.833 7 29.5
s10.667 18.167 18 25.5s15.833 13.333 25.5 18s19.167 7 28.5 7h461c9.33301 0 18.666 -2.33301 27.999 -7s17.833 -10.667 25.5 -18s13.834 -15.833 18.501 -25.5s7 -19.5 7 -29.5v-339c0 -10 -2.33301 -19.833 -7 -29.5s-10.834 -18.167 -18.501 -25.5
s-16.167 -13.333 -25.5 -18s-18.666 -7 -27.999 -7zM68 2l4.00098 -3.00195c8.66699 -8.66699 18.167 -15.5 28.5 -20.5s21.166 -7.5 32.499 -7.5h461c10.667 0 21.334 2.66699 32.001 8s20.334 12.333 29.001 21s15.667 18.334 21 29.001s8 21.667 8 33v340
c0 11.333 -2.66699 22.166 -8 32.499s-12.333 19.833 -21 28.5h-1c-8.66699 14.667 -20.334 27 -35.001 37s-29.667 15 -45 15h-461c-10.667 0 -21.5 -2.83301 -32.5 -8.5s-21 -13 -30 -22s-16.333 -19.167 -22 -30.5s-8.5 -22.333 -8.5 -33v-339
c0 -15.333 4.66699 -30.166 14 -44.499s20.666 -26.166 33.999 -35.499z" />
    <glyph glyph-name="FL00F9h" unicode="&#xf9;" horiz-adv-x="713" 
d="M289 550l-64 132h134l60 -132h-130zM373 686l-4 10h-165l76 -159h5l17 -17h154l-70 154l-13 13v-1zM572 2h-459c-9.33301 0 -18.833 2.33301 -28.5 7s-18.167 10.667 -25.5 18s-13.333 15.833 -18 25.5s-7 19.5 -7 29.5v420h141v-367h334v367h142v-420
c0 -10 -2.33301 -19.833 -7 -29.5s-10.834 -18.167 -18.501 -25.5s-16.167 -13.333 -25.5 -18s-18.666 -7 -27.999 -7zM189 510v5.99707h-169v-434c0 -15.333 4.66699 -30.166 14 -44.499s20.666 -26.166 33.999 -35.499l4 -3c8.66699 -8.66699 18.167 -15.5 28.5 -20.5
s21.166 -7.5 32.499 -7.5h459c10.667 0 21.334 2.66699 32.001 8s20.334 12.333 29.001 21s15.667 18.334 21 29.001s8 21.667 8 33v431l-17 17v6h-169v-367h-290v344z" />
    <glyph glyph-name="FL00FAh" unicode="&#xfa;" horiz-adv-x="713" 
d="M265 550l60 132h134l-64 -132h-130zM316 696l-72 -159h8l17 -17h154l73 153l-18 16l3 7h-165zM175 502v-367h334v367h142v-420c0 -10 -2.33301 -19.833 -7 -29.5s-10.834 -18.167 -18.501 -25.5s-16.167 -13.333 -25.5 -18s-18.666 -7 -27.999 -7h-459
c-9.33301 0 -18.833 2.33301 -28.5 7s-18.167 10.667 -25.5 18s-13.333 15.833 -18 25.5s-7 19.5 -7 29.5v420h141zM189 510v5.99707h-169v-434c0 -15.333 4.66699 -30.166 14 -44.499s20.666 -26.166 33.999 -35.499l4 -3c8.66699 -8.66699 18.167 -15.5 28.5 -20.5
s21.166 -7.5 32.499 -7.5h459c10.667 0 21.334 2.66699 32.001 8s20.334 12.333 29.001 21s15.667 18.334 21 29.001s8 21.667 8 33v431l-17 17v6h-169v-367h-290v344z" />
    <glyph glyph-name="FL00FBh" unicode="&#xfb;" horiz-adv-x="713" 
d="M344 630l-39 -80h-133l62 132h216l61 -132h-132zM225 696l-73 -159h8l16 -17h157l23 48l14 -31h5l17 -17h156l-71 154l-13 12v-1l-4 11h-235zM175 502v-367h334v367h142v-420c0 -10 -2.33301 -19.833 -7 -29.5s-10.834 -18.167 -18.501 -25.5s-16.167 -13.333 -25.5 -18
s-18.666 -7 -27.999 -7h-459c-9.33301 0 -18.833 2.33301 -28.5 7s-18.167 10.667 -25.5 18s-13.333 15.833 -18 25.5s-7 19.5 -7 29.5v420h141zM189 510v5.99707h-169v-434c0 -15.333 4.66699 -30.166 14 -44.499s20.666 -26.166 33.999 -35.499l4 -3
c8.66699 -8.66699 18.167 -15.5 28.5 -20.5s21.166 -7.5 32.499 -7.5h459c10.667 0 21.334 2.66699 32.001 8s20.334 12.333 29.001 21s15.667 18.334 21 29.001s8 21.667 8 33v431l-17 17v6h-169v-367h-290v344z" />
    <glyph glyph-name="FL00FCh" unicode="&#xfc;" horiz-adv-x="713" 
d="M380 550v132h133v-132h-133zM171 550v132h134v-132h-134zM158 696v-159h6l16 -17h156v153l-17 17v6h-161zM366 696v-159h6l17 -17h155v153l-17 17v6h-161zM175 502v-367h334v367h142v-420c0 -10 -2.33301 -19.833 -7 -29.5s-10.834 -18.167 -18.501 -25.5
s-16.167 -13.333 -25.5 -18s-18.666 -7 -27.999 -7h-459c-9.33301 0 -18.833 2.33301 -28.5 7s-18.167 10.667 -25.5 18s-13.333 15.833 -18 25.5s-7 19.5 -7 29.5v420h141zM189 510v5.99707h-169v-434c0 -15.333 4.66699 -30.166 14 -44.499s20.666 -26.166 33.999 -35.499
l4 -3c8.66699 -8.66699 18.167 -15.5 28.5 -20.5s21.166 -7.5 32.499 -7.5h459c10.667 0 21.334 2.66699 32.001 8s20.334 12.333 29.001 21s15.667 18.334 21 29.001s8 21.667 8 33v431l-17 17v6h-169v-367h-290v344z" />
    <glyph glyph-name="FL00FDh" unicode="&#xfd;" horiz-adv-x="698" 
d="M257 550l60 132h134l-64 -132h-130zM308 696l-72 -159h8l17 -17h154l72 153l-17 16l3 7h-165zM175 502v-190h319v190h142v-420c0 -10 -2.33301 -19.833 -7 -29.5s-10.834 -18.167 -18.501 -25.5s-16.167 -13.333 -25.5 -18s-18.666 -7 -27.999 -7h-523v133h460v56h-381
c-9.33301 0 -18.833 2.33301 -28.5 7s-18.167 10.667 -25.5 18s-13.333 15.833 -18 25.5s-7 19.5 -7 29.5v231h141zM189 510v5.99707h-169v-245c0 -15.333 4.66699 -30.166 14 -44.499s20.666 -26.166 33.999 -35.499l4 -3c8.66699 -8 18.167 -14.5 28.5 -19.5
s21.166 -7.5 32.499 -7.5h348v-12h-461v-161h6l17 -17h534c10.667 0 21.334 2.66699 32.001 8s20.334 12.333 29.001 21s15.667 18.334 21 29.001s8 21.667 8 33v431l-17 17v6h-169v-190h-275v167z" />
    <glyph glyph-name="FL00FEh" unicode="&#xfe;" horiz-adv-x="676" 
d="M20 515l169.001 0.00390625v-6l17 -17v-72h329c15.333 0 30.333 -4.83301 45 -14.5s26.334 -21.834 35.001 -36.501h1c8.66699 -8.66699 15.667 -18.334 21 -29.001s8 -21.667 8 -33v-151c0 -10.667 -2.66699 -21.334 -8 -32.001s-12.333 -20.334 -21 -29.001
s-18.334 -15.667 -29.001 -21s-21.334 -8 -32.001 -8h-349v-95h-163l-17 17h-6v243h439v12h-416l-17 17h-6v255zM535.001 407.004h-360v94h-141v-227h438v-57h-438v-215h141v95h360c9.33301 0 18.666 2.16699 27.999 6.5s17.833 10.333 25.5 18s13.834 16.167 18.501 25.5
s7 19 7 29v151c0 10 -2.33301 19.833 -7 29.5s-10.834 18.167 -18.501 25.5s-16.167 13.333 -25.5 18s-18.666 7 -27.999 7z" />
    <glyph glyph-name="FL00FFh" unicode="&#xff;" horiz-adv-x="698" 
d="M372 550v132h133v-132h-133zM163 550v132h134v-132h-134zM358 696v-159h6l17 -17h155v153l-17 17v6h-161zM150 696v-159h6l16 -17h156v153l-17 17v6h-161zM175 502v-190h319v190h142v-420c0 -10 -2.33301 -19.833 -7 -29.5s-10.834 -18.167 -18.501 -25.5
s-16.167 -13.333 -25.5 -18s-18.666 -7 -27.999 -7h-523v133h460v56h-381c-9.33301 0 -18.833 2.33301 -28.5 7s-18.167 10.667 -25.5 18s-13.333 15.833 -18 25.5s-7 19.5 -7 29.5v231h141zM189 510v5.99707h-169v-245c0 -15.333 4.66699 -30.166 14 -44.499
s20.666 -26.166 33.999 -35.499l4 -3c8.66699 -8 18.167 -14.5 28.5 -19.5s21.166 -7.5 32.499 -7.5h348v-12h-461v-161h6l17 -17h534c10.667 0 21.334 2.66699 32.001 8s20.334 12.333 29.001 21s15.667 18.334 21 29.001s8 21.667 8 33v431l-17 17v6h-169v-190h-275v167z
" />
    <glyph glyph-name="FL0152h" unicode="&#x152;" horiz-adv-x="1111" 
d="M1079 160l-416.002 0.00195312v-12h400v-6l17 -16v-155h-947c-11.333 0 -22.166 2.5 -32.499 7.5s-19.833 11.833 -28.5 20.5l-4 3c-13.333 9.33301 -24.666 21.166 -33.999 35.499s-14 29.166 -14 44.499v339c0 10.667 2.83301 21.667 8.5 33s13 21.5 22 30.5
s19 16.333 30 22s21.833 8.5 32.5 8.5h950v-6l17 -17v-154h-417v-12h399v-6l17 -17v-143zM112.998 2.00195h936v133h-417v56h416v121h-416v57h417v132h-936c-9.33301 0 -18.833 -2.33301 -28.5 -7s-18.167 -10.667 -25.5 -18s-13.333 -15.833 -18 -25.5s-7 -19.5 -7 -29.5
v-339c0 -10 2.33301 -19.833 7 -29.5s10.667 -18.167 18 -25.5s15.833 -13.333 25.5 -18s19.167 -7 28.5 -7zM175.998 369.002h313v-234h-313v234zM206.998 338.002v-190h268v190h-268z" />
    <glyph glyph-name="FL0153h" unicode="&#x153;" horiz-adv-x="1111" 
d="M1079 160l-416.002 0.00195312v-12h400v-6l17 -16v-155h-947c-11.333 0 -22.166 2.5 -32.499 7.5s-19.833 11.833 -28.5 20.5l-4 3c-13.333 9.33301 -24.666 21.166 -33.999 35.499s-14 29.166 -14 44.499v339c0 10.667 2.83301 21.667 8.5 33s13 21.5 22 30.5
s19 16.333 30 22s21.833 8.5 32.5 8.5h950v-6l17 -17v-154h-417v-12h399v-6l17 -17v-143zM112.998 2.00195h936v133h-417v56h416v121h-416v57h417v132h-936c-9.33301 0 -18.833 -2.33301 -28.5 -7s-18.167 -10.667 -25.5 -18s-13.333 -15.833 -18 -25.5s-7 -19.5 -7 -29.5
v-339c0 -10 2.33301 -19.833 7 -29.5s10.667 -18.167 18 -25.5s15.833 -13.333 25.5 -18s19.167 -7 28.5 -7zM175.998 369.002h313v-234h-313v234zM206.998 338.002v-190h268v190h-268z" />
    <glyph glyph-name="FL0160h" unicode="&#x160;" horiz-adv-x="760" 
d="M357 682l36 -80l38 80h132l-61 -132h-216l-62 132h133zM582 689l3 7h-163l-25 -53l-13 31l-13 13v-1l-4 10h-164l74 -159h5l17 -17h231l70 153zM556 135v56h-386c-9.33301 0 -18.833 2.33301 -28.5 7s-18.167 10.667 -25.5 18s-13.333 15.833 -18 25.5s-7 19.5 -7 29.5
v151c0 10 2.33301 19.833 7 29.5s10.667 18.167 18 25.5s15.833 13.333 25.5 18s19.167 7 28.5 7h528v-133h-466v-57h387c9.33301 0 18.666 -2.33301 27.999 -7s17.833 -10.667 25.5 -18s13.834 -15.833 18.501 -25.5s7 -19.5 7 -29.5v-150c0 -10 -2.33301 -19.833 -7 -29.5
s-10.834 -18.167 -18.501 -25.5s-16.167 -13.333 -25.5 -18s-18.666 -7 -27.999 -7h-585v133h522zM20 149v-161.004h6l17 -17h596c10.667 0 21.334 2.66699 32.001 8s20.334 12.333 29.001 21s15.667 18.334 21 29.001s8 21.667 8 33v150c0 11.333 -2.66699 22.333 -8 33
s-12.333 20.334 -21 29.001h-1c-8.66699 14.667 -20.334 27 -35.001 37s-29.667 15 -45 15h-356v12h466v155l-17 17v6h-542c-10.667 0 -21.5 -2.83301 -32.5 -8.5s-21 -13 -30 -22s-16.333 -19.167 -22 -30.5s-8.5 -22.333 -8.5 -33v-151
c0 -15.333 4.66699 -30.166 14 -44.499s20.666 -26.166 33.999 -35.499l4 -3c8.66699 -8 18.167 -14.5 28.5 -19.5s20.833 -7.5 31.5 -7.5h353v-12h-522z" />
    <glyph glyph-name="FL0161h" unicode="&#x161;" horiz-adv-x="703" 
d="M300 682l36 -80l38 80h132l-61 -132h-216l-62 132h133zM525 689l3 7h-163l-25 -53l-13 31l-13 13v-1l-4 10h-163l73 -159h5l17 -17h231l70 153zM499 135v56h-386c-9.33301 0 -18.833 2.33301 -28.5 7s-18.167 10.667 -25.5 18s-13.333 15.833 -18 25.5s-7 19.5 -7 29.5
v151c0 10 2.33301 19.833 7 29.5s10.667 18.167 18 25.5s15.833 13.333 25.5 18s19.167 7 28.5 7h528v-133h-466v-57h387c9.33301 0 18.666 -2.33301 27.999 -7s17.833 -10.667 25.5 -18s13.834 -15.833 18.501 -25.5s7 -19.5 7 -29.5v-150c0 -10 -2.33301 -19.833 -7 -29.5
s-10.834 -18.167 -18.501 -25.5s-16.167 -13.333 -25.5 -18s-18.666 -7 -27.999 -7h-528v133h465zM20 149l0.000976562 -161.004h6l17 -17h539c10.667 0 21.334 2.66699 32.001 8s20.334 12.333 29.001 21s15.667 18.334 21 29.001s8 21.667 8 33v150
c0 11.333 -2.66699 22.333 -8 33s-12.333 20.334 -21 29.001h-1c-8.66699 14.667 -20.334 27 -35.001 37s-29.667 15 -45 15h-356v12h466v155l-17 17v6h-542c-10.667 0 -21.5 -2.83301 -32.5 -8.5s-21 -13 -30 -22s-16.333 -19.167 -22 -30.5s-8.5 -22.333 -8.5 -33v-151
c0 -15.333 4.66699 -30.166 14 -44.499s20.666 -26.166 33.999 -35.499l4 -3c8.66699 -8 18.167 -14.5 28.5 -19.5s21.166 -7.5 32.499 -7.5h353v-12h-466z" />
    <glyph glyph-name="FL0178h" unicode="&#x178;" horiz-adv-x="698" 
d="M372 550v132h133v-132h-133zM163 550v132h134v-132h-134zM358 696v-159h6l17 -17h155v153l-17 17v6h-161zM150 696v-159h6l16 -17h156v153l-17 17v6h-161zM175 502v-190h319v190h142v-420c0 -10 -2.33301 -19.833 -7 -29.5s-10.834 -18.167 -18.501 -25.5
s-16.167 -13.333 -25.5 -18s-18.666 -7 -27.999 -7h-523v133h460v56h-381c-9.33301 0 -18.833 2.33301 -28.5 7s-18.167 10.667 -25.5 18s-13.333 15.833 -18 25.5s-7 19.5 -7 29.5v231h141zM189 510v5.99707h-169v-245c0 -15.333 4.66699 -30.166 14 -44.499
s20.666 -26.166 33.999 -35.499l4 -3c8.66699 -8 18.167 -14.5 28.5 -19.5s21.166 -7.5 32.499 -7.5h348v-12h-461v-161h6l17 -17h534c10.667 0 21.334 2.66699 32.001 8s20.334 12.333 29.001 21s15.667 18.334 21 29.001s8 21.667 8 33v431l-17 17v6h-169v-190h-275v167z
" />
    <glyph glyph-name="FL017Dh" unicode="&#x17d;" horiz-adv-x="656" 
d="M276 682l36 -80l38 80h132l-61 -132h-216l-61 132h132zM501 689l3 7h-163l-25 -53l-13 31l-13 13v-1l-4 10h-163l73 -159h5l17 -17h231l70 153zM564 395l-281.001 -260.002h311v-133h-560v47c0 8 2.16699 17.833 6.5 29.5s10.833 20.834 19.5 27.501l285 263h-311v133
h560v-43c0 -9.33301 -2.66699 -20.666 -8 -33.999s-12.666 -23.333 -21.999 -30zM25.999 354.998l16.999 -17h246l-242 -224c-9.33301 -8 -16.166 -18.5 -20.499 -31.5s-6.5 -24.167 -6.5 -33.5v-61h6l17 -17h582v155l-17 17v6h-251l237 219h-1c10 8 17.833 19.333 23.5 34
s8.5 27 8.5 37v54l-17 17v6h-588v-161h6z" />
    <glyph glyph-name="FL017Eh" unicode="&#x17e;" horiz-adv-x="656" 
d="M276 682l36 -80l38 80h132l-61 -132h-216l-61 132h132zM501 689l3 7h-163l-25 -53l-13 31l-13 13v-1l-4 10h-163l73 -159h5l17 -17h231l70 153zM564 395l-281.001 -260.002h311v-133h-560v47c0 8 2.16699 17.833 6.5 29.5s10.833 20.834 19.5 27.501l285 263h-311v133
h560v-43c0 -9.33301 -2.66699 -20.666 -8 -33.999s-12.666 -23.333 -21.999 -30zM25.999 354.998l16.999 -17h246l-242 -224c-9.33301 -8 -16.166 -18.5 -20.499 -31.5s-6.5 -24.167 -6.5 -33.5v-61h6l17 -17h582v155l-17 17v6h-251l237 219h-1c10 8 17.833 19.333 23.5 34
s8.5 27 8.5 37v54l-17 17v6h-588v-161h6z" />
    <glyph glyph-name="E" unicode="&#x192;" horiz-adv-x="696" 
d="M175 191l0.00292969 -56h459v-133h-521c-9.33301 0 -18.833 2.33301 -28.5 7s-18.167 10.667 -25.5 18s-13.333 15.833 -18 25.5s-7 19.5 -7 29.5v150c0 8.66699 2 17.5 6 26.5s9.33301 17.167 16 24.5s14.167 13.5 22.5 18.5s17.166 8.16699 26.499 9.5v110
c0 10 2.33301 19.833 7 29.5s10.667 18.167 18 25.5s15.666 13.333 24.999 18s18.666 7 27.999 7h451v-132h-388v-57h387v-121h-458zM68.0029 2l4.00293 -3.00195c8.66699 -8.66699 18.167 -15.5 28.5 -20.5s21.166 -7.5 32.499 -7.5h532v155l-17 16v6h-442v12h458v143
l-17 17v6h-370v12h388v154l-17 17v6h-465c-10.667 0 -21.334 -2.83301 -32.001 -8.5s-20.5 -13 -29.5 -22s-16.333 -19.167 -22 -30.5s-8.5 -22.333 -8.5 -33v-101c-19.333 -7.33301 -36 -19.333 -50 -36s-21 -34 -21 -52v-150c0 -15.333 4.66699 -30.166 14 -44.499
s20.666 -26.166 33.999 -35.499z" />
    <glyph glyph-name="FL02C6h" unicode="&#x2c6;" horiz-adv-x="435" 
d="M205 625l-39 -79h-132l62 130h214l62 -130h-132zM87 690l-74 -158h8l17 -17h156l23 49l14 -32h5l17 -17h156l-72 153l-13 12v-1l-4 11h-233z" />
    <glyph glyph-name="FL02DCh" unicode="&#x2dc;" horiz-adv-x="517" 
d="M204 622l-38 -76h-132l62 130h215l37 -77l37 77h132l-62 -130h-215zM536 683l3 7h-163l-25 -52l-13 30l-13 13v-1l-4 10h-234l-74 -158h8l17 -17h156l22 48l15 -31h5l17 -17h230l71 152z" />
    <glyph glyph-name="FL2013h" unicode="&#x2013;" horiz-adv-x="413" 
d="M34 190v119h317v-119h-317zM20 323v-147h6l17 -17h339v141l-17 17v6h-345z" />
    <glyph glyph-name="FL2014h" unicode="&#x2014;" horiz-adv-x="511" 
d="M34 190v119h415v-119h-415zM20 323v-147h6l17 -17h437v141l-17 17v6h-443z" />
    <glyph glyph-name="FL2018h" unicode="&#x2018;" horiz-adv-x="236" 
d="M34 296v127c0 7.33301 3 15.5 9 24.5s13.5 17.333 22.5 25s18.667 14.167 29 19.5s19.833 8 28.5 8h51v-204h-140zM26 282l17.001 -16.999h162v226l-17 17v6h-65c-10 0 -20.833 -3.16699 -32.5 -9.5s-22.834 -14 -33.501 -23s-19.5 -18.833 -26.5 -29.5
s-10.5 -20.334 -10.5 -29.001v-141h6z" />
    <glyph glyph-name="FL2019h" unicode="&#x2019;" horiz-adv-x="236" 
d="M85 295h-51v204h140v-127c0 -8 -3 -16.5 -9 -25.5s-13.5 -17.333 -22.5 -25s-18.667 -14 -29 -19s-19.833 -7.5 -28.5 -7.5zM188 513h-168v-232h6l17 -17h62c9.33301 0 19.833 3 31.5 9s22.5 13.333 32.5 22s18.5 18.167 25.5 28.5s10.5 19.833 10.5 28.5v138l-17 17v6z
" />
    <glyph glyph-name="FL201Ah" unicode="&#x201a;" horiz-adv-x="236" 
d="M85 -70h-51v204h140v-127c0 -8 -3 -16.5 -9 -25.5s-13.5 -17.333 -22.5 -25s-18.667 -14 -29 -19s-19.833 -7.5 -28.5 -7.5zM188 148h-168v-232h6l17 -17h62c9.33301 0 19.833 3 31.5 9s22.5 13.333 32.5 22s18.5 18.167 25.5 28.5s10.5 19.833 10.5 28.5v138l-17 17v6z
" />
    <glyph glyph-name="FL201Ch" unicode="&#x201c;" horiz-adv-x="416" 
d="M213 296v127c0 7.33301 3 15.5 9 24.5s13.5 17.333 22.5 25s18.667 14.167 29 19.5s19.833 8 28.5 8h52v-204h-141zM34 296v127c0 7.33301 3 15.5 9 24.5s13.5 17.333 22.5 25s18.667 14.167 29 19.5s19.833 8 28.5 8h52v-204h-141zM206 445v45.999l-17 17v6h-66
c-9.33301 0 -20 -3.16699 -32 -9.5s-23.333 -14 -34 -23s-19.5 -18.833 -26.5 -29.5s-10.5 -20.334 -10.5 -29.001v-141h6l17 -17h163v16l16 -16h163v226l-17 17v6h-66c-8 0 -16.667 -2.16699 -26 -6.5s-18.5 -9.66602 -27.5 -15.999s-17.333 -13.666 -25 -21.999
s-13.5 -16.5 -17.5 -24.5z" />
    <glyph glyph-name="FL201Dh" unicode="&#x201d;" horiz-adv-x="416" 
d="M86 295h-52v204h141v-127c0 -8 -3 -16.5 -9 -25.5s-13.5 -17.333 -22.5 -25s-18.667 -14 -29 -19s-19.833 -7.5 -28.5 -7.5zM265 295h-52v204h141v-127c0 -8 -3 -16.5 -9 -25.5s-13.5 -17.333 -22.5 -25s-18.667 -14 -29 -19s-19.833 -7.5 -28.5 -7.5zM368 513h-169.002
v-16l-10 10v6h-169v-232h6l17 -17h62c7.33301 0 15.5 1.83301 24.5 5.5s17.833 8.5 26.5 14.5s16.834 12.833 24.501 20.5s13.834 15.5 18.501 23.5v-47h6l17 -17h62c9.33301 0 19.833 3 31.5 9s22.667 13.333 33 22s19 18.167 26 28.5s10.5 19.833 10.5 28.5v138l-17 17v6z
" />
    <glyph glyph-name="FL201Eh" unicode="&#x201e;" horiz-adv-x="421" 
d="M86 -70h-52v204h141v-127c0 -8 -3 -16.5 -9 -25.5s-13.5 -17.333 -22.5 -25s-18.667 -14 -29 -19s-19.833 -7.5 -28.5 -7.5zM270 -70h-52v204h141v-127c0 -8 -3 -16.5 -9 -25.5s-13.5 -17.333 -22.5 -25s-18.667 -14 -29 -19s-19.833 -7.5 -28.5 -7.5zM373 148
l-168.999 -0.000976562v-21l-15 15v6h-169v-232h6l17 -17h62c8.66699 0 18 2.33301 28 7s19.833 10.834 29.5 18.501s18.167 16 25.5 25s12.666 17.833 15.999 26.5v-60h6l17 -17h62c9.33301 0 19.833 3 31.5 9s22.667 13.333 33 22s19 18.167 26 28.5
s10.5 19.833 10.5 28.5v138l-17 17v6z" />
    <glyph glyph-name="FL2020h" unicode="&#x2020;" horiz-adv-x="443" 
d="M122 -12v261h-79l-17 17h-6v148h102v101h170v-6l16 -17v-78h87v-6l17 -16v-143h-104v-278h-163l-17 17h-6zM136 280v-278h142v278h103v121h-103v100h-142v-100h-102v-121h102z" />
    <glyph glyph-name="FL2021h" unicode="&#x2021;" horiz-adv-x="443" 
d="M20 237h102v12h-79l-17 17h-6v148h102v101h170v-6l16 -17v-78h87v-6l17 -16v-143h-104v-12h87v-6l17 -17v-142h-104v-101h-163l-17 17h-6v84h-79l-17 17h-6v148zM136 223h-102v-120h102v-101h142v101h103v120h-103v57h103v121h-103v100h-142v-100h-102v-121h102v-57z" />
    <glyph glyph-name="bullet" unicode="&#x2022;" 
d="M113 501h461c9.33301 0 18.666 -2.33301 27.999 -7s17.833 -10.667 25.5 -18s13.834 -15.833 18.501 -25.5s7 -19.5 7 -29.5v-339c0 -10 -2.33301 -19.833 -7 -29.5s-10.834 -18.167 -18.501 -25.5s-16.167 -13.333 -25.5 -18s-18.666 -7 -27.999 -7h-461
c-9.33301 0 -18.833 2.33301 -28.5 7s-18.167 10.667 -25.5 18s-13.333 15.833 -18 25.5s-7 19.5 -7 29.5v339c0 10 2.33301 19.833 7 29.5s10.667 18.167 18 25.5s15.833 13.333 25.5 18s19.167 7 28.5 7zM574 515l-460.999 -0.00195312
c-10.667 0 -21.5 -2.83301 -32.5 -8.5s-21 -13 -30 -22s-16.333 -19.167 -22 -30.5s-8.5 -22.333 -8.5 -33v-339c0 -15.333 4.66699 -30.166 14 -44.499s20.666 -26.166 33.999 -35.499l4 -3c8.66699 -8.66699 18.167 -15.5 28.5 -20.5s21.166 -7.5 32.499 -7.5h461
c10.667 0 21.334 2.66699 32.001 8s20.334 12.333 29.001 21s15.667 18.334 21 29.001s8 21.667 8 33v340c0 11.333 -2.66699 22.166 -8 32.499s-12.333 19.833 -21 28.5h-1c-8.66699 14.667 -20.334 27 -35.001 37s-29.667 15 -45 15z" />
    <glyph glyph-name="FL2026h" unicode="&#x2026;" horiz-adv-x="616" 
d="M422 -29l-17 17h-6v159h169v-6l17 -16v-154h-163zM43 -29l-17 17h-6v159h169v-6l17 -16v-154h-163zM232 -29l-17 17h-6v159h170v-6l17 -16v-154h-164zM34 133v-131h141v131h-141zM223 133v-131h142v131h-142zM413 133v-131h141v131h-141z" />
    <glyph glyph-name="FL2030h" unicode="&#x2030;" horiz-adv-x="1235" 
d="M354 474l-4.99902 5c2 0 3 -0.333008 3 -1h1v1l1 -1l4 -3c11.333 -11.333 17 -22.333 17 -33v-118l91 191h188l-3 -7l18 -16l-110 -228h236c8 0 16.667 -3.66699 26 -11s16.666 -15.333 21.999 -24l4 -4c0.666992 -3.33301 1.66699 -5.33301 3 -6
c3.33301 10 10.333 20 21 30s20.667 15 30 15h233c8 0 16.667 -3.66699 26 -11s16.666 -15.333 21.999 -24l5 -5c11.333 -11.333 17 -22.333 17 -33v-170c0 -5.33301 -1.66699 -10.833 -5 -16.5s-7.5 -11 -12.5 -16s-10.5 -9.16699 -16.5 -12.5s-11.333 -5 -16 -5h-233
c-10.667 0 -21.667 5.66699 -33 17l-4 5c-8.66699 5.33301 -16 11 -22 17c-3.33301 -8.66699 -9.83301 -17.334 -19.5 -26.001s-18.834 -13 -27.501 -13h-233c-10.667 0 -21.667 5.66699 -33 17l-5 5h1c-9.33301 4.66699 -17.666 11.834 -24.999 21.501s-11 18.5 -11 26.5
v117l-90 -187h-180l-17 17h-8l111 234h-232c-10.667 0 -21.667 5.66699 -33 17l-5 5h1c-9.33301 4.66699 -17.666 11.834 -24.999 21.501s-11 18.5 -11 26.5v170c0 4.66699 1.83301 10.167 5.5 16.5s8.16699 12.166 13.5 17.499s11 9.83301 17 13.5s11.667 5.5 17 5.5h232
c8.66699 0 17.5 -3.83301 26.5 -11.5s15.833 -16.167 20.5 -25.5c1.33301 0 2 -1.33301 2 -4zM235.001 2h156l241 499h-157zM1173 41v170.004c0 8 -4.5 16.5 -13.5 25.5s-17.5 13.5 -25.5 13.5h-233c-4 0 -8.16699 -1.33301 -12.5 -4s-8.33301 -5.83398 -12 -9.50098
s-6.83398 -7.83398 -9.50098 -12.501s-4 -9 -4 -13v-170c0 -4 1.33301 -8.33301 4 -13s5.83398 -8.83398 9.50098 -12.501s7.66699 -6.83398 12 -9.50098s8.5 -4 12.5 -4h233c8 0 16.5 4.5 25.5 13.5s13.5 17.5 13.5 25.5zM344.001 292.004v170c0 8 -4.5 16.5 -13.5 25.5
s-17.5 13.5 -25.5 13.5h-232c-8 0 -16.5 -4.5 -25.5 -13.5s-13.5 -17.5 -13.5 -25.5v-170c0 -8 4.5 -16.5 13.5 -25.5s17.5 -13.5 25.5 -13.5h232c8 0 16.5 4.5 25.5 13.5s13.5 17.5 13.5 25.5zM834.001 41.0039v170c0 8 -4.5 16.5 -13.5 25.5s-17.5 13.5 -25.5 13.5h-233
c-8 0 -16.5 -4.5 -25.5 -13.5s-13.5 -17.5 -13.5 -25.5v-170c0 -8 4.5 -16.5 13.5 -25.5s17.5 -13.5 25.5 -13.5h233c8 0 16.5 4.5 25.5 13.5s13.5 17.5 13.5 25.5zM1080 161.004v-70h-125v70h125zM741.001 161.004v-70h-125v70h125zM252.001 412.004v-70h-125v70h125z
M647.001 131.004v-26h80v26h-80zM986.001 131.004v-26h80v26h-80zM158.001 382.004v-26h80v26h-80z" />
    <glyph glyph-name="FL2039h" unicode="&#x2039;" horiz-adv-x="226" 
d="M20 134v233l158 74v-8l17 -17v-156l-50 -22l33 -15v-5l17 -17v-156l-153 71l-13 12h1zM34 357v-215l130 -61v132l-79 39l79 35v132z" />
    <glyph glyph-name="FL203Ah" unicode="&#x203a;" horiz-adv-x="226" 
d="M34 213l79 39l-79 35v132l130 -62v-215l-130 -61v132zM178 362v5l-158 74v-163l10 -4h-1l13 -13l30 -14l-52 -24v-163l5 2l18 -17l152 70v230z" />
    <glyph glyph-name="FL20ACh" unicode="&#x20ac;" horiz-adv-x="742" 
d="M20 351l96.9971 0.00195312v70c0 10.667 2.83301 21.667 8.5 33s13 21.5 22 30.5s18.833 16.333 29.5 22s21.334 8.5 32.001 8.5h485v-6l17 -17v-152h-162l12 -12v-90h-13l13 -13v-79h133v-6l17 -16v-153h-482c-11.333 0 -22.166 2.5 -32.499 7.5
s-19.5 11.833 -27.5 20.5l-4 3c-13.333 9.33301 -24.666 21.166 -33.999 35.499s-14 29.166 -14 44.499v54h-74l-17 16h-6v96h13l-7 7h-6v96zM130.997 337.002h-97v-68h97v-35h-97v-68h97v-84c0 -10 2.33301 -19.833 7 -29.5s10.667 -18.167 18 -25.5
s15.666 -13.333 24.999 -18s18.666 -7 27.999 -7h471v131h-408v33h258v68h-258v35h258v68h-258v34h408v130h-471c-9.33301 0 -18.666 -2.33301 -27.999 -7s-17.666 -10.667 -24.999 -18s-13.333 -15.833 -18 -25.5s-7 -19.5 -7 -29.5v-84z" />
    <glyph glyph-name="FL2122h" unicode="&#x2122;" horiz-adv-x="1029" 
d="M977 348c0 -9.33301 -1.33301 -16.832 -4 -22.499s-6.66699 -10.834 -12 -15.501c9.33301 -6.66699 17 -12.667 23 -18s10.333 -10.666 13 -15.999v1l9 -8c6.66699 -6.66699 10 -13 10 -19l-16 -43h-48l30 -43h-1c2.66699 -3.33301 4 -7 4 -11v-7
c0 -21.333 -10.333 -35 -31 -41l-55 11l-6 -74c-6 -17.333 -17.667 -26 -35 -26c-11.333 0 -21.666 2 -30.999 6s-20.333 10.333 -33 19l-58 -75l-42 -11l-18 18l-3 -1l-22 23l-112 -67l-34 12l-14 14h1l-9 3v18l-130 -25l-28 20l-9 9l-14 10l2 15l-138 15l-17 16h1l-7 1v43
l-52 12c-8 0 -14 2.33301 -18 7l-11 11h1c-15.333 4 -23 19 -23 45l26 24l-34 19l-11 11h1l-12 6l-11 56l64 11l-29 41l7 63l76 -9c2 68 15.667 102 41 102h6l62 -25c14.667 22 28.667 40.167 42 54.5s27.666 25.166 42.999 32.499l57 -46l117 69l39 -34l-1 -3l11 -12
l103 23l60 -8l-1 -6l18 -17l-3 -21h125l20 -21v-2l17 -19c0 -12.667 -1.33301 -22.667 -4 -30l91 -26v-5l17 -17v-17zM952 179.001l-40.001 59.001h60l13 32c0 13.333 -29.333 32.333 -88 57c32.667 4 49 17.667 49 41v8l-128 39v2c16 2.66699 24 16 24 40l-13 15h-152l5 44
l-43 7l-130 -29l-6 7l6 22l-26 21l-117 -66l-58 44c-11.333 -5.33301 -22.666 -15 -33.999 -29s-24.333 -33 -39 -57l-73 29h-4c-18 0 -27 -34.667 -27 -104l-77 9l-6 -43l39 -55l-71 -13l7 -36l72 -38l-41 -38c0 -16.667 6.33301 -25 19 -25l104 -21l-20 -26v-26l166 -17
l-6 -36l19 -14l161 30v-45l18 -7l124 73l40 -46l31 9h-1l63 82c15.333 -10 27.833 -17.667 37.5 -23s19.167 -8 28.5 -8c12.667 0 20.667 5 24 15l7 87l65 -13c13.333 4 20 13.667 20 29v7c0 3.33301 -0.666992 5.66602 -2 6.99902zM958.999 274.002l7 -14.999l-80 -7
c34 -44 51 -73.667 51 -89c-0.666992 -0.666992 -1 -1.33398 -1 -2.00098v-2c0 -0.666992 -0.333008 -1.66699 -1 -3l-85 15l-6 -105l-82 32l-65 -89l-59 43l-129 -73l6 31l-20 29l-162 -37l19 51l-180 8l53 42l-155 40l71 37l-110 66l84 8l-43 63l-6 32l83 -7l12 104
c28 -22 49.667 -33 65 -33c2 0.666992 3.66699 1.16699 5 1.5l10 2.5h-1l69 87l52 -45l118 66l12 -7l6 -44l168 29l-13 -51h175l-53 -45l147 -35l8 -18h-9l-61 -20zM582.999 335.003l-0.999023 -7l18 -17l-1 -13c2.66699 5.33301 5.33398 10 8.00098 14
s5.33398 8.33301 8.00098 13c8.66699 6 18 9 28 9c14 0 26.333 -9.33301 37 -28v42l20 -27l5 -4l42 -54l4 72l43 -15v-5l4 -4l1 24l46 -13l-4 4l-19 12l55 17l-106 26l-15 15h1l-12 4l23 21h-110l-17 17h-7l5 26l-132 -23l-17 17l-6 -1l-4 25l-101 -56l-19 16h-1l-30 25
l-63 -80c-4 -1.33301 -6.66699 -2 -8 -2c-2 0 -3.33301 -0.333008 -4 -1l-6 -2c-16.667 0 -36.334 7.66699 -59.001 23l-9 -84l40 8l-1 -7l18 -17v-3c17.333 14.667 43 25 77 31v-7l16 -17c1.33301 1.33301 2.66602 2.33301 3.99902 3s2.66602 1.66699 3.99902 3
c1.33301 0.666992 2.5 1.5 3.5 2.5s2.16699 1.83301 3.5 2.5v5h19c20 0 35.667 -6.66699 47 -20v40l19 -26l6 -5l42 -55l4 71l45 -13v-5l5 -6l2 19zM510 40.0029l10.0029 -9l14 -21l106 59l53 -41l63 87l75 -31l2 41l-3 -3l-18 18l-2 -2l-15 16
c-13.333 0.666992 -25.333 8 -36 22c-6.66699 2.66699 -11.334 6 -14.001 10c-0.666992 0 -1.16699 0.166992 -1.5 0.5l-0.5 0.5v-33l-38 -1v-3l-34 13l-13 13h1l-10 4l-2 5c-2 -2.66699 -4.33301 -6 -7 -10s-5.33398 -9.33301 -8.00098 -16h-42l-3 3l-43 -13l-5 5l-4 -4
c-14 0 -29.667 7.66699 -47 23l-1 1c-4.66699 2 -9 5 -13 9v-30l-40 -10l-18 16l-4 -1c-6 -4 -13.333 -6.66699 -22 -8c-6 -2 -13 -3 -21 -3c-9.33301 0 -17 1.16699 -23 3.5s-11.333 5.5 -16 9.5l-7 6c-0.666992 0.666992 -1.33398 1 -2.00098 1
s-1.33398 0.333008 -2.00098 1h1l-5 2l3 -25c-2 -0.666992 -5.16699 -1.5 -9.5 -2.5s-7.16602 -1.83301 -8.49902 -2.5c-6 -2 -11.333 -3 -16 -3c-14 0 -24.333 4.33301 -31 13l-8 7h1c-5.33301 0.666992 -10 3 -14 7v-6l-48 -16l-13 11l-28 -15l114 -28l-5 -4l17 -18
l-21 -17l123 -5l-2 -6l18 -17l-6 -16l120 27zM411.003 269.003c-6 28 -21.667 42 -47 42h-5c0 -0.666992 -1.66699 -1 -5 -1c-29.333 -20 -44 -57.333 -44 -112c4.66699 -14 17.667 -21 39 -21c6 0 12 1 18 3c22 0 36.667 29.667 44 89zM633.003 220.003
c12 0 21.333 -10.333 28 -31l13 -5v97c-8 26 -18.333 39 -31 39c-6.66699 0 -11.334 -1 -14.001 -3c-27.333 -48 -43 -90.333 -47 -127h22c8.66699 20 18.334 30 29.001 30zM443.003 245.003c27.333 -43.333 50.667 -65 70 -65v126l-18 5l-4 -91l-66 83v-127l18 4v65z
M712.004 251.003c28.667 -44 51.333 -66.333 68 -67v126l-17 6l-4 -91l-65 81v-123l18 1v67zM155.003 224.003l-50 -6l58 -33l11 125l-75 7l4 -17v1zM287.003 289.003h5.99902c-0.666992 0 1 -0.666992 5 -2v-1h1l1 30c-52.667 -10 -79 -35.333 -79 -76v-17
c8 -37.333 22.333 -56 43 -56c2.66699 0 7 1 13 3l9 3l-2 19c-4 -1.33301 -10.667 -2 -20 -2c-16.667 0 -25 9 -25 27s5.33301 35.667 16 53c10.667 12.667 21.334 19 32.001 19zM391.002 251.003c0 -14.667 -3 -28 -9 -40
c-1.33301 -0.666992 -2.16602 -1.16699 -2.49902 -1.5l-0.5 -0.5c0.666992 0 -3 -1 -11 -3c-11.333 -4 -17.333 -6 -18 -6c-12.667 0 -19 10.667 -19 32v9c10.667 28 22 42 34 42c9.33301 0 16.666 -5.66699 21.999 -17c2.66699 -2.66699 4 -7.66699 4 -15zM547.002 312.003
l-11 -129l25 8l7 126zM188.002 308.003l-12 -132l25 9l5 127zM856.002 185.003l-7 0.00195312l71 -13c-2 7.33301 -7.66699 17.666 -17 30.999s-22.333 30.666 -39 51.999zM813.002 316.005l-4 -96l17 -3l13 92zM871.002 298.005l-5 -33l62 4l-75 46v-1zM640.002 293.005
l14 -47h-39zM285.002 243.005c-10 -14 -15.332 -27.001 -15.999 -39.001c6 0.666992 15 4.33398 27 11.001c0.666992 8.66699 1.66699 16.5 3 23.5s2.66602 13.5 3.99902 19.5c-5.33301 -2 -11.333 -7 -18 -15zM799.003 171.004l12 -13l17 17l-16 6zM362.003 220.004
l0.000976562 -1.99902c2 2 4 3 6 3h2c1.33301 4 2.66602 8.16699 3.99902 12.5s2.33301 8.83301 3 13.5c-2.66699 -2.66699 -5.16699 -6.33398 -7.5 -11.001s-4.83301 -10 -7.5 -16zM830.004 188.005l7 -3v2z" />
    <glyph glyph-name=".null" horiz-adv-x="0" 
 />
    <glyph glyph-name="nonmarkingreturn" horiz-adv-x="500" 
 />
    </font>
</defs>
</svg>
